  0
SECTION
  2
HEADER
  9
$ACADVER
  1
AC1009
  9
$FILLMODE
 70
 0
  9
$SPLFRAME
 70
 1
  9
$EXTMIN
 10
0
 20
0
 30
0.0
  9
$EXTMAX
 10
1058.33
 20
1058.33
 30
0.0
  0
ENDSEC
  0
SECTION
  2
TABLES
  0
TABLE
  2
LAYER
 70
1
  0
LAYER
  2
0
 70
     0
 62
     7
  6
CONTINUOUS
  0
ENDTAB
  0
ENDSEC
  0
SECTION
  2
ENTITIES
  0
LINE
  8
0
 62
     0
 10
0.0372071
 20
123.788
 30
0.0
 11
347.701
 21
123.788
 31
0.0
  0
LINE
  8
0
 62
     0
 10
347.701
 20
123.788
 30
0.0
 11
347.701
 21
0.341753
 31
0.0
  0
LINE
  8
0
 62
     0
 10
347.701
 20
0.341753
 30
0.0
 11
0.0372071
 21
0.341753
 31
0.0
  0
LINE
  8
0
 62
     0
 10
0.0372071
 20
0.341753
 30
0.0
 11
0.0372071
 21
123.788
 31
0.0
  0
LINE
  8
0
 62
     0
 10
124.004
 20
16.8686
 30
0.0
 11
124.004
 21
12.1681
 31
0.0
  0
LINE
  8
0
 62
     0
 10
124.004
 20
12.1681
 30
0.0
 11
84.3813
 21
12.1681
 31
0.0
  0
LINE
  8
0
 62
     0
 10
84.3813
 20
12.1681
 30
0.0
 11
84.3813
 21
15.3982
 31
0.0
  0
LINE
  8
0
 62
     0
 10
84.3813
 20
15.3982
 30
0.0
 11
82.6562
 21
15.3982
 31
0.0
  0
LINE
  8
0
 62
     0
 10
82.6562
 20
15.3982
 30
0.0
 11
82.6562
 21
16.3187
 31
0.0
  0
LINE
  8
0
 62
     0
 10
82.6562
 20
16.3187
 30
0.0
 11
79.3556
 21
16.3187
 31
0.0
  0
LINE
  8
0
 62
     0
 10
79.3556
 20
16.3187
 30
0.0
 11
79.3556
 21
15.3982
 31
0.0
  0
LINE
  8
0
 62
     0
 10
79.3556
 20
15.3982
 30
0.0
 11
77.6305
 21
15.3982
 31
0.0
  0
LINE
  8
0
 62
     0
 10
77.6305
 20
15.3982
 30
0.0
 11
77.6305
 21
12.1681
 31
0.0
  0
LINE
  8
0
 62
     0
 10
77.6305
 20
12.1681
 30
0.0
 11
76.8064
 21
12.1681
 31
0.0
  0
LINE
  8
0
 62
     0
 10
76.8064
 20
12.1681
 30
0.0
 11
76.8064
 21
9.36791
 31
0.0
  0
LINE
  8
0
 62
     0
 10
76.8064
 20
9.36791
 30
0.0
 11
77.6305
 21
9.36791
 31
0.0
  0
LINE
  8
0
 62
     0
 10
77.6305
 20
9.36791
 30
0.0
 11
77.6305
 21
3.09783
 31
0.0
  0
LINE
  8
0
 62
     0
 10
77.6305
 20
3.09783
 30
0.0
 11
79.3556
 21
3.09783
 31
0.0
  0
LINE
  8
0
 62
     0
 10
79.3556
 20
3.09783
 30
0.0
 11
79.3556
 21
2.11805
 31
0.0
  0
LINE
  8
0
 62
     0
 10
79.3556
 20
2.11805
 30
0.0
 11
82.6562
 21
2.11805
 31
0.0
  0
LINE
  8
0
 62
     0
 10
82.6562
 20
2.11805
 30
0.0
 11
82.6562
 21
3.09783
 31
0.0
  0
LINE
  8
0
 62
     0
 10
82.6562
 20
3.09783
 30
0.0
 11
84.3813
 21
3.09783
 31
0.0
  0
LINE
  8
0
 62
     0
 10
84.3813
 20
3.09783
 30
0.0
 11
84.3813
 21
7.56818
 31
0.0
  0
LINE
  8
0
 62
     0
 10
84.3813
 20
7.56818
 30
0.0
 11
124.004
 21
7.56818
 31
0.0
  0
LINE
  8
0
 62
     0
 10
124.004
 20
7.56818
 30
0.0
 11
124.004
 21
2.8677
 31
0.0
  0
LINE
  8
0
 62
     0
 10
124.004
 20
2.8677
 30
0.0
 11
138.006
 21
2.8677
 31
0.0
  0
LINE
  8
0
 62
     0
 10
138.006
 20
2.8677
 30
0.0
 11
138.006
 21
7.56818
 31
0.0
  0
LINE
  8
0
 62
     0
 10
138.006
 20
7.56818
 30
0.0
 11
177.631
 21
7.56818
 31
0.0
  0
LINE
  8
0
 62
     0
 10
177.631
 20
7.56818
 30
0.0
 11
177.631
 21
3.09783
 31
0.0
  0
LINE
  8
0
 62
     0
 10
177.631
 20
3.09783
 30
0.0
 11
179.356
 21
3.09783
 31
0.0
  0
LINE
  8
0
 62
     0
 10
179.356
 20
3.09783
 30
0.0
 11
179.356
 21
2.11805
 31
0.0
  0
LINE
  8
0
 62
     0
 10
179.356
 20
2.11805
 30
0.0
 11
182.656
 21
2.11805
 31
0.0
  0
LINE
  8
0
 62
     0
 10
182.656
 20
2.11805
 30
0.0
 11
182.656
 21
3.09783
 31
0.0
  0
LINE
  8
0
 62
     0
 10
182.656
 20
3.09783
 30
0.0
 11
184.38
 21
3.09783
 31
0.0
  0
LINE
  8
0
 62
     0
 10
184.38
 20
3.09783
 30
0.0
 11
184.38
 21
9.36791
 31
0.0
  0
LINE
  8
0
 62
     0
 10
184.38
 20
9.36791
 30
0.0
 11
185.206
 21
9.36791
 31
0.0
  0
LINE
  8
0
 62
     0
 10
185.206
 20
9.36791
 30
0.0
 11
185.206
 21
12.1681
 31
0.0
  0
LINE
  8
0
 62
     0
 10
185.206
 20
12.1681
 30
0.0
 11
184.38
 21
12.1681
 31
0.0
  0
LINE
  8
0
 62
     0
 10
184.38
 20
12.1681
 30
0.0
 11
184.38
 21
15.3982
 31
0.0
  0
LINE
  8
0
 62
     0
 10
184.38
 20
15.3982
 30
0.0
 11
182.656
 21
15.3982
 31
0.0
  0
LINE
  8
0
 62
     0
 10
182.656
 20
15.3982
 30
0.0
 11
182.656
 21
16.3187
 31
0.0
  0
LINE
  8
0
 62
     0
 10
182.656
 20
16.3187
 30
0.0
 11
179.356
 21
16.3187
 31
0.0
  0
LINE
  8
0
 62
     0
 10
179.356
 20
16.3187
 30
0.0
 11
179.356
 21
15.3982
 31
0.0
  0
LINE
  8
0
 62
     0
 10
179.356
 20
15.3982
 30
0.0
 11
177.631
 21
15.3982
 31
0.0
  0
LINE
  8
0
 62
     0
 10
177.631
 20
15.3982
 30
0.0
 11
177.631
 21
12.1681
 31
0.0
  0
LINE
  8
0
 62
     0
 10
177.631
 20
12.1681
 30
0.0
 11
138.006
 21
12.1681
 31
0.0
  0
LINE
  8
0
 62
     0
 10
138.006
 20
12.1681
 30
0.0
 11
138.006
 21
16.8686
 31
0.0
  0
LINE
  8
0
 62
     0
 10
138.006
 20
16.8686
 30
0.0
 11
124.004
 21
16.8686
 31
0.0
  0
LINE
  8
0
 62
     0
 10
4.94439
 20
16.8686
 30
0.0
 11
18.9439
 21
16.8686
 31
0.0
  0
LINE
  8
0
 62
     0
 10
18.9439
 20
16.8686
 30
0.0
 11
18.9439
 21
2.8677
 31
0.0
  0
LINE
  8
0
 62
     0
 10
18.9439
 20
2.8677
 30
0.0
 11
4.94439
 21
2.8677
 31
0.0
  0
LINE
  8
0
 62
     0
 10
4.94439
 20
2.8677
 30
0.0
 11
4.94439
 21
16.8686
 31
0.0
  0
LINE
  8
0
 62
     0
 10
28.7555
 20
16.8686
 30
0.0
 11
42.7563
 21
16.8686
 31
0.0
  0
LINE
  8
0
 62
     0
 10
42.7563
 20
16.8686
 30
0.0
 11
42.7563
 21
2.8677
 31
0.0
  0
LINE
  8
0
 62
     0
 10
42.7563
 20
2.8677
 30
0.0
 11
28.7555
 21
2.8677
 31
0.0
  0
LINE
  8
0
 62
     0
 10
28.7555
 20
2.8677
 30
0.0
 11
28.7555
 21
16.8686
 31
0.0
  0
LINE
  8
0
 62
     0
 10
52.5695
 20
16.8686
 30
0.0
 11
66.5688
 21
16.8686
 31
0.0
  0
LINE
  8
0
 62
     0
 10
66.5688
 20
16.8686
 30
0.0
 11
66.5688
 21
2.8677
 31
0.0
  0
LINE
  8
0
 62
     0
 10
66.5688
 20
2.8677
 30
0.0
 11
52.5695
 21
2.8677
 31
0.0
  0
LINE
  8
0
 62
     0
 10
52.5695
 20
2.8677
 30
0.0
 11
52.5695
 21
16.8686
 31
0.0
  0
LINE
  8
0
 62
     0
 10
195.445
 20
16.8686
 30
0.0
 11
209.444
 21
16.8686
 31
0.0
  0
LINE
  8
0
 62
     0
 10
209.444
 20
16.8686
 30
0.0
 11
209.444
 21
2.8677
 31
0.0
  0
LINE
  8
0
 62
     0
 10
209.444
 20
2.8677
 30
0.0
 11
195.445
 21
2.8677
 31
0.0
  0
LINE
  8
0
 62
     0
 10
195.445
 20
2.8677
 30
0.0
 11
195.445
 21
16.8686
 31
0.0
  0
LINE
  8
0
 62
     0
 10
219.256
 20
16.8686
 30
0.0
 11
233.256
 21
16.8686
 31
0.0
  0
LINE
  8
0
 62
     0
 10
233.256
 20
16.8686
 30
0.0
 11
233.256
 21
2.8677
 31
0.0
  0
LINE
  8
0
 62
     0
 10
233.256
 20
2.8677
 30
0.0
 11
219.256
 21
2.8677
 31
0.0
  0
LINE
  8
0
 62
     0
 10
219.256
 20
2.8677
 30
0.0
 11
219.256
 21
16.8686
 31
0.0
  0
LINE
  8
0
 62
     0
 10
243.07
 20
16.8686
 30
0.0
 11
257.069
 21
16.8686
 31
0.0
  0
LINE
  8
0
 62
     0
 10
257.069
 20
16.8686
 30
0.0
 11
257.069
 21
2.8677
 31
0.0
  0
LINE
  8
0
 62
     0
 10
257.069
 20
2.8677
 30
0.0
 11
243.07
 21
2.8677
 31
0.0
  0
LINE
  8
0
 62
     0
 10
243.07
 20
2.8677
 30
0.0
 11
243.07
 21
16.8686
 31
0.0
  0
LINE
  8
0
 62
     0
 10
266.881
 20
16.8686
 30
0.0
 11
280.881
 21
16.8686
 31
0.0
  0
LINE
  8
0
 62
     0
 10
280.881
 20
16.8686
 30
0.0
 11
280.881
 21
2.8677
 31
0.0
  0
LINE
  8
0
 62
     0
 10
280.881
 20
2.8677
 30
0.0
 11
266.881
 21
2.8677
 31
0.0
  0
LINE
  8
0
 62
     0
 10
266.881
 20
2.8677
 30
0.0
 11
266.881
 21
16.8686
 31
0.0
  0
LINE
  8
0
 62
     0
 10
293.074
 20
16.8686
 30
0.0
 11
307.075
 21
16.8686
 31
0.0
  0
LINE
  8
0
 62
     0
 10
307.075
 20
16.8686
 30
0.0
 11
307.075
 21
2.8677
 31
0.0
  0
LINE
  8
0
 62
     0
 10
307.075
 20
2.8677
 30
0.0
 11
293.074
 21
2.8677
 31
0.0
  0
LINE
  8
0
 62
     0
 10
293.074
 20
2.8677
 30
0.0
 11
293.074
 21
16.8686
 31
0.0
  0
LINE
  8
0
 62
     0
 10
312.124
 20
16.8686
 30
0.0
 11
326.125
 21
16.8686
 31
0.0
  0
LINE
  8
0
 62
     0
 10
326.125
 20
16.8686
 30
0.0
 11
326.125
 21
2.8677
 31
0.0
  0
LINE
  8
0
 62
     0
 10
326.125
 20
2.8677
 30
0.0
 11
312.124
 21
2.8677
 31
0.0
  0
LINE
  8
0
 62
     0
 10
312.124
 20
2.8677
 30
0.0
 11
312.124
 21
16.8686
 31
0.0
  0
LINE
  8
0
 62
     0
 10
331.174
 20
16.8686
 30
0.0
 11
345.175
 21
16.8686
 31
0.0
  0
LINE
  8
0
 62
     0
 10
345.175
 20
16.8686
 30
0.0
 11
345.175
 21
2.8677
 31
0.0
  0
LINE
  8
0
 62
     0
 10
345.175
 20
2.8677
 30
0.0
 11
331.174
 21
2.8677
 31
0.0
  0
LINE
  8
0
 62
     0
 10
331.174
 20
2.8677
 30
0.0
 11
331.174
 21
16.8686
 31
0.0
  0
LINE
  8
0
 62
     0
 10
14.4694
 20
35.9184
 30
0.0
 11
14.4694
 21
31.2181
 31
0.0
  0
LINE
  8
0
 62
     0
 10
14.4694
 20
31.2181
 30
0.0
 11
12.9439
 21
31.2181
 31
0.0
  0
LINE
  8
0
 62
     0
 10
12.9439
 20
31.2181
 30
0.0
 11
12.9439
 21
34.4482
 31
0.0
  0
LINE
  8
0
 62
     0
 10
12.9439
 20
34.4482
 30
0.0
 11
11.2186
 21
34.4482
 31
0.0
  0
LINE
  8
0
 62
     0
 10
11.2186
 20
34.4482
 30
0.0
 11
11.2186
 21
35.3688
 31
0.0
  0
LINE
  8
0
 62
     0
 10
11.2186
 20
35.3688
 30
0.0
 11
7.9182
 21
35.3688
 31
0.0
  0
LINE
  8
0
 62
     0
 10
7.9182
 20
35.3688
 30
0.0
 11
7.9182
 21
34.4482
 31
0.0
  0
LINE
  8
0
 62
     0
 10
7.9182
 20
34.4482
 30
0.0
 11
6.19428
 21
34.4482
 31
0.0
  0
LINE
  8
0
 62
     0
 10
6.19428
 20
34.4482
 30
0.0
 11
6.19428
 21
31.2181
 31
0.0
  0
LINE
  8
0
 62
     0
 10
6.19428
 20
31.2181
 30
0.0
 11
5.36885
 21
31.2181
 31
0.0
  0
LINE
  8
0
 62
     0
 10
5.36885
 20
31.2181
 30
0.0
 11
5.36885
 21
28.4179
 31
0.0
  0
LINE
  8
0
 62
     0
 10
5.36885
 20
28.4179
 30
0.0
 11
6.19428
 21
28.4179
 31
0.0
  0
LINE
  8
0
 62
     0
 10
6.19428
 20
28.4179
 30
0.0
 11
6.19428
 21
22.1478
 31
0.0
  0
LINE
  8
0
 62
     0
 10
6.19428
 20
22.1478
 30
0.0
 11
7.9182
 21
22.1478
 31
0.0
  0
LINE
  8
0
 62
     0
 10
7.9182
 20
22.1478
 30
0.0
 11
7.9182
 21
21.168
 31
0.0
  0
LINE
  8
0
 62
     0
 10
7.9182
 20
21.168
 30
0.0
 11
11.2186
 21
21.168
 31
0.0
  0
LINE
  8
0
 62
     0
 10
11.2186
 20
21.168
 30
0.0
 11
11.2186
 21
22.1478
 31
0.0
  0
LINE
  8
0
 62
     0
 10
11.2186
 20
22.1478
 30
0.0
 11
12.9439
 21
22.1478
 31
0.0
  0
LINE
  8
0
 62
     0
 10
12.9439
 20
22.1478
 30
0.0
 11
12.9439
 21
26.6182
 31
0.0
  0
LINE
  8
0
 62
     0
 10
12.9439
 20
26.6182
 30
0.0
 11
14.4694
 21
26.6182
 31
0.0
  0
LINE
  8
0
 62
     0
 10
14.4694
 20
26.6182
 30
0.0
 11
14.4694
 21
21.9177
 31
0.0
  0
LINE
  8
0
 62
     0
 10
14.4694
 20
21.9177
 30
0.0
 11
28.4689
 21
21.9177
 31
0.0
  0
LINE
  8
0
 62
     0
 10
28.4689
 20
21.9177
 30
0.0
 11
28.4689
 21
26.6182
 31
0.0
  0
LINE
  8
0
 62
     0
 10
28.4689
 20
26.6182
 30
0.0
 11
29.9944
 21
26.6182
 31
0.0
  0
LINE
  8
0
 62
     0
 10
29.9944
 20
26.6182
 30
0.0
 11
29.9944
 21
22.1478
 31
0.0
  0
LINE
  8
0
 62
     0
 10
29.9944
 20
22.1478
 30
0.0
 11
31.7183
 21
22.1478
 31
0.0
  0
LINE
  8
0
 62
     0
 10
31.7183
 20
22.1478
 30
0.0
 11
31.7183
 21
21.168
 31
0.0
  0
LINE
  8
0
 62
     0
 10
31.7183
 20
21.168
 30
0.0
 11
35.0187
 21
21.168
 31
0.0
  0
LINE
  8
0
 62
     0
 10
35.0187
 20
21.168
 30
0.0
 11
35.0187
 21
22.1478
 31
0.0
  0
LINE
  8
0
 62
     0
 10
35.0187
 20
22.1478
 30
0.0
 11
36.7439
 21
22.1478
 31
0.0
  0
LINE
  8
0
 62
     0
 10
36.7439
 20
22.1478
 30
0.0
 11
36.7439
 21
28.4179
 31
0.0
  0
LINE
  8
0
 62
     0
 10
36.7439
 20
28.4179
 30
0.0
 11
37.5694
 21
28.4179
 31
0.0
  0
LINE
  8
0
 62
     0
 10
37.5694
 20
28.4179
 30
0.0
 11
37.5694
 21
31.2181
 31
0.0
  0
LINE
  8
0
 62
     0
 10
37.5694
 20
31.2181
 30
0.0
 11
36.7439
 21
31.2181
 31
0.0
  0
LINE
  8
0
 62
     0
 10
36.7439
 20
31.2181
 30
0.0
 11
36.7439
 21
34.4482
 31
0.0
  0
LINE
  8
0
 62
     0
 10
36.7439
 20
34.4482
 30
0.0
 11
35.0187
 21
34.4482
 31
0.0
  0
LINE
  8
0
 62
     0
 10
35.0187
 20
34.4482
 30
0.0
 11
35.0187
 21
35.3688
 31
0.0
  0
LINE
  8
0
 62
     0
 10
35.0187
 20
35.3688
 30
0.0
 11
31.7183
 21
35.3688
 31
0.0
  0
LINE
  8
0
 62
     0
 10
31.7183
 20
35.3688
 30
0.0
 11
31.7183
 21
34.4482
 31
0.0
  0
LINE
  8
0
 62
     0
 10
31.7183
 20
34.4482
 30
0.0
 11
29.9944
 21
34.4482
 31
0.0
  0
LINE
  8
0
 62
     0
 10
29.9944
 20
34.4482
 30
0.0
 11
29.9944
 21
31.2181
 31
0.0
  0
LINE
  8
0
 62
     0
 10
29.9944
 20
31.2181
 30
0.0
 11
28.4689
 21
31.2181
 31
0.0
  0
LINE
  8
0
 62
     0
 10
28.4689
 20
31.2181
 30
0.0
 11
28.4689
 21
35.9184
 31
0.0
  0
LINE
  8
0
 62
     0
 10
28.4689
 20
35.9184
 30
0.0
 11
14.4694
 21
35.9184
 31
0.0
  0
LINE
  8
0
 62
     0
 10
252.593
 20
35.9184
 30
0.0
 11
252.593
 21
31.2181
 31
0.0
  0
LINE
  8
0
 62
     0
 10
252.593
 20
31.2181
 30
0.0
 11
251.069
 21
31.2181
 31
0.0
  0
LINE
  8
0
 62
     0
 10
251.069
 20
31.2181
 30
0.0
 11
251.069
 21
34.4482
 31
0.0
  0
LINE
  8
0
 62
     0
 10
251.069
 20
34.4482
 30
0.0
 11
249.344
 21
34.4482
 31
0.0
  0
LINE
  8
0
 62
     0
 10
249.344
 20
34.4482
 30
0.0
 11
249.344
 21
35.3688
 31
0.0
  0
LINE
  8
0
 62
     0
 10
249.344
 20
35.3688
 30
0.0
 11
246.043
 21
35.3688
 31
0.0
  0
LINE
  8
0
 62
     0
 10
246.043
 20
35.3688
 30
0.0
 11
246.043
 21
34.4482
 31
0.0
  0
LINE
  8
0
 62
     0
 10
246.043
 20
34.4482
 30
0.0
 11
244.319
 21
34.4482
 31
0.0
  0
LINE
  8
0
 62
     0
 10
244.319
 20
34.4482
 30
0.0
 11
244.319
 21
31.2181
 31
0.0
  0
LINE
  8
0
 62
     0
 10
244.319
 20
31.2181
 30
0.0
 11
243.494
 21
31.2181
 31
0.0
  0
LINE
  8
0
 62
     0
 10
243.494
 20
31.2181
 30
0.0
 11
243.494
 21
28.4179
 31
0.0
  0
LINE
  8
0
 62
     0
 10
243.494
 20
28.4179
 30
0.0
 11
244.319
 21
28.4179
 31
0.0
  0
LINE
  8
0
 62
     0
 10
244.319
 20
28.4179
 30
0.0
 11
244.319
 21
22.1478
 31
0.0
  0
LINE
  8
0
 62
     0
 10
244.319
 20
22.1478
 30
0.0
 11
246.043
 21
22.1478
 31
0.0
  0
LINE
  8
0
 62
     0
 10
246.043
 20
22.1478
 30
0.0
 11
246.043
 21
21.168
 31
0.0
  0
LINE
  8
0
 62
     0
 10
246.043
 20
21.168
 30
0.0
 11
249.344
 21
21.168
 31
0.0
  0
LINE
  8
0
 62
     0
 10
249.344
 20
21.168
 30
0.0
 11
249.344
 21
22.1478
 31
0.0
  0
LINE
  8
0
 62
     0
 10
249.344
 20
22.1478
 30
0.0
 11
251.069
 21
22.1478
 31
0.0
  0
LINE
  8
0
 62
     0
 10
251.069
 20
22.1478
 30
0.0
 11
251.069
 21
26.6182
 31
0.0
  0
LINE
  8
0
 62
     0
 10
251.069
 20
26.6182
 30
0.0
 11
252.593
 21
26.6182
 31
0.0
  0
LINE
  8
0
 62
     0
 10
252.593
 20
26.6182
 30
0.0
 11
252.593
 21
21.9177
 31
0.0
  0
LINE
  8
0
 62
     0
 10
252.593
 20
21.9177
 30
0.0
 11
266.594
 21
21.9177
 31
0.0
  0
LINE
  8
0
 62
     0
 10
266.594
 20
21.9177
 30
0.0
 11
266.594
 21
26.6182
 31
0.0
  0
LINE
  8
0
 62
     0
 10
266.594
 20
26.6182
 30
0.0
 11
268.119
 21
26.6182
 31
0.0
  0
LINE
  8
0
 62
     0
 10
268.119
 20
26.6182
 30
0.0
 11
268.119
 21
22.1478
 31
0.0
  0
LINE
  8
0
 62
     0
 10
268.119
 20
22.1478
 30
0.0
 11
269.843
 21
22.1478
 31
0.0
  0
LINE
  8
0
 62
     0
 10
269.843
 20
22.1478
 30
0.0
 11
269.843
 21
21.168
 31
0.0
  0
LINE
  8
0
 62
     0
 10
269.843
 20
21.168
 30
0.0
 11
273.144
 21
21.168
 31
0.0
  0
LINE
  8
0
 62
     0
 10
273.144
 20
21.168
 30
0.0
 11
273.144
 21
22.1478
 31
0.0
  0
LINE
  8
0
 62
     0
 10
273.144
 20
22.1478
 30
0.0
 11
274.869
 21
22.1478
 31
0.0
  0
LINE
  8
0
 62
     0
 10
274.869
 20
22.1478
 30
0.0
 11
274.869
 21
28.4179
 31
0.0
  0
LINE
  8
0
 62
     0
 10
274.869
 20
28.4179
 30
0.0
 11
275.694
 21
28.4179
 31
0.0
  0
LINE
  8
0
 62
     0
 10
275.694
 20
28.4179
 30
0.0
 11
275.694
 21
31.2181
 31
0.0
  0
LINE
  8
0
 62
     0
 10
275.694
 20
31.2181
 30
0.0
 11
274.869
 21
31.2181
 31
0.0
  0
LINE
  8
0
 62
     0
 10
274.869
 20
31.2181
 30
0.0
 11
274.869
 21
34.4482
 31
0.0
  0
LINE
  8
0
 62
     0
 10
274.869
 20
34.4482
 30
0.0
 11
273.144
 21
34.4482
 31
0.0
  0
LINE
  8
0
 62
     0
 10
273.144
 20
34.4482
 30
0.0
 11
273.144
 21
35.3688
 31
0.0
  0
LINE
  8
0
 62
     0
 10
273.144
 20
35.3688
 30
0.0
 11
269.843
 21
35.3688
 31
0.0
  0
LINE
  8
0
 62
     0
 10
269.843
 20
35.3688
 30
0.0
 11
269.843
 21
34.4482
 31
0.0
  0
LINE
  8
0
 62
     0
 10
269.843
 20
34.4482
 30
0.0
 11
268.119
 21
34.4482
 31
0.0
  0
LINE
  8
0
 62
     0
 10
268.119
 20
34.4482
 30
0.0
 11
268.119
 21
31.2181
 31
0.0
  0
LINE
  8
0
 62
     0
 10
268.119
 20
31.2181
 30
0.0
 11
266.594
 21
31.2181
 31
0.0
  0
LINE
  8
0
 62
     0
 10
266.594
 20
31.2181
 30
0.0
 11
266.594
 21
35.9184
 31
0.0
  0
LINE
  8
0
 62
     0
 10
266.594
 20
35.9184
 30
0.0
 11
252.593
 21
35.9184
 31
0.0
  0
LINE
  8
0
 62
     0
 10
45.4244
 20
35.9184
 30
0.0
 11
59.4251
 21
35.9184
 31
0.0
  0
LINE
  8
0
 62
     0
 10
59.4251
 20
35.9184
 30
0.0
 11
59.4251
 21
21.9177
 31
0.0
  0
LINE
  8
0
 62
     0
 10
59.4251
 20
21.9177
 30
0.0
 11
45.4244
 21
21.9177
 31
0.0
  0
LINE
  8
0
 62
     0
 10
45.4244
 20
21.9177
 30
0.0
 11
45.4244
 21
35.9184
 31
0.0
  0
LINE
  8
0
 62
     0
 10
64.4744
 20
35.9184
 30
0.0
 11
78.4751
 21
35.9184
 31
0.0
  0
LINE
  8
0
 62
     0
 10
78.4751
 20
35.9184
 30
0.0
 11
78.4751
 21
21.9177
 31
0.0
  0
LINE
  8
0
 62
     0
 10
78.4751
 20
21.9177
 30
0.0
 11
64.4744
 21
21.9177
 31
0.0
  0
LINE
  8
0
 62
     0
 10
64.4744
 20
21.9177
 30
0.0
 11
64.4744
 21
35.9184
 31
0.0
  0
LINE
  8
0
 62
     0
 10
83.5244
 20
35.9184
 30
0.0
 11
97.5251
 21
35.9184
 31
0.0
  0
LINE
  8
0
 62
     0
 10
97.5251
 20
35.9184
 30
0.0
 11
97.5251
 21
21.9177
 31
0.0
  0
LINE
  8
0
 62
     0
 10
97.5251
 20
21.9177
 30
0.0
 11
83.5244
 21
21.9177
 31
0.0
  0
LINE
  8
0
 62
     0
 10
83.5244
 20
21.9177
 30
0.0
 11
83.5244
 21
35.9184
 31
0.0
  0
LINE
  8
0
 62
     0
 10
102.574
 20
35.9184
 30
0.0
 11
116.575
 21
35.9184
 31
0.0
  0
LINE
  8
0
 62
     0
 10
116.575
 20
35.9184
 30
0.0
 11
116.575
 21
21.9177
 31
0.0
  0
LINE
  8
0
 62
     0
 10
116.575
 20
21.9177
 30
0.0
 11
102.574
 21
21.9177
 31
0.0
  0
LINE
  8
0
 62
     0
 10
102.574
 20
21.9177
 30
0.0
 11
102.574
 21
35.9184
 31
0.0
  0
LINE
  8
0
 62
     0
 10
121.624
 20
35.9184
 30
0.0
 11
135.625
 21
35.9184
 31
0.0
  0
LINE
  8
0
 62
     0
 10
135.625
 20
35.9184
 30
0.0
 11
135.625
 21
21.9177
 31
0.0
  0
LINE
  8
0
 62
     0
 10
135.625
 20
21.9177
 30
0.0
 11
121.624
 21
21.9177
 31
0.0
  0
LINE
  8
0
 62
     0
 10
121.624
 20
21.9177
 30
0.0
 11
121.624
 21
35.9184
 31
0.0
  0
LINE
  8
0
 62
     0
 10
140.674
 20
35.9184
 30
0.0
 11
154.675
 21
35.9184
 31
0.0
  0
LINE
  8
0
 62
     0
 10
154.675
 20
35.9184
 30
0.0
 11
154.675
 21
21.9177
 31
0.0
  0
LINE
  8
0
 62
     0
 10
154.675
 20
21.9177
 30
0.0
 11
140.674
 21
21.9177
 31
0.0
  0
LINE
  8
0
 62
     0
 10
140.674
 20
21.9177
 30
0.0
 11
140.674
 21
35.9184
 31
0.0
  0
LINE
  8
0
 62
     0
 10
159.724
 20
35.9184
 30
0.0
 11
173.725
 21
35.9184
 31
0.0
  0
LINE
  8
0
 62
     0
 10
173.725
 20
35.9184
 30
0.0
 11
173.725
 21
21.9177
 31
0.0
  0
LINE
  8
0
 62
     0
 10
173.725
 20
21.9177
 30
0.0
 11
159.724
 21
21.9177
 31
0.0
  0
LINE
  8
0
 62
     0
 10
159.724
 20
21.9177
 30
0.0
 11
159.724
 21
35.9184
 31
0.0
  0
LINE
  8
0
 62
     0
 10
178.774
 20
35.9184
 30
0.0
 11
192.775
 21
35.9184
 31
0.0
  0
LINE
  8
0
 62
     0
 10
192.775
 20
35.9184
 30
0.0
 11
192.775
 21
21.9177
 31
0.0
  0
LINE
  8
0
 62
     0
 10
192.775
 20
21.9177
 30
0.0
 11
178.774
 21
21.9177
 31
0.0
  0
LINE
  8
0
 62
     0
 10
178.774
 20
21.9177
 30
0.0
 11
178.774
 21
35.9184
 31
0.0
  0
LINE
  8
0
 62
     0
 10
197.824
 20
35.9184
 30
0.0
 11
211.825
 21
35.9184
 31
0.0
  0
LINE
  8
0
 62
     0
 10
211.825
 20
35.9184
 30
0.0
 11
211.825
 21
21.9177
 31
0.0
  0
LINE
  8
0
 62
     0
 10
211.825
 20
21.9177
 30
0.0
 11
197.824
 21
21.9177
 31
0.0
  0
LINE
  8
0
 62
     0
 10
197.824
 20
21.9177
 30
0.0
 11
197.824
 21
35.9184
 31
0.0
  0
LINE
  8
0
 62
     0
 10
216.874
 20
35.9184
 30
0.0
 11
230.875
 21
35.9184
 31
0.0
  0
LINE
  8
0
 62
     0
 10
230.875
 20
35.9184
 30
0.0
 11
230.875
 21
21.9177
 31
0.0
  0
LINE
  8
0
 62
     0
 10
230.875
 20
21.9177
 30
0.0
 11
216.874
 21
21.9177
 31
0.0
  0
LINE
  8
0
 62
     0
 10
216.874
 20
21.9177
 30
0.0
 11
216.874
 21
35.9184
 31
0.0
  0
LINE
  8
0
 62
     0
 10
312.124
 20
35.9184
 30
0.0
 11
326.125
 21
35.9184
 31
0.0
  0
LINE
  8
0
 62
     0
 10
326.125
 20
35.9184
 30
0.0
 11
326.125
 21
21.9177
 31
0.0
  0
LINE
  8
0
 62
     0
 10
326.125
 20
21.9177
 30
0.0
 11
312.124
 21
21.9177
 31
0.0
  0
LINE
  8
0
 62
     0
 10
312.124
 20
21.9177
 30
0.0
 11
312.124
 21
35.9184
 31
0.0
  0
LINE
  8
0
 62
     0
 10
257.356
 20
54.9684
 30
0.0
 11
257.356
 21
50.268
 31
0.0
  0
LINE
  8
0
 62
     0
 10
257.356
 20
50.268
 30
0.0
 11
255.831
 21
50.268
 31
0.0
  0
LINE
  8
0
 62
     0
 10
255.831
 20
50.268
 30
0.0
 11
255.831
 21
53.498
 31
0.0
  0
LINE
  8
0
 62
     0
 10
255.831
 20
53.498
 30
0.0
 11
254.105
 21
53.498
 31
0.0
  0
LINE
  8
0
 62
     0
 10
254.105
 20
53.498
 30
0.0
 11
254.105
 21
54.4188
 31
0.0
  0
LINE
  8
0
 62
     0
 10
254.105
 20
54.4188
 30
0.0
 11
250.806
 21
54.4188
 31
0.0
  0
LINE
  8
0
 62
     0
 10
250.806
 20
54.4188
 30
0.0
 11
250.806
 21
53.498
 31
0.0
  0
LINE
  8
0
 62
     0
 10
250.806
 20
53.498
 30
0.0
 11
249.081
 21
53.498
 31
0.0
  0
LINE
  8
0
 62
     0
 10
249.081
 20
53.498
 30
0.0
 11
249.081
 21
50.268
 31
0.0
  0
LINE
  8
0
 62
     0
 10
249.081
 20
50.268
 30
0.0
 11
248.256
 21
50.268
 31
0.0
  0
LINE
  8
0
 62
     0
 10
248.256
 20
50.268
 30
0.0
 11
248.256
 21
47.468
 31
0.0
  0
LINE
  8
0
 62
     0
 10
248.256
 20
47.468
 30
0.0
 11
249.081
 21
47.468
 31
0.0
  0
LINE
  8
0
 62
     0
 10
249.081
 20
47.468
 30
0.0
 11
249.081
 21
41.1977
 31
0.0
  0
LINE
  8
0
 62
     0
 10
249.081
 20
41.1977
 30
0.0
 11
250.806
 21
41.1977
 31
0.0
  0
LINE
  8
0
 62
     0
 10
250.806
 20
41.1977
 30
0.0
 11
250.806
 21
40.2181
 31
0.0
  0
LINE
  8
0
 62
     0
 10
250.806
 20
40.2181
 30
0.0
 11
254.105
 21
40.2181
 31
0.0
  0
LINE
  8
0
 62
     0
 10
254.105
 20
40.2181
 30
0.0
 11
254.105
 21
41.1977
 31
0.0
  0
LINE
  8
0
 62
     0
 10
254.105
 20
41.1977
 30
0.0
 11
255.831
 21
41.1977
 31
0.0
  0
LINE
  8
0
 62
     0
 10
255.831
 20
41.1977
 30
0.0
 11
255.831
 21
45.6681
 31
0.0
  0
LINE
  8
0
 62
     0
 10
255.831
 20
45.6681
 30
0.0
 11
257.356
 21
45.6681
 31
0.0
  0
LINE
  8
0
 62
     0
 10
257.356
 20
45.6681
 30
0.0
 11
257.356
 21
40.9677
 31
0.0
  0
LINE
  8
0
 62
     0
 10
257.356
 20
40.9677
 30
0.0
 11
271.356
 21
40.9677
 31
0.0
  0
LINE
  8
0
 62
     0
 10
271.356
 20
40.9677
 30
0.0
 11
271.356
 21
45.6681
 31
0.0
  0
LINE
  8
0
 62
     0
 10
271.356
 20
45.6681
 30
0.0
 11
272.881
 21
45.6681
 31
0.0
  0
LINE
  8
0
 62
     0
 10
272.881
 20
45.6681
 30
0.0
 11
272.881
 21
41.1977
 31
0.0
  0
LINE
  8
0
 62
     0
 10
272.881
 20
41.1977
 30
0.0
 11
274.606
 21
41.1977
 31
0.0
  0
LINE
  8
0
 62
     0
 10
274.606
 20
41.1977
 30
0.0
 11
274.606
 21
40.2181
 31
0.0
  0
LINE
  8
0
 62
     0
 10
274.606
 20
40.2181
 30
0.0
 11
277.906
 21
40.2181
 31
0.0
  0
LINE
  8
0
 62
     0
 10
277.906
 20
40.2181
 30
0.0
 11
277.906
 21
41.1977
 31
0.0
  0
LINE
  8
0
 62
     0
 10
277.906
 20
41.1977
 30
0.0
 11
279.63
 21
41.1977
 31
0.0
  0
LINE
  8
0
 62
     0
 10
279.63
 20
41.1977
 30
0.0
 11
279.63
 21
47.468
 31
0.0
  0
LINE
  8
0
 62
     0
 10
279.63
 20
47.468
 30
0.0
 11
280.456
 21
47.468
 31
0.0
  0
LINE
  8
0
 62
     0
 10
280.456
 20
47.468
 30
0.0
 11
280.456
 21
50.268
 31
0.0
  0
LINE
  8
0
 62
     0
 10
280.456
 20
50.268
 30
0.0
 11
279.63
 21
50.268
 31
0.0
  0
LINE
  8
0
 62
     0
 10
279.63
 20
50.268
 30
0.0
 11
279.63
 21
53.498
 31
0.0
  0
LINE
  8
0
 62
     0
 10
279.63
 20
53.498
 30
0.0
 11
277.906
 21
53.498
 31
0.0
  0
LINE
  8
0
 62
     0
 10
277.906
 20
53.498
 30
0.0
 11
277.906
 21
54.4188
 31
0.0
  0
LINE
  8
0
 62
     0
 10
277.906
 20
54.4188
 30
0.0
 11
274.606
 21
54.4188
 31
0.0
  0
LINE
  8
0
 62
     0
 10
274.606
 20
54.4188
 30
0.0
 11
274.606
 21
53.498
 31
0.0
  0
LINE
  8
0
 62
     0
 10
274.606
 20
53.498
 30
0.0
 11
272.881
 21
53.498
 31
0.0
  0
LINE
  8
0
 62
     0
 10
272.881
 20
53.498
 30
0.0
 11
272.881
 21
50.268
 31
0.0
  0
LINE
  8
0
 62
     0
 10
272.881
 20
50.268
 30
0.0
 11
271.356
 21
50.268
 31
0.0
  0
LINE
  8
0
 62
     0
 10
271.356
 20
50.268
 30
0.0
 11
271.356
 21
54.9684
 31
0.0
  0
LINE
  8
0
 62
     0
 10
271.356
 20
54.9684
 30
0.0
 11
257.356
 21
54.9684
 31
0.0
  0
LINE
  8
0
 62
     0
 10
9.70552
 20
54.9684
 30
0.0
 11
23.7064
 21
54.9684
 31
0.0
  0
LINE
  8
0
 62
     0
 10
23.7064
 20
54.9684
 30
0.0
 11
23.7064
 21
40.9677
 31
0.0
  0
LINE
  8
0
 62
     0
 10
23.7064
 20
40.9677
 30
0.0
 11
9.70552
 21
40.9677
 31
0.0
  0
LINE
  8
0
 62
     0
 10
9.70552
 20
40.9677
 30
0.0
 11
9.70552
 21
54.9684
 31
0.0
  0
LINE
  8
0
 62
     0
 10
35.8994
 20
54.9684
 30
0.0
 11
49.9001
 21
54.9684
 31
0.0
  0
LINE
  8
0
 62
     0
 10
49.9001
 20
54.9684
 30
0.0
 11
49.9001
 21
40.9677
 31
0.0
  0
LINE
  8
0
 62
     0
 10
49.9001
 20
40.9677
 30
0.0
 11
35.8994
 21
40.9677
 31
0.0
  0
LINE
  8
0
 62
     0
 10
35.8994
 20
40.9677
 30
0.0
 11
35.8994
 21
54.9684
 31
0.0
  0
LINE
  8
0
 62
     0
 10
54.9494
 20
54.9684
 30
0.0
 11
68.9501
 21
54.9684
 31
0.0
  0
LINE
  8
0
 62
     0
 10
68.9501
 20
54.9684
 30
0.0
 11
68.9501
 21
40.9677
 31
0.0
  0
LINE
  8
0
 62
     0
 10
68.9501
 20
40.9677
 30
0.0
 11
54.9494
 21
40.9677
 31
0.0
  0
LINE
  8
0
 62
     0
 10
54.9494
 20
40.9677
 30
0.0
 11
54.9494
 21
54.9684
 31
0.0
  0
LINE
  8
0
 62
     0
 10
73.9994
 20
54.9684
 30
0.0
 11
88.0001
 21
54.9684
 31
0.0
  0
LINE
  8
0
 62
     0
 10
88.0001
 20
54.9684
 30
0.0
 11
88.0001
 21
40.9677
 31
0.0
  0
LINE
  8
0
 62
     0
 10
88.0001
 20
40.9677
 30
0.0
 11
73.9994
 21
40.9677
 31
0.0
  0
LINE
  8
0
 62
     0
 10
73.9994
 20
40.9677
 30
0.0
 11
73.9994
 21
54.9684
 31
0.0
  0
LINE
  8
0
 62
     0
 10
93.0494
 20
54.9684
 30
0.0
 11
107.05
 21
54.9684
 31
0.0
  0
LINE
  8
0
 62
     0
 10
107.05
 20
54.9684
 30
0.0
 11
107.05
 21
40.9677
 31
0.0
  0
LINE
  8
0
 62
     0
 10
107.05
 20
40.9677
 30
0.0
 11
93.0494
 21
40.9677
 31
0.0
  0
LINE
  8
0
 62
     0
 10
93.0494
 20
40.9677
 30
0.0
 11
93.0494
 21
54.9684
 31
0.0
  0
LINE
  8
0
 62
     0
 10
112.099
 20
54.9684
 30
0.0
 11
126.1
 21
54.9684
 31
0.0
  0
LINE
  8
0
 62
     0
 10
126.1
 20
54.9684
 30
0.0
 11
126.1
 21
40.9677
 31
0.0
  0
LINE
  8
0
 62
     0
 10
126.1
 20
40.9677
 30
0.0
 11
112.099
 21
40.9677
 31
0.0
  0
LINE
  8
0
 62
     0
 10
112.099
 20
40.9677
 30
0.0
 11
112.099
 21
54.9684
 31
0.0
  0
LINE
  8
0
 62
     0
 10
131.149
 20
54.9684
 30
0.0
 11
145.15
 21
54.9684
 31
0.0
  0
LINE
  8
0
 62
     0
 10
145.15
 20
54.9684
 30
0.0
 11
145.15
 21
40.9677
 31
0.0
  0
LINE
  8
0
 62
     0
 10
145.15
 20
40.9677
 30
0.0
 11
131.149
 21
40.9677
 31
0.0
  0
LINE
  8
0
 62
     0
 10
131.149
 20
40.9677
 30
0.0
 11
131.149
 21
54.9684
 31
0.0
  0
LINE
  8
0
 62
     0
 10
150.199
 20
54.9684
 30
0.0
 11
164.2
 21
54.9684
 31
0.0
  0
LINE
  8
0
 62
     0
 10
164.2
 20
54.9684
 30
0.0
 11
164.2
 21
40.9677
 31
0.0
  0
LINE
  8
0
 62
     0
 10
164.2
 20
40.9677
 30
0.0
 11
150.199
 21
40.9677
 31
0.0
  0
LINE
  8
0
 62
     0
 10
150.199
 20
40.9677
 30
0.0
 11
150.199
 21
54.9684
 31
0.0
  0
LINE
  8
0
 62
     0
 10
169.249
 20
54.9684
 30
0.0
 11
183.25
 21
54.9684
 31
0.0
  0
LINE
  8
0
 62
     0
 10
183.25
 20
54.9684
 30
0.0
 11
183.25
 21
40.9677
 31
0.0
  0
LINE
  8
0
 62
     0
 10
183.25
 20
40.9677
 30
0.0
 11
169.249
 21
40.9677
 31
0.0
  0
LINE
  8
0
 62
     0
 10
169.249
 20
40.9677
 30
0.0
 11
169.249
 21
54.9684
 31
0.0
  0
LINE
  8
0
 62
     0
 10
188.299
 20
54.9684
 30
0.0
 11
202.3
 21
54.9684
 31
0.0
  0
LINE
  8
0
 62
     0
 10
202.3
 20
54.9684
 30
0.0
 11
202.3
 21
40.9677
 31
0.0
  0
LINE
  8
0
 62
     0
 10
202.3
 20
40.9677
 30
0.0
 11
188.299
 21
40.9677
 31
0.0
  0
LINE
  8
0
 62
     0
 10
188.299
 20
40.9677
 30
0.0
 11
188.299
 21
54.9684
 31
0.0
  0
LINE
  8
0
 62
     0
 10
207.349
 20
54.9684
 30
0.0
 11
221.35
 21
54.9684
 31
0.0
  0
LINE
  8
0
 62
     0
 10
221.35
 20
54.9684
 30
0.0
 11
221.35
 21
40.9677
 31
0.0
  0
LINE
  8
0
 62
     0
 10
221.35
 20
40.9677
 30
0.0
 11
207.349
 21
40.9677
 31
0.0
  0
LINE
  8
0
 62
     0
 10
207.349
 20
40.9677
 30
0.0
 11
207.349
 21
54.9684
 31
0.0
  0
LINE
  8
0
 62
     0
 10
226.399
 20
54.9684
 30
0.0
 11
240.4
 21
54.9684
 31
0.0
  0
LINE
  8
0
 62
     0
 10
240.4
 20
54.9684
 30
0.0
 11
240.4
 21
40.9677
 31
0.0
  0
LINE
  8
0
 62
     0
 10
240.4
 20
40.9677
 30
0.0
 11
226.399
 21
40.9677
 31
0.0
  0
LINE
  8
0
 62
     0
 10
226.399
 20
40.9677
 30
0.0
 11
226.399
 21
54.9684
 31
0.0
  0
LINE
  8
0
 62
     0
 10
7.32427
 20
74.0184
 30
0.0
 11
21.3251
 21
74.0184
 31
0.0
  0
LINE
  8
0
 62
     0
 10
21.3251
 20
74.0184
 30
0.0
 11
21.3251
 21
60.0177
 31
0.0
  0
LINE
  8
0
 62
     0
 10
21.3251
 20
60.0177
 30
0.0
 11
7.32427
 21
60.0177
 31
0.0
  0
LINE
  8
0
 62
     0
 10
7.32427
 20
60.0177
 30
0.0
 11
7.32427
 21
74.0184
 31
0.0
  0
LINE
  8
0
 62
     0
 10
31.1381
 20
74.0184
 30
0.0
 11
45.1376
 21
74.0184
 31
0.0
  0
LINE
  8
0
 62
     0
 10
45.1376
 20
74.0184
 30
0.0
 11
45.1376
 21
60.0177
 31
0.0
  0
LINE
  8
0
 62
     0
 10
45.1376
 20
60.0177
 30
0.0
 11
31.1381
 21
60.0177
 31
0.0
  0
LINE
  8
0
 62
     0
 10
31.1381
 20
60.0177
 30
0.0
 11
31.1381
 21
74.0184
 31
0.0
  0
LINE
  8
0
 62
     0
 10
50.1883
 20
74.0184
 30
0.0
 11
64.1876
 21
74.0184
 31
0.0
  0
LINE
  8
0
 62
     0
 10
64.1876
 20
74.0184
 30
0.0
 11
64.1876
 21
60.0177
 31
0.0
  0
LINE
  8
0
 62
     0
 10
64.1876
 20
60.0177
 30
0.0
 11
50.1883
 21
60.0177
 31
0.0
  0
LINE
  8
0
 62
     0
 10
50.1883
 20
60.0177
 30
0.0
 11
50.1883
 21
74.0184
 31
0.0
  0
LINE
  8
0
 62
     0
 10
69.2383
 20
74.0184
 30
0.0
 11
83.2376
 21
74.0184
 31
0.0
  0
LINE
  8
0
 62
     0
 10
83.2376
 20
74.0184
 30
0.0
 11
83.2376
 21
60.0177
 31
0.0
  0
LINE
  8
0
 62
     0
 10
83.2376
 20
60.0177
 30
0.0
 11
69.2383
 21
60.0177
 31
0.0
  0
LINE
  8
0
 62
     0
 10
69.2383
 20
60.0177
 30
0.0
 11
69.2383
 21
74.0184
 31
0.0
  0
LINE
  8
0
 62
     0
 10
88.2883
 20
74.0184
 30
0.0
 11
102.288
 21
74.0184
 31
0.0
  0
LINE
  8
0
 62
     0
 10
102.288
 20
74.0184
 30
0.0
 11
102.288
 21
60.0177
 31
0.0
  0
LINE
  8
0
 62
     0
 10
102.288
 20
60.0177
 30
0.0
 11
88.2883
 21
60.0177
 31
0.0
  0
LINE
  8
0
 62
     0
 10
88.2883
 20
60.0177
 30
0.0
 11
88.2883
 21
74.0184
 31
0.0
  0
LINE
  8
0
 62
     0
 10
107.338
 20
74.0184
 30
0.0
 11
121.338
 21
74.0184
 31
0.0
  0
LINE
  8
0
 62
     0
 10
121.338
 20
74.0184
 30
0.0
 11
121.338
 21
60.0177
 31
0.0
  0
LINE
  8
0
 62
     0
 10
121.338
 20
60.0177
 30
0.0
 11
107.338
 21
60.0177
 31
0.0
  0
LINE
  8
0
 62
     0
 10
107.338
 20
60.0177
 30
0.0
 11
107.338
 21
74.0184
 31
0.0
  0
LINE
  8
0
 62
     0
 10
126.388
 20
74.0184
 30
0.0
 11
140.388
 21
74.0184
 31
0.0
  0
LINE
  8
0
 62
     0
 10
140.388
 20
74.0184
 30
0.0
 11
140.388
 21
60.0177
 31
0.0
  0
LINE
  8
0
 62
     0
 10
140.388
 20
60.0177
 30
0.0
 11
126.388
 21
60.0177
 31
0.0
  0
LINE
  8
0
 62
     0
 10
126.388
 20
60.0177
 30
0.0
 11
126.388
 21
74.0184
 31
0.0
  0
LINE
  8
0
 62
     0
 10
145.438
 20
74.0184
 30
0.0
 11
159.438
 21
74.0184
 31
0.0
  0
LINE
  8
0
 62
     0
 10
159.438
 20
74.0184
 30
0.0
 11
159.438
 21
60.0177
 31
0.0
  0
LINE
  8
0
 62
     0
 10
159.438
 20
60.0177
 30
0.0
 11
145.438
 21
60.0177
 31
0.0
  0
LINE
  8
0
 62
     0
 10
145.438
 20
60.0177
 30
0.0
 11
145.438
 21
74.0184
 31
0.0
  0
LINE
  8
0
 62
     0
 10
164.488
 20
74.0184
 30
0.0
 11
178.488
 21
74.0184
 31
0.0
  0
LINE
  8
0
 62
     0
 10
178.488
 20
74.0184
 30
0.0
 11
178.488
 21
60.0177
 31
0.0
  0
LINE
  8
0
 62
     0
 10
178.488
 20
60.0177
 30
0.0
 11
164.488
 21
60.0177
 31
0.0
  0
LINE
  8
0
 62
     0
 10
164.488
 20
60.0177
 30
0.0
 11
164.488
 21
74.0184
 31
0.0
  0
LINE
  8
0
 62
     0
 10
183.538
 20
74.0184
 30
0.0
 11
197.538
 21
74.0184
 31
0.0
  0
LINE
  8
0
 62
     0
 10
197.538
 20
74.0184
 30
0.0
 11
197.538
 21
60.0177
 31
0.0
  0
LINE
  8
0
 62
     0
 10
197.538
 20
60.0177
 30
0.0
 11
183.538
 21
60.0177
 31
0.0
  0
LINE
  8
0
 62
     0
 10
183.538
 20
60.0177
 30
0.0
 11
183.538
 21
74.0184
 31
0.0
  0
LINE
  8
0
 62
     0
 10
202.588
 20
74.0184
 30
0.0
 11
216.588
 21
74.0184
 31
0.0
  0
LINE
  8
0
 62
     0
 10
216.588
 20
74.0184
 30
0.0
 11
216.588
 21
60.0177
 31
0.0
  0
LINE
  8
0
 62
     0
 10
216.588
 20
60.0177
 30
0.0
 11
202.588
 21
60.0177
 31
0.0
  0
LINE
  8
0
 62
     0
 10
202.588
 20
60.0177
 30
0.0
 11
202.588
 21
74.0184
 31
0.0
  0
LINE
  8
0
 62
     0
 10
221.638
 20
74.0184
 30
0.0
 11
235.638
 21
74.0184
 31
0.0
  0
LINE
  8
0
 62
     0
 10
235.638
 20
74.0184
 30
0.0
 11
235.638
 21
60.0177
 31
0.0
  0
LINE
  8
0
 62
     0
 10
235.638
 20
60.0177
 30
0.0
 11
221.638
 21
60.0177
 31
0.0
  0
LINE
  8
0
 62
     0
 10
221.638
 20
60.0177
 30
0.0
 11
221.638
 21
74.0184
 31
0.0
  0
LINE
  8
0
 62
     0
 10
240.688
 20
74.0184
 30
0.0
 11
254.686
 21
74.0184
 31
0.0
  0
LINE
  8
0
 62
     0
 10
254.686
 20
74.0184
 30
0.0
 11
254.686
 21
60.0177
 31
0.0
  0
LINE
  8
0
 62
     0
 10
254.686
 20
60.0177
 30
0.0
 11
240.688
 21
60.0177
 31
0.0
  0
LINE
  8
0
 62
     0
 10
240.688
 20
60.0177
 30
0.0
 11
240.688
 21
74.0184
 31
0.0
  0
LINE
  8
0
 62
     0
 10
264.499
 20
74.0184
 30
0.0
 11
278.5
 21
74.0184
 31
0.0
  0
LINE
  8
0
 62
     0
 10
278.5
 20
74.0184
 30
0.0
 11
278.5
 21
60.0177
 31
0.0
  0
LINE
  8
0
 62
     0
 10
278.5
 20
60.0177
 30
0.0
 11
264.499
 21
60.0177
 31
0.0
  0
LINE
  8
0
 62
     0
 10
264.499
 20
60.0177
 30
0.0
 11
264.499
 21
74.0184
 31
0.0
  0
LINE
  8
0
 62
     0
 10
293.074
 20
74.0184
 30
0.0
 11
307.075
 21
74.0184
 31
0.0
  0
LINE
  8
0
 62
     0
 10
307.075
 20
74.0184
 30
0.0
 11
307.075
 21
60.0177
 31
0.0
  0
LINE
  8
0
 62
     0
 10
307.075
 20
60.0177
 30
0.0
 11
293.074
 21
60.0177
 31
0.0
  0
LINE
  8
0
 62
     0
 10
293.074
 20
60.0177
 30
0.0
 11
293.074
 21
74.0184
 31
0.0
  0
LINE
  8
0
 62
     0
 10
312.124
 20
74.0184
 30
0.0
 11
326.125
 21
74.0184
 31
0.0
  0
LINE
  8
0
 62
     0
 10
326.125
 20
74.0184
 30
0.0
 11
326.125
 21
60.0177
 31
0.0
  0
LINE
  8
0
 62
     0
 10
326.125
 20
60.0177
 30
0.0
 11
312.124
 21
60.0177
 31
0.0
  0
LINE
  8
0
 62
     0
 10
312.124
 20
60.0177
 30
0.0
 11
312.124
 21
74.0184
 31
0.0
  0
LINE
  8
0
 62
     0
 10
331.174
 20
74.0184
 30
0.0
 11
345.175
 21
74.0184
 31
0.0
  0
LINE
  8
0
 62
     0
 10
345.175
 20
74.0184
 30
0.0
 11
345.175
 21
60.0177
 31
0.0
  0
LINE
  8
0
 62
     0
 10
345.175
 20
60.0177
 30
0.0
 11
331.174
 21
60.0177
 31
0.0
  0
LINE
  8
0
 62
     0
 10
331.174
 20
60.0177
 30
0.0
 11
331.174
 21
74.0184
 31
0.0
  0
LINE
  8
0
 62
     0
 10
259.738
 20
93.0684
 30
0.0
 11
259.738
 21
88.368
 31
0.0
  0
LINE
  8
0
 62
     0
 10
259.738
 20
88.368
 30
0.0
 11
258.213
 21
88.368
 31
0.0
  0
LINE
  8
0
 62
     0
 10
258.213
 20
88.368
 30
0.0
 11
258.213
 21
91.598
 31
0.0
  0
LINE
  8
0
 62
     0
 10
258.213
 20
91.598
 30
0.0
 11
256.487
 21
91.598
 31
0.0
  0
LINE
  8
0
 62
     0
 10
256.487
 20
91.598
 30
0.0
 11
256.487
 21
92.5188
 31
0.0
  0
LINE
  8
0
 62
     0
 10
256.487
 20
92.5188
 30
0.0
 11
253.187
 21
92.5188
 31
0.0
  0
LINE
  8
0
 62
     0
 10
253.187
 20
92.5188
 30
0.0
 11
253.187
 21
91.598
 31
0.0
  0
LINE
  8
0
 62
     0
 10
253.187
 20
91.598
 30
0.0
 11
251.463
 21
91.598
 31
0.0
  0
LINE
  8
0
 62
     0
 10
251.463
 20
91.598
 30
0.0
 11
251.463
 21
88.368
 31
0.0
  0
LINE
  8
0
 62
     0
 10
251.463
 20
88.368
 30
0.0
 11
250.638
 21
88.368
 31
0.0
  0
LINE
  8
0
 62
     0
 10
250.638
 20
88.368
 30
0.0
 11
250.638
 21
85.568
 31
0.0
  0
LINE
  8
0
 62
     0
 10
250.638
 20
85.568
 30
0.0
 11
251.463
 21
85.568
 31
0.0
  0
LINE
  8
0
 62
     0
 10
251.463
 20
85.568
 30
0.0
 11
251.463
 21
79.2977
 31
0.0
  0
LINE
  8
0
 62
     0
 10
251.463
 20
79.2977
 30
0.0
 11
253.187
 21
79.2977
 31
0.0
  0
LINE
  8
0
 62
     0
 10
253.187
 20
79.2977
 30
0.0
 11
253.187
 21
78.3181
 31
0.0
  0
LINE
  8
0
 62
     0
 10
253.187
 20
78.3181
 30
0.0
 11
256.487
 21
78.3181
 31
0.0
  0
LINE
  8
0
 62
     0
 10
256.487
 20
78.3181
 30
0.0
 11
256.487
 21
79.2977
 31
0.0
  0
LINE
  8
0
 62
     0
 10
256.487
 20
79.2977
 30
0.0
 11
258.213
 21
79.2977
 31
0.0
  0
LINE
  8
0
 62
     0
 10
258.213
 20
79.2977
 30
0.0
 11
258.213
 21
83.7681
 31
0.0
  0
LINE
  8
0
 62
     0
 10
258.213
 20
83.7681
 30
0.0
 11
259.738
 21
83.7681
 31
0.0
  0
LINE
  8
0
 62
     0
 10
259.738
 20
83.7681
 30
0.0
 11
259.738
 21
79.0677
 31
0.0
  0
LINE
  8
0
 62
     0
 10
259.738
 20
79.0677
 30
0.0
 11
273.738
 21
79.0677
 31
0.0
  0
LINE
  8
0
 62
     0
 10
273.738
 20
79.0677
 30
0.0
 11
273.738
 21
83.7681
 31
0.0
  0
LINE
  8
0
 62
     0
 10
273.738
 20
83.7681
 30
0.0
 11
275.263
 21
83.7681
 31
0.0
  0
LINE
  8
0
 62
     0
 10
275.263
 20
83.7681
 30
0.0
 11
275.263
 21
79.2977
 31
0.0
  0
LINE
  8
0
 62
     0
 10
275.263
 20
79.2977
 30
0.0
 11
276.988
 21
79.2977
 31
0.0
  0
LINE
  8
0
 62
     0
 10
276.988
 20
79.2977
 30
0.0
 11
276.988
 21
78.3181
 31
0.0
  0
LINE
  8
0
 62
     0
 10
276.988
 20
78.3181
 30
0.0
 11
280.288
 21
78.3181
 31
0.0
  0
LINE
  8
0
 62
     0
 10
280.288
 20
78.3181
 30
0.0
 11
280.288
 21
79.2977
 31
0.0
  0
LINE
  8
0
 62
     0
 10
280.288
 20
79.2977
 30
0.0
 11
282.013
 21
79.2977
 31
0.0
  0
LINE
  8
0
 62
     0
 10
282.013
 20
79.2977
 30
0.0
 11
282.013
 21
85.568
 31
0.0
  0
LINE
  8
0
 62
     0
 10
282.013
 20
85.568
 30
0.0
 11
282.838
 21
85.568
 31
0.0
  0
LINE
  8
0
 62
     0
 10
282.838
 20
85.568
 30
0.0
 11
282.838
 21
88.368
 31
0.0
  0
LINE
  8
0
 62
     0
 10
282.838
 20
88.368
 30
0.0
 11
282.013
 21
88.368
 31
0.0
  0
LINE
  8
0
 62
     0
 10
282.013
 20
88.368
 30
0.0
 11
282.013
 21
91.598
 31
0.0
  0
LINE
  8
0
 62
     0
 10
282.013
 20
91.598
 30
0.0
 11
280.288
 21
91.598
 31
0.0
  0
LINE
  8
0
 62
     0
 10
280.288
 20
91.598
 30
0.0
 11
280.288
 21
92.5188
 31
0.0
  0
LINE
  8
0
 62
     0
 10
280.288
 20
92.5188
 30
0.0
 11
276.988
 21
92.5188
 31
0.0
  0
LINE
  8
0
 62
     0
 10
276.988
 20
92.5188
 30
0.0
 11
276.988
 21
91.598
 31
0.0
  0
LINE
  8
0
 62
     0
 10
276.988
 20
91.598
 30
0.0
 11
275.263
 21
91.598
 31
0.0
  0
LINE
  8
0
 62
     0
 10
275.263
 20
91.598
 30
0.0
 11
275.263
 21
88.368
 31
0.0
  0
LINE
  8
0
 62
     0
 10
275.263
 20
88.368
 30
0.0
 11
273.738
 21
88.368
 31
0.0
  0
LINE
  8
0
 62
     0
 10
273.738
 20
88.368
 30
0.0
 11
273.738
 21
93.0684
 31
0.0
  0
LINE
  8
0
 62
     0
 10
273.738
 20
93.0684
 30
0.0
 11
259.738
 21
93.0684
 31
0.0
  0
LINE
  8
0
 62
     0
 10
2.56315
 20
93.0684
 30
0.0
 11
16.5626
 21
93.0684
 31
0.0
  0
LINE
  8
0
 62
     0
 10
16.5626
 20
93.0684
 30
0.0
 11
16.5626
 21
79.0677
 31
0.0
  0
LINE
  8
0
 62
     0
 10
16.5626
 20
79.0677
 30
0.0
 11
2.56315
 21
79.0677
 31
0.0
  0
LINE
  8
0
 62
     0
 10
2.56315
 20
79.0677
 30
0.0
 11
2.56315
 21
93.0684
 31
0.0
  0
LINE
  8
0
 62
     0
 10
21.6131
 20
93.0684
 30
0.0
 11
35.6126
 21
93.0684
 31
0.0
  0
LINE
  8
0
 62
     0
 10
35.6126
 20
93.0684
 30
0.0
 11
35.6126
 21
79.0677
 31
0.0
  0
LINE
  8
0
 62
     0
 10
35.6126
 20
79.0677
 30
0.0
 11
21.6131
 21
79.0677
 31
0.0
  0
LINE
  8
0
 62
     0
 10
21.6131
 20
79.0677
 30
0.0
 11
21.6131
 21
93.0684
 31
0.0
  0
LINE
  8
0
 62
     0
 10
40.6633
 20
93.0684
 30
0.0
 11
54.6626
 21
93.0684
 31
0.0
  0
LINE
  8
0
 62
     0
 10
54.6626
 20
93.0684
 30
0.0
 11
54.6626
 21
79.0677
 31
0.0
  0
LINE
  8
0
 62
     0
 10
54.6626
 20
79.0677
 30
0.0
 11
40.6633
 21
79.0677
 31
0.0
  0
LINE
  8
0
 62
     0
 10
40.6633
 20
79.0677
 30
0.0
 11
40.6633
 21
93.0684
 31
0.0
  0
LINE
  8
0
 62
     0
 10
59.7133
 20
93.0684
 30
0.0
 11
73.7126
 21
93.0684
 31
0.0
  0
LINE
  8
0
 62
     0
 10
73.7126
 20
93.0684
 30
0.0
 11
73.7126
 21
79.0677
 31
0.0
  0
LINE
  8
0
 62
     0
 10
73.7126
 20
79.0677
 30
0.0
 11
59.7133
 21
79.0677
 31
0.0
  0
LINE
  8
0
 62
     0
 10
59.7133
 20
79.0677
 30
0.0
 11
59.7133
 21
93.0684
 31
0.0
  0
LINE
  8
0
 62
     0
 10
78.7633
 20
93.0684
 30
0.0
 11
92.7626
 21
93.0684
 31
0.0
  0
LINE
  8
0
 62
     0
 10
92.7626
 20
93.0684
 30
0.0
 11
92.7626
 21
79.0677
 31
0.0
  0
LINE
  8
0
 62
     0
 10
92.7626
 20
79.0677
 30
0.0
 11
78.7633
 21
79.0677
 31
0.0
  0
LINE
  8
0
 62
     0
 10
78.7633
 20
79.0677
 30
0.0
 11
78.7633
 21
93.0684
 31
0.0
  0
LINE
  8
0
 62
     0
 10
97.8119
 20
93.0684
 30
0.0
 11
111.811
 21
93.0684
 31
0.0
  0
LINE
  8
0
 62
     0
 10
111.811
 20
93.0684
 30
0.0
 11
111.811
 21
79.0677
 31
0.0
  0
LINE
  8
0
 62
     0
 10
111.811
 20
79.0677
 30
0.0
 11
97.8119
 21
79.0677
 31
0.0
  0
LINE
  8
0
 62
     0
 10
97.8119
 20
79.0677
 30
0.0
 11
97.8119
 21
93.0684
 31
0.0
  0
LINE
  8
0
 62
     0
 10
116.862
 20
93.0684
 30
0.0
 11
130.863
 21
93.0684
 31
0.0
  0
LINE
  8
0
 62
     0
 10
130.863
 20
93.0684
 30
0.0
 11
130.863
 21
79.0677
 31
0.0
  0
LINE
  8
0
 62
     0
 10
130.863
 20
79.0677
 30
0.0
 11
116.862
 21
79.0677
 31
0.0
  0
LINE
  8
0
 62
     0
 10
116.862
 20
79.0677
 30
0.0
 11
116.862
 21
93.0684
 31
0.0
  0
LINE
  8
0
 62
     0
 10
135.913
 20
93.0684
 30
0.0
 11
149.913
 21
93.0684
 31
0.0
  0
LINE
  8
0
 62
     0
 10
149.913
 20
93.0684
 30
0.0
 11
149.913
 21
79.0677
 31
0.0
  0
LINE
  8
0
 62
     0
 10
149.913
 20
79.0677
 30
0.0
 11
135.913
 21
79.0677
 31
0.0
  0
LINE
  8
0
 62
     0
 10
135.913
 20
79.0677
 30
0.0
 11
135.913
 21
93.0684
 31
0.0
  0
LINE
  8
0
 62
     0
 10
154.963
 20
93.0684
 30
0.0
 11
168.963
 21
93.0684
 31
0.0
  0
LINE
  8
0
 62
     0
 10
168.963
 20
93.0684
 30
0.0
 11
168.963
 21
79.0677
 31
0.0
  0
LINE
  8
0
 62
     0
 10
168.963
 20
79.0677
 30
0.0
 11
154.963
 21
79.0677
 31
0.0
  0
LINE
  8
0
 62
     0
 10
154.963
 20
79.0677
 30
0.0
 11
154.963
 21
93.0684
 31
0.0
  0
LINE
  8
0
 62
     0
 10
174.013
 20
93.0684
 30
0.0
 11
188.013
 21
93.0684
 31
0.0
  0
LINE
  8
0
 62
     0
 10
188.013
 20
93.0684
 30
0.0
 11
188.013
 21
79.0677
 31
0.0
  0
LINE
  8
0
 62
     0
 10
188.013
 20
79.0677
 30
0.0
 11
174.013
 21
79.0677
 31
0.0
  0
LINE
  8
0
 62
     0
 10
174.013
 20
79.0677
 30
0.0
 11
174.013
 21
93.0684
 31
0.0
  0
LINE
  8
0
 62
     0
 10
193.063
 20
93.0684
 30
0.0
 11
207.063
 21
93.0684
 31
0.0
  0
LINE
  8
0
 62
     0
 10
207.063
 20
93.0684
 30
0.0
 11
207.063
 21
79.0677
 31
0.0
  0
LINE
  8
0
 62
     0
 10
207.063
 20
79.0677
 30
0.0
 11
193.063
 21
79.0677
 31
0.0
  0
LINE
  8
0
 62
     0
 10
193.063
 20
79.0677
 30
0.0
 11
193.063
 21
93.0684
 31
0.0
  0
LINE
  8
0
 62
     0
 10
212.113
 20
93.0684
 30
0.0
 11
226.113
 21
93.0684
 31
0.0
  0
LINE
  8
0
 62
     0
 10
226.113
 20
93.0684
 30
0.0
 11
226.113
 21
79.0677
 31
0.0
  0
LINE
  8
0
 62
     0
 10
226.113
 20
79.0677
 30
0.0
 11
212.113
 21
79.0677
 31
0.0
  0
LINE
  8
0
 62
     0
 10
212.113
 20
79.0677
 30
0.0
 11
212.113
 21
93.0684
 31
0.0
  0
LINE
  8
0
 62
     0
 10
231.163
 20
93.0684
 30
0.0
 11
245.163
 21
93.0684
 31
0.0
  0
LINE
  8
0
 62
     0
 10
245.163
 20
93.0684
 30
0.0
 11
245.163
 21
79.0677
 31
0.0
  0
LINE
  8
0
 62
     0
 10
245.163
 20
79.0677
 30
0.0
 11
231.163
 21
79.0677
 31
0.0
  0
LINE
  8
0
 62
     0
 10
231.163
 20
79.0677
 30
0.0
 11
231.163
 21
93.0684
 31
0.0
  0
LINE
  8
0
 62
     0
 10
293.074
 20
93.0684
 30
0.0
 11
307.075
 21
93.0684
 31
0.0
  0
LINE
  8
0
 62
     0
 10
307.075
 20
93.0684
 30
0.0
 11
307.075
 21
79.0677
 31
0.0
  0
LINE
  8
0
 62
     0
 10
307.075
 20
79.0677
 30
0.0
 11
293.074
 21
79.0677
 31
0.0
  0
LINE
  8
0
 62
     0
 10
293.074
 20
79.0677
 30
0.0
 11
293.074
 21
93.0684
 31
0.0
  0
LINE
  8
0
 62
     0
 10
312.124
 20
93.0684
 30
0.0
 11
326.125
 21
93.0684
 31
0.0
  0
LINE
  8
0
 62
     0
 10
326.125
 20
93.0684
 30
0.0
 11
326.125
 21
79.0677
 31
0.0
  0
LINE
  8
0
 62
     0
 10
326.125
 20
79.0677
 30
0.0
 11
312.124
 21
79.0677
 31
0.0
  0
LINE
  8
0
 62
     0
 10
312.124
 20
79.0677
 30
0.0
 11
312.124
 21
93.0684
 31
0.0
  0
LINE
  8
0
 62
     0
 10
331.174
 20
93.0684
 30
0.0
 11
345.175
 21
93.0684
 31
0.0
  0
LINE
  8
0
 62
     0
 10
345.175
 20
93.0684
 30
0.0
 11
345.175
 21
79.0677
 31
0.0
  0
LINE
  8
0
 62
     0
 10
345.175
 20
79.0677
 30
0.0
 11
331.174
 21
79.0677
 31
0.0
  0
LINE
  8
0
 62
     0
 10
331.174
 20
79.0677
 30
0.0
 11
331.174
 21
93.0684
 31
0.0
  0
LINE
  8
0
 62
     0
 10
2.56315
 20
121.262
 30
0.0
 11
16.5626
 21
121.262
 31
0.0
  0
LINE
  8
0
 62
     0
 10
16.5626
 20
121.262
 30
0.0
 11
16.5626
 21
107.262
 31
0.0
  0
LINE
  8
0
 62
     0
 10
16.5626
 20
107.262
 30
0.0
 11
2.56315
 21
107.262
 31
0.0
  0
LINE
  8
0
 62
     0
 10
2.56315
 20
107.262
 30
0.0
 11
2.56315
 21
121.262
 31
0.0
  0
LINE
  8
0
 62
     0
 10
40.6633
 20
121.262
 30
0.0
 11
54.6626
 21
121.262
 31
0.0
  0
LINE
  8
0
 62
     0
 10
54.6626
 20
121.262
 30
0.0
 11
54.6626
 21
107.262
 31
0.0
  0
LINE
  8
0
 62
     0
 10
54.6626
 20
107.262
 30
0.0
 11
40.6633
 21
107.262
 31
0.0
  0
LINE
  8
0
 62
     0
 10
40.6633
 20
107.262
 30
0.0
 11
40.6633
 21
121.262
 31
0.0
  0
LINE
  8
0
 62
     0
 10
59.7133
 20
121.262
 30
0.0
 11
73.7126
 21
121.262
 31
0.0
  0
LINE
  8
0
 62
     0
 10
73.7126
 20
121.262
 30
0.0
 11
73.7126
 21
107.262
 31
0.0
  0
LINE
  8
0
 62
     0
 10
73.7126
 20
107.262
 30
0.0
 11
59.7133
 21
107.262
 31
0.0
  0
LINE
  8
0
 62
     0
 10
59.7133
 20
107.262
 30
0.0
 11
59.7133
 21
121.262
 31
0.0
  0
LINE
  8
0
 62
     0
 10
78.7633
 20
121.262
 30
0.0
 11
92.7626
 21
121.262
 31
0.0
  0
LINE
  8
0
 62
     0
 10
92.7626
 20
121.262
 30
0.0
 11
92.7626
 21
107.262
 31
0.0
  0
LINE
  8
0
 62
     0
 10
92.7626
 20
107.262
 30
0.0
 11
78.7633
 21
107.262
 31
0.0
  0
LINE
  8
0
 62
     0
 10
78.7633
 20
107.262
 30
0.0
 11
78.7633
 21
121.262
 31
0.0
  0
LINE
  8
0
 62
     0
 10
97.8119
 20
121.262
 30
0.0
 11
111.811
 21
121.262
 31
0.0
  0
LINE
  8
0
 62
     0
 10
111.811
 20
121.262
 30
0.0
 11
111.811
 21
107.262
 31
0.0
  0
LINE
  8
0
 62
     0
 10
111.811
 20
107.262
 30
0.0
 11
97.8119
 21
107.262
 31
0.0
  0
LINE
  8
0
 62
     0
 10
97.8119
 20
107.262
 30
0.0
 11
97.8119
 21
121.262
 31
0.0
  0
LINE
  8
0
 62
     0
 10
126.388
 20
121.262
 30
0.0
 11
140.388
 21
121.262
 31
0.0
  0
LINE
  8
0
 62
     0
 10
140.388
 20
121.262
 30
0.0
 11
140.388
 21
107.262
 31
0.0
  0
LINE
  8
0
 62
     0
 10
140.388
 20
107.262
 30
0.0
 11
126.388
 21
107.262
 31
0.0
  0
LINE
  8
0
 62
     0
 10
126.388
 20
107.262
 30
0.0
 11
126.388
 21
121.262
 31
0.0
  0
LINE
  8
0
 62
     0
 10
145.438
 20
121.262
 30
0.0
 11
159.438
 21
121.262
 31
0.0
  0
LINE
  8
0
 62
     0
 10
159.438
 20
121.262
 30
0.0
 11
159.438
 21
107.262
 31
0.0
  0
LINE
  8
0
 62
     0
 10
159.438
 20
107.262
 30
0.0
 11
145.438
 21
107.262
 31
0.0
  0
LINE
  8
0
 62
     0
 10
145.438
 20
107.262
 30
0.0
 11
145.438
 21
121.262
 31
0.0
  0
LINE
  8
0
 62
     0
 10
164.488
 20
121.262
 30
0.0
 11
178.488
 21
121.262
 31
0.0
  0
LINE
  8
0
 62
     0
 10
178.488
 20
121.262
 30
0.0
 11
178.488
 21
107.262
 31
0.0
  0
LINE
  8
0
 62
     0
 10
178.488
 20
107.262
 30
0.0
 11
164.488
 21
107.262
 31
0.0
  0
LINE
  8
0
 62
     0
 10
164.488
 20
107.262
 30
0.0
 11
164.488
 21
121.262
 31
0.0
  0
LINE
  8
0
 62
     0
 10
183.538
 20
121.262
 30
0.0
 11
197.538
 21
121.262
 31
0.0
  0
LINE
  8
0
 62
     0
 10
197.538
 20
121.262
 30
0.0
 11
197.538
 21
107.262
 31
0.0
  0
LINE
  8
0
 62
     0
 10
197.538
 20
107.262
 30
0.0
 11
183.538
 21
107.262
 31
0.0
  0
LINE
  8
0
 62
     0
 10
183.538
 20
107.262
 30
0.0
 11
183.538
 21
121.262
 31
0.0
  0
LINE
  8
0
 62
     0
 10
212.113
 20
121.262
 30
0.0
 11
226.113
 21
121.262
 31
0.0
  0
LINE
  8
0
 62
     0
 10
226.113
 20
121.262
 30
0.0
 11
226.113
 21
107.262
 31
0.0
  0
LINE
  8
0
 62
     0
 10
226.113
 20
107.262
 30
0.0
 11
212.113
 21
107.262
 31
0.0
  0
LINE
  8
0
 62
     0
 10
212.113
 20
107.262
 30
0.0
 11
212.113
 21
121.262
 31
0.0
  0
LINE
  8
0
 62
     0
 10
231.163
 20
121.262
 30
0.0
 11
245.163
 21
121.262
 31
0.0
  0
LINE
  8
0
 62
     0
 10
245.163
 20
121.262
 30
0.0
 11
245.163
 21
107.262
 31
0.0
  0
LINE
  8
0
 62
     0
 10
245.163
 20
107.262
 30
0.0
 11
231.163
 21
107.262
 31
0.0
  0
LINE
  8
0
 62
     0
 10
231.163
 20
107.262
 30
0.0
 11
231.163
 21
121.262
 31
0.0
  0
LINE
  8
0
 62
     0
 10
250.213
 20
121.262
 30
0.0
 11
264.213
 21
121.262
 31
0.0
  0
LINE
  8
0
 62
     0
 10
264.213
 20
121.262
 30
0.0
 11
264.213
 21
107.262
 31
0.0
  0
LINE
  8
0
 62
     0
 10
264.213
 20
107.262
 30
0.0
 11
250.213
 21
107.262
 31
0.0
  0
LINE
  8
0
 62
     0
 10
250.213
 20
107.262
 30
0.0
 11
250.213
 21
121.262
 31
0.0
  0
LINE
  8
0
 62
     0
 10
269.263
 20
121.262
 30
0.0
 11
283.263
 21
121.262
 31
0.0
  0
LINE
  8
0
 62
     0
 10
283.263
 20
121.262
 30
0.0
 11
283.263
 21
107.262
 31
0.0
  0
LINE
  8
0
 62
     0
 10
283.263
 20
107.262
 30
0.0
 11
269.263
 21
107.262
 31
0.0
  0
LINE
  8
0
 62
     0
 10
269.263
 20
107.262
 30
0.0
 11
269.263
 21
121.262
 31
0.0
  0
LINE
  8
0
 62
     0
 10
293.074
 20
121.262
 30
0.0
 11
307.075
 21
121.262
 31
0.0
  0
LINE
  8
0
 62
     0
 10
307.075
 20
121.262
 30
0.0
 11
307.075
 21
107.262
 31
0.0
  0
LINE
  8
0
 62
     0
 10
307.075
 20
107.262
 30
0.0
 11
293.074
 21
107.262
 31
0.0
  0
LINE
  8
0
 62
     0
 10
293.074
 20
107.262
 30
0.0
 11
293.074
 21
121.262
 31
0.0
  0
LINE
  8
0
 62
     0
 10
312.124
 20
121.262
 30
0.0
 11
326.125
 21
121.262
 31
0.0
  0
LINE
  8
0
 62
     0
 10
326.125
 20
121.262
 30
0.0
 11
326.125
 21
107.262
 31
0.0
  0
LINE
  8
0
 62
     0
 10
326.125
 20
107.262
 30
0.0
 11
312.124
 21
107.262
 31
0.0
  0
LINE
  8
0
 62
     0
 10
312.124
 20
107.262
 30
0.0
 11
312.124
 21
121.262
 31
0.0
  0
LINE
  8
0
 62
     0
 10
331.174
 20
121.262
 30
0.0
 11
345.175
 21
121.262
 31
0.0
  0
LINE
  8
0
 62
     0
 10
345.175
 20
121.262
 30
0.0
 11
345.175
 21
107.262
 31
0.0
  0
LINE
  8
0
 62
     0
 10
345.175
 20
107.262
 30
0.0
 11
331.174
 21
107.262
 31
0.0
  0
LINE
  8
0
 62
     0
 10
331.174
 20
107.262
 30
0.0
 11
331.174
 21
121.262
 31
0.0
  0
ENDSEC
  0
EOF
