<?xml version="1.0" encoding="UTF-8"?>
<!-- Generated by SVGo -->
<svg width="357.665mm" height="133.446mm" viewBox="0.000 0.000 357.665 133.446" xmlns="http://www.w3.org/2000/svg" xmlns:xlink="http://www.w3.org/1999/xlink">
<polygon points="352.664,128.446 5.001,128.446 5.001,5.001 352.664,5.001" style="fill:none;stroke-width:0.020000mm;stroke:black"/>
<polygon points="128.968,111.920 128.968,116.620 89.344,116.620 89.344,113.390 87.619,113.390 87.619,112.470 84.319,112.470 84.319,113.390 82.594,113.390 82.594,116.620 81.769,116.620 81.769,119.420 82.594,119.420 82.594,125.690 84.319,125.690 84.319,126.670 87.619,126.670 87.619,125.690 89.344,125.690 89.344,121.220 128.968,121.220 128.968,125.920 142.969,125.920 142.969,121.220 182.594,121.220 182.594,125.690 184.319,125.690 184.319,126.670 187.619,126.670 187.619,125.690 189.344,125.690 189.344,119.420 190.169,119.420 190.169,116.620 189.344,116.620 189.344,113.390 187.619,113.390 187.619,112.470 184.319,112.470 184.319,113.390 182.594,113.390 182.594,116.620 142.969,116.620 142.969,111.920" style="fill:none;stroke-width:0.020000mm;stroke:black"/>
<polygon points="9.907,111.920 9.907,125.920 23.907,125.920 23.907,111.920" style="fill:none;stroke-width:0.020000mm;stroke:black"/>
<polygon points="33.719,111.920 33.719,125.920 47.719,125.920 47.719,111.920" style="fill:none;stroke-width:0.020000mm;stroke:black"/>
<polygon points="57.532,111.920 57.532,125.920 71.532,125.920 71.532,111.920" style="fill:none;stroke-width:0.020000mm;stroke:black"/>
<polygon points="200.407,111.920 200.407,125.920 214.407,125.920 214.407,111.920" style="fill:none;stroke-width:0.020000mm;stroke:black"/>
<polygon points="224.219,111.920 224.219,125.920 238.219,125.920 238.219,111.920" style="fill:none;stroke-width:0.020000mm;stroke:black"/>
<polygon points="248.032,111.920 248.032,125.920 262.032,125.920 262.032,111.920" style="fill:none;stroke-width:0.020000mm;stroke:black"/>
<polygon points="271.844,111.920 271.844,125.920 285.844,125.920 285.844,111.920" style="fill:none;stroke-width:0.020000mm;stroke:black"/>
<polygon points="298.038,111.920 298.038,125.920 312.038,125.920 312.038,111.920" style="fill:none;stroke-width:0.020000mm;stroke:black"/>
<polygon points="317.088,111.920 317.088,125.920 331.088,125.920 331.088,111.920" style="fill:none;stroke-width:0.020000mm;stroke:black"/>
<polygon points="336.138,111.920 336.138,125.920 350.138,125.920 350.138,111.920" style="fill:none;stroke-width:0.020000mm;stroke:black"/>
<polygon points="19.432,92.870 19.432,97.570 17.907,97.570 17.907,94.340 16.182,94.340 16.182,93.420 12.882,93.420 12.882,94.340 11.157,94.340 11.157,97.570 10.332,97.570 10.332,100.370 11.157,100.370 11.157,106.640 12.882,106.640 12.882,107.620 16.182,107.620 16.182,106.640 17.907,106.640 17.907,102.170 19.432,102.170 19.432,106.870 33.432,106.870 33.432,102.170 34.957,102.170 34.957,106.640 36.682,106.640 36.682,107.620 39.982,107.620 39.982,106.640 41.707,106.640 41.707,100.370 42.532,100.370 42.532,97.570 41.707,97.570 41.707,94.340 39.982,94.340 39.982,93.420 36.682,93.420 36.682,94.340 34.957,94.340 34.957,97.570 33.432,97.570 33.432,92.870" style="fill:none;stroke-width:0.020000mm;stroke:black"/>
<polygon points="257.556,92.870 257.556,97.570 256.032,97.570 256.032,94.340 254.307,94.340 254.307,93.420 251.007,93.420 251.007,94.340 249.282,94.340 249.282,97.570 248.457,97.570 248.457,100.370 249.282,100.370 249.282,106.640 251.007,106.640 251.007,107.620 254.307,107.620 254.307,106.640 256.032,106.640 256.032,102.170 257.556,102.170 257.556,106.870 271.557,106.870 271.557,102.170 273.082,102.170 273.082,106.640 274.807,106.640 274.807,107.620 278.107,107.620 278.107,106.640 279.832,106.640 279.832,100.370 280.657,100.370 280.657,97.570 279.832,97.570 279.832,94.340 278.107,94.340 278.107,93.420 274.807,93.420 274.807,94.340 273.082,94.340 273.082,97.570 271.557,97.570 271.557,92.870" style="fill:none;stroke-width:0.020000mm;stroke:black"/>
<polygon points="50.388,92.870 50.388,106.870 64.388,106.870 64.388,92.870" style="fill:none;stroke-width:0.020000mm;stroke:black"/>
<polygon points="69.438,92.870 69.438,106.870 83.438,106.870 83.438,92.870" style="fill:none;stroke-width:0.020000mm;stroke:black"/>
<polygon points="88.488,92.870 88.488,106.870 102.488,106.870 102.488,92.870" style="fill:none;stroke-width:0.020000mm;stroke:black"/>
<polygon points="107.538,92.870 107.538,106.870 121.538,106.870 121.538,92.870" style="fill:none;stroke-width:0.020000mm;stroke:black"/>
<polygon points="126.588,92.870 126.588,106.870 140.588,106.870 140.588,92.870" style="fill:none;stroke-width:0.020000mm;stroke:black"/>
<polygon points="145.638,92.870 145.638,106.870 159.638,106.870 159.638,92.870" style="fill:none;stroke-width:0.020000mm;stroke:black"/>
<polygon points="164.688,92.870 164.688,106.870 178.688,106.870 178.688,92.870" style="fill:none;stroke-width:0.020000mm;stroke:black"/>
<polygon points="183.738,92.870 183.738,106.870 197.738,106.870 197.738,92.870" style="fill:none;stroke-width:0.020000mm;stroke:black"/>
<polygon points="202.788,92.870 202.788,106.870 216.788,106.870 216.788,92.870" style="fill:none;stroke-width:0.020000mm;stroke:black"/>
<polygon points="221.838,92.870 221.838,106.870 235.838,106.870 235.838,92.870" style="fill:none;stroke-width:0.020000mm;stroke:black"/>
<polygon points="317.088,92.870 317.088,106.870 331.088,106.870 331.088,92.870" style="fill:none;stroke-width:0.020000mm;stroke:black"/>
<polygon points="262.319,73.820 262.319,78.520 260.794,78.520 260.794,75.290 259.068,75.290 259.068,74.370 255.769,74.370 255.769,75.290 254.044,75.290 254.044,78.520 253.219,78.520 253.219,81.320 254.044,81.320 254.044,87.590 255.769,87.590 255.769,88.570 259.068,88.570 259.068,87.590 260.794,87.590 260.794,83.120 262.319,83.120 262.319,87.820 276.319,87.820 276.319,83.120 277.844,83.120 277.844,87.590 279.569,87.590 279.569,88.570 282.869,88.570 282.869,87.590 284.594,87.590 284.594,81.320 285.419,81.320 285.419,78.520 284.594,78.520 284.594,75.290 282.869,75.290 282.869,74.370 279.569,74.370 279.569,75.290 277.844,75.290 277.844,78.520 276.319,78.520 276.319,73.820" style="fill:none;stroke-width:0.020000mm;stroke:black"/>
<polygon points="14.669,73.820 14.669,87.820 28.669,87.820 28.669,73.820" style="fill:none;stroke-width:0.020000mm;stroke:black"/>
<polygon points="40.863,73.820 40.863,87.820 54.863,87.820 54.863,73.820" style="fill:none;stroke-width:0.020000mm;stroke:black"/>
<polygon points="59.913,73.820 59.913,87.820 73.913,87.820 73.913,73.820" style="fill:none;stroke-width:0.020000mm;stroke:black"/>
<polygon points="78.963,73.820 78.963,87.820 92.963,87.820 92.963,73.820" style="fill:none;stroke-width:0.020000mm;stroke:black"/>
<polygon points="98.013,73.820 98.013,87.820 112.013,87.820 112.013,73.820" style="fill:none;stroke-width:0.020000mm;stroke:black"/>
<polygon points="117.063,73.820 117.063,87.820 131.063,87.820 131.063,73.820" style="fill:none;stroke-width:0.020000mm;stroke:black"/>
<polygon points="136.113,73.820 136.113,87.820 150.113,87.820 150.113,73.820" style="fill:none;stroke-width:0.020000mm;stroke:black"/>
<polygon points="155.163,73.820 155.163,87.820 169.163,87.820 169.163,73.820" style="fill:none;stroke-width:0.020000mm;stroke:black"/>
<polygon points="174.213,73.820 174.213,87.820 188.213,87.820 188.213,73.820" style="fill:none;stroke-width:0.020000mm;stroke:black"/>
<polygon points="193.263,73.820 193.263,87.820 207.263,87.820 207.263,73.820" style="fill:none;stroke-width:0.020000mm;stroke:black"/>
<polygon points="212.313,73.820 212.313,87.820 226.313,87.820 226.313,73.820" style="fill:none;stroke-width:0.020000mm;stroke:black"/>
<polygon points="231.363,73.820 231.363,87.820 245.363,87.820 245.363,73.820" style="fill:none;stroke-width:0.020000mm;stroke:black"/>
<polygon points="12.288,54.770 12.288,68.770 26.288,68.770 26.288,54.770" style="fill:none;stroke-width:0.020000mm;stroke:black"/>
<polygon points="36.101,54.770 36.101,68.770 50.101,68.770 50.101,54.770" style="fill:none;stroke-width:0.020000mm;stroke:black"/>
<polygon points="55.151,54.770 55.151,68.770 69.151,68.770 69.151,54.770" style="fill:none;stroke-width:0.020000mm;stroke:black"/>
<polygon points="74.201,54.770 74.201,68.770 88.201,68.770 88.201,54.770" style="fill:none;stroke-width:0.020000mm;stroke:black"/>
<polygon points="93.251,54.770 93.251,68.770 107.251,68.770 107.251,54.770" style="fill:none;stroke-width:0.020000mm;stroke:black"/>
<polygon points="112.301,54.770 112.301,68.770 126.301,68.770 126.301,54.770" style="fill:none;stroke-width:0.020000mm;stroke:black"/>
<polygon points="131.351,54.770 131.351,68.770 145.351,68.770 145.351,54.770" style="fill:none;stroke-width:0.020000mm;stroke:black"/>
<polygon points="150.401,54.770 150.401,68.770 164.401,68.770 164.401,54.770" style="fill:none;stroke-width:0.020000mm;stroke:black"/>
<polygon points="169.451,54.770 169.451,68.770 183.451,68.770 183.451,54.770" style="fill:none;stroke-width:0.020000mm;stroke:black"/>
<polygon points="188.501,54.770 188.501,68.770 202.501,68.770 202.501,54.770" style="fill:none;stroke-width:0.020000mm;stroke:black"/>
<polygon points="207.551,54.770 207.551,68.770 221.551,68.770 221.551,54.770" style="fill:none;stroke-width:0.020000mm;stroke:black"/>
<polygon points="226.601,54.770 226.601,68.770 240.601,68.770 240.601,54.770" style="fill:none;stroke-width:0.020000mm;stroke:black"/>
<polygon points="245.651,54.770 245.651,68.770 259.650,68.770 259.650,54.770" style="fill:none;stroke-width:0.020000mm;stroke:black"/>
<polygon points="269.463,54.770 269.463,68.770 283.463,68.770 283.463,54.770" style="fill:none;stroke-width:0.020000mm;stroke:black"/>
<polygon points="298.038,54.770 298.038,68.770 312.038,68.770 312.038,54.770" style="fill:none;stroke-width:0.020000mm;stroke:black"/>
<polygon points="317.088,54.770 317.088,68.770 331.088,68.770 331.088,54.770" style="fill:none;stroke-width:0.020000mm;stroke:black"/>
<polygon points="336.138,54.770 336.138,68.770 350.138,68.770 350.138,54.770" style="fill:none;stroke-width:0.020000mm;stroke:black"/>
<polygon points="264.701,35.720 264.701,40.420 263.176,40.420 263.176,37.190 261.451,37.190 261.451,36.270 258.150,36.270 258.150,37.190 256.426,37.190 256.426,40.420 255.601,40.420 255.601,43.220 256.426,43.220 256.426,49.490 258.150,49.490 258.150,50.470 261.451,50.470 261.451,49.490 263.176,49.490 263.176,45.020 264.701,45.020 264.701,49.720 278.701,49.720 278.701,45.020 280.226,45.020 280.226,49.490 281.951,49.490 281.951,50.470 285.251,50.470 285.251,49.490 286.976,49.490 286.976,43.220 287.801,43.220 287.801,40.420 286.976,40.420 286.976,37.190 285.251,37.190 285.251,36.270 281.951,36.270 281.951,37.190 280.226,37.190 280.226,40.420 278.701,40.420 278.701,35.720" style="fill:none;stroke-width:0.020000mm;stroke:black"/>
<polygon points="7.526,35.720 7.526,49.720 21.526,49.720 21.526,35.720" style="fill:none;stroke-width:0.020000mm;stroke:black"/>
<polygon points="26.576,35.720 26.576,49.720 40.576,49.720 40.576,35.720" style="fill:none;stroke-width:0.020000mm;stroke:black"/>
<polygon points="45.626,35.720 45.626,49.720 59.626,49.720 59.626,35.720" style="fill:none;stroke-width:0.020000mm;stroke:black"/>
<polygon points="64.676,35.720 64.676,49.720 78.676,49.720 78.676,35.720" style="fill:none;stroke-width:0.020000mm;stroke:black"/>
<polygon points="83.726,35.720 83.726,49.720 97.726,49.720 97.726,35.720" style="fill:none;stroke-width:0.020000mm;stroke:black"/>
<polygon points="102.775,35.720 102.775,49.720 116.775,49.720 116.775,35.720" style="fill:none;stroke-width:0.020000mm;stroke:black"/>
<polygon points="121.825,35.720 121.825,49.720 135.826,49.720 135.826,35.720" style="fill:none;stroke-width:0.020000mm;stroke:black"/>
<polygon points="140.876,35.720 140.876,49.720 154.876,49.720 154.876,35.720" style="fill:none;stroke-width:0.020000mm;stroke:black"/>
<polygon points="159.926,35.720 159.926,49.720 173.926,49.720 173.926,35.720" style="fill:none;stroke-width:0.020000mm;stroke:black"/>
<polygon points="178.976,35.720 178.976,49.720 192.976,49.720 192.976,35.720" style="fill:none;stroke-width:0.020000mm;stroke:black"/>
<polygon points="198.026,35.720 198.026,49.720 212.026,49.720 212.026,35.720" style="fill:none;stroke-width:0.020000mm;stroke:black"/>
<polygon points="217.076,35.720 217.076,49.720 231.076,49.720 231.076,35.720" style="fill:none;stroke-width:0.020000mm;stroke:black"/>
<polygon points="236.126,35.720 236.126,49.720 250.126,49.720 250.126,35.720" style="fill:none;stroke-width:0.020000mm;stroke:black"/>
<polygon points="298.038,35.720 298.038,49.720 312.038,49.720 312.038,35.720" style="fill:none;stroke-width:0.020000mm;stroke:black"/>
<polygon points="317.088,35.720 317.088,49.720 331.088,49.720 331.088,35.720" style="fill:none;stroke-width:0.020000mm;stroke:black"/>
<polygon points="336.138,35.720 336.138,49.720 350.138,49.720 350.138,35.720" style="fill:none;stroke-width:0.020000mm;stroke:black"/>
<polygon points="7.526,7.526 7.526,21.526 21.526,21.526 21.526,7.526" style="fill:none;stroke-width:0.020000mm;stroke:black"/>
<polygon points="45.626,7.526 45.626,21.526 59.626,21.526 59.626,7.526" style="fill:none;stroke-width:0.020000mm;stroke:black"/>
<polygon points="64.676,7.526 64.676,21.526 78.676,21.526 78.676,7.526" style="fill:none;stroke-width:0.020000mm;stroke:black"/>
<polygon points="83.726,7.526 83.726,21.526 97.726,21.526 97.726,7.526" style="fill:none;stroke-width:0.020000mm;stroke:black"/>
<polygon points="102.775,7.526 102.775,21.526 116.775,21.526 116.775,7.526" style="fill:none;stroke-width:0.020000mm;stroke:black"/>
<polygon points="131.351,7.526 131.351,21.526 145.351,21.526 145.351,7.526" style="fill:none;stroke-width:0.020000mm;stroke:black"/>
<polygon points="150.401,7.526 150.401,21.526 164.401,21.526 164.401,7.526" style="fill:none;stroke-width:0.020000mm;stroke:black"/>
<polygon points="169.451,7.526 169.451,21.526 183.451,21.526 183.451,7.526" style="fill:none;stroke-width:0.020000mm;stroke:black"/>
<polygon points="188.501,7.526 188.501,21.526 202.501,21.526 202.501,7.526" style="fill:none;stroke-width:0.020000mm;stroke:black"/>
<polygon points="217.076,7.526 217.076,21.526 231.076,21.526 231.076,7.526" style="fill:none;stroke-width:0.020000mm;stroke:black"/>
<polygon points="236.126,7.526 236.126,21.526 250.126,21.526 250.126,7.526" style="fill:none;stroke-width:0.020000mm;stroke:black"/>
<polygon points="255.176,7.526 255.176,21.526 269.176,21.526 269.176,7.526" style="fill:none;stroke-width:0.020000mm;stroke:black"/>
<polygon points="274.226,7.526 274.226,21.526 288.226,21.526 288.226,7.526" style="fill:none;stroke-width:0.020000mm;stroke:black"/>
<polygon points="298.038,7.526 298.038,21.526 312.038,21.526 312.038,7.526" style="fill:none;stroke-width:0.020000mm;stroke:black"/>
<polygon points="317.088,7.526 317.088,21.526 331.088,21.526 331.088,7.526" style="fill:none;stroke-width:0.020000mm;stroke:black"/>
<polygon points="336.138,7.526 336.138,21.526 350.138,21.526 350.138,7.526" style="fill:none;stroke-width:0.020000mm;stroke:black"/>
</svg>