%TF.GenerationSoftware,KiCad,Pcbnew,(6.0.5)*%
%TF.CreationDate,2022-06-03T16:12:07-04:00*%
%TF.ProjectId,Rabid,52616269-642e-46b6-9963-61645f706362,rev?*%
%TF.SameCoordinates,Original*%
%TF.FileFunction,Paste,Top*%
%TF.FilePolarity,Positive*%
%FSLAX46Y46*%
G04 Gerber Fmt 4.6, Leading zero omitted, Abs format (unit mm)*
G04 Created by KiCad (PCBNEW (6.0.5)) date 2022-06-03 16:12:07*
%MOMM*%
%LPD*%
G01*
G04 APERTURE LIST*
%ADD10R,2.800000X1.500000*%
%ADD11R,1.500000X2.800000*%
G04 APERTURE END LIST*
D10*
%TO.C,U1*%
X320455000Y-153560000D03*
X320455000Y-155560000D03*
X320455000Y-157560000D03*
X320455000Y-159560000D03*
X320455000Y-161560000D03*
X320455000Y-163560000D03*
X320455000Y-165560000D03*
X320455000Y-167560000D03*
X320455000Y-169560000D03*
X320455000Y-171560000D03*
D11*
X323105000Y-174210000D03*
X325105000Y-174210000D03*
X327105000Y-174210000D03*
X329105000Y-174210000D03*
X331105000Y-174210000D03*
X333105000Y-174210000D03*
X335105000Y-174210000D03*
X337105000Y-174210000D03*
X339105000Y-174210000D03*
X341105000Y-174210000D03*
D10*
X343755000Y-171560000D03*
X343755000Y-169560000D03*
X343755000Y-167560000D03*
X343755000Y-165560000D03*
X343755000Y-163560000D03*
X343755000Y-161560000D03*
X343755000Y-159560000D03*
X343755000Y-157560000D03*
X343755000Y-155560000D03*
X343755000Y-153560000D03*
D11*
X341105000Y-150910000D03*
X339105000Y-150910000D03*
X337105000Y-150910000D03*
X335105000Y-150910000D03*
X333105000Y-150910000D03*
X331105000Y-150910000D03*
X329105000Y-150910000D03*
X327105000Y-150910000D03*
X325105000Y-150910000D03*
X323105000Y-150910000D03*
%TD*%
M02*
