%TF.GenerationSoftware,KiCad,Pcbnew,(6.0.5)*%
%TF.CreationDate,2022-06-03T16:12:07-04:00*%
%TF.ProjectId,Rabid,52616269-642e-46b6-9963-61645f706362,rev?*%
%TF.SameCoordinates,Original*%
%TF.FileFunction,Copper,L2,Bot*%
%TF.FilePolarity,Positive*%
%FSLAX46Y46*%
G04 Gerber Fmt 4.6, Leading zero omitted, Abs format (unit mm)*
G04 Created by KiCad (PCBNEW (6.0.5)) date 2022-06-03 16:12:07*
%MOMM*%
%LPD*%
G01*
G04 APERTURE LIST*
G04 Aperture macros list*
%AMRoundRect*
0 Rectangle with rounded corners*
0 $1 Rounding radius*
0 $2 $3 $4 $5 $6 $7 $8 $9 X,Y pos of 4 corners*
0 Add a 4 corners polygon primitive as box body*
4,1,4,$2,$3,$4,$5,$6,$7,$8,$9,$2,$3,0*
0 Add four circle primitives for the rounded corners*
1,1,$1+$1,$2,$3*
1,1,$1+$1,$4,$5*
1,1,$1+$1,$6,$7*
1,1,$1+$1,$8,$9*
0 Add four rect primitives between the rounded corners*
20,1,$1+$1,$2,$3,$4,$5,0*
20,1,$1+$1,$4,$5,$6,$7,0*
20,1,$1+$1,$6,$7,$8,$9,0*
20,1,$1+$1,$8,$9,$2,$3,0*%
G04 Aperture macros list end*
%TA.AperFunction,ComponentPad*%
%ADD10C,2.200000*%
%TD*%
%TA.AperFunction,ComponentPad*%
%ADD11R,1.600000X1.600000*%
%TD*%
%TA.AperFunction,ComponentPad*%
%ADD12O,1.600000X1.600000*%
%TD*%
%TA.AperFunction,ComponentPad*%
%ADD13C,1.350000*%
%TD*%
%TA.AperFunction,ComponentPad*%
%ADD14O,1.350000X1.350000*%
%TD*%
%TA.AperFunction,ComponentPad*%
%ADD15R,1.524000X1.524000*%
%TD*%
%TA.AperFunction,ComponentPad*%
%ADD16C,1.524000*%
%TD*%
%TA.AperFunction,ComponentPad*%
%ADD17R,1.800000X1.800000*%
%TD*%
%TA.AperFunction,ComponentPad*%
%ADD18C,1.800000*%
%TD*%
%TA.AperFunction,ComponentPad*%
%ADD19C,1.400000*%
%TD*%
%TA.AperFunction,ComponentPad*%
%ADD20O,1.400000X1.400000*%
%TD*%
%TA.AperFunction,ComponentPad*%
%ADD21R,1.700000X1.700000*%
%TD*%
%TA.AperFunction,ComponentPad*%
%ADD22O,1.700000X1.700000*%
%TD*%
%TA.AperFunction,ComponentPad*%
%ADD23C,2.000000*%
%TD*%
%TA.AperFunction,ComponentPad*%
%ADD24RoundRect,0.250000X0.625000X-0.350000X0.625000X0.350000X-0.625000X0.350000X-0.625000X-0.350000X0*%
%TD*%
%TA.AperFunction,ComponentPad*%
%ADD25O,1.750000X1.200000*%
%TD*%
%TA.AperFunction,ViaPad*%
%ADD26C,0.800000*%
%TD*%
%TA.AperFunction,Conductor*%
%ADD27C,0.300000*%
%TD*%
%TA.AperFunction,Conductor*%
%ADD28C,0.700000*%
%TD*%
G04 APERTURE END LIST*
D10*
%TO.P,SW72,1,1*%
%TO.N,Row0*%
X266852400Y-184861200D03*
%TO.P,SW72,2,2*%
%TO.N,Net-(D72-Pad2)*%
X260502400Y-187401200D03*
%TD*%
D11*
%TO.P,D13,1,K*%
%TO.N,ColC*%
X76200000Y-90678000D03*
D12*
%TO.P,D13,2,A*%
%TO.N,Net-(D13-Pad2)*%
X76200000Y-83058000D03*
%TD*%
D11*
%TO.P,D99,1,K*%
%TO.N,ColQ*%
X366522000Y-137795000D03*
D12*
%TO.P,D99,2,A*%
%TO.N,Net-(D99-Pad2)*%
X366522000Y-130175000D03*
%TD*%
D13*
%TO.P,U1,1,GPIO0*%
%TO.N,ColA*%
X321105000Y-153560000D03*
D14*
%TO.P,U1,2,GPIO1*%
%TO.N,ColB*%
X321105000Y-155560000D03*
%TO.P,U1,3,GPIO2*%
%TO.N,ColC*%
X321105000Y-157560000D03*
%TO.P,U1,4,GPIO3*%
%TO.N,ColD*%
X321105000Y-159560000D03*
%TO.P,U1,5,GPIO4*%
%TO.N,ColE*%
X321105000Y-161560000D03*
%TO.P,U1,6,GPIO5*%
%TO.N,ColF*%
X321105000Y-163560000D03*
%TO.P,U1,7,GPIO6*%
%TO.N,ColG*%
X321105000Y-165560000D03*
%TO.P,U1,8,GPIO7*%
%TO.N,ColH*%
X321105000Y-167560000D03*
%TO.P,U1,9,GPIO8*%
%TO.N,ColI*%
X321105000Y-169560000D03*
%TO.P,U1,10,GPIO9*%
%TO.N,ColJ*%
X321105000Y-171560000D03*
%TO.P,U1,11,GPIO10*%
%TO.N,ColK*%
X323105000Y-173560000D03*
%TO.P,U1,12,GPIO11*%
%TO.N,ColL*%
X325105000Y-173560000D03*
%TO.P,U1,13,GPIO12*%
%TO.N,ColM*%
X327105000Y-173560000D03*
%TO.P,U1,14,GPIO13*%
%TO.N,ColN*%
X329105000Y-173560000D03*
%TO.P,U1,15,GPIO14*%
%TO.N,ColO*%
X331105000Y-173560000D03*
%TO.P,U1,16,GPIO15*%
%TO.N,ColP*%
X333105000Y-173560000D03*
%TO.P,U1,17,GPIO16*%
%TO.N,ColQ*%
X335105000Y-173560000D03*
%TO.P,U1,18,GPIO17*%
%TO.N,/GPIO17*%
X337105000Y-173560000D03*
%TO.P,U1,19,GPIO18*%
%TO.N,/GPIO18*%
X339105000Y-173560000D03*
%TO.P,U1,20,GPIO19*%
%TO.N,/GPIO19*%
X341105000Y-173560000D03*
%TO.P,U1,21,GPIO20*%
%TO.N,Row0*%
X343105000Y-171560000D03*
%TO.P,U1,22,GPIO21*%
%TO.N,/GPIO21*%
X343105000Y-169560000D03*
%TO.P,U1,23,GPIO22*%
%TO.N,Row1*%
X343105000Y-167560000D03*
%TO.P,U1,24,GPIO23*%
%TO.N,Row2*%
X343105000Y-165560000D03*
%TO.P,U1,25,GPIO24*%
%TO.N,Row3*%
X343105000Y-163560000D03*
%TO.P,U1,26,GPIO25*%
%TO.N,Row4*%
X343105000Y-161560000D03*
%TO.P,U1,27,GPIO26*%
%TO.N,Row5*%
X343105000Y-159560000D03*
%TO.P,U1,28,GPIO27*%
%TO.N,/ScrollLED_GPIO*%
X343105000Y-157560000D03*
%TO.P,U1,29,GPIO28*%
%TO.N,/MetaLED_GPIO*%
X343105000Y-155560000D03*
%TO.P,U1,30,GPIO29*%
%TO.N,/CapsLED_GPIO*%
X343105000Y-153560000D03*
%TO.P,U1,31,GND*%
%TO.N,GND*%
X341105000Y-151560000D03*
%TO.P,U1,32,VBAT*%
%TO.N,unconnected-(U1-Pad32)*%
X339105000Y-151560000D03*
%TO.P,U1,33,5V*%
%TO.N,+5V*%
X337105000Y-151560000D03*
%TO.P,U1,34,3.3V*%
%TO.N,+3V3*%
X335105000Y-151560000D03*
%TO.P,U1,35,USB_D-*%
%TO.N,/USB_D-*%
X333105000Y-151560000D03*
%TO.P,U1,36,USB_D+*%
%TO.N,/USB_D+*%
X331105000Y-151560000D03*
%TO.P,U1,37,SWDIO*%
%TO.N,/SWDIO*%
X329105000Y-151560000D03*
%TO.P,U1,38,SWCLK*%
%TO.N,/SWCLK*%
X327105000Y-151560000D03*
%TO.P,U1,39,~{RESET}*%
%TO.N,/~{RESET}*%
X325105000Y-151560000D03*
%TO.P,U1,40,BOOTSEL*%
%TO.N,/BOOTSEL*%
X323105000Y-151560000D03*
%TD*%
D10*
%TO.P,SW91,1,1*%
%TO.N,Row5*%
X359791000Y-80518000D03*
%TO.P,SW91,2,2*%
%TO.N,Net-(D91-Pad2)*%
X353441000Y-83058000D03*
D15*
%TO.P,SW91,3,K*%
%TO.N,GND*%
X355981000Y-90678000D03*
D16*
%TO.P,SW91,4,A*%
%TO.N,/ScrollLED*%
X358521000Y-90678000D03*
%TD*%
D10*
%TO.P,SW18,1,1*%
%TO.N,Row0*%
X100203000Y-184861200D03*
%TO.P,SW18,2,2*%
%TO.N,Net-(D18-Pad2)*%
X93853000Y-187401200D03*
%TD*%
D11*
%TO.P,D102,1,K*%
%TO.N,ColQ*%
X367030000Y-194818000D03*
D12*
%TO.P,D102,2,A*%
%TO.N,Net-(D102-Pad2)*%
X367030000Y-187198000D03*
%TD*%
D10*
%TO.P,SW4,1,1*%
%TO.N,Row2*%
X57302400Y-146710400D03*
%TO.P,SW4,2,2*%
%TO.N,Net-(D4-Pad2)*%
X50952400Y-149250400D03*
D15*
%TO.P,SW4,3,K*%
%TO.N,GND*%
X53492400Y-156870400D03*
D16*
%TO.P,SW4,4,A*%
%TO.N,/CapsLED*%
X56032400Y-156870400D03*
%TD*%
D11*
%TO.P,D8,1,K*%
%TO.N,ColB*%
X57150000Y-118745000D03*
D12*
%TO.P,D8,2,A*%
%TO.N,Net-(D8-Pad2)*%
X57150000Y-111125000D03*
%TD*%
D10*
%TO.P,SW68,1,1*%
%TO.N,Row4*%
X259740400Y-108635800D03*
%TO.P,SW68,2,2*%
%TO.N,Net-(D68-Pad2)*%
X253390400Y-111175800D03*
%TD*%
%TO.P,SW40,1,1*%
%TO.N,Row2*%
X178765200Y-146710400D03*
%TO.P,SW40,2,2*%
%TO.N,Net-(D40-Pad2)*%
X172415200Y-149250400D03*
%TD*%
%TO.P,SW59,1,1*%
%TO.N,Row1*%
X245440200Y-165735000D03*
%TO.P,SW59,2,2*%
%TO.N,Net-(D59-Pad2)*%
X239090200Y-168275000D03*
%TD*%
%TO.P,SW17,1,1*%
%TO.N,Row1*%
X112090200Y-165735000D03*
%TO.P,SW17,2,2*%
%TO.N,Net-(D17-Pad2)*%
X105740200Y-168275000D03*
%TD*%
D11*
%TO.P,D34,1,K*%
%TO.N,ColF*%
X147955000Y-156845000D03*
D12*
%TO.P,D34,2,A*%
%TO.N,Net-(D34-Pad2)*%
X147955000Y-149225000D03*
%TD*%
D11*
%TO.P,D5,1,K*%
%TO.N,ColA*%
X43434000Y-175514000D03*
D12*
%TO.P,D5,2,A*%
%TO.N,Net-(D5-Pad2)*%
X43434000Y-167894000D03*
%TD*%
D11*
%TO.P,D29,1,K*%
%TO.N,ColE*%
X138430000Y-175895000D03*
D12*
%TO.P,D29,2,A*%
%TO.N,Net-(D29-Pad2)*%
X138430000Y-168275000D03*
%TD*%
D11*
%TO.P,D42,1,K*%
%TO.N,ColG*%
X156210000Y-194945000D03*
D12*
%TO.P,D42,2,A*%
%TO.N,Net-(D42-Pad2)*%
X156210000Y-187325000D03*
%TD*%
D10*
%TO.P,SW99,1,1*%
%TO.N,Row3*%
X378891800Y-127635000D03*
%TO.P,SW99,2,2*%
%TO.N,Net-(D99-Pad2)*%
X372541800Y-130175000D03*
%TD*%
%TO.P,SW5,1,1*%
%TO.N,Row1*%
X62103000Y-165735000D03*
%TO.P,SW5,2,2*%
%TO.N,Net-(D5-Pad2)*%
X55753000Y-168275000D03*
%TD*%
%TO.P,SW35,1,1*%
%TO.N,Row1*%
X169240200Y-165735000D03*
%TO.P,SW35,2,2*%
%TO.N,Net-(D35-Pad2)*%
X162890200Y-168275000D03*
%TD*%
%TO.P,SW58,1,1*%
%TO.N,Row2*%
X235915200Y-146710400D03*
%TO.P,SW58,2,2*%
%TO.N,Net-(D58-Pad2)*%
X229565200Y-149250400D03*
%TD*%
%TO.P,SW25,1,1*%
%TO.N,Row5*%
X126365000Y-80518000D03*
%TO.P,SW25,2,2*%
%TO.N,Net-(D25-Pad2)*%
X120015000Y-83058000D03*
%TD*%
D11*
%TO.P,D49,1,K*%
%TO.N,ColI*%
X200025000Y-90678000D03*
D12*
%TO.P,D49,2,A*%
%TO.N,Net-(D49-Pad2)*%
X200025000Y-83058000D03*
%TD*%
D11*
%TO.P,D67,1,K*%
%TO.N,ColL*%
X266700000Y-90678000D03*
D12*
%TO.P,D67,2,A*%
%TO.N,Net-(D67-Pad2)*%
X266700000Y-83058000D03*
%TD*%
D11*
%TO.P,D15,1,K*%
%TO.N,ColC*%
X85725000Y-137795000D03*
D12*
%TO.P,D15,2,A*%
%TO.N,Net-(D15-Pad2)*%
X85725000Y-130175000D03*
%TD*%
D10*
%TO.P,SW46,1,1*%
%TO.N,Row2*%
X197815200Y-146710400D03*
%TO.P,SW46,2,2*%
%TO.N,Net-(D46-Pad2)*%
X191465200Y-149250400D03*
%TD*%
D17*
%TO.P,D104,1,K*%
%TO.N,GND*%
X347726000Y-98293000D03*
D18*
%TO.P,D104,2,A*%
%TO.N,/CapsLED*%
X347726000Y-100833000D03*
%TD*%
D10*
%TO.P,SW2,1,1*%
%TO.N,Row4*%
X50165000Y-108635800D03*
%TO.P,SW2,2,2*%
%TO.N,Net-(D2-Pad2)*%
X43815000Y-111175800D03*
%TD*%
%TO.P,SW19,1,1*%
%TO.N,Row5*%
X107315000Y-80518000D03*
%TO.P,SW19,2,2*%
%TO.N,Net-(D19-Pad2)*%
X100965000Y-83058000D03*
%TD*%
D11*
%TO.P,D27,1,K*%
%TO.N,ColE*%
X123825000Y-137795000D03*
D12*
%TO.P,D27,2,A*%
%TO.N,Net-(D27-Pad2)*%
X123825000Y-130175000D03*
%TD*%
D10*
%TO.P,SW11,1,1*%
%TO.N,Row1*%
X93040200Y-165735000D03*
%TO.P,SW11,2,2*%
%TO.N,Net-(D11-Pad2)*%
X86690200Y-168275000D03*
%TD*%
D11*
%TO.P,D44,1,K*%
%TO.N,ColH*%
X171450000Y-118745000D03*
D12*
%TO.P,D44,2,A*%
%TO.N,Net-(D44-Pad2)*%
X171450000Y-111125000D03*
%TD*%
D11*
%TO.P,D28,1,K*%
%TO.N,ColE*%
X128270000Y-156845000D03*
D12*
%TO.P,D28,2,A*%
%TO.N,Net-(D28-Pad2)*%
X128270000Y-149225000D03*
%TD*%
D10*
%TO.P,SW75,1,1*%
%TO.N,Row3*%
X288340800Y-127635000D03*
%TO.P,SW75,2,2*%
%TO.N,Net-(D75-Pad2)*%
X281990800Y-130175000D03*
%TD*%
%TO.P,SW80,1,1*%
%TO.N,Row4*%
X307365400Y-108635800D03*
%TO.P,SW80,2,2*%
%TO.N,Net-(D80-Pad2)*%
X301015400Y-111175800D03*
%TD*%
D11*
%TO.P,D41,1,K*%
%TO.N,ColG*%
X176530000Y-175895000D03*
D12*
%TO.P,D41,2,A*%
%TO.N,Net-(D41-Pad2)*%
X176530000Y-168275000D03*
%TD*%
D11*
%TO.P,D62,1,K*%
%TO.N,ColK*%
X229235000Y-118745000D03*
D12*
%TO.P,D62,2,A*%
%TO.N,Net-(D62-Pad2)*%
X229235000Y-111125000D03*
%TD*%
D19*
%TO.P,R1,1*%
%TO.N,/ScrollLED_GPIO*%
X354330000Y-152908000D03*
D20*
%TO.P,R1,2*%
%TO.N,/ScrollLED*%
X361950000Y-152908000D03*
%TD*%
D11*
%TO.P,D64,1,K*%
%TO.N,ColK*%
X242570000Y-156845000D03*
D12*
%TO.P,D64,2,A*%
%TO.N,Net-(D64-Pad2)*%
X242570000Y-149225000D03*
%TD*%
D11*
%TO.P,D65,1,K*%
%TO.N,ColK*%
X252730000Y-175895000D03*
D12*
%TO.P,D65,2,A*%
%TO.N,Net-(D65-Pad2)*%
X252730000Y-168275000D03*
%TD*%
D11*
%TO.P,D50,1,K*%
%TO.N,ColI*%
X190500000Y-118745000D03*
D12*
%TO.P,D50,2,A*%
%TO.N,Net-(D50-Pad2)*%
X190500000Y-111125000D03*
%TD*%
D11*
%TO.P,D61,1,K*%
%TO.N,ColK*%
X247650000Y-90678000D03*
D12*
%TO.P,D61,2,A*%
%TO.N,Net-(D61-Pad2)*%
X247650000Y-83058000D03*
%TD*%
D10*
%TO.P,SW32,1,1*%
%TO.N,Row4*%
X145440400Y-108635800D03*
%TO.P,SW32,2,2*%
%TO.N,Net-(D32-Pad2)*%
X139090400Y-111175800D03*
%TD*%
D11*
%TO.P,D90,1,K*%
%TO.N,ColO*%
X342138000Y-180594000D03*
D12*
%TO.P,D90,2,A*%
%TO.N,Net-(D90-Pad2)*%
X334518000Y-180594000D03*
%TD*%
D10*
%TO.P,SW27,1,1*%
%TO.N,Row3*%
X135940800Y-127635000D03*
%TO.P,SW27,2,2*%
%TO.N,Net-(D27-Pad2)*%
X129590800Y-130175000D03*
%TD*%
D11*
%TO.P,D80,1,K*%
%TO.N,ColN*%
X288290000Y-118745000D03*
D12*
%TO.P,D80,2,A*%
%TO.N,Net-(D80-Pad2)*%
X288290000Y-111125000D03*
%TD*%
D11*
%TO.P,D81,1,K*%
%TO.N,ColN*%
X298450000Y-137795000D03*
D12*
%TO.P,D81,2,A*%
%TO.N,Net-(D81-Pad2)*%
X298450000Y-130175000D03*
%TD*%
D11*
%TO.P,D22,1,K*%
%TO.N,ColD*%
X109220000Y-156845000D03*
D12*
%TO.P,D22,2,A*%
%TO.N,Net-(D22-Pad2)*%
X109220000Y-149225000D03*
%TD*%
D11*
%TO.P,D68,1,K*%
%TO.N,ColL*%
X247650000Y-118745000D03*
D12*
%TO.P,D68,2,A*%
%TO.N,Net-(D68-Pad2)*%
X247650000Y-111125000D03*
%TD*%
D11*
%TO.P,D31,1,K*%
%TO.N,ColF*%
X133350000Y-90678000D03*
D12*
%TO.P,D31,2,A*%
%TO.N,Net-(D31-Pad2)*%
X133350000Y-83058000D03*
%TD*%
D10*
%TO.P,SW62,1,1*%
%TO.N,Row4*%
X240690400Y-108635800D03*
%TO.P,SW62,2,2*%
%TO.N,Net-(D62-Pad2)*%
X234340400Y-111175800D03*
%TD*%
D11*
%TO.P,D52,1,K*%
%TO.N,ColI*%
X205105000Y-156845000D03*
D12*
%TO.P,D52,2,A*%
%TO.N,Net-(D52-Pad2)*%
X205105000Y-149225000D03*
%TD*%
D10*
%TO.P,SW76,1,1*%
%TO.N,Row2*%
X304952400Y-146710400D03*
%TO.P,SW76,2,2*%
%TO.N,Net-(D76-Pad2)*%
X298602400Y-149250400D03*
%TD*%
D11*
%TO.P,D9,1,K*%
%TO.N,ColB*%
X66675000Y-137795000D03*
D12*
%TO.P,D9,2,A*%
%TO.N,Net-(D9-Pad2)*%
X66675000Y-130175000D03*
%TD*%
D10*
%TO.P,SW70,1,1*%
%TO.N,Row2*%
X274015200Y-146710400D03*
%TO.P,SW70,2,2*%
%TO.N,Net-(D70-Pad2)*%
X267665200Y-149250400D03*
%TD*%
%TO.P,SW61,1,1*%
%TO.N,Row5*%
X259715000Y-80518000D03*
%TO.P,SW61,2,2*%
%TO.N,Net-(D61-Pad2)*%
X253365000Y-83058000D03*
D15*
%TO.P,SW61,3,K*%
%TO.N,GND*%
X255905000Y-90678000D03*
D16*
%TO.P,SW61,4,A*%
%TO.N,/MetaLED*%
X258445000Y-90678000D03*
%TD*%
D11*
%TO.P,D39,1,K*%
%TO.N,ColG*%
X161925000Y-137795000D03*
D12*
%TO.P,D39,2,A*%
%TO.N,Net-(D39-Pad2)*%
X161925000Y-130175000D03*
%TD*%
D11*
%TO.P,D32,1,K*%
%TO.N,ColF*%
X133350000Y-118745000D03*
D12*
%TO.P,D32,2,A*%
%TO.N,Net-(D32-Pad2)*%
X133350000Y-111125000D03*
%TD*%
D10*
%TO.P,SW96,1,1*%
%TO.N,Row0*%
X359791000Y-184861200D03*
%TO.P,SW96,2,2*%
%TO.N,Net-(D96-Pad2)*%
X353441000Y-187401200D03*
%TD*%
%TO.P,SW90,1,1*%
%TO.N,Row0*%
X340741000Y-184861200D03*
%TO.P,SW90,2,2*%
%TO.N,Net-(D90-Pad2)*%
X334391000Y-187401200D03*
%TD*%
D11*
%TO.P,D40,1,K*%
%TO.N,ColG*%
X167005000Y-156845000D03*
D12*
%TO.P,D40,2,A*%
%TO.N,Net-(D40-Pad2)*%
X167005000Y-149225000D03*
%TD*%
D10*
%TO.P,SW6,1,1*%
%TO.N,Row0*%
X52578000Y-184861200D03*
%TO.P,SW6,2,2*%
%TO.N,Net-(D6-Pad2)*%
X46228000Y-187401200D03*
%TD*%
%TO.P,SW1,1,1*%
%TO.N,Row5*%
X50165000Y-80518000D03*
%TO.P,SW1,2,2*%
%TO.N,Net-(D1-Pad2)*%
X43815000Y-83058000D03*
%TD*%
D11*
%TO.P,D18,1,K*%
%TO.N,ColC*%
X85725000Y-194945000D03*
D12*
%TO.P,D18,2,A*%
%TO.N,Net-(D18-Pad2)*%
X85725000Y-187325000D03*
%TD*%
D11*
%TO.P,D59,1,K*%
%TO.N,ColJ*%
X233045000Y-175895000D03*
D12*
%TO.P,D59,2,A*%
%TO.N,Net-(D59-Pad2)*%
X233045000Y-168275000D03*
%TD*%
D11*
%TO.P,D72,1,K*%
%TO.N,ColL*%
X252095000Y-194945000D03*
D12*
%TO.P,D72,2,A*%
%TO.N,Net-(D72-Pad2)*%
X252095000Y-187325000D03*
%TD*%
D10*
%TO.P,SW63,1,1*%
%TO.N,Row3*%
X250240800Y-127635000D03*
%TO.P,SW63,2,2*%
%TO.N,Net-(D63-Pad2)*%
X243890800Y-130175000D03*
%TD*%
%TO.P,SW52,1,1*%
%TO.N,Row2*%
X216865200Y-146710400D03*
%TO.P,SW52,2,2*%
%TO.N,Net-(D52-Pad2)*%
X210515200Y-149250400D03*
%TD*%
D11*
%TO.P,D97,1,K*%
%TO.N,ColQ*%
X366776000Y-90678000D03*
D12*
%TO.P,D97,2,A*%
%TO.N,Net-(D97-Pad2)*%
X366776000Y-83058000D03*
%TD*%
D11*
%TO.P,D45,1,K*%
%TO.N,ColH*%
X180975000Y-137795000D03*
D12*
%TO.P,D45,2,A*%
%TO.N,Net-(D45-Pad2)*%
X180975000Y-130175000D03*
%TD*%
D19*
%TO.P,R3,1*%
%TO.N,/CapsLED_GPIO*%
X354330000Y-145796000D03*
D20*
%TO.P,R3,2*%
%TO.N,/CapsLED*%
X361950000Y-145796000D03*
%TD*%
D10*
%TO.P,SW95,1,1*%
%TO.N,Row1*%
X359791000Y-165735000D03*
%TO.P,SW95,2,2*%
%TO.N,Net-(D95-Pad2)*%
X353441000Y-168275000D03*
%TD*%
%TO.P,SW45,1,1*%
%TO.N,Row3*%
X193090800Y-127635000D03*
%TO.P,SW45,2,2*%
%TO.N,Net-(D45-Pad2)*%
X186740800Y-130175000D03*
%TD*%
D11*
%TO.P,D2,1,K*%
%TO.N,ColA*%
X51308000Y-103378000D03*
D12*
%TO.P,D2,2,A*%
%TO.N,Net-(D2-Pad2)*%
X43688000Y-103378000D03*
%TD*%
D11*
%TO.P,D92,1,K*%
%TO.N,ColP*%
X347726000Y-118745000D03*
D12*
%TO.P,D92,2,A*%
%TO.N,Net-(D92-Pad2)*%
X347726000Y-111125000D03*
%TD*%
D11*
%TO.P,D20,1,K*%
%TO.N,ColD*%
X95250000Y-118745000D03*
D12*
%TO.P,D20,2,A*%
%TO.N,Net-(D20-Pad2)*%
X95250000Y-111125000D03*
%TD*%
D10*
%TO.P,SW64,1,1*%
%TO.N,Row2*%
X254965200Y-146710400D03*
%TO.P,SW64,2,2*%
%TO.N,Net-(D64-Pad2)*%
X248615200Y-149250400D03*
%TD*%
%TO.P,SW41,1,1*%
%TO.N,Row1*%
X188290200Y-165735000D03*
%TO.P,SW41,2,2*%
%TO.N,Net-(D41-Pad2)*%
X181940200Y-168275000D03*
%TD*%
%TO.P,SW69,1,1*%
%TO.N,Row3*%
X269290800Y-127635000D03*
%TO.P,SW69,2,2*%
%TO.N,Net-(D69-Pad2)*%
X262940800Y-130175000D03*
%TD*%
%TO.P,SW53,1,1*%
%TO.N,Row1*%
X226390200Y-165735000D03*
%TO.P,SW53,2,2*%
%TO.N,Net-(D53-Pad2)*%
X220040200Y-168275000D03*
%TD*%
%TO.P,SW78,1,1*%
%TO.N,Row0*%
X290703000Y-184861200D03*
%TO.P,SW78,2,2*%
%TO.N,Net-(D78-Pad2)*%
X284353000Y-187401200D03*
%TD*%
D11*
%TO.P,D69,1,K*%
%TO.N,ColL*%
X256540000Y-137795000D03*
D12*
%TO.P,D69,2,A*%
%TO.N,Net-(D69-Pad2)*%
X256540000Y-130175000D03*
%TD*%
D11*
%TO.P,D47,1,K*%
%TO.N,ColH*%
X195580000Y-175895000D03*
D12*
%TO.P,D47,2,A*%
%TO.N,Net-(D47-Pad2)*%
X195580000Y-168275000D03*
%TD*%
D10*
%TO.P,SW79,1,1*%
%TO.N,Row5*%
X316865000Y-80518000D03*
%TO.P,SW79,2,2*%
%TO.N,Net-(D79-Pad2)*%
X310515000Y-83058000D03*
%TD*%
%TO.P,SW26,1,1*%
%TO.N,Row4*%
X126390400Y-108635800D03*
%TO.P,SW26,2,2*%
%TO.N,Net-(D26-Pad2)*%
X120040400Y-111175800D03*
%TD*%
%TO.P,SW21,1,1*%
%TO.N,Row3*%
X116890800Y-127635000D03*
%TO.P,SW21,2,2*%
%TO.N,Net-(D21-Pad2)*%
X110540800Y-130175000D03*
%TD*%
%TO.P,SW56,1,1*%
%TO.N,Row4*%
X221640400Y-108635800D03*
%TO.P,SW56,2,2*%
%TO.N,Net-(D56-Pad2)*%
X215290400Y-111175800D03*
%TD*%
D11*
%TO.P,D58,1,K*%
%TO.N,ColJ*%
X224155000Y-156845000D03*
D12*
%TO.P,D58,2,A*%
%TO.N,Net-(D58-Pad2)*%
X224155000Y-149225000D03*
%TD*%
D11*
%TO.P,D23,1,K*%
%TO.N,ColD*%
X119380000Y-175895000D03*
D12*
%TO.P,D23,2,A*%
%TO.N,Net-(D23-Pad2)*%
X119380000Y-168275000D03*
%TD*%
D17*
%TO.P,D106,1,K*%
%TO.N,GND*%
X366776000Y-98298000D03*
D18*
%TO.P,D106,2,A*%
%TO.N,/ScrollLED*%
X366776000Y-100838000D03*
%TD*%
D11*
%TO.P,D33,1,K*%
%TO.N,ColF*%
X142875000Y-137795000D03*
D12*
%TO.P,D33,2,A*%
%TO.N,Net-(D33-Pad2)*%
X142875000Y-130175000D03*
%TD*%
D11*
%TO.P,D96,1,K*%
%TO.N,ColP*%
X347726000Y-194818000D03*
D12*
%TO.P,D96,2,A*%
%TO.N,Net-(D96-Pad2)*%
X347726000Y-187198000D03*
%TD*%
D11*
%TO.P,D86,1,K*%
%TO.N,ColO*%
X328676000Y-118745000D03*
D12*
%TO.P,D86,2,A*%
%TO.N,Net-(D86-Pad2)*%
X328676000Y-111125000D03*
%TD*%
D10*
%TO.P,SW66,1,1*%
%TO.N,Row0*%
X242976400Y-184861200D03*
%TO.P,SW66,2,2*%
%TO.N,Net-(D66-Pad2)*%
X236626400Y-187401200D03*
%TD*%
D11*
%TO.P,D16,1,K*%
%TO.N,ColC*%
X90170000Y-156845000D03*
D12*
%TO.P,D16,2,A*%
%TO.N,Net-(D16-Pad2)*%
X90170000Y-149225000D03*
%TD*%
D10*
%TO.P,SW85,1,1*%
%TO.N,Row5*%
X340741000Y-80518000D03*
%TO.P,SW85,2,2*%
%TO.N,Net-(D85-Pad2)*%
X334391000Y-83058000D03*
%TD*%
D11*
%TO.P,D3,1,K*%
%TO.N,ColA*%
X43180000Y-137668000D03*
D12*
%TO.P,D3,2,A*%
%TO.N,Net-(D3-Pad2)*%
X43180000Y-130048000D03*
%TD*%
D11*
%TO.P,D76,1,K*%
%TO.N,ColM*%
X284988000Y-156972000D03*
D12*
%TO.P,D76,2,A*%
%TO.N,Net-(D76-Pad2)*%
X284988000Y-149352000D03*
%TD*%
D11*
%TO.P,D85,1,K*%
%TO.N,ColO*%
X328676000Y-90678000D03*
D12*
%TO.P,D85,2,A*%
%TO.N,Net-(D85-Pad2)*%
X328676000Y-83058000D03*
%TD*%
D11*
%TO.P,D74,1,K*%
%TO.N,ColM*%
X266700000Y-118745000D03*
D12*
%TO.P,D74,2,A*%
%TO.N,Net-(D74-Pad2)*%
X266700000Y-111125000D03*
%TD*%
D11*
%TO.P,D25,1,K*%
%TO.N,ColE*%
X114300000Y-90678000D03*
D12*
%TO.P,D25,2,A*%
%TO.N,Net-(D25-Pad2)*%
X114300000Y-83058000D03*
%TD*%
D11*
%TO.P,D93,1,K*%
%TO.N,ColP*%
X347726000Y-137795000D03*
D12*
%TO.P,D93,2,A*%
%TO.N,Net-(D93-Pad2)*%
X347726000Y-130175000D03*
%TD*%
D10*
%TO.P,SW73,1,1*%
%TO.N,Row5*%
X297815000Y-80518000D03*
%TO.P,SW73,2,2*%
%TO.N,Net-(D73-Pad2)*%
X291465000Y-83058000D03*
%TD*%
%TO.P,SW20,1,1*%
%TO.N,Row4*%
X107340400Y-108635800D03*
%TO.P,SW20,2,2*%
%TO.N,Net-(D20-Pad2)*%
X100990400Y-111175800D03*
%TD*%
D11*
%TO.P,D53,1,K*%
%TO.N,ColI*%
X214376000Y-175895000D03*
D12*
%TO.P,D53,2,A*%
%TO.N,Net-(D53-Pad2)*%
X214376000Y-168275000D03*
%TD*%
D10*
%TO.P,SW43,1,1*%
%TO.N,Row5*%
X193040000Y-80518000D03*
%TO.P,SW43,2,2*%
%TO.N,Net-(D43-Pad2)*%
X186690000Y-83058000D03*
%TD*%
D11*
%TO.P,D37,1,K*%
%TO.N,ColG*%
X161290000Y-90678000D03*
D12*
%TO.P,D37,2,A*%
%TO.N,Net-(D37-Pad2)*%
X161290000Y-83058000D03*
%TD*%
D10*
%TO.P,SW29,1,1*%
%TO.N,Row1*%
X150190200Y-165735000D03*
%TO.P,SW29,2,2*%
%TO.N,Net-(D29-Pad2)*%
X143840200Y-168275000D03*
%TD*%
D11*
%TO.P,D91,1,K*%
%TO.N,ColP*%
X347726000Y-90678000D03*
D12*
%TO.P,D91,2,A*%
%TO.N,Net-(D91-Pad2)*%
X347726000Y-83058000D03*
%TD*%
D11*
%TO.P,D12,1,K*%
%TO.N,ColB*%
X64262000Y-194818000D03*
D12*
%TO.P,D12,2,A*%
%TO.N,Net-(D12-Pad2)*%
X64262000Y-187198000D03*
%TD*%
D11*
%TO.P,D35,1,K*%
%TO.N,ColF*%
X157480000Y-175895000D03*
D12*
%TO.P,D35,2,A*%
%TO.N,Net-(D35-Pad2)*%
X157480000Y-168275000D03*
%TD*%
D11*
%TO.P,D17,1,K*%
%TO.N,ColC*%
X100330000Y-175895000D03*
D12*
%TO.P,D17,2,A*%
%TO.N,Net-(D17-Pad2)*%
X100330000Y-168275000D03*
%TD*%
D11*
%TO.P,D87,1,K*%
%TO.N,ColO*%
X328676000Y-137795000D03*
D12*
%TO.P,D87,2,A*%
%TO.N,Net-(D87-Pad2)*%
X328676000Y-130175000D03*
%TD*%
D11*
%TO.P,D55,1,K*%
%TO.N,ColJ*%
X219075000Y-90678000D03*
D12*
%TO.P,D55,2,A*%
%TO.N,Net-(D55-Pad2)*%
X219075000Y-83058000D03*
%TD*%
D19*
%TO.P,R2,1*%
%TO.N,/MetaLED_GPIO*%
X354330000Y-149352000D03*
D20*
%TO.P,R2,2*%
%TO.N,/MetaLED*%
X361950000Y-149352000D03*
%TD*%
D10*
%TO.P,SW31,1,1*%
%TO.N,Row5*%
X145415000Y-80518000D03*
%TO.P,SW31,2,2*%
%TO.N,Net-(D31-Pad2)*%
X139065000Y-83058000D03*
%TD*%
D11*
%TO.P,D66,1,K*%
%TO.N,ColK*%
X230505000Y-194945000D03*
D12*
%TO.P,D66,2,A*%
%TO.N,Net-(D66-Pad2)*%
X230505000Y-187325000D03*
%TD*%
D10*
%TO.P,SW74,1,1*%
%TO.N,Row4*%
X278790400Y-108635800D03*
%TO.P,SW74,2,2*%
%TO.N,Net-(D74-Pad2)*%
X272440400Y-111175800D03*
%TD*%
%TO.P,SW3,1,1*%
%TO.N,Row3*%
X54914800Y-127635000D03*
%TO.P,SW3,2,2*%
%TO.N,Net-(D3-Pad2)*%
X48564800Y-130175000D03*
%TD*%
D11*
%TO.P,D1,1,K*%
%TO.N,ColA*%
X57404000Y-90551000D03*
D12*
%TO.P,D1,2,A*%
%TO.N,Net-(D1-Pad2)*%
X57404000Y-82931000D03*
%TD*%
D10*
%TO.P,SW87,1,1*%
%TO.N,Row3*%
X340791800Y-127635000D03*
%TO.P,SW87,2,2*%
%TO.N,Net-(D87-Pad2)*%
X334441800Y-130175000D03*
%TD*%
%TO.P,SW23,1,1*%
%TO.N,Row1*%
X131140200Y-165735000D03*
%TO.P,SW23,2,2*%
%TO.N,Net-(D23-Pad2)*%
X124790200Y-168275000D03*
%TD*%
%TO.P,SW98,1,1*%
%TO.N,Row4*%
X378866400Y-108635800D03*
%TO.P,SW98,2,2*%
%TO.N,Net-(D98-Pad2)*%
X372516400Y-111175800D03*
%TD*%
%TO.P,SW44,1,1*%
%TO.N,Row4*%
X183540400Y-108635800D03*
%TO.P,SW44,2,2*%
%TO.N,Net-(D44-Pad2)*%
X177190400Y-111175800D03*
%TD*%
D11*
%TO.P,D43,1,K*%
%TO.N,ColH*%
X180975000Y-90678000D03*
D12*
%TO.P,D43,2,A*%
%TO.N,Net-(D43-Pad2)*%
X180975000Y-83058000D03*
%TD*%
D10*
%TO.P,SW86,1,1*%
%TO.N,Row4*%
X340766400Y-108635800D03*
%TO.P,SW86,2,2*%
%TO.N,Net-(D86-Pad2)*%
X334416400Y-111175800D03*
%TD*%
%TO.P,SW51,1,1*%
%TO.N,Row3*%
X212140800Y-127635000D03*
%TO.P,SW51,2,2*%
%TO.N,Net-(D51-Pad2)*%
X205790800Y-130175000D03*
%TD*%
D11*
%TO.P,D19,1,K*%
%TO.N,ColD*%
X94615000Y-90678000D03*
D12*
%TO.P,D19,2,A*%
%TO.N,Net-(D19-Pad2)*%
X94615000Y-83058000D03*
%TD*%
D10*
%TO.P,SW14,1,1*%
%TO.N,Row4*%
X88290400Y-108635800D03*
%TO.P,SW14,2,2*%
%TO.N,Net-(D14-Pad2)*%
X81940400Y-111175800D03*
%TD*%
%TO.P,SW84,1,1*%
%TO.N,Row0*%
X314579000Y-184861200D03*
%TO.P,SW84,2,2*%
%TO.N,Net-(D84-Pad2)*%
X308229000Y-187401200D03*
%TD*%
%TO.P,SW65,1,1*%
%TO.N,Row1*%
X264490200Y-165735000D03*
%TO.P,SW65,2,2*%
%TO.N,Net-(D65-Pad2)*%
X258140200Y-168275000D03*
%TD*%
D11*
%TO.P,D70,1,K*%
%TO.N,ColL*%
X262255000Y-156845000D03*
D12*
%TO.P,D70,2,A*%
%TO.N,Net-(D70-Pad2)*%
X262255000Y-149225000D03*
%TD*%
D10*
%TO.P,SW97,1,1*%
%TO.N,Row5*%
X378841000Y-80518000D03*
%TO.P,SW97,2,2*%
%TO.N,Net-(D97-Pad2)*%
X372491000Y-83058000D03*
%TD*%
%TO.P,SW38,1,1*%
%TO.N,Row4*%
X164490400Y-108635800D03*
%TO.P,SW38,2,2*%
%TO.N,Net-(D38-Pad2)*%
X158140400Y-111175800D03*
%TD*%
D11*
%TO.P,D11,1,K*%
%TO.N,ColB*%
X81280000Y-175895000D03*
D12*
%TO.P,D11,2,A*%
%TO.N,Net-(D11-Pad2)*%
X81280000Y-168275000D03*
%TD*%
D10*
%TO.P,SW102,1,1*%
%TO.N,Row0*%
X378841000Y-184861200D03*
%TO.P,SW102,2,2*%
%TO.N,Net-(D102-Pad2)*%
X372491000Y-187401200D03*
%TD*%
%TO.P,SW34,1,1*%
%TO.N,Row2*%
X159715200Y-146710400D03*
%TO.P,SW34,2,2*%
%TO.N,Net-(D34-Pad2)*%
X153365200Y-149250400D03*
%TD*%
%TO.P,SW37,1,1*%
%TO.N,Row5*%
X173990000Y-80518000D03*
%TO.P,SW37,2,2*%
%TO.N,Net-(D37-Pad2)*%
X167640000Y-83058000D03*
%TD*%
%TO.P,SW42,1,1*%
%TO.N,Row0*%
X171627800Y-184861200D03*
%TO.P,SW42,2,2*%
%TO.N,Net-(D42-Pad2)*%
X165277800Y-187401200D03*
%TD*%
D11*
%TO.P,D14,1,K*%
%TO.N,ColC*%
X76200000Y-118745000D03*
D12*
%TO.P,D14,2,A*%
%TO.N,Net-(D14-Pad2)*%
X76200000Y-111125000D03*
%TD*%
D11*
%TO.P,D10,1,K*%
%TO.N,ColB*%
X62992000Y-155956000D03*
D12*
%TO.P,D10,2,A*%
%TO.N,Net-(D10-Pad2)*%
X62992000Y-148336000D03*
%TD*%
D10*
%TO.P,SW33,1,1*%
%TO.N,Row3*%
X154990800Y-127635000D03*
%TO.P,SW33,2,2*%
%TO.N,Net-(D33-Pad2)*%
X148640800Y-130175000D03*
%TD*%
%TO.P,SW8,1,1*%
%TO.N,Row4*%
X69240400Y-108635800D03*
%TO.P,SW8,2,2*%
%TO.N,Net-(D8-Pad2)*%
X62890400Y-111175800D03*
%TD*%
D11*
%TO.P,D98,1,K*%
%TO.N,ColQ*%
X366522000Y-118745000D03*
D12*
%TO.P,D98,2,A*%
%TO.N,Net-(D98-Pad2)*%
X366522000Y-111125000D03*
%TD*%
D10*
%TO.P,SW16,1,1*%
%TO.N,Row2*%
X102565200Y-146710400D03*
%TO.P,SW16,2,2*%
%TO.N,Net-(D16-Pad2)*%
X96215200Y-149250400D03*
%TD*%
%TO.P,SW47,1,1*%
%TO.N,Row1*%
X207340200Y-165735000D03*
%TO.P,SW47,2,2*%
%TO.N,Net-(D47-Pad2)*%
X200990200Y-168275000D03*
%TD*%
D11*
%TO.P,D73,1,K*%
%TO.N,ColM*%
X285750000Y-90678000D03*
D12*
%TO.P,D73,2,A*%
%TO.N,Net-(D73-Pad2)*%
X285750000Y-83058000D03*
%TD*%
D10*
%TO.P,SW13,1,1*%
%TO.N,Row5*%
X88265000Y-80518000D03*
%TO.P,SW13,2,2*%
%TO.N,Net-(D13-Pad2)*%
X81915000Y-83058000D03*
%TD*%
D11*
%TO.P,D84,1,K*%
%TO.N,ColN*%
X300355000Y-194945000D03*
D12*
%TO.P,D84,2,A*%
%TO.N,Net-(D84-Pad2)*%
X300355000Y-187325000D03*
%TD*%
D11*
%TO.P,D57,1,K*%
%TO.N,ColJ*%
X219075000Y-137795000D03*
D12*
%TO.P,D57,2,A*%
%TO.N,Net-(D57-Pad2)*%
X219075000Y-130175000D03*
%TD*%
D11*
%TO.P,D95,1,K*%
%TO.N,ColP*%
X366776000Y-175895000D03*
D12*
%TO.P,D95,2,A*%
%TO.N,Net-(D95-Pad2)*%
X366776000Y-168275000D03*
%TD*%
D10*
%TO.P,SW50,1,1*%
%TO.N,Row4*%
X202590400Y-108635800D03*
%TO.P,SW50,2,2*%
%TO.N,Net-(D50-Pad2)*%
X196240400Y-111175800D03*
%TD*%
D11*
%TO.P,D46,1,K*%
%TO.N,ColH*%
X186055000Y-156972000D03*
D12*
%TO.P,D46,2,A*%
%TO.N,Net-(D46-Pad2)*%
X186055000Y-149352000D03*
%TD*%
D11*
%TO.P,D38,1,K*%
%TO.N,ColG*%
X152400000Y-118745000D03*
D12*
%TO.P,D38,2,A*%
%TO.N,Net-(D38-Pad2)*%
X152400000Y-111125000D03*
%TD*%
D10*
%TO.P,SW71,1,1*%
%TO.N,Row1*%
X300278800Y-165735000D03*
%TO.P,SW71,2,2*%
%TO.N,Net-(D71-Pad2)*%
X293928800Y-168275000D03*
%TD*%
D11*
%TO.P,D71,1,K*%
%TO.N,ColL*%
X276225000Y-175768000D03*
D12*
%TO.P,D71,2,A*%
%TO.N,Net-(D71-Pad2)*%
X276225000Y-168148000D03*
%TD*%
D10*
%TO.P,SW67,1,1*%
%TO.N,Row5*%
X278765000Y-80518000D03*
%TO.P,SW67,2,2*%
%TO.N,Net-(D67-Pad2)*%
X272415000Y-83058000D03*
%TD*%
%TO.P,SW15,1,1*%
%TO.N,Row3*%
X97840800Y-127635000D03*
%TO.P,SW15,2,2*%
%TO.N,Net-(D15-Pad2)*%
X91490800Y-130175000D03*
%TD*%
D11*
%TO.P,D6,1,K*%
%TO.N,ColA*%
X59436000Y-194818000D03*
D12*
%TO.P,D6,2,A*%
%TO.N,Net-(D6-Pad2)*%
X59436000Y-187198000D03*
%TD*%
D11*
%TO.P,D56,1,K*%
%TO.N,ColJ*%
X209550000Y-118745000D03*
D12*
%TO.P,D56,2,A*%
%TO.N,Net-(D56-Pad2)*%
X209550000Y-111125000D03*
%TD*%
D10*
%TO.P,SW10,1,1*%
%TO.N,Row2*%
X83515200Y-146710400D03*
%TO.P,SW10,2,2*%
%TO.N,Net-(D10-Pad2)*%
X77165200Y-149250400D03*
%TD*%
%TO.P,SW55,1,1*%
%TO.N,Row5*%
X231140000Y-80518000D03*
%TO.P,SW55,2,2*%
%TO.N,Net-(D55-Pad2)*%
X224790000Y-83058000D03*
%TD*%
D11*
%TO.P,D63,1,K*%
%TO.N,ColK*%
X238125000Y-137795000D03*
D12*
%TO.P,D63,2,A*%
%TO.N,Net-(D63-Pad2)*%
X238125000Y-130175000D03*
%TD*%
D10*
%TO.P,SW28,1,1*%
%TO.N,Row2*%
X140665200Y-146710400D03*
%TO.P,SW28,2,2*%
%TO.N,Net-(D28-Pad2)*%
X134315200Y-149250400D03*
%TD*%
%TO.P,SW12,1,1*%
%TO.N,Row0*%
X76403200Y-184861200D03*
%TO.P,SW12,2,2*%
%TO.N,Net-(D12-Pad2)*%
X70053200Y-187401200D03*
%TD*%
%TO.P,SW92,1,1*%
%TO.N,Row4*%
X359816400Y-108635800D03*
%TO.P,SW92,2,2*%
%TO.N,Net-(D92-Pad2)*%
X353466400Y-111175800D03*
%TD*%
%TO.P,SW9,1,1*%
%TO.N,Row3*%
X78790800Y-127635000D03*
%TO.P,SW9,2,2*%
%TO.N,Net-(D9-Pad2)*%
X72440800Y-130175000D03*
%TD*%
%TO.P,SW57,1,1*%
%TO.N,Row3*%
X231190800Y-127635000D03*
%TO.P,SW57,2,2*%
%TO.N,Net-(D57-Pad2)*%
X224840800Y-130175000D03*
%TD*%
%TO.P,SW49,1,1*%
%TO.N,Row5*%
X212090000Y-80518000D03*
%TO.P,SW49,2,2*%
%TO.N,Net-(D49-Pad2)*%
X205740000Y-83058000D03*
%TD*%
D11*
%TO.P,D51,1,K*%
%TO.N,ColI*%
X200660000Y-137795000D03*
D12*
%TO.P,D51,2,A*%
%TO.N,Net-(D51-Pad2)*%
X200660000Y-130175000D03*
%TD*%
D11*
%TO.P,D79,1,K*%
%TO.N,ColN*%
X304800000Y-90678000D03*
D12*
%TO.P,D79,2,A*%
%TO.N,Net-(D79-Pad2)*%
X304800000Y-83058000D03*
%TD*%
D10*
%TO.P,SW22,1,1*%
%TO.N,Row2*%
X121615200Y-146710400D03*
%TO.P,SW22,2,2*%
%TO.N,Net-(D22-Pad2)*%
X115265200Y-149250400D03*
%TD*%
D21*
%TO.P,J3,1,Pin_1*%
%TO.N,+5V*%
X373126000Y-151638000D03*
D22*
%TO.P,J3,2,Pin_2*%
%TO.N,+3V3*%
X373126000Y-154178000D03*
%TO.P,J3,3,Pin_3*%
%TO.N,/SWDIO*%
X373126000Y-156718000D03*
%TO.P,J3,4,Pin_4*%
%TO.N,GND*%
X373126000Y-159258000D03*
%TO.P,J3,5,Pin_5*%
%TO.N,/SWCLK*%
X373126000Y-161798000D03*
%TO.P,J3,6,Pin_6*%
%TO.N,/GPIO21*%
X373126000Y-164338000D03*
%TO.P,J3,7,Pin_7*%
%TO.N,/GPIO19*%
X373126000Y-166878000D03*
%TO.P,J3,8,Pin_8*%
%TO.N,/GPIO18*%
X373126000Y-169418000D03*
%TO.P,J3,9,Pin_9*%
%TO.N,/GPIO17*%
X373126000Y-171958000D03*
%TD*%
D10*
%TO.P,SW93,1,1*%
%TO.N,Row3*%
X359841800Y-127635000D03*
%TO.P,SW93,2,2*%
%TO.N,Net-(D93-Pad2)*%
X353491800Y-130175000D03*
%TD*%
D17*
%TO.P,D108,1,K*%
%TO.N,GND*%
X357124000Y-98298000D03*
D18*
%TO.P,D108,2,A*%
%TO.N,/MetaLED*%
X357124000Y-100838000D03*
%TD*%
D11*
%TO.P,D78,1,K*%
%TO.N,ColM*%
X276225000Y-194945000D03*
D12*
%TO.P,D78,2,A*%
%TO.N,Net-(D78-Pad2)*%
X276225000Y-187325000D03*
%TD*%
D10*
%TO.P,SW39,1,1*%
%TO.N,Row3*%
X174040800Y-127635000D03*
%TO.P,SW39,2,2*%
%TO.N,Net-(D39-Pad2)*%
X167690800Y-130175000D03*
%TD*%
D11*
%TO.P,D4,1,K*%
%TO.N,ColA*%
X43434000Y-156718000D03*
D12*
%TO.P,D4,2,A*%
%TO.N,Net-(D4-Pad2)*%
X43434000Y-149098000D03*
%TD*%
D11*
%TO.P,D26,1,K*%
%TO.N,ColE*%
X114300000Y-118745000D03*
D12*
%TO.P,D26,2,A*%
%TO.N,Net-(D26-Pad2)*%
X114300000Y-111125000D03*
%TD*%
D11*
%TO.P,D21,1,K*%
%TO.N,ColD*%
X104775000Y-137795000D03*
D12*
%TO.P,D21,2,A*%
%TO.N,Net-(D21-Pad2)*%
X104775000Y-130175000D03*
%TD*%
D11*
%TO.P,D75,1,K*%
%TO.N,ColM*%
X276225000Y-137795000D03*
D12*
%TO.P,D75,2,A*%
%TO.N,Net-(D75-Pad2)*%
X276225000Y-130175000D03*
%TD*%
D10*
%TO.P,SW81,1,1*%
%TO.N,Row3*%
X312115200Y-127635000D03*
%TO.P,SW81,2,2*%
%TO.N,Net-(D81-Pad2)*%
X305765200Y-130175000D03*
%TD*%
D23*
%TO.P,SW103,1,1*%
%TO.N,GND*%
X244654000Y-96810000D03*
X251154000Y-96810000D03*
%TO.P,SW103,2,2*%
%TO.N,/~{RESET}*%
X244654000Y-101310000D03*
X251154000Y-101310000D03*
%TD*%
D24*
%TO.P,J1,1,Pin_1*%
%TO.N,unconnected-(J1-Pad1)*%
X307250000Y-103060000D03*
D25*
%TO.P,J1,2,Pin_2*%
%TO.N,GND*%
X307250000Y-101060000D03*
%TO.P,J1,3,Pin_3*%
%TO.N,/USB_D+*%
X307250000Y-99060000D03*
%TO.P,J1,4,Pin_4*%
%TO.N,/USB_D-*%
X307250000Y-97060000D03*
%TO.P,J1,5,Pin_5*%
%TO.N,+5V*%
X307250000Y-95060000D03*
%TD*%
D23*
%TO.P,SW104,1,1*%
%TO.N,GND*%
X264160000Y-96810000D03*
X257660000Y-96810000D03*
%TO.P,SW104,2,2*%
%TO.N,/BOOTSEL*%
X257660000Y-101310000D03*
X264160000Y-101310000D03*
%TD*%
D26*
%TO.N,GND*%
X70866000Y-93980000D03*
%TO.N,ColM*%
X281686000Y-183388000D03*
%TO.N,ColN*%
X299212000Y-183642000D03*
%TO.N,ColP*%
X350393000Y-180975000D03*
%TO.N,ColQ*%
X368300000Y-179578000D03*
X371348000Y-137922000D03*
%TO.N,/CapsLED*%
X61468000Y-105664000D03*
%TO.N,Row5*%
X356108000Y-159512000D03*
%TO.N,Row4*%
X356108000Y-161544000D03*
%TO.N,Row3*%
X356108000Y-163576000D03*
%TO.N,/~{RESET}*%
X296418000Y-102108000D03*
%TO.N,/BOOTSEL*%
X294386000Y-101600000D03*
%TD*%
D27*
%TO.N,ColA*%
X43434000Y-156718000D02*
X44683511Y-157967511D01*
X44683511Y-157967511D02*
X44683511Y-174264489D01*
X41037479Y-111149499D02*
X41037479Y-134763479D01*
X48808978Y-103378000D02*
X41037479Y-111149499D01*
X41037479Y-134763479D02*
X43180000Y-136906000D01*
X44280000Y-136906000D02*
X44683511Y-137309511D01*
X44683511Y-174264489D02*
X43434000Y-175514000D01*
X44683511Y-155468489D02*
X43434000Y-156718000D01*
X44683511Y-137309511D02*
X44683511Y-155468489D01*
X58186489Y-184698978D02*
X58186489Y-193568489D01*
X43180000Y-136906000D02*
X44280000Y-136906000D01*
X58186489Y-193568489D02*
X59436000Y-194818000D01*
X57404000Y-97282000D02*
X51308000Y-103378000D01*
X51308000Y-103378000D02*
X48808978Y-103378000D01*
X57404000Y-90678000D02*
X57404000Y-97282000D01*
X49001511Y-175514000D02*
X58186489Y-184698978D01*
X43434000Y-175514000D02*
X49001511Y-175514000D01*
%TO.N,ColB*%
X66675000Y-137795000D02*
X65575000Y-137795000D01*
X62738000Y-124333000D02*
X57150000Y-118745000D01*
X62992000Y-155702000D02*
X61966435Y-154676435D01*
X61966435Y-154676435D02*
X61966435Y-149585511D01*
X78867000Y-175895000D02*
X81280000Y-175895000D01*
X64262000Y-194818000D02*
X64262000Y-190500000D01*
X62992000Y-158707000D02*
X62992000Y-155702000D01*
X64262000Y-190500000D02*
X78867000Y-175895000D01*
X61468000Y-149087076D02*
X61468000Y-143002000D01*
X61966435Y-149585511D02*
X61468000Y-149087076D01*
X62738000Y-134958000D02*
X62738000Y-124333000D01*
X61468000Y-143002000D02*
X66675000Y-137795000D01*
X80180000Y-175895000D02*
X62992000Y-158707000D01*
X65575000Y-137795000D02*
X62738000Y-134958000D01*
X81280000Y-175895000D02*
X80180000Y-175895000D01*
%TO.N,ColC*%
X82838321Y-132115963D02*
X82804000Y-132081642D01*
X74950489Y-91927511D02*
X76200000Y-90678000D01*
X90170000Y-156845000D02*
X90170000Y-153773242D01*
X82804000Y-125349000D02*
X76200000Y-118745000D01*
X85725000Y-149328242D02*
X85725000Y-137795000D01*
X100330000Y-178732859D02*
X100330000Y-175895000D01*
X99080489Y-174645489D02*
X99080489Y-165755489D01*
X76200000Y-118745000D02*
X74950489Y-117495489D01*
X85725000Y-194945000D02*
X85725000Y-193337859D01*
X82804000Y-134874000D02*
X82804000Y-133399158D01*
X74950489Y-117495489D02*
X74950489Y-92054511D01*
X100330000Y-175895000D02*
X99080489Y-174645489D01*
X85725000Y-137795000D02*
X82804000Y-134874000D01*
X82804000Y-133399158D02*
X82838321Y-133364837D01*
X82838321Y-133364837D02*
X82838321Y-132115963D01*
X90170000Y-153773242D02*
X85725000Y-149328242D01*
X82804000Y-132081642D02*
X82804000Y-125349000D01*
X99080489Y-165755489D02*
X90170000Y-156845000D01*
X85725000Y-193337859D02*
X100330000Y-178732859D01*
%TO.N,ColD*%
X94615000Y-90805000D02*
X87884000Y-97536000D01*
X101854000Y-134874000D02*
X104775000Y-137795000D01*
X109220000Y-156845000D02*
X116840000Y-164465000D01*
X87884000Y-97536000D02*
X87884000Y-106038059D01*
X104775000Y-137795000D02*
X106612721Y-139632721D01*
X116840000Y-164465000D02*
X116840000Y-173355000D01*
X87884000Y-106038059D02*
X95250000Y-113404059D01*
X101854000Y-132081642D02*
X101888321Y-132115963D01*
X101888321Y-133364837D02*
X101854000Y-133399158D01*
X101854000Y-133399158D02*
X101854000Y-134874000D01*
X95250000Y-118745000D02*
X101854000Y-125349000D01*
X101888321Y-132115963D02*
X101888321Y-133364837D01*
X116840000Y-173355000D02*
X119380000Y-175895000D01*
X101854000Y-125349000D02*
X101854000Y-132081642D01*
X95250000Y-113404059D02*
X95250000Y-118745000D01*
X106612721Y-139632721D02*
X106612721Y-154237721D01*
X106612721Y-154237721D02*
X109220000Y-156845000D01*
%TO.N,ColE*%
X120938321Y-134908321D02*
X123825000Y-137795000D01*
X135187721Y-163762721D02*
X135187721Y-172652721D01*
X123825000Y-137795000D02*
X125984000Y-139954000D01*
X125984000Y-154559000D02*
X128270000Y-156845000D01*
X113050489Y-117495489D02*
X114300000Y-118745000D01*
X113050489Y-92054511D02*
X113050489Y-117495489D01*
X120938321Y-125383321D02*
X120938321Y-134908321D01*
X135187721Y-172652721D02*
X138430000Y-175895000D01*
X114300000Y-118745000D02*
X120938321Y-125383321D01*
X114300000Y-90678000D02*
X113050489Y-91927511D01*
X128270000Y-156845000D02*
X135187721Y-163762721D01*
X125984000Y-139954000D02*
X125984000Y-154559000D01*
D28*
%TO.N,GND*%
X70866000Y-93980000D02*
X70751308Y-93980000D01*
X54412521Y-110318787D02*
X54412521Y-120821213D01*
X341105000Y-151560000D02*
X341105000Y-147995346D01*
X58134879Y-150145121D02*
X58134879Y-152459067D01*
X60068960Y-126477652D02*
X60068960Y-148211040D01*
X325882000Y-137922000D02*
X325882000Y-108204000D01*
X58134879Y-152459067D02*
X53723546Y-156870400D01*
X60068960Y-148211040D02*
X58134879Y-150145121D01*
X337635654Y-144526000D02*
X332486000Y-144526000D01*
X310642000Y-92964000D02*
X305816000Y-92964000D01*
X341105000Y-147995346D02*
X337635654Y-144526000D01*
X357124000Y-98298000D02*
X356108000Y-97282000D01*
X304292000Y-99060000D02*
X306292000Y-101060000D01*
X305816000Y-92964000D02*
X304292000Y-94488000D01*
X54412521Y-120821213D02*
X60068960Y-126477652D01*
X332486000Y-144526000D02*
X325882000Y-137922000D01*
X356108000Y-97282000D02*
X356108000Y-90805000D01*
X325882000Y-108204000D02*
X310642000Y-92964000D01*
X70751308Y-93980000D02*
X54412521Y-110318787D01*
X306292000Y-101060000D02*
X307250000Y-101060000D01*
X304292000Y-94488000D02*
X304292000Y-99060000D01*
D27*
%TO.N,ColF*%
X155194000Y-164084000D02*
X155194000Y-173609000D01*
X133350000Y-118745000D02*
X139988321Y-125383321D01*
X144712721Y-139632721D02*
X144712721Y-153602721D01*
X142875000Y-137795000D02*
X144712721Y-139632721D01*
X139988321Y-134908321D02*
X142875000Y-137795000D01*
X139988321Y-125383321D02*
X139988321Y-134908321D01*
X133350000Y-90678000D02*
X132100489Y-91927511D01*
X132100489Y-92054511D02*
X132100489Y-117495489D01*
X155194000Y-173609000D02*
X157480000Y-175895000D01*
X144712721Y-153602721D02*
X147955000Y-156845000D01*
X132100489Y-117495489D02*
X133350000Y-118745000D01*
X147955000Y-156845000D02*
X155194000Y-164084000D01*
%TO.N,ColG*%
X159038321Y-134908321D02*
X161925000Y-137795000D01*
X156210000Y-194945000D02*
X156210000Y-193845000D01*
X161290000Y-90805000D02*
X155194000Y-96901000D01*
X156210000Y-193845000D02*
X174160000Y-175895000D01*
X159038321Y-125383321D02*
X159038321Y-134908321D01*
X174160000Y-175895000D02*
X176530000Y-175895000D01*
X167005000Y-156845000D02*
X173482000Y-163322000D01*
X163762721Y-153602721D02*
X167005000Y-156845000D01*
X155194000Y-96901000D02*
X155194000Y-115951000D01*
X152400000Y-118745000D02*
X159038321Y-125383321D01*
X173482000Y-172720000D02*
X176530000Y-175768000D01*
X173482000Y-163322000D02*
X173482000Y-172720000D01*
X163762721Y-139632721D02*
X163762721Y-153602721D01*
X155194000Y-115951000D02*
X152400000Y-118745000D01*
X161925000Y-137795000D02*
X163762721Y-139632721D01*
%TO.N,ColH*%
X180975000Y-90805000D02*
X174412879Y-97367121D01*
X183134000Y-139954000D02*
X183134000Y-154178000D01*
X174412879Y-97367121D02*
X174412879Y-115782121D01*
X192532000Y-166878000D02*
X192532000Y-172847000D01*
X192532000Y-172847000D02*
X195580000Y-175895000D01*
X174412879Y-115782121D02*
X171450000Y-118745000D01*
X178308000Y-135128000D02*
X180975000Y-137795000D01*
X180975000Y-137795000D02*
X183134000Y-139954000D01*
X183134000Y-154178000D02*
X185928000Y-156972000D01*
X178308000Y-125603000D02*
X178308000Y-135128000D01*
X171450000Y-118745000D02*
X178308000Y-125603000D01*
X186055000Y-160401000D02*
X192532000Y-166878000D01*
X186055000Y-156972000D02*
X186055000Y-160401000D01*
%TO.N,ColI*%
X197138321Y-134273321D02*
X200660000Y-137795000D01*
X193462879Y-115782121D02*
X190500000Y-118745000D01*
X190500000Y-118745000D02*
X197138321Y-125383321D01*
X200025000Y-90805000D02*
X193462879Y-97367121D01*
X200660000Y-137795000D02*
X202184000Y-139319000D01*
X211582000Y-173736000D02*
X213741000Y-175895000D01*
X211582000Y-163322000D02*
X211582000Y-173736000D01*
X197138321Y-125383321D02*
X197138321Y-134273321D01*
X202184000Y-139319000D02*
X202184000Y-154432000D01*
X205105000Y-156845000D02*
X211582000Y-163322000D01*
X202184000Y-154432000D02*
X204597000Y-156845000D01*
X193462879Y-97367121D02*
X193462879Y-115782121D01*
%TO.N,ColJ*%
X230886000Y-163576000D02*
X230886000Y-172720000D01*
X220980000Y-139700000D02*
X220980000Y-154178000D01*
X216188321Y-125383321D02*
X216188321Y-134908321D01*
X220980000Y-154178000D02*
X223647000Y-156845000D01*
X219075000Y-137795000D02*
X220980000Y-139700000D01*
X219075000Y-90805000D02*
X219075000Y-104267000D01*
X212344000Y-110998000D02*
X212344000Y-115951000D01*
X209550000Y-118745000D02*
X216188321Y-125383321D01*
X219075000Y-104267000D02*
X212344000Y-110998000D01*
X224155000Y-156845000D02*
X230886000Y-163576000D01*
X230886000Y-172720000D02*
X230632000Y-172974000D01*
X230632000Y-172974000D02*
X230632000Y-173482000D01*
X216188321Y-134908321D02*
X219075000Y-137795000D01*
X212344000Y-115951000D02*
X209550000Y-118745000D01*
X230632000Y-173482000D02*
X233045000Y-175895000D01*
%TO.N,ColK*%
X238125000Y-137795000D02*
X240284000Y-139954000D01*
X231562879Y-116417121D02*
X229235000Y-118745000D01*
X247650000Y-90805000D02*
X231562879Y-106892121D01*
X235238321Y-124748321D02*
X235238321Y-134908321D01*
X245915859Y-175895000D02*
X252730000Y-175895000D01*
X242570000Y-156845000D02*
X249682000Y-163957000D01*
X249682000Y-163957000D02*
X249682000Y-172847000D01*
X249682000Y-172847000D02*
X252730000Y-175895000D01*
X230505000Y-194945000D02*
X230505000Y-191305859D01*
X235238321Y-134908321D02*
X238125000Y-137795000D01*
X231562879Y-106892121D02*
X231562879Y-116417121D01*
X240284000Y-139954000D02*
X240284000Y-154559000D01*
X230505000Y-191305859D02*
X245915859Y-175895000D01*
X229235000Y-118745000D02*
X235238321Y-124748321D01*
X240284000Y-154559000D02*
X242570000Y-156845000D01*
%TO.N,ColL*%
X259334000Y-153924000D02*
X262255000Y-156845000D01*
X255016000Y-136271000D02*
X256540000Y-137795000D01*
X268732000Y-163322000D02*
X268732000Y-169926000D01*
X255016000Y-126111000D02*
X255016000Y-136271000D01*
X250327924Y-106680000D02*
X250190000Y-106817924D01*
X262255000Y-156845000D02*
X268732000Y-163322000D01*
X250190000Y-116205000D02*
X247650000Y-118745000D01*
X268732000Y-169926000D02*
X274574000Y-175768000D01*
X247650000Y-118745000D02*
X255016000Y-126111000D01*
X269893459Y-175768000D02*
X276225000Y-175768000D01*
X262603881Y-106680000D02*
X250327924Y-106680000D01*
X256540000Y-137795000D02*
X259334000Y-140589000D01*
X252095000Y-194945000D02*
X252095000Y-193566459D01*
X250190000Y-106817924D02*
X250190000Y-116205000D01*
X274574000Y-175768000D02*
X276225000Y-175768000D01*
X266700000Y-90805000D02*
X266700000Y-102583881D01*
X266700000Y-102583881D02*
X262603881Y-106680000D01*
X252095000Y-193566459D02*
X269893459Y-175768000D01*
X259334000Y-140589000D02*
X259334000Y-153924000D01*
%TO.N,ColM*%
X278384000Y-139954000D02*
X278384000Y-150368000D01*
X281575479Y-160384521D02*
X281575479Y-183531479D01*
X273338321Y-134908321D02*
X276225000Y-137795000D01*
X269494000Y-107061000D02*
X269494000Y-115951000D01*
X269494000Y-115951000D02*
X266700000Y-118745000D01*
X276225000Y-137795000D02*
X278384000Y-139954000D01*
X278384000Y-150368000D02*
X284988000Y-156972000D01*
X285750000Y-90805000D02*
X269494000Y-107061000D01*
X284988000Y-156972000D02*
X281575479Y-160384521D01*
X281686000Y-183388000D02*
X281686000Y-183420958D01*
X281575479Y-189594521D02*
X276225000Y-194945000D01*
X273338321Y-125383321D02*
X273338321Y-134908321D01*
X281575479Y-183531479D02*
X281575479Y-189594521D01*
X266700000Y-118745000D02*
X273338321Y-125383321D01*
X281686000Y-183420958D02*
X281575479Y-183531479D01*
%TO.N,ColN*%
X295656000Y-163379741D02*
X295656000Y-140589000D01*
X288290000Y-118745000D02*
X288290000Y-121782076D01*
X299105489Y-177652511D02*
X300424259Y-176333741D01*
X300424259Y-168148000D02*
X295656000Y-163379741D01*
X295402000Y-128894076D02*
X295402000Y-135382000D01*
X288290000Y-121782076D02*
X295402000Y-128894076D01*
X299105489Y-193695489D02*
X299105489Y-183240511D01*
X299105489Y-183240511D02*
X299105489Y-177652511D01*
X297180000Y-92710000D02*
X290068000Y-99822000D01*
X295656000Y-140589000D02*
X298450000Y-137795000D01*
X300424259Y-176333741D02*
X300424259Y-168148000D01*
X300355000Y-194945000D02*
X299105489Y-193695489D01*
X299212000Y-183347022D02*
X299105489Y-183240511D01*
X290068000Y-99822000D02*
X290068000Y-116967000D01*
X302768000Y-92710000D02*
X297180000Y-92710000D01*
X295402000Y-135382000D02*
X297815000Y-137795000D01*
X299212000Y-183642000D02*
X299212000Y-183347022D01*
X290068000Y-116967000D02*
X288290000Y-118745000D01*
X304800000Y-90678000D02*
X302768000Y-92710000D01*
%TO.N,ColO*%
X331470000Y-115951000D02*
X331470000Y-93472000D01*
X328676000Y-137795000D02*
X330454000Y-136017000D01*
X332486000Y-138176000D02*
X346964000Y-152654000D01*
X331470000Y-93472000D02*
X328676000Y-90678000D01*
X346964000Y-175768000D02*
X342138000Y-180594000D01*
X330454000Y-136017000D02*
X330454000Y-120523000D01*
X328676000Y-118745000D02*
X331470000Y-115951000D01*
X346964000Y-152654000D02*
X346964000Y-175768000D01*
X330454000Y-120523000D02*
X328676000Y-118745000D01*
X328676000Y-138176000D02*
X332486000Y-138176000D01*
%TO.N,ColP*%
X350393000Y-140462000D02*
X347726000Y-137795000D01*
X350393000Y-180975000D02*
X350393000Y-175895000D01*
X347726000Y-118745000D02*
X348975511Y-119994511D01*
X366776000Y-175895000D02*
X350393000Y-175895000D01*
X350393000Y-175895000D02*
X350393000Y-140462000D01*
X350393000Y-180975000D02*
X350393000Y-192151000D01*
X350393000Y-192151000D02*
X347726000Y-194818000D01*
X347726000Y-90932000D02*
X344932000Y-93726000D01*
X344932000Y-93853000D02*
X344932000Y-115697000D01*
X348975511Y-119994511D02*
X348975511Y-136545489D01*
X344932000Y-115697000D02*
X345186000Y-115951000D01*
X348975511Y-136545489D02*
X347726000Y-137795000D01*
X344932000Y-115951000D02*
X347726000Y-118745000D01*
%TO.N,ColQ*%
X370190080Y-139079920D02*
X371348000Y-137922000D01*
X369390511Y-93419511D02*
X369390511Y-100380987D01*
X370190080Y-150935618D02*
X370190080Y-139079920D01*
X368279511Y-179557511D02*
X368279511Y-152846188D01*
X366522000Y-118745000D02*
X367771511Y-119994511D01*
X367792000Y-117475000D02*
X366522000Y-118745000D01*
X368300000Y-179578000D02*
X368279511Y-179598489D01*
X368279511Y-152846188D02*
X370190080Y-150935618D01*
X368300000Y-179578000D02*
X368279511Y-179557511D01*
X367771511Y-136545489D02*
X366522000Y-137795000D01*
X367792000Y-101979498D02*
X367792000Y-117475000D01*
X368279511Y-179598489D02*
X368279511Y-193568489D01*
X369390511Y-100380987D02*
X367792000Y-101979498D01*
X368279511Y-193568489D02*
X367030000Y-194818000D01*
X366776000Y-90678000D02*
X369390511Y-93292511D01*
X367771511Y-119994511D02*
X367771511Y-136545489D01*
%TO.N,/CapsLED*%
X363982000Y-107188000D02*
X363474000Y-106680000D01*
X61349921Y-153534079D02*
X58013600Y-156870400D01*
X60868480Y-149335406D02*
X61366915Y-149833840D01*
X61366915Y-151148969D02*
X61349921Y-151165963D01*
X61366915Y-149833840D02*
X61366915Y-151148969D01*
X61349921Y-151165963D02*
X61349921Y-153534079D01*
X363982000Y-143764000D02*
X363982000Y-107188000D01*
X55212041Y-110649959D02*
X55212041Y-120490041D01*
X60868480Y-126146480D02*
X60868480Y-149335406D01*
X353573000Y-106680000D02*
X347726000Y-100833000D01*
X61468000Y-105664000D02*
X60198000Y-105664000D01*
X56134000Y-156464000D02*
X56642000Y-156972000D01*
X55212041Y-120490041D02*
X60868480Y-126146480D01*
X361950000Y-145796000D02*
X363982000Y-143764000D01*
X56642000Y-156972000D02*
X56027400Y-156972000D01*
X58013600Y-156870400D02*
X56032400Y-156870400D01*
X60198000Y-105664000D02*
X55212041Y-110649959D01*
X363474000Y-106680000D02*
X353573000Y-106680000D01*
%TO.N,/ScrollLED*%
X368790991Y-99918520D02*
X368790991Y-96756991D01*
X365181040Y-149676960D02*
X365181040Y-102432960D01*
X367871511Y-100838000D02*
X368790991Y-99918520D01*
X368790991Y-96756991D02*
X362712000Y-90678000D01*
X361950000Y-152908000D02*
X365181040Y-149676960D01*
X365181040Y-102432960D02*
X366776000Y-100838000D01*
X362712000Y-90678000D02*
X358521000Y-90678000D01*
X366776000Y-100838000D02*
X367871511Y-100838000D01*
%TO.N,/MetaLED*%
X363722329Y-106080480D02*
X362366480Y-106080480D01*
X361950000Y-149352000D02*
X364581520Y-146720480D01*
X364581520Y-146720480D02*
X364581520Y-106939670D01*
X362366480Y-106080480D02*
X357124000Y-100838000D01*
X364581520Y-106939670D02*
X363722329Y-106080480D01*
%TO.N,Row0*%
X343105000Y-176833000D02*
X343105000Y-171560000D01*
X340106000Y-184226200D02*
X340106000Y-179832000D01*
X340106000Y-179832000D02*
X343105000Y-176833000D01*
%TO.N,Row5*%
X368391520Y-102227828D02*
X369990031Y-100629317D01*
X369990031Y-100629317D02*
X369990031Y-90844031D01*
X359003655Y-159512000D02*
X368391520Y-150124135D01*
X356108000Y-159512000D02*
X359003655Y-159512000D01*
X369990031Y-90717031D02*
X359791000Y-80518000D01*
X368391520Y-150124135D02*
X368391520Y-102227828D01*
%TO.N,Row1*%
X327152000Y-167386000D02*
X342931000Y-167386000D01*
X321310000Y-173228000D02*
X307695600Y-173228000D01*
X327152000Y-167386000D02*
X321310000Y-173228000D01*
X307695600Y-173228000D02*
X300278800Y-165811200D01*
%TO.N,Row4*%
X368991040Y-110215511D02*
X370570751Y-108635800D01*
X356108000Y-161544000D02*
X357886000Y-161544000D01*
X368991040Y-150438960D02*
X368991040Y-110215511D01*
X370570751Y-108635800D02*
X378866400Y-108635800D01*
X357886000Y-161544000D02*
X368991040Y-150438960D01*
%TO.N,Row2*%
X335026000Y-165608000D02*
X316390921Y-146972921D01*
X343057000Y-165608000D02*
X335026000Y-165608000D01*
X316390921Y-146972921D02*
X305214921Y-146972921D01*
%TO.N,Row3*%
X369590560Y-150687289D02*
X369590560Y-128016000D01*
X369971560Y-127635000D02*
X378891800Y-127635000D01*
X356701849Y-163576000D02*
X369590560Y-150687289D01*
X369590560Y-128016000D02*
X369971560Y-127635000D01*
X356108000Y-163576000D02*
X356701849Y-163576000D01*
%TO.N,/USB_D-*%
X332410001Y-150865001D02*
X333105000Y-151560000D01*
X307250000Y-97060000D02*
X308125000Y-97060000D01*
X324082960Y-138667186D02*
X332410001Y-146994227D01*
X308125000Y-97060000D02*
X308820000Y-97755000D01*
X312888802Y-97755000D02*
X324082960Y-108949158D01*
X308820000Y-97755000D02*
X312888802Y-97755000D01*
X332410001Y-146994227D02*
X332410001Y-150865001D01*
X324082960Y-108949158D02*
X324082960Y-138667186D01*
%TO.N,/USB_D+*%
X308125000Y-99060000D02*
X308820000Y-98365000D01*
X331799999Y-150865001D02*
X331105000Y-151560000D01*
X323472969Y-109201839D02*
X323472969Y-138919853D01*
X323472969Y-138919853D02*
X331799999Y-147246883D01*
X331799999Y-147246883D02*
X331799999Y-150865001D01*
X307250000Y-99060000D02*
X308125000Y-99060000D01*
X312636130Y-98365000D02*
X323472969Y-109201839D01*
X308820000Y-98365000D02*
X312636130Y-98365000D01*
D28*
%TO.N,+5V*%
X332071986Y-145525520D02*
X334247520Y-145525520D01*
X334247520Y-145525520D02*
X337105000Y-148383000D01*
X311324466Y-95060000D02*
X324882480Y-108618014D01*
X337105000Y-148383000D02*
X337105000Y-151560000D01*
X324882480Y-108618014D02*
X324882480Y-138336014D01*
X307250000Y-95060000D02*
X311324466Y-95060000D01*
X324882480Y-138336014D02*
X332071986Y-145525520D01*
D27*
%TO.N,/~{RESET}*%
X313147679Y-136531829D02*
X325120000Y-148504150D01*
X296926000Y-115103150D02*
X313147679Y-131324829D01*
X325120000Y-148504150D02*
X325120000Y-151545000D01*
X296418000Y-102108000D02*
X296926000Y-102616000D01*
X313147679Y-131324829D02*
X313147679Y-136531829D01*
X296926000Y-102616000D02*
X296926000Y-115103150D01*
%TO.N,/BOOTSEL*%
X295910000Y-103124000D02*
X295910000Y-114935000D01*
X294386000Y-101600000D02*
X295910000Y-103124000D01*
X312548159Y-131573159D02*
X312548159Y-136780159D01*
X323088000Y-147320000D02*
X323088000Y-151543000D01*
X295910000Y-114935000D02*
X312548159Y-131573159D01*
X312548159Y-136780159D02*
X323088000Y-147320000D01*
%TD*%
M02*
