%TF.GenerationSoftware,KiCad,Pcbnew,(6.0.5)*%
%TF.CreationDate,2022-06-03T16:12:07-04:00*%
%TF.ProjectId,Rabid,52616269-642e-46b6-9963-61645f706362,rev?*%
%TF.SameCoordinates,Original*%
%TF.FileFunction,Copper,L1,Top*%
%TF.FilePolarity,Positive*%
%FSLAX46Y46*%
G04 Gerber Fmt 4.6, Leading zero omitted, Abs format (unit mm)*
G04 Created by KiCad (PCBNEW (6.0.5)) date 2022-06-03 16:12:07*
%MOMM*%
%LPD*%
G01*
G04 APERTURE LIST*
G04 Aperture macros list*
%AMRoundRect*
0 Rectangle with rounded corners*
0 $1 Rounding radius*
0 $2 $3 $4 $5 $6 $7 $8 $9 X,Y pos of 4 corners*
0 Add a 4 corners polygon primitive as box body*
4,1,4,$2,$3,$4,$5,$6,$7,$8,$9,$2,$3,0*
0 Add four circle primitives for the rounded corners*
1,1,$1+$1,$2,$3*
1,1,$1+$1,$4,$5*
1,1,$1+$1,$6,$7*
1,1,$1+$1,$8,$9*
0 Add four rect primitives between the rounded corners*
20,1,$1+$1,$2,$3,$4,$5,0*
20,1,$1+$1,$4,$5,$6,$7,0*
20,1,$1+$1,$6,$7,$8,$9,0*
20,1,$1+$1,$8,$9,$2,$3,0*%
G04 Aperture macros list end*
%TA.AperFunction,ComponentPad*%
%ADD10C,2.200000*%
%TD*%
%TA.AperFunction,ComponentPad*%
%ADD11R,1.600000X1.600000*%
%TD*%
%TA.AperFunction,ComponentPad*%
%ADD12O,1.600000X1.600000*%
%TD*%
%TA.AperFunction,SMDPad,CuDef*%
%ADD13R,2.800000X1.500000*%
%TD*%
%TA.AperFunction,ComponentPad*%
%ADD14C,1.350000*%
%TD*%
%TA.AperFunction,ComponentPad*%
%ADD15O,1.350000X1.350000*%
%TD*%
%TA.AperFunction,SMDPad,CuDef*%
%ADD16R,1.500000X2.800000*%
%TD*%
%TA.AperFunction,ComponentPad*%
%ADD17R,1.524000X1.524000*%
%TD*%
%TA.AperFunction,ComponentPad*%
%ADD18C,1.524000*%
%TD*%
%TA.AperFunction,ComponentPad*%
%ADD19R,1.800000X1.800000*%
%TD*%
%TA.AperFunction,ComponentPad*%
%ADD20C,1.800000*%
%TD*%
%TA.AperFunction,ComponentPad*%
%ADD21C,1.400000*%
%TD*%
%TA.AperFunction,ComponentPad*%
%ADD22O,1.400000X1.400000*%
%TD*%
%TA.AperFunction,ComponentPad*%
%ADD23R,1.700000X1.700000*%
%TD*%
%TA.AperFunction,ComponentPad*%
%ADD24O,1.700000X1.700000*%
%TD*%
%TA.AperFunction,ComponentPad*%
%ADD25C,2.000000*%
%TD*%
%TA.AperFunction,ComponentPad*%
%ADD26RoundRect,0.250000X0.625000X-0.350000X0.625000X0.350000X-0.625000X0.350000X-0.625000X-0.350000X0*%
%TD*%
%TA.AperFunction,ComponentPad*%
%ADD27O,1.750000X1.200000*%
%TD*%
%TA.AperFunction,ViaPad*%
%ADD28C,0.800000*%
%TD*%
%TA.AperFunction,Conductor*%
%ADD29C,0.300000*%
%TD*%
%TA.AperFunction,Conductor*%
%ADD30C,0.700000*%
%TD*%
G04 APERTURE END LIST*
D10*
%TO.P,SW72,1,1*%
%TO.N,Row0*%
X266852400Y-184861200D03*
%TO.P,SW72,2,2*%
%TO.N,Net-(D72-Pad2)*%
X260502400Y-187401200D03*
%TD*%
D11*
%TO.P,D13,1,K*%
%TO.N,ColC*%
X76200000Y-90678000D03*
D12*
%TO.P,D13,2,A*%
%TO.N,Net-(D13-Pad2)*%
X76200000Y-83058000D03*
%TD*%
D11*
%TO.P,D99,1,K*%
%TO.N,ColQ*%
X366522000Y-137795000D03*
D12*
%TO.P,D99,2,A*%
%TO.N,Net-(D99-Pad2)*%
X366522000Y-130175000D03*
%TD*%
D13*
%TO.P,U1,1,GPIO0*%
%TO.N,ColA*%
X320455000Y-153560000D03*
D14*
X321105000Y-153560000D03*
D13*
%TO.P,U1,2,GPIO1*%
%TO.N,ColB*%
X320455000Y-155560000D03*
D15*
X321105000Y-155560000D03*
%TO.P,U1,3,GPIO2*%
%TO.N,ColC*%
X321105000Y-157560000D03*
D13*
X320455000Y-157560000D03*
%TO.P,U1,4,GPIO3*%
%TO.N,ColD*%
X320455000Y-159560000D03*
D15*
X321105000Y-159560000D03*
D13*
%TO.P,U1,5,GPIO4*%
%TO.N,ColE*%
X320455000Y-161560000D03*
D15*
X321105000Y-161560000D03*
%TO.P,U1,6,GPIO5*%
%TO.N,ColF*%
X321105000Y-163560000D03*
D13*
X320455000Y-163560000D03*
D15*
%TO.P,U1,7,GPIO6*%
%TO.N,ColG*%
X321105000Y-165560000D03*
D13*
X320455000Y-165560000D03*
D15*
%TO.P,U1,8,GPIO7*%
%TO.N,ColH*%
X321105000Y-167560000D03*
D13*
X320455000Y-167560000D03*
D15*
%TO.P,U1,9,GPIO8*%
%TO.N,ColI*%
X321105000Y-169560000D03*
D13*
X320455000Y-169560000D03*
D15*
%TO.P,U1,10,GPIO9*%
%TO.N,ColJ*%
X321105000Y-171560000D03*
D13*
X320455000Y-171560000D03*
D15*
%TO.P,U1,11,GPIO10*%
%TO.N,ColK*%
X323105000Y-173560000D03*
D16*
X323105000Y-174210000D03*
%TO.P,U1,12,GPIO11*%
%TO.N,ColL*%
X325105000Y-174210000D03*
D15*
X325105000Y-173560000D03*
D16*
%TO.P,U1,13,GPIO12*%
%TO.N,ColM*%
X327105000Y-174210000D03*
D15*
X327105000Y-173560000D03*
%TO.P,U1,14,GPIO13*%
%TO.N,ColN*%
X329105000Y-173560000D03*
D16*
X329105000Y-174210000D03*
%TO.P,U1,15,GPIO14*%
%TO.N,ColO*%
X331105000Y-174210000D03*
D15*
X331105000Y-173560000D03*
D16*
%TO.P,U1,16,GPIO15*%
%TO.N,ColP*%
X333105000Y-174210000D03*
D15*
X333105000Y-173560000D03*
D16*
%TO.P,U1,17,GPIO16*%
%TO.N,ColQ*%
X335105000Y-174210000D03*
D15*
X335105000Y-173560000D03*
D16*
%TO.P,U1,18,GPIO17*%
%TO.N,/GPIO17*%
X337105000Y-174210000D03*
D15*
X337105000Y-173560000D03*
%TO.P,U1,19,GPIO18*%
%TO.N,/GPIO18*%
X339105000Y-173560000D03*
D16*
X339105000Y-174210000D03*
D15*
%TO.P,U1,20,GPIO19*%
%TO.N,/GPIO19*%
X341105000Y-173560000D03*
D16*
X341105000Y-174210000D03*
D15*
%TO.P,U1,21,GPIO20*%
%TO.N,Row0*%
X343105000Y-171560000D03*
D13*
X343755000Y-171560000D03*
D15*
%TO.P,U1,22,GPIO21*%
%TO.N,/GPIO21*%
X343105000Y-169560000D03*
D13*
X343755000Y-169560000D03*
D15*
%TO.P,U1,23,GPIO22*%
%TO.N,Row1*%
X343105000Y-167560000D03*
D13*
X343755000Y-167560000D03*
%TO.P,U1,24,GPIO23*%
%TO.N,Row2*%
X343755000Y-165560000D03*
D15*
X343105000Y-165560000D03*
%TO.P,U1,25,GPIO24*%
%TO.N,Row3*%
X343105000Y-163560000D03*
D13*
X343755000Y-163560000D03*
%TO.P,U1,26,GPIO25*%
%TO.N,Row4*%
X343755000Y-161560000D03*
D15*
X343105000Y-161560000D03*
D13*
%TO.P,U1,27,GPIO26*%
%TO.N,Row5*%
X343755000Y-159560000D03*
D15*
X343105000Y-159560000D03*
%TO.P,U1,28,GPIO27*%
%TO.N,/ScrollLED_GPIO*%
X343105000Y-157560000D03*
D13*
X343755000Y-157560000D03*
D15*
%TO.P,U1,29,GPIO28*%
%TO.N,/MetaLED_GPIO*%
X343105000Y-155560000D03*
D13*
X343755000Y-155560000D03*
%TO.P,U1,30,GPIO29*%
%TO.N,/CapsLED_GPIO*%
X343755000Y-153560000D03*
D15*
X343105000Y-153560000D03*
D16*
%TO.P,U1,31,GND*%
%TO.N,GND*%
X341105000Y-150910000D03*
D15*
X341105000Y-151560000D03*
D16*
%TO.P,U1,32,VBAT*%
%TO.N,unconnected-(U1-Pad32)*%
X339105000Y-150910000D03*
D15*
X339105000Y-151560000D03*
%TO.P,U1,33,5V*%
%TO.N,+5V*%
X337105000Y-151560000D03*
D16*
X337105000Y-150910000D03*
%TO.P,U1,34,3.3V*%
%TO.N,+3V3*%
X335105000Y-150910000D03*
D15*
X335105000Y-151560000D03*
D16*
%TO.P,U1,35,USB_D-*%
%TO.N,/USB_D-*%
X333105000Y-150910000D03*
D15*
X333105000Y-151560000D03*
D16*
%TO.P,U1,36,USB_D+*%
%TO.N,/USB_D+*%
X331105000Y-150910000D03*
D15*
X331105000Y-151560000D03*
D16*
%TO.P,U1,37,SWDIO*%
%TO.N,/SWDIO*%
X329105000Y-150910000D03*
D15*
X329105000Y-151560000D03*
%TO.P,U1,38,SWCLK*%
%TO.N,/SWCLK*%
X327105000Y-151560000D03*
D16*
X327105000Y-150910000D03*
D15*
%TO.P,U1,39,~{RESET}*%
%TO.N,/~{RESET}*%
X325105000Y-151560000D03*
D16*
X325105000Y-150910000D03*
D15*
%TO.P,U1,40,BOOTSEL*%
%TO.N,/BOOTSEL*%
X323105000Y-151560000D03*
D16*
X323105000Y-150910000D03*
%TD*%
D10*
%TO.P,SW91,1,1*%
%TO.N,Row5*%
X359791000Y-80518000D03*
%TO.P,SW91,2,2*%
%TO.N,Net-(D91-Pad2)*%
X353441000Y-83058000D03*
D17*
%TO.P,SW91,3,K*%
%TO.N,GND*%
X355981000Y-90678000D03*
D18*
%TO.P,SW91,4,A*%
%TO.N,/ScrollLED*%
X358521000Y-90678000D03*
%TD*%
D10*
%TO.P,SW18,1,1*%
%TO.N,Row0*%
X100203000Y-184861200D03*
%TO.P,SW18,2,2*%
%TO.N,Net-(D18-Pad2)*%
X93853000Y-187401200D03*
%TD*%
D11*
%TO.P,D102,1,K*%
%TO.N,ColQ*%
X367030000Y-194818000D03*
D12*
%TO.P,D102,2,A*%
%TO.N,Net-(D102-Pad2)*%
X367030000Y-187198000D03*
%TD*%
D10*
%TO.P,SW4,1,1*%
%TO.N,Row2*%
X57302400Y-146710400D03*
%TO.P,SW4,2,2*%
%TO.N,Net-(D4-Pad2)*%
X50952400Y-149250400D03*
D17*
%TO.P,SW4,3,K*%
%TO.N,GND*%
X53492400Y-156870400D03*
D18*
%TO.P,SW4,4,A*%
%TO.N,/CapsLED*%
X56032400Y-156870400D03*
%TD*%
D11*
%TO.P,D8,1,K*%
%TO.N,ColB*%
X57150000Y-118745000D03*
D12*
%TO.P,D8,2,A*%
%TO.N,Net-(D8-Pad2)*%
X57150000Y-111125000D03*
%TD*%
D10*
%TO.P,SW68,1,1*%
%TO.N,Row4*%
X259740400Y-108635800D03*
%TO.P,SW68,2,2*%
%TO.N,Net-(D68-Pad2)*%
X253390400Y-111175800D03*
%TD*%
%TO.P,SW40,1,1*%
%TO.N,Row2*%
X178765200Y-146710400D03*
%TO.P,SW40,2,2*%
%TO.N,Net-(D40-Pad2)*%
X172415200Y-149250400D03*
%TD*%
%TO.P,SW59,1,1*%
%TO.N,Row1*%
X245440200Y-165735000D03*
%TO.P,SW59,2,2*%
%TO.N,Net-(D59-Pad2)*%
X239090200Y-168275000D03*
%TD*%
%TO.P,SW17,1,1*%
%TO.N,Row1*%
X112090200Y-165735000D03*
%TO.P,SW17,2,2*%
%TO.N,Net-(D17-Pad2)*%
X105740200Y-168275000D03*
%TD*%
D11*
%TO.P,D34,1,K*%
%TO.N,ColF*%
X147955000Y-156845000D03*
D12*
%TO.P,D34,2,A*%
%TO.N,Net-(D34-Pad2)*%
X147955000Y-149225000D03*
%TD*%
D11*
%TO.P,D5,1,K*%
%TO.N,ColA*%
X43434000Y-175514000D03*
D12*
%TO.P,D5,2,A*%
%TO.N,Net-(D5-Pad2)*%
X43434000Y-167894000D03*
%TD*%
D11*
%TO.P,D29,1,K*%
%TO.N,ColE*%
X138430000Y-175895000D03*
D12*
%TO.P,D29,2,A*%
%TO.N,Net-(D29-Pad2)*%
X138430000Y-168275000D03*
%TD*%
D11*
%TO.P,D42,1,K*%
%TO.N,ColG*%
X156210000Y-194945000D03*
D12*
%TO.P,D42,2,A*%
%TO.N,Net-(D42-Pad2)*%
X156210000Y-187325000D03*
%TD*%
D10*
%TO.P,SW99,1,1*%
%TO.N,Row3*%
X378891800Y-127635000D03*
%TO.P,SW99,2,2*%
%TO.N,Net-(D99-Pad2)*%
X372541800Y-130175000D03*
%TD*%
%TO.P,SW5,1,1*%
%TO.N,Row1*%
X62103000Y-165735000D03*
%TO.P,SW5,2,2*%
%TO.N,Net-(D5-Pad2)*%
X55753000Y-168275000D03*
%TD*%
%TO.P,SW35,1,1*%
%TO.N,Row1*%
X169240200Y-165735000D03*
%TO.P,SW35,2,2*%
%TO.N,Net-(D35-Pad2)*%
X162890200Y-168275000D03*
%TD*%
%TO.P,SW58,1,1*%
%TO.N,Row2*%
X235915200Y-146710400D03*
%TO.P,SW58,2,2*%
%TO.N,Net-(D58-Pad2)*%
X229565200Y-149250400D03*
%TD*%
%TO.P,SW25,1,1*%
%TO.N,Row5*%
X126365000Y-80518000D03*
%TO.P,SW25,2,2*%
%TO.N,Net-(D25-Pad2)*%
X120015000Y-83058000D03*
%TD*%
D11*
%TO.P,D49,1,K*%
%TO.N,ColI*%
X200025000Y-90678000D03*
D12*
%TO.P,D49,2,A*%
%TO.N,Net-(D49-Pad2)*%
X200025000Y-83058000D03*
%TD*%
D11*
%TO.P,D67,1,K*%
%TO.N,ColL*%
X266700000Y-90678000D03*
D12*
%TO.P,D67,2,A*%
%TO.N,Net-(D67-Pad2)*%
X266700000Y-83058000D03*
%TD*%
D11*
%TO.P,D15,1,K*%
%TO.N,ColC*%
X85725000Y-137795000D03*
D12*
%TO.P,D15,2,A*%
%TO.N,Net-(D15-Pad2)*%
X85725000Y-130175000D03*
%TD*%
D10*
%TO.P,SW46,1,1*%
%TO.N,Row2*%
X197815200Y-146710400D03*
%TO.P,SW46,2,2*%
%TO.N,Net-(D46-Pad2)*%
X191465200Y-149250400D03*
%TD*%
D19*
%TO.P,D104,1,K*%
%TO.N,GND*%
X347726000Y-98293000D03*
D20*
%TO.P,D104,2,A*%
%TO.N,/CapsLED*%
X347726000Y-100833000D03*
%TD*%
D10*
%TO.P,SW2,1,1*%
%TO.N,Row4*%
X50165000Y-108635800D03*
%TO.P,SW2,2,2*%
%TO.N,Net-(D2-Pad2)*%
X43815000Y-111175800D03*
%TD*%
%TO.P,SW19,1,1*%
%TO.N,Row5*%
X107315000Y-80518000D03*
%TO.P,SW19,2,2*%
%TO.N,Net-(D19-Pad2)*%
X100965000Y-83058000D03*
%TD*%
D11*
%TO.P,D27,1,K*%
%TO.N,ColE*%
X123825000Y-137795000D03*
D12*
%TO.P,D27,2,A*%
%TO.N,Net-(D27-Pad2)*%
X123825000Y-130175000D03*
%TD*%
D10*
%TO.P,SW11,1,1*%
%TO.N,Row1*%
X93040200Y-165735000D03*
%TO.P,SW11,2,2*%
%TO.N,Net-(D11-Pad2)*%
X86690200Y-168275000D03*
%TD*%
D11*
%TO.P,D44,1,K*%
%TO.N,ColH*%
X171450000Y-118745000D03*
D12*
%TO.P,D44,2,A*%
%TO.N,Net-(D44-Pad2)*%
X171450000Y-111125000D03*
%TD*%
D11*
%TO.P,D28,1,K*%
%TO.N,ColE*%
X128270000Y-156845000D03*
D12*
%TO.P,D28,2,A*%
%TO.N,Net-(D28-Pad2)*%
X128270000Y-149225000D03*
%TD*%
D10*
%TO.P,SW75,1,1*%
%TO.N,Row3*%
X288340800Y-127635000D03*
%TO.P,SW75,2,2*%
%TO.N,Net-(D75-Pad2)*%
X281990800Y-130175000D03*
%TD*%
%TO.P,SW80,1,1*%
%TO.N,Row4*%
X307365400Y-108635800D03*
%TO.P,SW80,2,2*%
%TO.N,Net-(D80-Pad2)*%
X301015400Y-111175800D03*
%TD*%
D11*
%TO.P,D41,1,K*%
%TO.N,ColG*%
X176530000Y-175895000D03*
D12*
%TO.P,D41,2,A*%
%TO.N,Net-(D41-Pad2)*%
X176530000Y-168275000D03*
%TD*%
D11*
%TO.P,D62,1,K*%
%TO.N,ColK*%
X229235000Y-118745000D03*
D12*
%TO.P,D62,2,A*%
%TO.N,Net-(D62-Pad2)*%
X229235000Y-111125000D03*
%TD*%
D21*
%TO.P,R1,1*%
%TO.N,/ScrollLED_GPIO*%
X354330000Y-152908000D03*
D22*
%TO.P,R1,2*%
%TO.N,/ScrollLED*%
X361950000Y-152908000D03*
%TD*%
D11*
%TO.P,D64,1,K*%
%TO.N,ColK*%
X242570000Y-156845000D03*
D12*
%TO.P,D64,2,A*%
%TO.N,Net-(D64-Pad2)*%
X242570000Y-149225000D03*
%TD*%
D11*
%TO.P,D65,1,K*%
%TO.N,ColK*%
X252730000Y-175895000D03*
D12*
%TO.P,D65,2,A*%
%TO.N,Net-(D65-Pad2)*%
X252730000Y-168275000D03*
%TD*%
D11*
%TO.P,D50,1,K*%
%TO.N,ColI*%
X190500000Y-118745000D03*
D12*
%TO.P,D50,2,A*%
%TO.N,Net-(D50-Pad2)*%
X190500000Y-111125000D03*
%TD*%
D11*
%TO.P,D61,1,K*%
%TO.N,ColK*%
X247650000Y-90678000D03*
D12*
%TO.P,D61,2,A*%
%TO.N,Net-(D61-Pad2)*%
X247650000Y-83058000D03*
%TD*%
D10*
%TO.P,SW32,1,1*%
%TO.N,Row4*%
X145440400Y-108635800D03*
%TO.P,SW32,2,2*%
%TO.N,Net-(D32-Pad2)*%
X139090400Y-111175800D03*
%TD*%
D11*
%TO.P,D90,1,K*%
%TO.N,ColO*%
X342138000Y-180594000D03*
D12*
%TO.P,D90,2,A*%
%TO.N,Net-(D90-Pad2)*%
X334518000Y-180594000D03*
%TD*%
D10*
%TO.P,SW27,1,1*%
%TO.N,Row3*%
X135940800Y-127635000D03*
%TO.P,SW27,2,2*%
%TO.N,Net-(D27-Pad2)*%
X129590800Y-130175000D03*
%TD*%
D11*
%TO.P,D80,1,K*%
%TO.N,ColN*%
X288290000Y-118745000D03*
D12*
%TO.P,D80,2,A*%
%TO.N,Net-(D80-Pad2)*%
X288290000Y-111125000D03*
%TD*%
D11*
%TO.P,D81,1,K*%
%TO.N,ColN*%
X298450000Y-137795000D03*
D12*
%TO.P,D81,2,A*%
%TO.N,Net-(D81-Pad2)*%
X298450000Y-130175000D03*
%TD*%
D11*
%TO.P,D22,1,K*%
%TO.N,ColD*%
X109220000Y-156845000D03*
D12*
%TO.P,D22,2,A*%
%TO.N,Net-(D22-Pad2)*%
X109220000Y-149225000D03*
%TD*%
D11*
%TO.P,D68,1,K*%
%TO.N,ColL*%
X247650000Y-118745000D03*
D12*
%TO.P,D68,2,A*%
%TO.N,Net-(D68-Pad2)*%
X247650000Y-111125000D03*
%TD*%
D11*
%TO.P,D31,1,K*%
%TO.N,ColF*%
X133350000Y-90678000D03*
D12*
%TO.P,D31,2,A*%
%TO.N,Net-(D31-Pad2)*%
X133350000Y-83058000D03*
%TD*%
D10*
%TO.P,SW62,1,1*%
%TO.N,Row4*%
X240690400Y-108635800D03*
%TO.P,SW62,2,2*%
%TO.N,Net-(D62-Pad2)*%
X234340400Y-111175800D03*
%TD*%
D11*
%TO.P,D52,1,K*%
%TO.N,ColI*%
X205105000Y-156845000D03*
D12*
%TO.P,D52,2,A*%
%TO.N,Net-(D52-Pad2)*%
X205105000Y-149225000D03*
%TD*%
D10*
%TO.P,SW76,1,1*%
%TO.N,Row2*%
X304952400Y-146710400D03*
%TO.P,SW76,2,2*%
%TO.N,Net-(D76-Pad2)*%
X298602400Y-149250400D03*
%TD*%
D11*
%TO.P,D9,1,K*%
%TO.N,ColB*%
X66675000Y-137795000D03*
D12*
%TO.P,D9,2,A*%
%TO.N,Net-(D9-Pad2)*%
X66675000Y-130175000D03*
%TD*%
D10*
%TO.P,SW70,1,1*%
%TO.N,Row2*%
X274015200Y-146710400D03*
%TO.P,SW70,2,2*%
%TO.N,Net-(D70-Pad2)*%
X267665200Y-149250400D03*
%TD*%
%TO.P,SW61,1,1*%
%TO.N,Row5*%
X259715000Y-80518000D03*
%TO.P,SW61,2,2*%
%TO.N,Net-(D61-Pad2)*%
X253365000Y-83058000D03*
D17*
%TO.P,SW61,3,K*%
%TO.N,GND*%
X255905000Y-90678000D03*
D18*
%TO.P,SW61,4,A*%
%TO.N,/MetaLED*%
X258445000Y-90678000D03*
%TD*%
D11*
%TO.P,D39,1,K*%
%TO.N,ColG*%
X161925000Y-137795000D03*
D12*
%TO.P,D39,2,A*%
%TO.N,Net-(D39-Pad2)*%
X161925000Y-130175000D03*
%TD*%
D11*
%TO.P,D32,1,K*%
%TO.N,ColF*%
X133350000Y-118745000D03*
D12*
%TO.P,D32,2,A*%
%TO.N,Net-(D32-Pad2)*%
X133350000Y-111125000D03*
%TD*%
D10*
%TO.P,SW96,1,1*%
%TO.N,Row0*%
X359791000Y-184861200D03*
%TO.P,SW96,2,2*%
%TO.N,Net-(D96-Pad2)*%
X353441000Y-187401200D03*
%TD*%
%TO.P,SW90,1,1*%
%TO.N,Row0*%
X340741000Y-184861200D03*
%TO.P,SW90,2,2*%
%TO.N,Net-(D90-Pad2)*%
X334391000Y-187401200D03*
%TD*%
D11*
%TO.P,D40,1,K*%
%TO.N,ColG*%
X167005000Y-156845000D03*
D12*
%TO.P,D40,2,A*%
%TO.N,Net-(D40-Pad2)*%
X167005000Y-149225000D03*
%TD*%
D10*
%TO.P,SW6,1,1*%
%TO.N,Row0*%
X52578000Y-184861200D03*
%TO.P,SW6,2,2*%
%TO.N,Net-(D6-Pad2)*%
X46228000Y-187401200D03*
%TD*%
%TO.P,SW1,1,1*%
%TO.N,Row5*%
X50165000Y-80518000D03*
%TO.P,SW1,2,2*%
%TO.N,Net-(D1-Pad2)*%
X43815000Y-83058000D03*
%TD*%
D11*
%TO.P,D18,1,K*%
%TO.N,ColC*%
X85725000Y-194945000D03*
D12*
%TO.P,D18,2,A*%
%TO.N,Net-(D18-Pad2)*%
X85725000Y-187325000D03*
%TD*%
D11*
%TO.P,D59,1,K*%
%TO.N,ColJ*%
X233045000Y-175895000D03*
D12*
%TO.P,D59,2,A*%
%TO.N,Net-(D59-Pad2)*%
X233045000Y-168275000D03*
%TD*%
D11*
%TO.P,D72,1,K*%
%TO.N,ColL*%
X252095000Y-194945000D03*
D12*
%TO.P,D72,2,A*%
%TO.N,Net-(D72-Pad2)*%
X252095000Y-187325000D03*
%TD*%
D10*
%TO.P,SW63,1,1*%
%TO.N,Row3*%
X250240800Y-127635000D03*
%TO.P,SW63,2,2*%
%TO.N,Net-(D63-Pad2)*%
X243890800Y-130175000D03*
%TD*%
%TO.P,SW52,1,1*%
%TO.N,Row2*%
X216865200Y-146710400D03*
%TO.P,SW52,2,2*%
%TO.N,Net-(D52-Pad2)*%
X210515200Y-149250400D03*
%TD*%
D11*
%TO.P,D97,1,K*%
%TO.N,ColQ*%
X366776000Y-90678000D03*
D12*
%TO.P,D97,2,A*%
%TO.N,Net-(D97-Pad2)*%
X366776000Y-83058000D03*
%TD*%
D11*
%TO.P,D45,1,K*%
%TO.N,ColH*%
X180975000Y-137795000D03*
D12*
%TO.P,D45,2,A*%
%TO.N,Net-(D45-Pad2)*%
X180975000Y-130175000D03*
%TD*%
D21*
%TO.P,R3,1*%
%TO.N,/CapsLED_GPIO*%
X354330000Y-145796000D03*
D22*
%TO.P,R3,2*%
%TO.N,/CapsLED*%
X361950000Y-145796000D03*
%TD*%
D10*
%TO.P,SW95,1,1*%
%TO.N,Row1*%
X359791000Y-165735000D03*
%TO.P,SW95,2,2*%
%TO.N,Net-(D95-Pad2)*%
X353441000Y-168275000D03*
%TD*%
%TO.P,SW45,1,1*%
%TO.N,Row3*%
X193090800Y-127635000D03*
%TO.P,SW45,2,2*%
%TO.N,Net-(D45-Pad2)*%
X186740800Y-130175000D03*
%TD*%
D11*
%TO.P,D2,1,K*%
%TO.N,ColA*%
X51308000Y-103378000D03*
D12*
%TO.P,D2,2,A*%
%TO.N,Net-(D2-Pad2)*%
X43688000Y-103378000D03*
%TD*%
D11*
%TO.P,D92,1,K*%
%TO.N,ColP*%
X347726000Y-118745000D03*
D12*
%TO.P,D92,2,A*%
%TO.N,Net-(D92-Pad2)*%
X347726000Y-111125000D03*
%TD*%
D11*
%TO.P,D20,1,K*%
%TO.N,ColD*%
X95250000Y-118745000D03*
D12*
%TO.P,D20,2,A*%
%TO.N,Net-(D20-Pad2)*%
X95250000Y-111125000D03*
%TD*%
D10*
%TO.P,SW64,1,1*%
%TO.N,Row2*%
X254965200Y-146710400D03*
%TO.P,SW64,2,2*%
%TO.N,Net-(D64-Pad2)*%
X248615200Y-149250400D03*
%TD*%
%TO.P,SW41,1,1*%
%TO.N,Row1*%
X188290200Y-165735000D03*
%TO.P,SW41,2,2*%
%TO.N,Net-(D41-Pad2)*%
X181940200Y-168275000D03*
%TD*%
%TO.P,SW69,1,1*%
%TO.N,Row3*%
X269290800Y-127635000D03*
%TO.P,SW69,2,2*%
%TO.N,Net-(D69-Pad2)*%
X262940800Y-130175000D03*
%TD*%
%TO.P,SW53,1,1*%
%TO.N,Row1*%
X226390200Y-165735000D03*
%TO.P,SW53,2,2*%
%TO.N,Net-(D53-Pad2)*%
X220040200Y-168275000D03*
%TD*%
%TO.P,SW78,1,1*%
%TO.N,Row0*%
X290703000Y-184861200D03*
%TO.P,SW78,2,2*%
%TO.N,Net-(D78-Pad2)*%
X284353000Y-187401200D03*
%TD*%
D11*
%TO.P,D69,1,K*%
%TO.N,ColL*%
X256540000Y-137795000D03*
D12*
%TO.P,D69,2,A*%
%TO.N,Net-(D69-Pad2)*%
X256540000Y-130175000D03*
%TD*%
D11*
%TO.P,D47,1,K*%
%TO.N,ColH*%
X195580000Y-175895000D03*
D12*
%TO.P,D47,2,A*%
%TO.N,Net-(D47-Pad2)*%
X195580000Y-168275000D03*
%TD*%
D10*
%TO.P,SW79,1,1*%
%TO.N,Row5*%
X316865000Y-80518000D03*
%TO.P,SW79,2,2*%
%TO.N,Net-(D79-Pad2)*%
X310515000Y-83058000D03*
%TD*%
%TO.P,SW26,1,1*%
%TO.N,Row4*%
X126390400Y-108635800D03*
%TO.P,SW26,2,2*%
%TO.N,Net-(D26-Pad2)*%
X120040400Y-111175800D03*
%TD*%
%TO.P,SW21,1,1*%
%TO.N,Row3*%
X116890800Y-127635000D03*
%TO.P,SW21,2,2*%
%TO.N,Net-(D21-Pad2)*%
X110540800Y-130175000D03*
%TD*%
%TO.P,SW56,1,1*%
%TO.N,Row4*%
X221640400Y-108635800D03*
%TO.P,SW56,2,2*%
%TO.N,Net-(D56-Pad2)*%
X215290400Y-111175800D03*
%TD*%
D11*
%TO.P,D58,1,K*%
%TO.N,ColJ*%
X224155000Y-156845000D03*
D12*
%TO.P,D58,2,A*%
%TO.N,Net-(D58-Pad2)*%
X224155000Y-149225000D03*
%TD*%
D11*
%TO.P,D23,1,K*%
%TO.N,ColD*%
X119380000Y-175895000D03*
D12*
%TO.P,D23,2,A*%
%TO.N,Net-(D23-Pad2)*%
X119380000Y-168275000D03*
%TD*%
D19*
%TO.P,D106,1,K*%
%TO.N,GND*%
X366776000Y-98298000D03*
D20*
%TO.P,D106,2,A*%
%TO.N,/ScrollLED*%
X366776000Y-100838000D03*
%TD*%
D11*
%TO.P,D33,1,K*%
%TO.N,ColF*%
X142875000Y-137795000D03*
D12*
%TO.P,D33,2,A*%
%TO.N,Net-(D33-Pad2)*%
X142875000Y-130175000D03*
%TD*%
D11*
%TO.P,D96,1,K*%
%TO.N,ColP*%
X347726000Y-194818000D03*
D12*
%TO.P,D96,2,A*%
%TO.N,Net-(D96-Pad2)*%
X347726000Y-187198000D03*
%TD*%
D11*
%TO.P,D86,1,K*%
%TO.N,ColO*%
X328676000Y-118745000D03*
D12*
%TO.P,D86,2,A*%
%TO.N,Net-(D86-Pad2)*%
X328676000Y-111125000D03*
%TD*%
D10*
%TO.P,SW66,1,1*%
%TO.N,Row0*%
X242976400Y-184861200D03*
%TO.P,SW66,2,2*%
%TO.N,Net-(D66-Pad2)*%
X236626400Y-187401200D03*
%TD*%
D11*
%TO.P,D16,1,K*%
%TO.N,ColC*%
X90170000Y-156845000D03*
D12*
%TO.P,D16,2,A*%
%TO.N,Net-(D16-Pad2)*%
X90170000Y-149225000D03*
%TD*%
D10*
%TO.P,SW85,1,1*%
%TO.N,Row5*%
X340741000Y-80518000D03*
%TO.P,SW85,2,2*%
%TO.N,Net-(D85-Pad2)*%
X334391000Y-83058000D03*
%TD*%
D11*
%TO.P,D3,1,K*%
%TO.N,ColA*%
X43180000Y-137668000D03*
D12*
%TO.P,D3,2,A*%
%TO.N,Net-(D3-Pad2)*%
X43180000Y-130048000D03*
%TD*%
D11*
%TO.P,D76,1,K*%
%TO.N,ColM*%
X284988000Y-156972000D03*
D12*
%TO.P,D76,2,A*%
%TO.N,Net-(D76-Pad2)*%
X284988000Y-149352000D03*
%TD*%
D11*
%TO.P,D85,1,K*%
%TO.N,ColO*%
X328676000Y-90678000D03*
D12*
%TO.P,D85,2,A*%
%TO.N,Net-(D85-Pad2)*%
X328676000Y-83058000D03*
%TD*%
D11*
%TO.P,D74,1,K*%
%TO.N,ColM*%
X266700000Y-118745000D03*
D12*
%TO.P,D74,2,A*%
%TO.N,Net-(D74-Pad2)*%
X266700000Y-111125000D03*
%TD*%
D11*
%TO.P,D25,1,K*%
%TO.N,ColE*%
X114300000Y-90678000D03*
D12*
%TO.P,D25,2,A*%
%TO.N,Net-(D25-Pad2)*%
X114300000Y-83058000D03*
%TD*%
D11*
%TO.P,D93,1,K*%
%TO.N,ColP*%
X347726000Y-137795000D03*
D12*
%TO.P,D93,2,A*%
%TO.N,Net-(D93-Pad2)*%
X347726000Y-130175000D03*
%TD*%
D10*
%TO.P,SW73,1,1*%
%TO.N,Row5*%
X297815000Y-80518000D03*
%TO.P,SW73,2,2*%
%TO.N,Net-(D73-Pad2)*%
X291465000Y-83058000D03*
%TD*%
%TO.P,SW20,1,1*%
%TO.N,Row4*%
X107340400Y-108635800D03*
%TO.P,SW20,2,2*%
%TO.N,Net-(D20-Pad2)*%
X100990400Y-111175800D03*
%TD*%
D11*
%TO.P,D53,1,K*%
%TO.N,ColI*%
X214376000Y-175895000D03*
D12*
%TO.P,D53,2,A*%
%TO.N,Net-(D53-Pad2)*%
X214376000Y-168275000D03*
%TD*%
D10*
%TO.P,SW43,1,1*%
%TO.N,Row5*%
X193040000Y-80518000D03*
%TO.P,SW43,2,2*%
%TO.N,Net-(D43-Pad2)*%
X186690000Y-83058000D03*
%TD*%
D11*
%TO.P,D37,1,K*%
%TO.N,ColG*%
X161290000Y-90678000D03*
D12*
%TO.P,D37,2,A*%
%TO.N,Net-(D37-Pad2)*%
X161290000Y-83058000D03*
%TD*%
D10*
%TO.P,SW29,1,1*%
%TO.N,Row1*%
X150190200Y-165735000D03*
%TO.P,SW29,2,2*%
%TO.N,Net-(D29-Pad2)*%
X143840200Y-168275000D03*
%TD*%
D11*
%TO.P,D91,1,K*%
%TO.N,ColP*%
X347726000Y-90678000D03*
D12*
%TO.P,D91,2,A*%
%TO.N,Net-(D91-Pad2)*%
X347726000Y-83058000D03*
%TD*%
D11*
%TO.P,D12,1,K*%
%TO.N,ColB*%
X64262000Y-194818000D03*
D12*
%TO.P,D12,2,A*%
%TO.N,Net-(D12-Pad2)*%
X64262000Y-187198000D03*
%TD*%
D11*
%TO.P,D35,1,K*%
%TO.N,ColF*%
X157480000Y-175895000D03*
D12*
%TO.P,D35,2,A*%
%TO.N,Net-(D35-Pad2)*%
X157480000Y-168275000D03*
%TD*%
D11*
%TO.P,D17,1,K*%
%TO.N,ColC*%
X100330000Y-175895000D03*
D12*
%TO.P,D17,2,A*%
%TO.N,Net-(D17-Pad2)*%
X100330000Y-168275000D03*
%TD*%
D11*
%TO.P,D87,1,K*%
%TO.N,ColO*%
X328676000Y-137795000D03*
D12*
%TO.P,D87,2,A*%
%TO.N,Net-(D87-Pad2)*%
X328676000Y-130175000D03*
%TD*%
D11*
%TO.P,D55,1,K*%
%TO.N,ColJ*%
X219075000Y-90678000D03*
D12*
%TO.P,D55,2,A*%
%TO.N,Net-(D55-Pad2)*%
X219075000Y-83058000D03*
%TD*%
D21*
%TO.P,R2,1*%
%TO.N,/MetaLED_GPIO*%
X354330000Y-149352000D03*
D22*
%TO.P,R2,2*%
%TO.N,/MetaLED*%
X361950000Y-149352000D03*
%TD*%
D10*
%TO.P,SW31,1,1*%
%TO.N,Row5*%
X145415000Y-80518000D03*
%TO.P,SW31,2,2*%
%TO.N,Net-(D31-Pad2)*%
X139065000Y-83058000D03*
%TD*%
D11*
%TO.P,D66,1,K*%
%TO.N,ColK*%
X230505000Y-194945000D03*
D12*
%TO.P,D66,2,A*%
%TO.N,Net-(D66-Pad2)*%
X230505000Y-187325000D03*
%TD*%
D10*
%TO.P,SW74,1,1*%
%TO.N,Row4*%
X278790400Y-108635800D03*
%TO.P,SW74,2,2*%
%TO.N,Net-(D74-Pad2)*%
X272440400Y-111175800D03*
%TD*%
%TO.P,SW3,1,1*%
%TO.N,Row3*%
X54914800Y-127635000D03*
%TO.P,SW3,2,2*%
%TO.N,Net-(D3-Pad2)*%
X48564800Y-130175000D03*
%TD*%
D11*
%TO.P,D1,1,K*%
%TO.N,ColA*%
X57404000Y-90551000D03*
D12*
%TO.P,D1,2,A*%
%TO.N,Net-(D1-Pad2)*%
X57404000Y-82931000D03*
%TD*%
D10*
%TO.P,SW87,1,1*%
%TO.N,Row3*%
X340791800Y-127635000D03*
%TO.P,SW87,2,2*%
%TO.N,Net-(D87-Pad2)*%
X334441800Y-130175000D03*
%TD*%
%TO.P,SW23,1,1*%
%TO.N,Row1*%
X131140200Y-165735000D03*
%TO.P,SW23,2,2*%
%TO.N,Net-(D23-Pad2)*%
X124790200Y-168275000D03*
%TD*%
%TO.P,SW98,1,1*%
%TO.N,Row4*%
X378866400Y-108635800D03*
%TO.P,SW98,2,2*%
%TO.N,Net-(D98-Pad2)*%
X372516400Y-111175800D03*
%TD*%
%TO.P,SW44,1,1*%
%TO.N,Row4*%
X183540400Y-108635800D03*
%TO.P,SW44,2,2*%
%TO.N,Net-(D44-Pad2)*%
X177190400Y-111175800D03*
%TD*%
D11*
%TO.P,D43,1,K*%
%TO.N,ColH*%
X180975000Y-90678000D03*
D12*
%TO.P,D43,2,A*%
%TO.N,Net-(D43-Pad2)*%
X180975000Y-83058000D03*
%TD*%
D10*
%TO.P,SW86,1,1*%
%TO.N,Row4*%
X340766400Y-108635800D03*
%TO.P,SW86,2,2*%
%TO.N,Net-(D86-Pad2)*%
X334416400Y-111175800D03*
%TD*%
%TO.P,SW51,1,1*%
%TO.N,Row3*%
X212140800Y-127635000D03*
%TO.P,SW51,2,2*%
%TO.N,Net-(D51-Pad2)*%
X205790800Y-130175000D03*
%TD*%
D11*
%TO.P,D19,1,K*%
%TO.N,ColD*%
X94615000Y-90678000D03*
D12*
%TO.P,D19,2,A*%
%TO.N,Net-(D19-Pad2)*%
X94615000Y-83058000D03*
%TD*%
D10*
%TO.P,SW14,1,1*%
%TO.N,Row4*%
X88290400Y-108635800D03*
%TO.P,SW14,2,2*%
%TO.N,Net-(D14-Pad2)*%
X81940400Y-111175800D03*
%TD*%
%TO.P,SW84,1,1*%
%TO.N,Row0*%
X314579000Y-184861200D03*
%TO.P,SW84,2,2*%
%TO.N,Net-(D84-Pad2)*%
X308229000Y-187401200D03*
%TD*%
%TO.P,SW65,1,1*%
%TO.N,Row1*%
X264490200Y-165735000D03*
%TO.P,SW65,2,2*%
%TO.N,Net-(D65-Pad2)*%
X258140200Y-168275000D03*
%TD*%
D11*
%TO.P,D70,1,K*%
%TO.N,ColL*%
X262255000Y-156845000D03*
D12*
%TO.P,D70,2,A*%
%TO.N,Net-(D70-Pad2)*%
X262255000Y-149225000D03*
%TD*%
D10*
%TO.P,SW97,1,1*%
%TO.N,Row5*%
X378841000Y-80518000D03*
%TO.P,SW97,2,2*%
%TO.N,Net-(D97-Pad2)*%
X372491000Y-83058000D03*
%TD*%
%TO.P,SW38,1,1*%
%TO.N,Row4*%
X164490400Y-108635800D03*
%TO.P,SW38,2,2*%
%TO.N,Net-(D38-Pad2)*%
X158140400Y-111175800D03*
%TD*%
D11*
%TO.P,D11,1,K*%
%TO.N,ColB*%
X81280000Y-175895000D03*
D12*
%TO.P,D11,2,A*%
%TO.N,Net-(D11-Pad2)*%
X81280000Y-168275000D03*
%TD*%
D10*
%TO.P,SW102,1,1*%
%TO.N,Row0*%
X378841000Y-184861200D03*
%TO.P,SW102,2,2*%
%TO.N,Net-(D102-Pad2)*%
X372491000Y-187401200D03*
%TD*%
%TO.P,SW34,1,1*%
%TO.N,Row2*%
X159715200Y-146710400D03*
%TO.P,SW34,2,2*%
%TO.N,Net-(D34-Pad2)*%
X153365200Y-149250400D03*
%TD*%
%TO.P,SW37,1,1*%
%TO.N,Row5*%
X173990000Y-80518000D03*
%TO.P,SW37,2,2*%
%TO.N,Net-(D37-Pad2)*%
X167640000Y-83058000D03*
%TD*%
%TO.P,SW42,1,1*%
%TO.N,Row0*%
X171627800Y-184861200D03*
%TO.P,SW42,2,2*%
%TO.N,Net-(D42-Pad2)*%
X165277800Y-187401200D03*
%TD*%
D11*
%TO.P,D14,1,K*%
%TO.N,ColC*%
X76200000Y-118745000D03*
D12*
%TO.P,D14,2,A*%
%TO.N,Net-(D14-Pad2)*%
X76200000Y-111125000D03*
%TD*%
D11*
%TO.P,D10,1,K*%
%TO.N,ColB*%
X62992000Y-155956000D03*
D12*
%TO.P,D10,2,A*%
%TO.N,Net-(D10-Pad2)*%
X62992000Y-148336000D03*
%TD*%
D10*
%TO.P,SW33,1,1*%
%TO.N,Row3*%
X154990800Y-127635000D03*
%TO.P,SW33,2,2*%
%TO.N,Net-(D33-Pad2)*%
X148640800Y-130175000D03*
%TD*%
%TO.P,SW8,1,1*%
%TO.N,Row4*%
X69240400Y-108635800D03*
%TO.P,SW8,2,2*%
%TO.N,Net-(D8-Pad2)*%
X62890400Y-111175800D03*
%TD*%
D11*
%TO.P,D98,1,K*%
%TO.N,ColQ*%
X366522000Y-118745000D03*
D12*
%TO.P,D98,2,A*%
%TO.N,Net-(D98-Pad2)*%
X366522000Y-111125000D03*
%TD*%
D10*
%TO.P,SW16,1,1*%
%TO.N,Row2*%
X102565200Y-146710400D03*
%TO.P,SW16,2,2*%
%TO.N,Net-(D16-Pad2)*%
X96215200Y-149250400D03*
%TD*%
%TO.P,SW47,1,1*%
%TO.N,Row1*%
X207340200Y-165735000D03*
%TO.P,SW47,2,2*%
%TO.N,Net-(D47-Pad2)*%
X200990200Y-168275000D03*
%TD*%
D11*
%TO.P,D73,1,K*%
%TO.N,ColM*%
X285750000Y-90678000D03*
D12*
%TO.P,D73,2,A*%
%TO.N,Net-(D73-Pad2)*%
X285750000Y-83058000D03*
%TD*%
D10*
%TO.P,SW13,1,1*%
%TO.N,Row5*%
X88265000Y-80518000D03*
%TO.P,SW13,2,2*%
%TO.N,Net-(D13-Pad2)*%
X81915000Y-83058000D03*
%TD*%
D11*
%TO.P,D84,1,K*%
%TO.N,ColN*%
X300355000Y-194945000D03*
D12*
%TO.P,D84,2,A*%
%TO.N,Net-(D84-Pad2)*%
X300355000Y-187325000D03*
%TD*%
D11*
%TO.P,D57,1,K*%
%TO.N,ColJ*%
X219075000Y-137795000D03*
D12*
%TO.P,D57,2,A*%
%TO.N,Net-(D57-Pad2)*%
X219075000Y-130175000D03*
%TD*%
D11*
%TO.P,D95,1,K*%
%TO.N,ColP*%
X366776000Y-175895000D03*
D12*
%TO.P,D95,2,A*%
%TO.N,Net-(D95-Pad2)*%
X366776000Y-168275000D03*
%TD*%
D10*
%TO.P,SW50,1,1*%
%TO.N,Row4*%
X202590400Y-108635800D03*
%TO.P,SW50,2,2*%
%TO.N,Net-(D50-Pad2)*%
X196240400Y-111175800D03*
%TD*%
D11*
%TO.P,D46,1,K*%
%TO.N,ColH*%
X186055000Y-156972000D03*
D12*
%TO.P,D46,2,A*%
%TO.N,Net-(D46-Pad2)*%
X186055000Y-149352000D03*
%TD*%
D11*
%TO.P,D38,1,K*%
%TO.N,ColG*%
X152400000Y-118745000D03*
D12*
%TO.P,D38,2,A*%
%TO.N,Net-(D38-Pad2)*%
X152400000Y-111125000D03*
%TD*%
D10*
%TO.P,SW71,1,1*%
%TO.N,Row1*%
X300278800Y-165735000D03*
%TO.P,SW71,2,2*%
%TO.N,Net-(D71-Pad2)*%
X293928800Y-168275000D03*
%TD*%
D11*
%TO.P,D71,1,K*%
%TO.N,ColL*%
X276225000Y-175768000D03*
D12*
%TO.P,D71,2,A*%
%TO.N,Net-(D71-Pad2)*%
X276225000Y-168148000D03*
%TD*%
D10*
%TO.P,SW67,1,1*%
%TO.N,Row5*%
X278765000Y-80518000D03*
%TO.P,SW67,2,2*%
%TO.N,Net-(D67-Pad2)*%
X272415000Y-83058000D03*
%TD*%
%TO.P,SW15,1,1*%
%TO.N,Row3*%
X97840800Y-127635000D03*
%TO.P,SW15,2,2*%
%TO.N,Net-(D15-Pad2)*%
X91490800Y-130175000D03*
%TD*%
D11*
%TO.P,D6,1,K*%
%TO.N,ColA*%
X59436000Y-194818000D03*
D12*
%TO.P,D6,2,A*%
%TO.N,Net-(D6-Pad2)*%
X59436000Y-187198000D03*
%TD*%
D11*
%TO.P,D56,1,K*%
%TO.N,ColJ*%
X209550000Y-118745000D03*
D12*
%TO.P,D56,2,A*%
%TO.N,Net-(D56-Pad2)*%
X209550000Y-111125000D03*
%TD*%
D10*
%TO.P,SW10,1,1*%
%TO.N,Row2*%
X83515200Y-146710400D03*
%TO.P,SW10,2,2*%
%TO.N,Net-(D10-Pad2)*%
X77165200Y-149250400D03*
%TD*%
%TO.P,SW55,1,1*%
%TO.N,Row5*%
X231140000Y-80518000D03*
%TO.P,SW55,2,2*%
%TO.N,Net-(D55-Pad2)*%
X224790000Y-83058000D03*
%TD*%
D11*
%TO.P,D63,1,K*%
%TO.N,ColK*%
X238125000Y-137795000D03*
D12*
%TO.P,D63,2,A*%
%TO.N,Net-(D63-Pad2)*%
X238125000Y-130175000D03*
%TD*%
D10*
%TO.P,SW28,1,1*%
%TO.N,Row2*%
X140665200Y-146710400D03*
%TO.P,SW28,2,2*%
%TO.N,Net-(D28-Pad2)*%
X134315200Y-149250400D03*
%TD*%
%TO.P,SW12,1,1*%
%TO.N,Row0*%
X76403200Y-184861200D03*
%TO.P,SW12,2,2*%
%TO.N,Net-(D12-Pad2)*%
X70053200Y-187401200D03*
%TD*%
%TO.P,SW92,1,1*%
%TO.N,Row4*%
X359816400Y-108635800D03*
%TO.P,SW92,2,2*%
%TO.N,Net-(D92-Pad2)*%
X353466400Y-111175800D03*
%TD*%
%TO.P,SW9,1,1*%
%TO.N,Row3*%
X78790800Y-127635000D03*
%TO.P,SW9,2,2*%
%TO.N,Net-(D9-Pad2)*%
X72440800Y-130175000D03*
%TD*%
%TO.P,SW57,1,1*%
%TO.N,Row3*%
X231190800Y-127635000D03*
%TO.P,SW57,2,2*%
%TO.N,Net-(D57-Pad2)*%
X224840800Y-130175000D03*
%TD*%
%TO.P,SW49,1,1*%
%TO.N,Row5*%
X212090000Y-80518000D03*
%TO.P,SW49,2,2*%
%TO.N,Net-(D49-Pad2)*%
X205740000Y-83058000D03*
%TD*%
D11*
%TO.P,D51,1,K*%
%TO.N,ColI*%
X200660000Y-137795000D03*
D12*
%TO.P,D51,2,A*%
%TO.N,Net-(D51-Pad2)*%
X200660000Y-130175000D03*
%TD*%
D11*
%TO.P,D79,1,K*%
%TO.N,ColN*%
X304800000Y-90678000D03*
D12*
%TO.P,D79,2,A*%
%TO.N,Net-(D79-Pad2)*%
X304800000Y-83058000D03*
%TD*%
D10*
%TO.P,SW22,1,1*%
%TO.N,Row2*%
X121615200Y-146710400D03*
%TO.P,SW22,2,2*%
%TO.N,Net-(D22-Pad2)*%
X115265200Y-149250400D03*
%TD*%
D23*
%TO.P,J3,1,Pin_1*%
%TO.N,+5V*%
X373126000Y-151638000D03*
D24*
%TO.P,J3,2,Pin_2*%
%TO.N,+3V3*%
X373126000Y-154178000D03*
%TO.P,J3,3,Pin_3*%
%TO.N,/SWDIO*%
X373126000Y-156718000D03*
%TO.P,J3,4,Pin_4*%
%TO.N,GND*%
X373126000Y-159258000D03*
%TO.P,J3,5,Pin_5*%
%TO.N,/SWCLK*%
X373126000Y-161798000D03*
%TO.P,J3,6,Pin_6*%
%TO.N,/GPIO21*%
X373126000Y-164338000D03*
%TO.P,J3,7,Pin_7*%
%TO.N,/GPIO19*%
X373126000Y-166878000D03*
%TO.P,J3,8,Pin_8*%
%TO.N,/GPIO18*%
X373126000Y-169418000D03*
%TO.P,J3,9,Pin_9*%
%TO.N,/GPIO17*%
X373126000Y-171958000D03*
%TD*%
D10*
%TO.P,SW93,1,1*%
%TO.N,Row3*%
X359841800Y-127635000D03*
%TO.P,SW93,2,2*%
%TO.N,Net-(D93-Pad2)*%
X353491800Y-130175000D03*
%TD*%
D19*
%TO.P,D108,1,K*%
%TO.N,GND*%
X357124000Y-98298000D03*
D20*
%TO.P,D108,2,A*%
%TO.N,/MetaLED*%
X357124000Y-100838000D03*
%TD*%
D11*
%TO.P,D78,1,K*%
%TO.N,ColM*%
X276225000Y-194945000D03*
D12*
%TO.P,D78,2,A*%
%TO.N,Net-(D78-Pad2)*%
X276225000Y-187325000D03*
%TD*%
D10*
%TO.P,SW39,1,1*%
%TO.N,Row3*%
X174040800Y-127635000D03*
%TO.P,SW39,2,2*%
%TO.N,Net-(D39-Pad2)*%
X167690800Y-130175000D03*
%TD*%
D11*
%TO.P,D4,1,K*%
%TO.N,ColA*%
X43434000Y-156718000D03*
D12*
%TO.P,D4,2,A*%
%TO.N,Net-(D4-Pad2)*%
X43434000Y-149098000D03*
%TD*%
D11*
%TO.P,D26,1,K*%
%TO.N,ColE*%
X114300000Y-118745000D03*
D12*
%TO.P,D26,2,A*%
%TO.N,Net-(D26-Pad2)*%
X114300000Y-111125000D03*
%TD*%
D11*
%TO.P,D21,1,K*%
%TO.N,ColD*%
X104775000Y-137795000D03*
D12*
%TO.P,D21,2,A*%
%TO.N,Net-(D21-Pad2)*%
X104775000Y-130175000D03*
%TD*%
D11*
%TO.P,D75,1,K*%
%TO.N,ColM*%
X276225000Y-137795000D03*
D12*
%TO.P,D75,2,A*%
%TO.N,Net-(D75-Pad2)*%
X276225000Y-130175000D03*
%TD*%
D10*
%TO.P,SW81,1,1*%
%TO.N,Row3*%
X312115200Y-127635000D03*
%TO.P,SW81,2,2*%
%TO.N,Net-(D81-Pad2)*%
X305765200Y-130175000D03*
%TD*%
D25*
%TO.P,SW103,1,1*%
%TO.N,GND*%
X244654000Y-96810000D03*
X251154000Y-96810000D03*
%TO.P,SW103,2,2*%
%TO.N,/~{RESET}*%
X244654000Y-101310000D03*
X251154000Y-101310000D03*
%TD*%
D26*
%TO.P,J1,1,Pin_1*%
%TO.N,unconnected-(J1-Pad1)*%
X307250000Y-103060000D03*
D27*
%TO.P,J1,2,Pin_2*%
%TO.N,GND*%
X307250000Y-101060000D03*
%TO.P,J1,3,Pin_3*%
%TO.N,/USB_D+*%
X307250000Y-99060000D03*
%TO.P,J1,4,Pin_4*%
%TO.N,/USB_D-*%
X307250000Y-97060000D03*
%TO.P,J1,5,Pin_5*%
%TO.N,+5V*%
X307250000Y-95060000D03*
%TD*%
D25*
%TO.P,SW104,1,1*%
%TO.N,GND*%
X264160000Y-96810000D03*
X257660000Y-96810000D03*
%TO.P,SW104,2,2*%
%TO.N,/BOOTSEL*%
X257660000Y-101310000D03*
X264160000Y-101310000D03*
%TD*%
D28*
%TO.N,GND*%
X70866000Y-93980000D03*
%TO.N,ColM*%
X281686000Y-183388000D03*
%TO.N,ColN*%
X299212000Y-183642000D03*
%TO.N,ColP*%
X350393000Y-180975000D03*
%TO.N,ColQ*%
X368300000Y-179578000D03*
X371348000Y-137922000D03*
%TO.N,/CapsLED*%
X61468000Y-105664000D03*
%TO.N,Row5*%
X356108000Y-159512000D03*
%TO.N,Row4*%
X356108000Y-161544000D03*
%TO.N,Row3*%
X356108000Y-163576000D03*
%TO.N,/~{RESET}*%
X296418000Y-102108000D03*
%TO.N,/BOOTSEL*%
X294386000Y-101600000D03*
%TD*%
D29*
%TO.N,/MetaLED_GPIO*%
X348122000Y-155560000D02*
X354330000Y-149352000D01*
%TO.N,ColA*%
X44902031Y-135945969D02*
X43180000Y-137668000D01*
X318533000Y-153560000D02*
X304743958Y-139770960D01*
X87222840Y-135945969D02*
X44902031Y-135945969D01*
X131052659Y-139770960D02*
X126028628Y-134746929D01*
X121830499Y-134746929D02*
X120616468Y-135960960D01*
X304743958Y-139770960D02*
X131052659Y-139770960D01*
X126028628Y-134746929D02*
X121830499Y-134746929D01*
X101906318Y-136468960D02*
X87745832Y-136468960D01*
X319676000Y-153560000D02*
X318533000Y-153560000D01*
X87745832Y-136468960D02*
X87222840Y-135945969D01*
X120616468Y-135960960D02*
X107135680Y-135960960D01*
X103028828Y-135346450D02*
X101906318Y-136468960D01*
X106521169Y-135346449D02*
X103028828Y-135346450D01*
X107135680Y-135960960D02*
X106521169Y-135346449D01*
%TO.N,Net-(D1-Pad2)*%
X44196000Y-82931000D02*
X57404000Y-82931000D01*
%TO.N,Net-(D2-Pad2)*%
X43688000Y-103378000D02*
X43688000Y-110998000D01*
%TO.N,Net-(D3-Pad2)*%
X43180000Y-130048000D02*
X48412400Y-130048000D01*
%TO.N,Net-(D4-Pad2)*%
X43434000Y-149098000D02*
X50800000Y-149098000D01*
%TO.N,Net-(D5-Pad2)*%
X43434000Y-167894000D02*
X55321200Y-167894000D01*
%TO.N,Net-(D6-Pad2)*%
X46380400Y-187198000D02*
X59436000Y-187198000D01*
%TO.N,ColB*%
X311170560Y-148229560D02*
X311170560Y-147045410D01*
X125780299Y-135346449D02*
X122078829Y-135346449D01*
X102154648Y-137068480D02*
X87497502Y-137068480D01*
X106887352Y-136560480D02*
X106272840Y-135945969D01*
X67924511Y-136545489D02*
X66675000Y-137795000D01*
X122078829Y-135346449D02*
X120864798Y-136560480D01*
X311170560Y-147045410D02*
X304495629Y-140370480D01*
X318501000Y-155560000D02*
X311170560Y-148229560D01*
X120864798Y-136560480D02*
X106887352Y-136560480D01*
X130804330Y-140370480D02*
X125780299Y-135346449D01*
X320455000Y-155560000D02*
X318501000Y-155560000D01*
X86974511Y-136545489D02*
X67924511Y-136545489D01*
X304495629Y-140370480D02*
X130804330Y-140370480D01*
X103277159Y-135945969D02*
X102154648Y-137068480D01*
X106272840Y-135945969D02*
X103277159Y-135945969D01*
X87497502Y-137068480D02*
X86974511Y-136545489D01*
%TO.N,Net-(D8-Pad2)*%
X57150000Y-111125000D02*
X62839600Y-111125000D01*
%TO.N,Net-(D9-Pad2)*%
X66675000Y-130175000D02*
X72415400Y-130175000D01*
%TO.N,Net-(D10-Pad2)*%
X73040320Y-145125520D02*
X66202480Y-145125520D01*
X66202480Y-145125520D02*
X63246000Y-148082000D01*
X77165200Y-149250400D02*
X73040320Y-145125520D01*
%TO.N,Net-(D11-Pad2)*%
X86690200Y-168325800D02*
X81330800Y-168325800D01*
%TO.N,Net-(D12-Pad2)*%
X64262000Y-187198000D02*
X69850000Y-187198000D01*
%TO.N,ColC*%
X106024511Y-136545489D02*
X103525489Y-136545489D01*
X304247300Y-140970000D02*
X130556000Y-140970000D01*
X130556000Y-140970000D02*
X125531969Y-135945969D01*
X103525489Y-136545489D02*
X102402978Y-137668000D01*
X318342000Y-157560000D02*
X310571040Y-149789040D01*
X121113128Y-137160000D02*
X106639022Y-137160000D01*
X102402978Y-137668000D02*
X85852000Y-137668000D01*
X320455000Y-157560000D02*
X318342000Y-157560000D01*
X310571040Y-147293740D02*
X304247300Y-140970000D01*
X125531969Y-135945969D02*
X122327159Y-135945969D01*
X106639022Y-137160000D02*
X106024511Y-136545489D01*
X310571040Y-149789040D02*
X310571040Y-147293740D01*
X122327159Y-135945969D02*
X121113128Y-137160000D01*
%TO.N,Net-(D13-Pad2)*%
X76200000Y-83058000D02*
X81915000Y-83058000D01*
%TO.N,Net-(D14-Pad2)*%
X76200000Y-111125000D02*
X81889600Y-111125000D01*
%TO.N,Net-(D15-Pad2)*%
X85725000Y-130175000D02*
X91465400Y-130175000D01*
%TO.N,Net-(D16-Pad2)*%
X90170000Y-149225000D02*
X96189800Y-149225000D01*
%TO.N,Net-(D17-Pad2)*%
X105740200Y-168325800D02*
X100380800Y-168325800D01*
%TO.N,Net-(D18-Pad2)*%
X85725000Y-187325000D02*
X93776800Y-187325000D01*
%TO.N,ColD*%
X318564000Y-159560000D02*
X309971520Y-150967520D01*
X122575489Y-136545489D02*
X121198978Y-137922000D01*
X303998970Y-141569520D02*
X130139520Y-141569520D01*
X125115489Y-136545489D02*
X122575489Y-136545489D01*
X320455000Y-159560000D02*
X318564000Y-159560000D01*
X309971520Y-147542070D02*
X303998970Y-141569520D01*
X121198978Y-137922000D02*
X104902000Y-137922000D01*
X130139520Y-141569520D02*
X125115489Y-136545489D01*
X309971520Y-150967520D02*
X309971520Y-147542070D01*
%TO.N,Net-(D19-Pad2)*%
X94615000Y-83058000D02*
X100965000Y-83058000D01*
%TO.N,Net-(D20-Pad2)*%
X95250000Y-111125000D02*
X100939600Y-111125000D01*
%TO.N,Net-(D21-Pad2)*%
X110540800Y-130200400D02*
X104800400Y-130200400D01*
%TO.N,Net-(D22-Pad2)*%
X109220000Y-149225000D02*
X115239800Y-149225000D01*
%TO.N,Net-(D23-Pad2)*%
X124790200Y-168325800D02*
X119430800Y-168325800D01*
%TO.N,ColE*%
X318532000Y-161560000D02*
X317119000Y-160147000D01*
X309372000Y-151257000D02*
X309372000Y-147790400D01*
X309372000Y-147790400D02*
X303750640Y-142169040D01*
X317119000Y-160147000D02*
X317119000Y-159004000D01*
X303750640Y-142169040D02*
X129891190Y-142169040D01*
X129891190Y-142169040D02*
X125517150Y-137795000D01*
X317119000Y-159004000D02*
X309372000Y-151257000D01*
X319600303Y-161560000D02*
X318532000Y-161560000D01*
X125517150Y-137795000D02*
X123825000Y-137795000D01*
%TO.N,Net-(D25-Pad2)*%
X114300000Y-83058000D02*
X120015000Y-83058000D01*
%TO.N,Net-(D26-Pad2)*%
X114300000Y-111125000D02*
X119989600Y-111125000D01*
%TO.N,Net-(D27-Pad2)*%
X129590800Y-130200400D02*
X123850400Y-130200400D01*
%TO.N,Net-(D28-Pad2)*%
X128270000Y-149225000D02*
X134289800Y-149225000D01*
%TO.N,Net-(D29-Pad2)*%
X143840200Y-168325800D02*
X138480800Y-168325800D01*
D30*
%TO.N,GND*%
X257660000Y-97155000D02*
X257660000Y-92433000D01*
X370840000Y-156972000D02*
X373126000Y-159258000D01*
X307250000Y-101060000D02*
X306292000Y-101060000D01*
X323304480Y-105626480D02*
X318738000Y-101060000D01*
X302042000Y-96810000D02*
X264160000Y-96810000D01*
X318738000Y-101060000D02*
X307250000Y-101060000D01*
X241824000Y-93980000D02*
X244654000Y-96810000D01*
X340392520Y-105626480D02*
X323304480Y-105626480D01*
X347726000Y-98293000D02*
X340392520Y-105626480D01*
X264160000Y-96810000D02*
X244654000Y-96810000D01*
X70866000Y-93980000D02*
X241824000Y-93980000D01*
X364335142Y-142515040D02*
X370840000Y-149019898D01*
X346688960Y-142515040D02*
X364335142Y-142515040D01*
X370840000Y-149019898D02*
X370840000Y-156972000D01*
X257660000Y-92433000D02*
X255905000Y-90678000D01*
X341105000Y-150910000D02*
X341105000Y-148099000D01*
X366776000Y-98298000D02*
X347731000Y-98298000D01*
X306292000Y-101060000D02*
X302042000Y-96810000D01*
X341105000Y-148099000D02*
X346688960Y-142515040D01*
D29*
%TO.N,Net-(D31-Pad2)*%
X133350000Y-83058000D02*
X139065000Y-83058000D01*
%TO.N,Net-(D33-Pad2)*%
X148640800Y-130200400D02*
X142900400Y-130200400D01*
%TO.N,Net-(D35-Pad2)*%
X162890200Y-168325800D02*
X157530800Y-168325800D01*
%TO.N,ColF*%
X320455000Y-163560000D02*
X313674000Y-163560000D01*
X203358829Y-154396449D02*
X202652798Y-155102480D01*
X202652798Y-155102480D02*
X149697520Y-155102480D01*
X304962479Y-154848480D02*
X207303200Y-154848480D01*
X313674000Y-163560000D02*
X304962479Y-154848480D01*
X207303200Y-154848480D02*
X206851169Y-154396449D01*
X149697520Y-155102480D02*
X147955000Y-156845000D01*
X206851169Y-154396449D02*
X203358829Y-154396449D01*
%TO.N,Net-(D37-Pad2)*%
X161290000Y-83058000D02*
X167640000Y-83058000D01*
%TO.N,Net-(D38-Pad2)*%
X152400000Y-111125000D02*
X158089600Y-111125000D01*
%TO.N,Net-(D39-Pad2)*%
X167690800Y-130200400D02*
X161950400Y-130200400D01*
%TO.N,Net-(D40-Pad2)*%
X167005000Y-149225000D02*
X172389800Y-149225000D01*
%TO.N,Net-(D41-Pad2)*%
X181940200Y-168325800D02*
X176580800Y-168325800D01*
%TO.N,Net-(D42-Pad2)*%
X156210000Y-187325000D02*
X165191400Y-187325000D01*
%TO.N,ColG*%
X207054870Y-155448000D02*
X206602839Y-154995969D01*
X319475558Y-165608000D02*
X314874150Y-165608000D01*
X206602839Y-154995969D02*
X203607159Y-154995969D01*
X304714150Y-155448000D02*
X207054870Y-155448000D01*
X202901128Y-155702000D02*
X168148000Y-155702000D01*
X314874150Y-165608000D02*
X304714150Y-155448000D01*
X168148000Y-155702000D02*
X167005000Y-156845000D01*
X203607159Y-154995969D02*
X202901128Y-155702000D01*
%TO.N,Net-(D43-Pad2)*%
X180975000Y-83058000D02*
X186690000Y-83058000D01*
%TO.N,Net-(D44-Pad2)*%
X171450000Y-111125000D02*
X177139600Y-111125000D01*
%TO.N,Net-(D45-Pad2)*%
X186740800Y-130200400D02*
X181000400Y-130200400D01*
%TO.N,Net-(D46-Pad2)*%
X186055000Y-149352000D02*
X191363600Y-149352000D01*
%TO.N,Net-(D47-Pad2)*%
X200990200Y-168325800D02*
X195630800Y-168325800D01*
%TO.N,ColH*%
X306244000Y-167560000D02*
X301914479Y-163230480D01*
X202478978Y-156972000D02*
X186055000Y-156972000D01*
X289411618Y-162687921D02*
X287756655Y-161032959D01*
X287756655Y-161032959D02*
X211791981Y-161032959D01*
X211791981Y-161032959D02*
X206354511Y-155595489D01*
X292019821Y-163230480D02*
X291477262Y-162687921D01*
X291477262Y-162687921D02*
X289411618Y-162687921D01*
X301914479Y-163230480D02*
X292019821Y-163230480D01*
X206354511Y-155595489D02*
X203855489Y-155595489D01*
X203855489Y-155595489D02*
X202478978Y-156972000D01*
X320455000Y-167560000D02*
X306244000Y-167560000D01*
%TO.N,Net-(D49-Pad2)*%
X200025000Y-83058000D02*
X205740000Y-83058000D01*
%TO.N,Net-(D50-Pad2)*%
X190500000Y-111125000D02*
X196189600Y-111125000D01*
%TO.N,Net-(D51-Pad2)*%
X205790800Y-130200400D02*
X200685400Y-130200400D01*
%TO.N,Net-(D52-Pad2)*%
X205105000Y-149225000D02*
X210489800Y-149225000D01*
%TO.N,Net-(D53-Pad2)*%
X220040200Y-168325800D02*
X214426800Y-168325800D01*
%TO.N,ColI*%
X291228932Y-163287441D02*
X289163288Y-163287441D01*
X289163288Y-163287441D02*
X287508326Y-161632479D01*
X320455000Y-169560000D02*
X307396150Y-169560000D01*
X301666150Y-163830000D02*
X291771491Y-163830000D01*
X287508326Y-161632479D02*
X211543651Y-161632479D01*
X291771491Y-163830000D02*
X291228932Y-163287441D01*
X206756172Y-156845000D02*
X205105000Y-156845000D01*
X307396150Y-169560000D02*
X301666150Y-163830000D01*
X211543651Y-161632479D02*
X206756172Y-156845000D01*
%TO.N,Net-(D55-Pad2)*%
X219075000Y-83058000D02*
X224790000Y-83058000D01*
%TO.N,Net-(D56-Pad2)*%
X209550000Y-111125000D02*
X215239600Y-111125000D01*
%TO.N,Net-(D57-Pad2)*%
X224840800Y-130200400D02*
X219100400Y-130200400D01*
%TO.N,Net-(D58-Pad2)*%
X224155000Y-149225000D02*
X229539800Y-149225000D01*
%TO.N,Net-(D59-Pad2)*%
X239090200Y-168325800D02*
X233095800Y-168325800D01*
%TO.N,ColJ*%
X319786000Y-171577000D02*
X318389000Y-171577000D01*
X235467479Y-173472521D02*
X233045000Y-175895000D01*
X316493479Y-173472521D02*
X235467479Y-173472521D01*
X318389000Y-171577000D02*
X316493479Y-173472521D01*
%TO.N,Net-(D61-Pad2)*%
X247650000Y-83058000D02*
X253365000Y-83058000D01*
%TO.N,Net-(D62-Pad2)*%
X229235000Y-111125000D02*
X234289600Y-111125000D01*
%TO.N,Net-(D63-Pad2)*%
X243890800Y-130200400D02*
X238150400Y-130200400D01*
%TO.N,Net-(D64-Pad2)*%
X242570000Y-149225000D02*
X248589800Y-149225000D01*
%TO.N,Net-(D65-Pad2)*%
X258140200Y-168325800D02*
X252780800Y-168325800D01*
%TO.N,Net-(D66-Pad2)*%
X230505000Y-187325000D02*
X236575600Y-187325000D01*
%TO.N,ColK*%
X321945000Y-177292000D02*
X319786000Y-177292000D01*
X323105000Y-174210000D02*
X323105000Y-176132000D01*
X254552959Y-174072041D02*
X252730000Y-175895000D01*
X319786000Y-177292000D02*
X316566041Y-174072041D01*
X316566041Y-174072041D02*
X254552959Y-174072041D01*
X323105000Y-176132000D02*
X321945000Y-177292000D01*
%TO.N,Net-(D67-Pad2)*%
X266700000Y-83058000D02*
X272415000Y-83058000D01*
%TO.N,Net-(D68-Pad2)*%
X247650000Y-111125000D02*
X253339600Y-111125000D01*
%TO.N,Net-(D69-Pad2)*%
X262940800Y-130200400D02*
X256565400Y-130200400D01*
%TO.N,Net-(D70-Pad2)*%
X262255000Y-149225000D02*
X267639800Y-149225000D01*
%TO.N,Net-(D71-Pad2)*%
X276225000Y-168148000D02*
X293725600Y-168148000D01*
%TO.N,Net-(D72-Pad2)*%
X252095000Y-187325000D02*
X260477000Y-187325000D01*
%TO.N,ColL*%
X319537670Y-177891520D02*
X316317711Y-174671561D01*
X277321439Y-174671561D02*
X276225000Y-175768000D01*
X325105000Y-174210000D02*
X325105000Y-176164000D01*
X325105000Y-176164000D02*
X323377480Y-177891520D01*
X323377480Y-177891520D02*
X319537670Y-177891520D01*
X316317711Y-174671561D02*
X277321439Y-174671561D01*
%TO.N,Net-(D73-Pad2)*%
X285750000Y-83058000D02*
X291465000Y-83058000D01*
%TO.N,Net-(D74-Pad2)*%
X266700000Y-111125000D02*
X272389600Y-111125000D01*
%TO.N,Net-(D75-Pad2)*%
X281990800Y-130200400D02*
X276250400Y-130200400D01*
%TO.N,Net-(D76-Pad2)*%
X284988000Y-149352000D02*
X298500800Y-149352000D01*
%TO.N,Net-(D78-Pad2)*%
X276225000Y-187325000D02*
X284327600Y-187325000D01*
%TO.N,ColM*%
X282539520Y-182534480D02*
X320766520Y-182534480D01*
X281686000Y-183388000D02*
X282539520Y-182534480D01*
X320766520Y-182534480D02*
X327105000Y-176196000D01*
X327105000Y-176196000D02*
X327105000Y-175259022D01*
%TO.N,Net-(D79-Pad2)*%
X304800000Y-83058000D02*
X310515000Y-83058000D01*
%TO.N,Net-(D80-Pad2)*%
X288290000Y-111125000D02*
X300964600Y-111125000D01*
%TO.N,Net-(D81-Pad2)*%
X305765200Y-130200400D02*
X298475400Y-130200400D01*
%TO.N,Net-(D84-Pad2)*%
X300355000Y-187325000D02*
X308203600Y-187325000D01*
%TO.N,ColN*%
X322216371Y-181932479D02*
X323273521Y-181932479D01*
X321014850Y-183134000D02*
X322216371Y-181932479D01*
X329105000Y-176101000D02*
X329105000Y-174210000D01*
X323273521Y-181932479D02*
X329105000Y-176101000D01*
X299212000Y-183642000D02*
X299720000Y-183134000D01*
X299720000Y-183134000D02*
X321014850Y-183134000D01*
%TO.N,Net-(D85-Pad2)*%
X328930000Y-83058000D02*
X334645000Y-83058000D01*
%TO.N,Net-(D86-Pad2)*%
X328930000Y-111125000D02*
X334619600Y-111125000D01*
%TO.N,Net-(D87-Pad2)*%
X328930000Y-130175000D02*
X334695800Y-130175000D01*
%TO.N,Net-(D102-Pad2)*%
X367030000Y-187198000D02*
X372364000Y-187198000D01*
%TO.N,Net-(D90-Pad2)*%
X334772000Y-180594000D02*
X334772000Y-187198000D01*
%TO.N,ColO*%
X332486000Y-177546000D02*
X331105000Y-176165000D01*
X342392000Y-180594000D02*
X336718150Y-180594000D01*
X333670150Y-177546000D02*
X332486000Y-177546000D01*
X336718150Y-180594000D02*
X333670150Y-177546000D01*
X331105000Y-176165000D02*
X331105000Y-174210000D01*
%TO.N,Net-(D91-Pad2)*%
X347726000Y-83058000D02*
X353441000Y-83058000D01*
%TO.N,Net-(D92-Pad2)*%
X347726000Y-111125000D02*
X353415600Y-111125000D01*
%TO.N,Net-(D93-Pad2)*%
X347726000Y-130175000D02*
X353491800Y-130175000D01*
%TO.N,Net-(D95-Pad2)*%
X353558521Y-168157479D02*
X366658479Y-168157479D01*
%TO.N,Net-(D96-Pad2)*%
X347726000Y-187198000D02*
X353314000Y-187198000D01*
%TO.N,ColP*%
X348742000Y-179324000D02*
X336296000Y-179324000D01*
X350393000Y-180975000D02*
X348742000Y-179324000D01*
X336296000Y-179324000D02*
X333918480Y-176946480D01*
X333105000Y-176260000D02*
X333105000Y-175031150D01*
X333918480Y-176946480D02*
X333791480Y-176946480D01*
X333791480Y-176946480D02*
X333105000Y-176260000D01*
%TO.N,Net-(D97-Pad2)*%
X366776000Y-83058000D02*
X372491000Y-83058000D01*
%TO.N,Net-(D98-Pad2)*%
X367411000Y-111125000D02*
X372465600Y-111125000D01*
%TO.N,Net-(D99-Pad2)*%
X367411000Y-130175000D02*
X372541800Y-130175000D01*
%TO.N,ColQ*%
X335105000Y-176101000D02*
X335105000Y-175212000D01*
X368300000Y-179578000D02*
X367411000Y-178689000D01*
X367411000Y-178689000D02*
X337693000Y-178689000D01*
X337693000Y-178689000D02*
X335105000Y-176101000D01*
X371221000Y-137795000D02*
X366522000Y-137795000D01*
X371348000Y-137922000D02*
X371221000Y-137795000D01*
%TO.N,/CapsLED*%
X342133000Y-106426000D02*
X347726000Y-100833000D01*
X320179279Y-104533279D02*
X322072000Y-106426000D01*
X322072000Y-106426000D02*
X342133000Y-106426000D01*
X289166721Y-104533279D02*
X320179279Y-104533279D01*
X288036000Y-105664000D02*
X289166721Y-104533279D01*
X61468000Y-105664000D02*
X288036000Y-105664000D01*
%TO.N,/MetaLED*%
X367712489Y-102187511D02*
X368808000Y-101092000D01*
X368808000Y-101092000D02*
X368808000Y-96694489D01*
X357124000Y-100838000D02*
X358473511Y-102187511D01*
X358473511Y-102187511D02*
X367712489Y-102187511D01*
X368808000Y-96694489D02*
X364950511Y-92837000D01*
X260599000Y-92837000D02*
X258440000Y-90678000D01*
X364950511Y-92837000D02*
X260599000Y-92837000D01*
%TO.N,Row0*%
X314579000Y-184810400D02*
X323316600Y-193548000D01*
X52901521Y-185133921D02*
X314255479Y-185133921D01*
X341630000Y-185420000D02*
X340995000Y-184785000D01*
X323316600Y-193548000D02*
X339852000Y-193548000D01*
X341630000Y-191770000D02*
X341630000Y-185420000D01*
X340741000Y-184785000D02*
X378841000Y-184785000D01*
X339852000Y-193548000D02*
X341630000Y-191770000D01*
%TO.N,Row5*%
X356108000Y-159512000D02*
X356060000Y-159560000D01*
X356060000Y-159560000D02*
X343501000Y-159560000D01*
X378841000Y-80518000D02*
X50165000Y-80518000D01*
%TO.N,Row1*%
X359791000Y-165735000D02*
X349377000Y-165735000D01*
X93328121Y-166073721D02*
X300016279Y-166073721D01*
X347552000Y-167560000D02*
X343501000Y-167560000D01*
X80712679Y-166048321D02*
X92777679Y-166048321D01*
X63703200Y-167386000D02*
X79375000Y-167386000D01*
X349377000Y-165735000D02*
X347552000Y-167560000D01*
X79375000Y-167386000D02*
X80712679Y-166048321D01*
X62365521Y-166048321D02*
X63703200Y-167386000D01*
%TO.N,Row4*%
X356108000Y-161544000D02*
X356092000Y-161560000D01*
X356092000Y-161560000D02*
X343501000Y-161560000D01*
X378603879Y-108898321D02*
X50224321Y-108898321D01*
%TO.N,Row2*%
X57302400Y-146710400D02*
X59486800Y-144526000D01*
X83777721Y-146972921D02*
X304689879Y-146972921D01*
X81330800Y-144526000D02*
X83515200Y-146710400D01*
X59486800Y-144526000D02*
X81330800Y-144526000D01*
%TO.N,Row3*%
X378891800Y-127635000D02*
X54686200Y-127635000D01*
X356092000Y-163560000D02*
X343501000Y-163560000D01*
X356108000Y-163576000D02*
X356092000Y-163560000D01*
%TO.N,+3V3*%
X335105000Y-150910000D02*
X335105000Y-148765000D01*
X375412000Y-151892000D02*
X373126000Y-154178000D01*
X335105000Y-148765000D02*
X343154000Y-140716000D01*
X365080328Y-140716000D02*
X375412000Y-151047672D01*
X343154000Y-140716000D02*
X365080328Y-140716000D01*
X375412000Y-151047672D02*
X375412000Y-151892000D01*
%TO.N,/GPIO18*%
X339105000Y-175910000D02*
X340649480Y-177454480D01*
X371185520Y-171358480D02*
X373126000Y-169418000D01*
X339105000Y-174210000D02*
X339105000Y-175910000D01*
X367289671Y-171358480D02*
X371185520Y-171358480D01*
X361193671Y-177454480D02*
X367289671Y-171358480D01*
X340649480Y-177454480D02*
X361193671Y-177454480D01*
%TO.N,/GPIO19*%
X341105000Y-176005000D02*
X341954960Y-176854960D01*
X367041342Y-170758960D02*
X369245040Y-170758960D01*
X369245040Y-170758960D02*
X373126000Y-166878000D01*
X341954960Y-176854960D02*
X360945342Y-176854960D01*
X341105000Y-174210000D02*
X341105000Y-176005000D01*
X360945342Y-176854960D02*
X367041342Y-170758960D01*
%TO.N,/GPIO21*%
X345582000Y-169560000D02*
X346456000Y-170434000D01*
X346456000Y-170434000D02*
X346456000Y-172339000D01*
X350372440Y-176255440D02*
X360697013Y-176255440D01*
X367304560Y-170159440D02*
X373126000Y-164338000D01*
X360697013Y-176255440D02*
X366793013Y-170159440D01*
X366793013Y-170159440D02*
X367304560Y-170159440D01*
X343105000Y-169560000D02*
X345582000Y-169560000D01*
X346456000Y-172339000D02*
X350372440Y-176255440D01*
%TO.N,/SWDIO*%
X329105000Y-150910000D02*
X329105000Y-148669000D01*
X376265510Y-153578490D02*
X373126000Y-156718000D01*
X337657520Y-140116480D02*
X365328644Y-140116480D01*
X365328644Y-140116480D02*
X376265510Y-151053346D01*
X376265510Y-151053346D02*
X376265510Y-153578490D01*
X329105000Y-148669000D02*
X337657520Y-140116480D01*
%TO.N,/SWCLK*%
X376865020Y-150805006D02*
X376865020Y-158058980D01*
X327105000Y-150910000D02*
X327105000Y-149210000D01*
X327105000Y-149210000D02*
X336798040Y-139516960D01*
X336798040Y-139516960D02*
X365576974Y-139516960D01*
X376865020Y-158058980D02*
X373126000Y-161798000D01*
X365576974Y-139516960D02*
X376865020Y-150805006D01*
%TO.N,/ScrollLED_GPIO*%
X349678000Y-157560000D02*
X354330000Y-152908000D01*
X343105000Y-157560000D02*
X349678000Y-157560000D01*
%TO.N,/MetaLED_GPIO*%
X343105000Y-155560000D02*
X348122000Y-155560000D01*
%TO.N,Net-(D32-Pad2)*%
X133350000Y-111125000D02*
X139039600Y-111125000D01*
%TO.N,Net-(D34-Pad2)*%
X147955000Y-149225000D02*
X153339800Y-149225000D01*
D30*
%TO.N,+5V*%
X364749156Y-141515520D02*
X373126000Y-149892364D01*
X337105000Y-150910000D02*
X337105000Y-148098500D01*
X337105000Y-148098500D02*
X343687980Y-141515520D01*
X343687980Y-141515520D02*
X364749156Y-141515520D01*
X373126000Y-149892364D02*
X373126000Y-151638000D01*
D29*
%TO.N,/CapsLED_GPIO*%
X346566000Y-153560000D02*
X354330000Y-145796000D01*
X343105000Y-153560000D02*
X346566000Y-153560000D01*
%TO.N,/~{RESET}*%
X252603511Y-99860489D02*
X250809000Y-101655000D01*
X294170489Y-99860489D02*
X252603511Y-99860489D01*
X296418000Y-102108000D02*
X294170489Y-99860489D01*
X250809000Y-101655000D02*
X244654000Y-101655000D01*
%TO.N,/BOOTSEL*%
X294386000Y-101600000D02*
X264215000Y-101600000D01*
X264160000Y-101655000D02*
X257660000Y-101655000D01*
%TO.N,/GPIO17*%
X361442000Y-178054000D02*
X339090000Y-178054000D01*
X339090000Y-178054000D02*
X337105000Y-176069000D01*
X373126000Y-171958000D02*
X367538000Y-171958000D01*
X337105000Y-176069000D02*
X337105000Y-174210000D01*
X367538000Y-171958000D02*
X361442000Y-178054000D01*
%TD*%
M02*
