M48
; DRILL file {KiCad (6.0.5)} date Fri Jun  3 16:12:28 2022
; FORMAT={-:-/ absolute / metric / decimal}
; #@! TF.CreationDate,2022-06-03T16:12:28-04:00
; #@! TF.GenerationSoftware,Kicad,Pcbnew,(6.0.5)
; #@! TF.FileFunction,NonPlated,1,2,NPTH
FMAT,2
METRIC
; #@! TA.AperFunction,NonPlated,NPTH,ComponentDrill
T1C1.700
; #@! TA.AperFunction,NonPlated,NPTH,ComponentDrill
T2C3.050
; #@! TA.AperFunction,NonPlated,NPTH,ComponentDrill
T3C4.000
; #@! TA.AperFunction,NonPlated,NPTH,ComponentDrill
T4C5.000
; #@! TA.AperFunction,NonPlated,NPTH,ComponentDrill
T5C8.200
%
G90
G05
T1
X42.545Y-85.598
X42.545Y-113.716
X44.958Y-189.941
X47.295Y-132.715
X49.682Y-151.79
X52.705Y-85.598
X52.705Y-113.716
X54.483Y-170.815
X55.118Y-189.941
X57.455Y-132.715
X59.842Y-151.79
X61.62Y-113.716
X64.643Y-170.815
X68.783Y-189.941
X71.171Y-132.715
X71.78Y-113.716
X75.895Y-151.79
X78.943Y-189.941
X80.645Y-85.598
X80.67Y-113.716
X81.331Y-132.715
X85.42Y-170.815
X86.055Y-151.79
X90.221Y-132.715
X90.805Y-85.598
X90.83Y-113.716
X92.583Y-189.941
X94.945Y-151.79
X95.58Y-170.815
X99.695Y-85.598
X99.72Y-113.716
X100.381Y-132.715
X102.743Y-189.941
X104.47Y-170.815
X105.105Y-151.79
X109.271Y-132.715
X109.855Y-85.598
X109.88Y-113.716
X113.995Y-151.79
X114.63Y-170.815
X118.745Y-85.598
X118.77Y-113.716
X119.431Y-132.715
X123.52Y-170.815
X124.155Y-151.79
X128.321Y-132.715
X128.905Y-85.598
X128.93Y-113.716
X133.045Y-151.79
X133.68Y-170.815
X137.795Y-85.598
X137.82Y-113.716
X138.481Y-132.715
X142.57Y-170.815
X143.205Y-151.79
X147.371Y-132.715
X147.955Y-85.598
X147.98Y-113.716
X152.095Y-151.79
X152.73Y-170.815
X156.87Y-113.716
X157.531Y-132.715
X161.62Y-170.815
X162.255Y-151.79
X164.008Y-189.941
X166.37Y-85.598
X166.421Y-132.715
X167.03Y-113.716
X171.145Y-151.79
X171.78Y-170.815
X174.168Y-189.941
X175.92Y-113.716
X176.53Y-85.598
X176.581Y-132.715
X180.67Y-170.815
X181.305Y-151.79
X185.42Y-85.598
X185.471Y-132.715
X186.08Y-113.716
X190.195Y-151.79
X190.83Y-170.815
X194.97Y-113.716
X195.58Y-85.598
X195.631Y-132.715
X199.72Y-170.815
X200.355Y-151.79
X204.47Y-85.598
X204.521Y-132.715
X205.13Y-113.716
X209.245Y-151.79
X209.88Y-170.815
X214.02Y-113.716
X214.63Y-85.598
X214.681Y-132.715
X218.77Y-170.815
X219.405Y-151.79
X223.52Y-85.598
X223.571Y-132.715
X224.18Y-113.716
X228.295Y-151.79
X228.93Y-170.815
X233.07Y-113.716
X233.68Y-85.598
X233.731Y-132.715
X235.356Y-189.941
X237.82Y-170.815
X238.455Y-151.79
X242.621Y-132.715
X243.23Y-113.716
X245.516Y-189.941
X247.345Y-151.79
X247.98Y-170.815
X252.095Y-85.598
X252.12Y-113.716
X252.781Y-132.715
X256.87Y-170.815
X257.505Y-151.79
X259.232Y-189.941
X261.671Y-132.715
X262.255Y-85.598
X262.28Y-113.716
X266.395Y-151.79
X267.03Y-170.815
X269.392Y-189.941
X271.145Y-85.598
X271.17Y-113.716
X271.831Y-132.715
X276.555Y-151.79
X280.721Y-132.715
X281.305Y-85.598
X281.33Y-113.716
X283.083Y-189.941
X290.195Y-85.598
X290.881Y-132.715
X292.659Y-170.815
X293.243Y-189.941
X297.332Y-151.79
X299.745Y-113.716
X300.355Y-85.598
X302.819Y-170.815
X304.495Y-132.715
X306.959Y-189.941
X307.492Y-151.79
X309.245Y-85.598
X309.905Y-113.716
X314.655Y-132.715
X317.119Y-189.941
X319.405Y-85.598
X333.121Y-85.598
X333.121Y-189.941
X333.146Y-113.716
X333.172Y-132.715
X343.281Y-85.598
X343.281Y-189.941
X343.306Y-113.716
X343.332Y-132.715
X352.171Y-85.598
X352.171Y-170.815
X352.171Y-189.941
X352.196Y-113.716
X352.222Y-132.715
X362.331Y-85.598
X362.331Y-170.815
X362.331Y-189.941
X362.356Y-113.716
X362.382Y-132.715
X371.221Y-85.598
X371.221Y-189.941
X371.246Y-113.716
X371.272Y-132.715
X381.381Y-85.598
X381.381Y-189.941
X381.406Y-113.716
X381.432Y-132.715
T2
X47.663Y-163.815
X71.463Y-163.815
X119.05Y-196.672
X219.088Y-196.672
X285.839Y-163.815
X290.512Y-144.79
X292.925Y-106.716
X309.639Y-163.815
X314.312Y-144.79
X316.725Y-106.716
T3
X47.625Y-85.598
X47.625Y-113.716
X47.663Y-179.055
X50.038Y-189.941
X52.375Y-132.715
X54.762Y-151.79
X59.563Y-170.815
X66.7Y-113.716
X71.463Y-179.055
X73.863Y-189.941
X76.251Y-132.715
X80.975Y-151.79
X85.725Y-85.598
X85.75Y-113.716
X90.5Y-170.815
X95.301Y-132.715
X97.663Y-189.941
X100.025Y-151.79
X104.775Y-85.598
X104.8Y-113.716
X109.55Y-170.815
X114.351Y-132.715
X119.075Y-151.79
X119.088Y-181.416
X123.825Y-85.598
X123.85Y-113.716
X128.6Y-170.815
X133.401Y-132.715
X138.125Y-151.79
X142.875Y-85.598
X142.9Y-113.716
X147.65Y-170.815
X152.451Y-132.715
X157.175Y-151.79
X161.95Y-113.716
X166.7Y-170.815
X169.088Y-189.941
X171.45Y-85.598
X171.501Y-132.715
X176.225Y-151.79
X181.0Y-113.716
X185.75Y-170.815
X190.5Y-85.598
X190.551Y-132.715
X195.275Y-151.79
X200.05Y-113.716
X204.8Y-170.815
X209.55Y-85.598
X209.601Y-132.715
X214.325Y-151.79
X219.088Y-181.416
X219.1Y-113.716
X223.85Y-170.815
X228.6Y-85.598
X228.651Y-132.715
X233.375Y-151.79
X238.15Y-113.716
X240.436Y-189.941
X242.9Y-170.815
X247.701Y-132.715
X252.425Y-151.79
X257.175Y-85.598
X257.2Y-113.716
X261.95Y-170.815
X264.312Y-189.941
X266.751Y-132.715
X271.475Y-151.79
X276.225Y-85.598
X276.25Y-113.716
X285.801Y-132.715
X285.839Y-179.055
X288.163Y-189.941
X290.512Y-160.03
X292.925Y-121.956
X295.275Y-85.598
X297.739Y-170.815
X302.412Y-151.79
X304.825Y-113.716
X309.575Y-132.715
X309.639Y-179.055
X312.039Y-189.941
X314.312Y-160.03
X314.325Y-85.598
X316.725Y-121.956
X338.201Y-85.598
X338.201Y-189.941
X338.226Y-113.716
X338.252Y-132.715
X357.251Y-85.598
X357.251Y-123.19
X357.251Y-170.815
X357.251Y-189.941
X357.276Y-113.716
X357.302Y-132.715
X376.301Y-85.598
X376.301Y-189.941
X376.326Y-113.716
X376.352Y-132.715
T4
X212.09Y-99.822
T5
X69.088Y-150.876
X76.454Y-161.29
X95.25Y-99.822
X180.34Y-99.822
X326.136Y-186.69
X326.39Y-99.568
T0
M30
