%TF.GenerationSoftware,KiCad,Pcbnew,(6.0.5)*%
%TF.CreationDate,2022-06-03T16:12:07-04:00*%
%TF.ProjectId,Rabid,52616269-642e-46b6-9963-61645f706362,rev?*%
%TF.SameCoordinates,Original*%
%TF.FileFunction,Soldermask,Top*%
%TF.FilePolarity,Negative*%
%FSLAX46Y46*%
G04 Gerber Fmt 4.6, Leading zero omitted, Abs format (unit mm)*
G04 Created by KiCad (PCBNEW (6.0.5)) date 2022-06-03 16:12:07*
%MOMM*%
%LPD*%
G01*
G04 APERTURE LIST*
G04 Aperture macros list*
%AMRoundRect*
0 Rectangle with rounded corners*
0 $1 Rounding radius*
0 $2 $3 $4 $5 $6 $7 $8 $9 X,Y pos of 4 corners*
0 Add a 4 corners polygon primitive as box body*
4,1,4,$2,$3,$4,$5,$6,$7,$8,$9,$2,$3,0*
0 Add four circle primitives for the rounded corners*
1,1,$1+$1,$2,$3*
1,1,$1+$1,$4,$5*
1,1,$1+$1,$6,$7*
1,1,$1+$1,$8,$9*
0 Add four rect primitives between the rounded corners*
20,1,$1+$1,$2,$3,$4,$5,0*
20,1,$1+$1,$4,$5,$6,$7,0*
20,1,$1+$1,$6,$7,$8,$9,0*
20,1,$1+$1,$8,$9,$2,$3,0*%
G04 Aperture macros list end*
%ADD10C,1.800000*%
%ADD11C,4.100000*%
%ADD12C,2.300000*%
%ADD13RoundRect,0.050000X0.800000X-0.800000X0.800000X0.800000X-0.800000X0.800000X-0.800000X-0.800000X0*%
%ADD14O,1.700000X1.700000*%
%ADD15RoundRect,0.050000X-1.400000X-0.750000X1.400000X-0.750000X1.400000X0.750000X-1.400000X0.750000X0*%
%ADD16C,1.450000*%
%ADD17O,1.450000X1.450000*%
%ADD18RoundRect,0.050000X-0.750000X1.400000X-0.750000X-1.400000X0.750000X-1.400000X0.750000X1.400000X0*%
%ADD19C,8.300000*%
%ADD20RoundRect,0.050000X-0.762000X-0.762000X0.762000X-0.762000X0.762000X0.762000X-0.762000X0.762000X0*%
%ADD21C,1.624000*%
%ADD22C,3.150000*%
%ADD23RoundRect,0.050000X-0.900000X0.900000X-0.900000X-0.900000X0.900000X-0.900000X0.900000X0.900000X0*%
%ADD24C,1.900000*%
%ADD25C,1.500000*%
%ADD26O,1.500000X1.500000*%
%ADD27RoundRect,0.050000X0.800000X0.800000X-0.800000X0.800000X-0.800000X-0.800000X0.800000X-0.800000X0*%
%ADD28C,5.100000*%
%ADD29RoundRect,0.050000X-0.850000X-0.850000X0.850000X-0.850000X0.850000X0.850000X-0.850000X0.850000X0*%
%ADD30O,1.800000X1.800000*%
%ADD31C,2.100000*%
%ADD32RoundRect,0.300000X0.625000X-0.350000X0.625000X0.350000X-0.625000X0.350000X-0.625000X-0.350000X0*%
%ADD33O,1.850000X1.300000*%
G04 APERTURE END LIST*
D10*
%TO.C,SW72*%
X259232400Y-189941200D03*
D11*
X264312400Y-189941200D03*
D10*
X269392400Y-189941200D03*
D12*
X266852400Y-184861200D03*
X260502400Y-187401200D03*
%TD*%
D13*
%TO.C,D13*%
X76200000Y-90678000D03*
D14*
X76200000Y-83058000D03*
%TD*%
D13*
%TO.C,D99*%
X366522000Y-137795000D03*
D14*
X366522000Y-130175000D03*
%TD*%
D15*
%TO.C,U1*%
X320455000Y-153560000D03*
D16*
X321105000Y-153560000D03*
D15*
X320455000Y-155560000D03*
D17*
X321105000Y-155560000D03*
X321105000Y-157560000D03*
D15*
X320455000Y-157560000D03*
X320455000Y-159560000D03*
D17*
X321105000Y-159560000D03*
D15*
X320455000Y-161560000D03*
D17*
X321105000Y-161560000D03*
X321105000Y-163560000D03*
D15*
X320455000Y-163560000D03*
D17*
X321105000Y-165560000D03*
D15*
X320455000Y-165560000D03*
D17*
X321105000Y-167560000D03*
D15*
X320455000Y-167560000D03*
D17*
X321105000Y-169560000D03*
D15*
X320455000Y-169560000D03*
D17*
X321105000Y-171560000D03*
D15*
X320455000Y-171560000D03*
D17*
X323105000Y-173560000D03*
D18*
X323105000Y-174210000D03*
X325105000Y-174210000D03*
D17*
X325105000Y-173560000D03*
D18*
X327105000Y-174210000D03*
D17*
X327105000Y-173560000D03*
X329105000Y-173560000D03*
D18*
X329105000Y-174210000D03*
X331105000Y-174210000D03*
D17*
X331105000Y-173560000D03*
D18*
X333105000Y-174210000D03*
D17*
X333105000Y-173560000D03*
D18*
X335105000Y-174210000D03*
D17*
X335105000Y-173560000D03*
D18*
X337105000Y-174210000D03*
D17*
X337105000Y-173560000D03*
X339105000Y-173560000D03*
D18*
X339105000Y-174210000D03*
D17*
X341105000Y-173560000D03*
D18*
X341105000Y-174210000D03*
D17*
X343105000Y-171560000D03*
D15*
X343755000Y-171560000D03*
D17*
X343105000Y-169560000D03*
D15*
X343755000Y-169560000D03*
D17*
X343105000Y-167560000D03*
D15*
X343755000Y-167560000D03*
X343755000Y-165560000D03*
D17*
X343105000Y-165560000D03*
X343105000Y-163560000D03*
D15*
X343755000Y-163560000D03*
X343755000Y-161560000D03*
D17*
X343105000Y-161560000D03*
D15*
X343755000Y-159560000D03*
D17*
X343105000Y-159560000D03*
X343105000Y-157560000D03*
D15*
X343755000Y-157560000D03*
D17*
X343105000Y-155560000D03*
D15*
X343755000Y-155560000D03*
X343755000Y-153560000D03*
D17*
X343105000Y-153560000D03*
D18*
X341105000Y-150910000D03*
D17*
X341105000Y-151560000D03*
D18*
X339105000Y-150910000D03*
D17*
X339105000Y-151560000D03*
X337105000Y-151560000D03*
D18*
X337105000Y-150910000D03*
X335105000Y-150910000D03*
D17*
X335105000Y-151560000D03*
D18*
X333105000Y-150910000D03*
D17*
X333105000Y-151560000D03*
D18*
X331105000Y-150910000D03*
D17*
X331105000Y-151560000D03*
D18*
X329105000Y-150910000D03*
D17*
X329105000Y-151560000D03*
X327105000Y-151560000D03*
D18*
X327105000Y-150910000D03*
D17*
X325105000Y-151560000D03*
D18*
X325105000Y-150910000D03*
D17*
X323105000Y-151560000D03*
D18*
X323105000Y-150910000D03*
%TD*%
D19*
%TO.C,H1*%
X95250000Y-99822000D03*
%TD*%
D11*
%TO.C,SW91*%
X357251000Y-85598000D03*
D10*
X362331000Y-85598000D03*
X352171000Y-85598000D03*
D12*
X359791000Y-80518000D03*
X353441000Y-83058000D03*
D20*
X355981000Y-90678000D03*
D21*
X358521000Y-90678000D03*
%TD*%
D10*
%TO.C,SW18*%
X92583000Y-189941200D03*
X102743000Y-189941200D03*
D11*
X97663000Y-189941200D03*
D12*
X100203000Y-184861200D03*
X93853000Y-187401200D03*
%TD*%
D13*
%TO.C,D102*%
X367030000Y-194818000D03*
D14*
X367030000Y-187198000D03*
%TD*%
D11*
%TO.C,SW4*%
X54762400Y-151790400D03*
D10*
X49682400Y-151790400D03*
X59842400Y-151790400D03*
D12*
X57302400Y-146710400D03*
X50952400Y-149250400D03*
D20*
X53492400Y-156870400D03*
D21*
X56032400Y-156870400D03*
%TD*%
D13*
%TO.C,D8*%
X57150000Y-118745000D03*
D14*
X57150000Y-111125000D03*
%TD*%
D10*
%TO.C,SW68*%
X252120400Y-113715800D03*
D11*
X257200400Y-113715800D03*
D10*
X262280400Y-113715800D03*
D12*
X259740400Y-108635800D03*
X253390400Y-111175800D03*
%TD*%
D10*
%TO.C,SW40*%
X171145200Y-151790400D03*
D11*
X176225200Y-151790400D03*
D10*
X181305200Y-151790400D03*
D12*
X178765200Y-146710400D03*
X172415200Y-149250400D03*
%TD*%
D10*
%TO.C,SW59*%
X247980200Y-170815000D03*
X237820200Y-170815000D03*
D11*
X242900200Y-170815000D03*
D12*
X245440200Y-165735000D03*
X239090200Y-168275000D03*
%TD*%
D11*
%TO.C,SW17*%
X109550200Y-170815000D03*
D10*
X114630200Y-170815000D03*
X104470200Y-170815000D03*
D12*
X112090200Y-165735000D03*
X105740200Y-168275000D03*
%TD*%
D13*
%TO.C,D34*%
X147955000Y-156845000D03*
D14*
X147955000Y-149225000D03*
%TD*%
D13*
%TO.C,D5*%
X43434000Y-175514000D03*
D14*
X43434000Y-167894000D03*
%TD*%
D13*
%TO.C,D29*%
X138430000Y-175895000D03*
D14*
X138430000Y-168275000D03*
%TD*%
D13*
%TO.C,D42*%
X156210000Y-194945000D03*
D14*
X156210000Y-187325000D03*
%TD*%
D10*
%TO.C,SW99*%
X381431800Y-132715000D03*
X371271800Y-132715000D03*
D11*
X376351800Y-132715000D03*
D12*
X378891800Y-127635000D03*
X372541800Y-130175000D03*
%TD*%
D10*
%TO.C,SW5*%
X64643000Y-170815000D03*
D11*
X47663000Y-179055000D03*
D22*
X71463000Y-163815000D03*
D11*
X71463000Y-179055000D03*
D22*
X47663000Y-163815000D03*
D11*
X59563000Y-170815000D03*
D10*
X54483000Y-170815000D03*
D12*
X62103000Y-165735000D03*
X55753000Y-168275000D03*
%TD*%
D19*
%TO.C,H6*%
X76454000Y-161290000D03*
%TD*%
D11*
%TO.C,SW35*%
X166700200Y-170815000D03*
D10*
X161620200Y-170815000D03*
X171780200Y-170815000D03*
D12*
X169240200Y-165735000D03*
X162890200Y-168275000D03*
%TD*%
D10*
%TO.C,SW58*%
X228295200Y-151790400D03*
X238455200Y-151790400D03*
D11*
X233375200Y-151790400D03*
D12*
X235915200Y-146710400D03*
X229565200Y-149250400D03*
%TD*%
D10*
%TO.C,SW25*%
X118745000Y-85598000D03*
X128905000Y-85598000D03*
D11*
X123825000Y-85598000D03*
D12*
X126365000Y-80518000D03*
X120015000Y-83058000D03*
%TD*%
D13*
%TO.C,D49*%
X200025000Y-90678000D03*
D14*
X200025000Y-83058000D03*
%TD*%
D11*
%TO.C,H8*%
X357251000Y-123190000D03*
%TD*%
D13*
%TO.C,D67*%
X266700000Y-90678000D03*
D14*
X266700000Y-83058000D03*
%TD*%
D13*
%TO.C,D15*%
X85725000Y-137795000D03*
D14*
X85725000Y-130175000D03*
%TD*%
D11*
%TO.C,SW46*%
X195275200Y-151790400D03*
D10*
X190195200Y-151790400D03*
X200355200Y-151790400D03*
D12*
X197815200Y-146710400D03*
X191465200Y-149250400D03*
%TD*%
D23*
%TO.C,D104*%
X347726000Y-98293000D03*
D24*
X347726000Y-100833000D03*
%TD*%
D11*
%TO.C,SW2*%
X47625000Y-113715800D03*
D10*
X52705000Y-113715800D03*
X42545000Y-113715800D03*
D12*
X50165000Y-108635800D03*
X43815000Y-111175800D03*
%TD*%
D10*
%TO.C,SW19*%
X99695000Y-85598000D03*
D11*
X104775000Y-85598000D03*
D10*
X109855000Y-85598000D03*
D12*
X107315000Y-80518000D03*
X100965000Y-83058000D03*
%TD*%
D13*
%TO.C,D27*%
X123825000Y-137795000D03*
D14*
X123825000Y-130175000D03*
%TD*%
D10*
%TO.C,SW11*%
X85420200Y-170815000D03*
D11*
X90500200Y-170815000D03*
D10*
X95580200Y-170815000D03*
D12*
X93040200Y-165735000D03*
X86690200Y-168275000D03*
%TD*%
D13*
%TO.C,D44*%
X171450000Y-118745000D03*
D14*
X171450000Y-111125000D03*
%TD*%
D13*
%TO.C,D28*%
X128270000Y-156845000D03*
D14*
X128270000Y-149225000D03*
%TD*%
D10*
%TO.C,SW75*%
X280720800Y-132715000D03*
X290880800Y-132715000D03*
D11*
X285800800Y-132715000D03*
D12*
X288340800Y-127635000D03*
X281990800Y-130175000D03*
%TD*%
D10*
%TO.C,SW80*%
X299745400Y-113715800D03*
D22*
X292925400Y-106715800D03*
D11*
X292925400Y-121955800D03*
D22*
X316725400Y-106715800D03*
D11*
X304825400Y-113715800D03*
D10*
X309905400Y-113715800D03*
D11*
X316725400Y-121955800D03*
D12*
X307365400Y-108635800D03*
X301015400Y-111175800D03*
%TD*%
D13*
%TO.C,D41*%
X176530000Y-175895000D03*
D14*
X176530000Y-168275000D03*
%TD*%
D13*
%TO.C,D62*%
X229235000Y-118745000D03*
D14*
X229235000Y-111125000D03*
%TD*%
D25*
%TO.C,R1*%
X354330000Y-152908000D03*
D26*
X361950000Y-152908000D03*
%TD*%
D13*
%TO.C,D64*%
X242570000Y-156845000D03*
D14*
X242570000Y-149225000D03*
%TD*%
D13*
%TO.C,D65*%
X252730000Y-175895000D03*
D14*
X252730000Y-168275000D03*
%TD*%
D13*
%TO.C,D50*%
X190500000Y-118745000D03*
D14*
X190500000Y-111125000D03*
%TD*%
D19*
%TO.C,H5*%
X69088000Y-150876000D03*
%TD*%
D13*
%TO.C,D61*%
X247650000Y-90678000D03*
D14*
X247650000Y-83058000D03*
%TD*%
D11*
%TO.C,SW32*%
X142900400Y-113715800D03*
D10*
X137820400Y-113715800D03*
X147980400Y-113715800D03*
D12*
X145440400Y-108635800D03*
X139090400Y-111175800D03*
%TD*%
D27*
%TO.C,D90*%
X342138000Y-180594000D03*
D14*
X334518000Y-180594000D03*
%TD*%
D10*
%TO.C,SW27*%
X128320800Y-132715000D03*
D11*
X133400800Y-132715000D03*
D10*
X138480800Y-132715000D03*
D12*
X135940800Y-127635000D03*
X129590800Y-130175000D03*
%TD*%
D13*
%TO.C,D80*%
X288290000Y-118745000D03*
D14*
X288290000Y-111125000D03*
%TD*%
D19*
%TO.C,H4*%
X326390000Y-99568000D03*
%TD*%
D13*
%TO.C,D81*%
X298450000Y-137795000D03*
D14*
X298450000Y-130175000D03*
%TD*%
D13*
%TO.C,D22*%
X109220000Y-156845000D03*
D14*
X109220000Y-149225000D03*
%TD*%
D13*
%TO.C,D68*%
X247650000Y-118745000D03*
D14*
X247650000Y-111125000D03*
%TD*%
D13*
%TO.C,D31*%
X133350000Y-90678000D03*
D14*
X133350000Y-83058000D03*
%TD*%
D11*
%TO.C,SW62*%
X238150400Y-113715800D03*
D10*
X233070400Y-113715800D03*
X243230400Y-113715800D03*
D12*
X240690400Y-108635800D03*
X234340400Y-111175800D03*
%TD*%
D13*
%TO.C,D52*%
X205105000Y-156845000D03*
D14*
X205105000Y-149225000D03*
%TD*%
D11*
%TO.C,SW76*%
X314312400Y-160030400D03*
X302412400Y-151790400D03*
X290512400Y-160030400D03*
D22*
X314312400Y-144790400D03*
X290512400Y-144790400D03*
D10*
X307492400Y-151790400D03*
X297332400Y-151790400D03*
D12*
X304952400Y-146710400D03*
X298602400Y-149250400D03*
%TD*%
D13*
%TO.C,D9*%
X66675000Y-137795000D03*
D14*
X66675000Y-130175000D03*
%TD*%
D11*
%TO.C,SW70*%
X271475200Y-151790400D03*
D10*
X266395200Y-151790400D03*
X276555200Y-151790400D03*
D12*
X274015200Y-146710400D03*
X267665200Y-149250400D03*
%TD*%
D11*
%TO.C,SW61*%
X257175000Y-85598000D03*
D10*
X262255000Y-85598000D03*
X252095000Y-85598000D03*
D12*
X259715000Y-80518000D03*
X253365000Y-83058000D03*
D20*
X255905000Y-90678000D03*
D21*
X258445000Y-90678000D03*
%TD*%
D13*
%TO.C,D39*%
X161925000Y-137795000D03*
D14*
X161925000Y-130175000D03*
%TD*%
D13*
%TO.C,D32*%
X133350000Y-118745000D03*
D14*
X133350000Y-111125000D03*
%TD*%
D11*
%TO.C,SW96*%
X357251000Y-189941200D03*
D10*
X352171000Y-189941200D03*
X362331000Y-189941200D03*
D12*
X359791000Y-184861200D03*
X353441000Y-187401200D03*
%TD*%
D11*
%TO.C,SW90*%
X338201000Y-189941200D03*
D10*
X333121000Y-189941200D03*
X343281000Y-189941200D03*
D12*
X340741000Y-184861200D03*
X334391000Y-187401200D03*
%TD*%
D13*
%TO.C,D40*%
X167005000Y-156845000D03*
D14*
X167005000Y-149225000D03*
%TD*%
D10*
%TO.C,SW6*%
X55118000Y-189941200D03*
D11*
X50038000Y-189941200D03*
D10*
X44958000Y-189941200D03*
D12*
X52578000Y-184861200D03*
X46228000Y-187401200D03*
%TD*%
D10*
%TO.C,SW1*%
X52705000Y-85598000D03*
X42545000Y-85598000D03*
D11*
X47625000Y-85598000D03*
D12*
X50165000Y-80518000D03*
X43815000Y-83058000D03*
%TD*%
D13*
%TO.C,D18*%
X85725000Y-194945000D03*
D14*
X85725000Y-187325000D03*
%TD*%
D13*
%TO.C,D59*%
X233045000Y-175895000D03*
D14*
X233045000Y-168275000D03*
%TD*%
D13*
%TO.C,D72*%
X252095000Y-194945000D03*
D14*
X252095000Y-187325000D03*
%TD*%
D10*
%TO.C,SW63*%
X252780800Y-132715000D03*
D11*
X247700800Y-132715000D03*
D10*
X242620800Y-132715000D03*
D12*
X250240800Y-127635000D03*
X243890800Y-130175000D03*
%TD*%
D10*
%TO.C,SW52*%
X219405200Y-151790400D03*
X209245200Y-151790400D03*
D11*
X214325200Y-151790400D03*
D12*
X216865200Y-146710400D03*
X210515200Y-149250400D03*
%TD*%
D13*
%TO.C,D97*%
X366776000Y-90678000D03*
D14*
X366776000Y-83058000D03*
%TD*%
D13*
%TO.C,D45*%
X180975000Y-137795000D03*
D14*
X180975000Y-130175000D03*
%TD*%
D25*
%TO.C,R3*%
X354330000Y-145796000D03*
D26*
X361950000Y-145796000D03*
%TD*%
D19*
%TO.C,H2*%
X180340000Y-99822000D03*
%TD*%
D10*
%TO.C,SW95*%
X362331000Y-170815000D03*
X352171000Y-170815000D03*
D11*
X357251000Y-170815000D03*
D12*
X359791000Y-165735000D03*
X353441000Y-168275000D03*
%TD*%
D10*
%TO.C,SW45*%
X185470800Y-132715000D03*
D11*
X190550800Y-132715000D03*
D10*
X195630800Y-132715000D03*
D12*
X193090800Y-127635000D03*
X186740800Y-130175000D03*
%TD*%
D27*
%TO.C,D2*%
X51308000Y-103378000D03*
D14*
X43688000Y-103378000D03*
%TD*%
D19*
%TO.C,H7*%
X326136000Y-186690000D03*
%TD*%
D13*
%TO.C,D92*%
X347726000Y-118745000D03*
D14*
X347726000Y-111125000D03*
%TD*%
D13*
%TO.C,D20*%
X95250000Y-118745000D03*
D14*
X95250000Y-111125000D03*
%TD*%
D10*
%TO.C,SW64*%
X257505200Y-151790400D03*
X247345200Y-151790400D03*
D11*
X252425200Y-151790400D03*
D12*
X254965200Y-146710400D03*
X248615200Y-149250400D03*
%TD*%
D10*
%TO.C,SW41*%
X190830200Y-170815000D03*
X180670200Y-170815000D03*
D11*
X185750200Y-170815000D03*
D12*
X188290200Y-165735000D03*
X181940200Y-168275000D03*
%TD*%
D10*
%TO.C,SW69*%
X271830800Y-132715000D03*
X261670800Y-132715000D03*
D11*
X266750800Y-132715000D03*
D12*
X269290800Y-127635000D03*
X262940800Y-130175000D03*
%TD*%
D10*
%TO.C,SW53*%
X218770200Y-170815000D03*
D11*
X223850200Y-170815000D03*
D10*
X228930200Y-170815000D03*
D12*
X226390200Y-165735000D03*
X220040200Y-168275000D03*
%TD*%
D11*
%TO.C,SW78*%
X288163000Y-189941200D03*
D10*
X283083000Y-189941200D03*
X293243000Y-189941200D03*
D12*
X290703000Y-184861200D03*
X284353000Y-187401200D03*
%TD*%
D13*
%TO.C,D69*%
X256540000Y-137795000D03*
D14*
X256540000Y-130175000D03*
%TD*%
D13*
%TO.C,D47*%
X195580000Y-175895000D03*
D14*
X195580000Y-168275000D03*
%TD*%
D10*
%TO.C,SW79*%
X319405000Y-85598000D03*
D11*
X314325000Y-85598000D03*
D10*
X309245000Y-85598000D03*
D12*
X316865000Y-80518000D03*
X310515000Y-83058000D03*
%TD*%
D10*
%TO.C,SW26*%
X128930400Y-113715800D03*
X118770400Y-113715800D03*
D11*
X123850400Y-113715800D03*
D12*
X126390400Y-108635800D03*
X120040400Y-111175800D03*
%TD*%
D10*
%TO.C,SW21*%
X119430800Y-132715000D03*
D11*
X114350800Y-132715000D03*
D10*
X109270800Y-132715000D03*
D12*
X116890800Y-127635000D03*
X110540800Y-130175000D03*
%TD*%
D10*
%TO.C,SW56*%
X214020400Y-113715800D03*
X224180400Y-113715800D03*
D11*
X219100400Y-113715800D03*
D12*
X221640400Y-108635800D03*
X215290400Y-111175800D03*
%TD*%
D13*
%TO.C,D58*%
X224155000Y-156845000D03*
D14*
X224155000Y-149225000D03*
%TD*%
D13*
%TO.C,D23*%
X119380000Y-175895000D03*
D14*
X119380000Y-168275000D03*
%TD*%
D23*
%TO.C,D106*%
X366776000Y-98298000D03*
D24*
X366776000Y-100838000D03*
%TD*%
D13*
%TO.C,D33*%
X142875000Y-137795000D03*
D14*
X142875000Y-130175000D03*
%TD*%
D13*
%TO.C,D96*%
X347726000Y-194818000D03*
D14*
X347726000Y-187198000D03*
%TD*%
D13*
%TO.C,D86*%
X328676000Y-118745000D03*
D14*
X328676000Y-111125000D03*
%TD*%
D10*
%TO.C,SW66*%
X235356400Y-189941200D03*
X245516400Y-189941200D03*
D11*
X240436400Y-189941200D03*
D12*
X242976400Y-184861200D03*
X236626400Y-187401200D03*
%TD*%
D13*
%TO.C,D16*%
X90170000Y-156845000D03*
D14*
X90170000Y-149225000D03*
%TD*%
D11*
%TO.C,SW85*%
X338201000Y-85598000D03*
D10*
X343281000Y-85598000D03*
X333121000Y-85598000D03*
D12*
X340741000Y-80518000D03*
X334391000Y-83058000D03*
%TD*%
D13*
%TO.C,D3*%
X43180000Y-137668000D03*
D14*
X43180000Y-130048000D03*
%TD*%
D13*
%TO.C,D76*%
X284988000Y-156972000D03*
D14*
X284988000Y-149352000D03*
%TD*%
D13*
%TO.C,D85*%
X328676000Y-90678000D03*
D14*
X328676000Y-83058000D03*
%TD*%
D13*
%TO.C,D74*%
X266700000Y-118745000D03*
D14*
X266700000Y-111125000D03*
%TD*%
D13*
%TO.C,D25*%
X114300000Y-90678000D03*
D14*
X114300000Y-83058000D03*
%TD*%
D13*
%TO.C,D93*%
X347726000Y-137795000D03*
D14*
X347726000Y-130175000D03*
%TD*%
D10*
%TO.C,SW73*%
X300355000Y-85598000D03*
D11*
X295275000Y-85598000D03*
D10*
X290195000Y-85598000D03*
D12*
X297815000Y-80518000D03*
X291465000Y-83058000D03*
%TD*%
D11*
%TO.C,SW20*%
X104800400Y-113715800D03*
D10*
X109880400Y-113715800D03*
X99720400Y-113715800D03*
D12*
X107340400Y-108635800D03*
X100990400Y-111175800D03*
%TD*%
D13*
%TO.C,D53*%
X214376000Y-175895000D03*
D14*
X214376000Y-168275000D03*
%TD*%
D10*
%TO.C,SW43*%
X195580000Y-85598000D03*
D11*
X190500000Y-85598000D03*
D10*
X185420000Y-85598000D03*
D12*
X193040000Y-80518000D03*
X186690000Y-83058000D03*
%TD*%
D13*
%TO.C,D37*%
X161290000Y-90678000D03*
D14*
X161290000Y-83058000D03*
%TD*%
D10*
%TO.C,SW29*%
X152730200Y-170815000D03*
D11*
X147650200Y-170815000D03*
D10*
X142570200Y-170815000D03*
D12*
X150190200Y-165735000D03*
X143840200Y-168275000D03*
%TD*%
D13*
%TO.C,D91*%
X347726000Y-90678000D03*
D14*
X347726000Y-83058000D03*
%TD*%
D13*
%TO.C,D12*%
X64262000Y-194818000D03*
D14*
X64262000Y-187198000D03*
%TD*%
D13*
%TO.C,D35*%
X157480000Y-175895000D03*
D14*
X157480000Y-168275000D03*
%TD*%
D13*
%TO.C,D17*%
X100330000Y-175895000D03*
D14*
X100330000Y-168275000D03*
%TD*%
D13*
%TO.C,D87*%
X328676000Y-137795000D03*
D14*
X328676000Y-130175000D03*
%TD*%
D13*
%TO.C,D55*%
X219075000Y-90678000D03*
D14*
X219075000Y-83058000D03*
%TD*%
D25*
%TO.C,R2*%
X354330000Y-149352000D03*
D26*
X361950000Y-149352000D03*
%TD*%
D10*
%TO.C,SW31*%
X137795000Y-85598000D03*
D11*
X142875000Y-85598000D03*
D10*
X147955000Y-85598000D03*
D12*
X145415000Y-80518000D03*
X139065000Y-83058000D03*
%TD*%
D13*
%TO.C,D66*%
X230505000Y-194945000D03*
D14*
X230505000Y-187325000D03*
%TD*%
D10*
%TO.C,SW74*%
X281330400Y-113715800D03*
X271170400Y-113715800D03*
D11*
X276250400Y-113715800D03*
D12*
X278790400Y-108635800D03*
X272440400Y-111175800D03*
%TD*%
D10*
%TO.C,SW3*%
X47294800Y-132715000D03*
D11*
X52374800Y-132715000D03*
D10*
X57454800Y-132715000D03*
D12*
X54914800Y-127635000D03*
X48564800Y-130175000D03*
%TD*%
D13*
%TO.C,D1*%
X57404000Y-90551000D03*
D14*
X57404000Y-82931000D03*
%TD*%
D10*
%TO.C,SW87*%
X343331800Y-132715000D03*
X333171800Y-132715000D03*
D11*
X338251800Y-132715000D03*
D12*
X340791800Y-127635000D03*
X334441800Y-130175000D03*
%TD*%
D11*
%TO.C,SW23*%
X128600200Y-170815000D03*
D10*
X133680200Y-170815000D03*
X123520200Y-170815000D03*
D12*
X131140200Y-165735000D03*
X124790200Y-168275000D03*
%TD*%
D10*
%TO.C,SW98*%
X371246400Y-113715800D03*
X381406400Y-113715800D03*
D11*
X376326400Y-113715800D03*
D12*
X378866400Y-108635800D03*
X372516400Y-111175800D03*
%TD*%
D11*
%TO.C,SW44*%
X181000400Y-113715800D03*
D10*
X175920400Y-113715800D03*
X186080400Y-113715800D03*
D12*
X183540400Y-108635800D03*
X177190400Y-111175800D03*
%TD*%
D13*
%TO.C,D43*%
X180975000Y-90678000D03*
D14*
X180975000Y-83058000D03*
%TD*%
D10*
%TO.C,SW86*%
X343306400Y-113715800D03*
X333146400Y-113715800D03*
D11*
X338226400Y-113715800D03*
D12*
X340766400Y-108635800D03*
X334416400Y-111175800D03*
%TD*%
D10*
%TO.C,SW51*%
X204520800Y-132715000D03*
X214680800Y-132715000D03*
D11*
X209600800Y-132715000D03*
D12*
X212140800Y-127635000D03*
X205790800Y-130175000D03*
%TD*%
D13*
%TO.C,D19*%
X94615000Y-90678000D03*
D14*
X94615000Y-83058000D03*
%TD*%
D10*
%TO.C,SW14*%
X80670400Y-113715800D03*
D11*
X85750400Y-113715800D03*
D10*
X90830400Y-113715800D03*
D12*
X88290400Y-108635800D03*
X81940400Y-111175800D03*
%TD*%
D10*
%TO.C,SW84*%
X317119000Y-189941200D03*
X306959000Y-189941200D03*
D11*
X312039000Y-189941200D03*
D12*
X314579000Y-184861200D03*
X308229000Y-187401200D03*
%TD*%
D10*
%TO.C,SW65*%
X267030200Y-170815000D03*
D11*
X261950200Y-170815000D03*
D10*
X256870200Y-170815000D03*
D12*
X264490200Y-165735000D03*
X258140200Y-168275000D03*
%TD*%
D13*
%TO.C,D70*%
X262255000Y-156845000D03*
D14*
X262255000Y-149225000D03*
%TD*%
D10*
%TO.C,SW97*%
X381381000Y-85598000D03*
D11*
X376301000Y-85598000D03*
D10*
X371221000Y-85598000D03*
D12*
X378841000Y-80518000D03*
X372491000Y-83058000D03*
%TD*%
D10*
%TO.C,SW38*%
X167030400Y-113715800D03*
X156870400Y-113715800D03*
D11*
X161950400Y-113715800D03*
D12*
X164490400Y-108635800D03*
X158140400Y-111175800D03*
%TD*%
D13*
%TO.C,D11*%
X81280000Y-175895000D03*
D14*
X81280000Y-168275000D03*
%TD*%
D10*
%TO.C,SW102*%
X371221000Y-189941200D03*
D11*
X376301000Y-189941200D03*
D10*
X381381000Y-189941200D03*
D12*
X378841000Y-184861200D03*
X372491000Y-187401200D03*
%TD*%
D10*
%TO.C,SW34*%
X152095200Y-151790400D03*
X162255200Y-151790400D03*
D11*
X157175200Y-151790400D03*
D12*
X159715200Y-146710400D03*
X153365200Y-149250400D03*
%TD*%
D10*
%TO.C,SW37*%
X176530000Y-85598000D03*
D11*
X171450000Y-85598000D03*
D10*
X166370000Y-85598000D03*
D12*
X173990000Y-80518000D03*
X167640000Y-83058000D03*
%TD*%
D22*
%TO.C,SW42*%
X219087800Y-196672200D03*
X119049800Y-196672200D03*
D11*
X219087800Y-181416200D03*
X169087800Y-189941200D03*
D10*
X174167800Y-189941200D03*
X164007800Y-189941200D03*
D11*
X119087800Y-181416200D03*
D12*
X171627800Y-184861200D03*
X165277800Y-187401200D03*
%TD*%
D13*
%TO.C,D14*%
X76200000Y-118745000D03*
D14*
X76200000Y-111125000D03*
%TD*%
D13*
%TO.C,D10*%
X62992000Y-155956000D03*
D14*
X62992000Y-148336000D03*
%TD*%
D10*
%TO.C,SW33*%
X147370800Y-132715000D03*
D11*
X152450800Y-132715000D03*
D10*
X157530800Y-132715000D03*
D12*
X154990800Y-127635000D03*
X148640800Y-130175000D03*
%TD*%
D10*
%TO.C,SW8*%
X71780400Y-113715800D03*
X61620400Y-113715800D03*
D11*
X66700400Y-113715800D03*
D12*
X69240400Y-108635800D03*
X62890400Y-111175800D03*
%TD*%
D13*
%TO.C,D98*%
X366522000Y-118745000D03*
D14*
X366522000Y-111125000D03*
%TD*%
D11*
%TO.C,SW16*%
X100025200Y-151790400D03*
D10*
X94945200Y-151790400D03*
X105105200Y-151790400D03*
D12*
X102565200Y-146710400D03*
X96215200Y-149250400D03*
%TD*%
D11*
%TO.C,SW47*%
X204800200Y-170815000D03*
D10*
X199720200Y-170815000D03*
X209880200Y-170815000D03*
D12*
X207340200Y-165735000D03*
X200990200Y-168275000D03*
%TD*%
D13*
%TO.C,D73*%
X285750000Y-90678000D03*
D14*
X285750000Y-83058000D03*
%TD*%
D11*
%TO.C,SW13*%
X85725000Y-85598000D03*
D10*
X90805000Y-85598000D03*
X80645000Y-85598000D03*
D12*
X88265000Y-80518000D03*
X81915000Y-83058000D03*
%TD*%
D13*
%TO.C,D84*%
X300355000Y-194945000D03*
D14*
X300355000Y-187325000D03*
%TD*%
D13*
%TO.C,D57*%
X219075000Y-137795000D03*
D14*
X219075000Y-130175000D03*
%TD*%
D13*
%TO.C,D95*%
X366776000Y-175895000D03*
D14*
X366776000Y-168275000D03*
%TD*%
D11*
%TO.C,SW50*%
X200050400Y-113715800D03*
D10*
X205130400Y-113715800D03*
X194970400Y-113715800D03*
D12*
X202590400Y-108635800D03*
X196240400Y-111175800D03*
%TD*%
D13*
%TO.C,D46*%
X186055000Y-156972000D03*
D14*
X186055000Y-149352000D03*
%TD*%
D13*
%TO.C,D38*%
X152400000Y-118745000D03*
D14*
X152400000Y-111125000D03*
%TD*%
D10*
%TO.C,SW71*%
X292658800Y-170815000D03*
D11*
X309638800Y-179055000D03*
D22*
X309638800Y-163815000D03*
X285838800Y-163815000D03*
D11*
X285838800Y-179055000D03*
D10*
X302818800Y-170815000D03*
D11*
X297738800Y-170815000D03*
D12*
X300278800Y-165735000D03*
X293928800Y-168275000D03*
%TD*%
D28*
%TO.C,H3*%
X212090000Y-99822000D03*
%TD*%
D13*
%TO.C,D71*%
X276225000Y-175768000D03*
D14*
X276225000Y-168148000D03*
%TD*%
D10*
%TO.C,SW67*%
X271145000Y-85598000D03*
D11*
X276225000Y-85598000D03*
D10*
X281305000Y-85598000D03*
D12*
X278765000Y-80518000D03*
X272415000Y-83058000D03*
%TD*%
D10*
%TO.C,SW15*%
X90220800Y-132715000D03*
D11*
X95300800Y-132715000D03*
D10*
X100380800Y-132715000D03*
D12*
X97840800Y-127635000D03*
X91490800Y-130175000D03*
%TD*%
D13*
%TO.C,D6*%
X59436000Y-194818000D03*
D14*
X59436000Y-187198000D03*
%TD*%
D13*
%TO.C,D56*%
X209550000Y-118745000D03*
D14*
X209550000Y-111125000D03*
%TD*%
D10*
%TO.C,SW10*%
X75895200Y-151790400D03*
D11*
X80975200Y-151790400D03*
D10*
X86055200Y-151790400D03*
D12*
X83515200Y-146710400D03*
X77165200Y-149250400D03*
%TD*%
D10*
%TO.C,SW55*%
X223520000Y-85598000D03*
D11*
X228600000Y-85598000D03*
D10*
X233680000Y-85598000D03*
D12*
X231140000Y-80518000D03*
X224790000Y-83058000D03*
%TD*%
D13*
%TO.C,D63*%
X238125000Y-137795000D03*
D14*
X238125000Y-130175000D03*
%TD*%
D11*
%TO.C,SW28*%
X138125200Y-151790400D03*
D10*
X143205200Y-151790400D03*
X133045200Y-151790400D03*
D12*
X140665200Y-146710400D03*
X134315200Y-149250400D03*
%TD*%
D10*
%TO.C,SW12*%
X68783200Y-189941200D03*
X78943200Y-189941200D03*
D11*
X73863200Y-189941200D03*
D12*
X76403200Y-184861200D03*
X70053200Y-187401200D03*
%TD*%
D11*
%TO.C,SW92*%
X357276400Y-113715800D03*
D10*
X352196400Y-113715800D03*
X362356400Y-113715800D03*
D12*
X359816400Y-108635800D03*
X353466400Y-111175800D03*
%TD*%
D10*
%TO.C,SW9*%
X71170800Y-132715000D03*
X81330800Y-132715000D03*
D11*
X76250800Y-132715000D03*
D12*
X78790800Y-127635000D03*
X72440800Y-130175000D03*
%TD*%
D10*
%TO.C,SW57*%
X223570800Y-132715000D03*
X233730800Y-132715000D03*
D11*
X228650800Y-132715000D03*
D12*
X231190800Y-127635000D03*
X224840800Y-130175000D03*
%TD*%
D11*
%TO.C,SW49*%
X209550000Y-85598000D03*
D10*
X214630000Y-85598000D03*
X204470000Y-85598000D03*
D12*
X212090000Y-80518000D03*
X205740000Y-83058000D03*
%TD*%
D13*
%TO.C,D51*%
X200660000Y-137795000D03*
D14*
X200660000Y-130175000D03*
%TD*%
D13*
%TO.C,D79*%
X304800000Y-90678000D03*
D14*
X304800000Y-83058000D03*
%TD*%
D11*
%TO.C,SW22*%
X119075200Y-151790400D03*
D10*
X124155200Y-151790400D03*
X113995200Y-151790400D03*
D12*
X121615200Y-146710400D03*
X115265200Y-149250400D03*
%TD*%
D29*
%TO.C,J3*%
X373126000Y-151638000D03*
D30*
X373126000Y-154178000D03*
X373126000Y-156718000D03*
X373126000Y-159258000D03*
X373126000Y-161798000D03*
X373126000Y-164338000D03*
X373126000Y-166878000D03*
X373126000Y-169418000D03*
X373126000Y-171958000D03*
%TD*%
D11*
%TO.C,SW93*%
X357301800Y-132715000D03*
D10*
X352221800Y-132715000D03*
X362381800Y-132715000D03*
D12*
X359841800Y-127635000D03*
X353491800Y-130175000D03*
%TD*%
D23*
%TO.C,D108*%
X357124000Y-98298000D03*
D24*
X357124000Y-100838000D03*
%TD*%
D13*
%TO.C,D78*%
X276225000Y-194945000D03*
D14*
X276225000Y-187325000D03*
%TD*%
D10*
%TO.C,SW39*%
X176580800Y-132715000D03*
D11*
X171500800Y-132715000D03*
D10*
X166420800Y-132715000D03*
D12*
X174040800Y-127635000D03*
X167690800Y-130175000D03*
%TD*%
D13*
%TO.C,D4*%
X43434000Y-156718000D03*
D14*
X43434000Y-149098000D03*
%TD*%
D13*
%TO.C,D26*%
X114300000Y-118745000D03*
D14*
X114300000Y-111125000D03*
%TD*%
D13*
%TO.C,D21*%
X104775000Y-137795000D03*
D14*
X104775000Y-130175000D03*
%TD*%
D13*
%TO.C,D75*%
X276225000Y-137795000D03*
D14*
X276225000Y-130175000D03*
%TD*%
D11*
%TO.C,SW81*%
X309575200Y-132715000D03*
D10*
X314655200Y-132715000D03*
X304495200Y-132715000D03*
D12*
X312115200Y-127635000D03*
X305765200Y-130175000D03*
%TD*%
D31*
%TO.C,SW103*%
X244654000Y-96810000D03*
X251154000Y-96810000D03*
X244654000Y-101310000D03*
X251154000Y-101310000D03*
%TD*%
D32*
%TO.C,J1*%
X307250000Y-103060000D03*
D33*
X307250000Y-101060000D03*
X307250000Y-99060000D03*
X307250000Y-97060000D03*
X307250000Y-95060000D03*
%TD*%
D31*
%TO.C,SW104*%
X264160000Y-96810000D03*
X257660000Y-96810000D03*
X257660000Y-101310000D03*
X264160000Y-101310000D03*
%TD*%
G36*
X73024077Y-163616265D02*
G01*
X73203240Y-163866518D01*
X73245681Y-163914998D01*
X73246069Y-163916960D01*
X73244564Y-163918277D01*
X73243031Y-163917955D01*
X73190309Y-163881125D01*
X73119975Y-163878413D01*
X73059367Y-163914140D01*
X73026588Y-163983847D01*
X73024946Y-163984989D01*
X73023136Y-163984138D01*
X73022784Y-163982839D01*
X73035994Y-163815000D01*
X73020457Y-163617586D01*
X73021318Y-163615781D01*
X73023312Y-163615624D01*
X73024077Y-163616265D01*
G37*
G36*
X72406229Y-162175571D02*
G01*
X72466689Y-162433344D01*
X72549126Y-162675501D01*
X72548738Y-162677463D01*
X72546845Y-162678108D01*
X72545934Y-162677667D01*
X72387580Y-162542419D01*
X72219340Y-162439322D01*
X72218386Y-162437565D01*
X72219431Y-162435859D01*
X72221270Y-162435823D01*
X72252887Y-162451415D01*
X72322520Y-162463550D01*
X72387384Y-162436230D01*
X72427198Y-162378151D01*
X72430777Y-162313827D01*
X72402324Y-162176434D01*
X72402952Y-162174535D01*
X72404910Y-162174129D01*
X72406229Y-162175571D01*
G37*
M02*
