%FSLAX45Y45*%
G04 Gerber Fmt 4.5, Leading zero omitted, Abs format (unit mm)*
G04 Created by KiCad (PCBNEW (6.0.5)) date 2022-06-03 16:12:29*
%MOMM*%
%LPD*%
G01*
G04 APERTURE LIST*
%TA.AperFunction,Profile*%
%ADD10C,0.100000*%
%TD*%
%ADD11C,0.200000*%
%ADD12C,0.040000*%
%ADD13C,0.070000*%
%ADD14C,0.075000*%
%ADD15C,0.076200*%
%ADD16C,0.080000*%
%ADD17C,0.090000*%
%ADD18C,0.100000*%
%ADD19C,0.110000*%
%ADD20C,0.150000*%
G04 APERTURE END LIST*
D10*
X3997960Y-7696200D02*
X38341300Y-7696200D01*
X38341300Y-7696200D02*
X38341300Y-19885660D01*
X38341300Y-19885660D02*
X3997960Y-19885660D01*
X3997960Y-19885660D02*
X3997960Y-7696200D01*
D11*
D12*
X6126800Y-10546400D02*
X6166800Y-10586400D01*
X6166800Y-10546400D02*
X6126800Y-10586400D01*
X7066600Y-9378000D02*
X7106600Y-9418000D01*
X7106600Y-9378000D02*
X7066600Y-9418000D01*
X28148600Y-18318800D02*
X28188600Y-18358800D01*
X28188600Y-18318800D02*
X28148600Y-18358800D01*
X29418600Y-10140000D02*
X29458600Y-10180000D01*
X29458600Y-10140000D02*
X29418600Y-10180000D01*
X29621800Y-10190800D02*
X29661800Y-10230800D01*
X29661800Y-10190800D02*
X29621800Y-10230800D01*
X29901200Y-18344200D02*
X29941200Y-18384200D01*
X29941200Y-18344200D02*
X29901200Y-18384200D01*
X35019300Y-18077500D02*
X35059300Y-18117500D01*
X35059300Y-18077500D02*
X35019300Y-18117500D01*
X35590800Y-15931200D02*
X35630800Y-15971200D01*
X35630800Y-15931200D02*
X35590800Y-15971200D01*
X35590800Y-16134400D02*
X35630800Y-16174400D01*
X35630800Y-16134400D02*
X35590800Y-16174400D01*
X35590800Y-16337600D02*
X35630800Y-16377600D01*
X35630800Y-16337600D02*
X35590800Y-16377600D01*
X36810000Y-17937800D02*
X36850000Y-17977800D01*
X36850000Y-17937800D02*
X36810000Y-17977800D01*
X37114800Y-13772200D02*
X37154800Y-13812200D01*
X37154800Y-13772200D02*
X37114800Y-13812200D01*
D13*
X35468000Y-14579600D02*
G75*
G03*
X35468000Y-14579600I-35000J0D01*
G01*
X35468000Y-14935200D02*
G75*
G03*
X35468000Y-14935200I-35000J0D01*
G01*
X35468000Y-15290800D02*
G75*
G03*
X35468000Y-15290800I-35000J0D01*
G01*
X36230000Y-14579600D02*
G75*
G03*
X36230000Y-14579600I-35000J0D01*
G01*
X36230000Y-14935200D02*
G75*
G03*
X36230000Y-14935200I-35000J0D01*
G01*
X36230000Y-15290800D02*
G75*
G03*
X36230000Y-15290800I-35000J0D01*
G01*
D14*
X30725000Y-9468500D02*
X30725000Y-9543500D01*
X30687500Y-9506000D02*
X30762500Y-9506000D01*
X30725000Y-9668500D02*
X30725000Y-9743500D01*
X30687500Y-9706000D02*
X30762500Y-9706000D01*
X30725000Y-9868500D02*
X30725000Y-9943500D01*
X30687500Y-9906000D02*
X30762500Y-9906000D01*
X30725000Y-10068500D02*
X30725000Y-10143500D01*
X30687500Y-10106000D02*
X30762500Y-10106000D01*
X30725000Y-10268500D02*
X30725000Y-10343500D01*
X30687500Y-10306000D02*
X30762500Y-10306000D01*
D15*
X5376181Y-15713981D02*
X5376181Y-15660099D01*
X5322299Y-15660099D01*
X5322299Y-15713981D01*
X5376181Y-15713981D01*
X5630181Y-15713981D02*
X5630181Y-15660099D01*
X5576299Y-15660099D01*
X5576299Y-15713981D01*
X5630181Y-15713981D01*
X25617441Y-9094741D02*
X25617441Y-9040859D01*
X25563559Y-9040859D01*
X25563559Y-9094741D01*
X25617441Y-9094741D01*
X25871441Y-9094741D02*
X25871441Y-9040859D01*
X25817559Y-9040859D01*
X25817559Y-9094741D01*
X25871441Y-9094741D01*
X35625041Y-9094741D02*
X35625041Y-9040859D01*
X35571159Y-9040859D01*
X35571159Y-9094741D01*
X35625041Y-9094741D01*
X35879041Y-9094741D02*
X35879041Y-9040859D01*
X35825159Y-9040859D01*
X35825159Y-9094741D01*
X35879041Y-9094741D01*
D16*
X4318000Y-13044800D02*
X4358000Y-13004800D01*
X4318000Y-12964800D01*
X4278000Y-13004800D01*
X4318000Y-13044800D01*
X4318000Y-13806800D02*
X4358000Y-13766800D01*
X4318000Y-13726800D01*
X4278000Y-13766800D01*
X4318000Y-13806800D01*
X4343400Y-14949800D02*
X4383400Y-14909800D01*
X4343400Y-14869800D01*
X4303400Y-14909800D01*
X4343400Y-14949800D01*
X4343400Y-15711800D02*
X4383400Y-15671800D01*
X4343400Y-15631800D01*
X4303400Y-15671800D01*
X4343400Y-15711800D01*
X4343400Y-16829400D02*
X4383400Y-16789400D01*
X4343400Y-16749400D01*
X4303400Y-16789400D01*
X4343400Y-16829400D01*
X4343400Y-17591400D02*
X4383400Y-17551400D01*
X4343400Y-17511400D01*
X4303400Y-17551400D01*
X4343400Y-17591400D01*
X4368800Y-10377800D02*
X4408800Y-10337800D01*
X4368800Y-10297800D01*
X4328800Y-10337800D01*
X4368800Y-10377800D01*
X5130800Y-10377800D02*
X5170800Y-10337800D01*
X5130800Y-10297800D01*
X5090800Y-10337800D01*
X5130800Y-10377800D01*
X5715000Y-11152500D02*
X5755000Y-11112500D01*
X5715000Y-11072500D01*
X5675000Y-11112500D01*
X5715000Y-11152500D01*
X5715000Y-11914500D02*
X5755000Y-11874500D01*
X5715000Y-11834500D01*
X5675000Y-11874500D01*
X5715000Y-11914500D01*
X5740400Y-8333100D02*
X5780400Y-8293100D01*
X5740400Y-8253100D01*
X5700400Y-8293100D01*
X5740400Y-8333100D01*
X5740400Y-9095100D02*
X5780400Y-9055100D01*
X5740400Y-9015100D01*
X5700400Y-9055100D01*
X5740400Y-9095100D01*
X5943600Y-18759800D02*
X5983600Y-18719800D01*
X5943600Y-18679800D01*
X5903600Y-18719800D01*
X5943600Y-18759800D01*
X5943600Y-19521800D02*
X5983600Y-19481800D01*
X5943600Y-19441800D01*
X5903600Y-19481800D01*
X5943600Y-19521800D01*
X6299200Y-14873600D02*
X6339200Y-14833600D01*
X6299200Y-14793600D01*
X6259200Y-14833600D01*
X6299200Y-14873600D01*
X6299200Y-15635600D02*
X6339200Y-15595600D01*
X6299200Y-15555600D01*
X6259200Y-15595600D01*
X6299200Y-15635600D01*
X6426200Y-18759800D02*
X6466200Y-18719800D01*
X6426200Y-18679800D01*
X6386200Y-18719800D01*
X6426200Y-18759800D01*
X6426200Y-19521800D02*
X6466200Y-19481800D01*
X6426200Y-19441800D01*
X6386200Y-19481800D01*
X6426200Y-19521800D01*
X6667500Y-13057500D02*
X6707500Y-13017500D01*
X6667500Y-12977500D01*
X6627500Y-13017500D01*
X6667500Y-13057500D01*
X6667500Y-13819500D02*
X6707500Y-13779500D01*
X6667500Y-13739500D01*
X6627500Y-13779500D01*
X6667500Y-13819500D01*
X7620000Y-8345800D02*
X7660000Y-8305800D01*
X7620000Y-8265800D01*
X7580000Y-8305800D01*
X7620000Y-8345800D01*
X7620000Y-9107800D02*
X7660000Y-9067800D01*
X7620000Y-9027800D01*
X7580000Y-9067800D01*
X7620000Y-9107800D01*
X7620000Y-11152500D02*
X7660000Y-11112500D01*
X7620000Y-11072500D01*
X7580000Y-11112500D01*
X7620000Y-11152500D01*
X7620000Y-11914500D02*
X7660000Y-11874500D01*
X7620000Y-11834500D01*
X7580000Y-11874500D01*
X7620000Y-11914500D01*
X8128000Y-16867500D02*
X8168000Y-16827500D01*
X8128000Y-16787500D01*
X8088000Y-16827500D01*
X8128000Y-16867500D01*
X8128000Y-17629500D02*
X8168000Y-17589500D01*
X8128000Y-17549500D01*
X8088000Y-17589500D01*
X8128000Y-17629500D01*
X8572500Y-13057500D02*
X8612500Y-13017500D01*
X8572500Y-12977500D01*
X8532500Y-13017500D01*
X8572500Y-13057500D01*
X8572500Y-13819500D02*
X8612500Y-13779500D01*
X8572500Y-13739500D01*
X8532500Y-13779500D01*
X8572500Y-13819500D01*
X8572500Y-18772500D02*
X8612500Y-18732500D01*
X8572500Y-18692500D01*
X8532500Y-18732500D01*
X8572500Y-18772500D01*
X8572500Y-19534500D02*
X8612500Y-19494500D01*
X8572500Y-19454500D01*
X8532500Y-19494500D01*
X8572500Y-19534500D01*
X9017000Y-14962500D02*
X9057000Y-14922500D01*
X9017000Y-14882500D01*
X8977000Y-14922500D01*
X9017000Y-14962500D01*
X9017000Y-15724500D02*
X9057000Y-15684500D01*
X9017000Y-15644500D01*
X8977000Y-15684500D01*
X9017000Y-15724500D01*
X9461500Y-8345800D02*
X9501500Y-8305800D01*
X9461500Y-8265800D01*
X9421500Y-8305800D01*
X9461500Y-8345800D01*
X9461500Y-9107800D02*
X9501500Y-9067800D01*
X9461500Y-9027800D01*
X9421500Y-9067800D01*
X9461500Y-9107800D01*
X9525000Y-11152500D02*
X9565000Y-11112500D01*
X9525000Y-11072500D01*
X9485000Y-11112500D01*
X9525000Y-11152500D01*
X9525000Y-11914500D02*
X9565000Y-11874500D01*
X9525000Y-11834500D01*
X9485000Y-11874500D01*
X9525000Y-11914500D01*
X10033000Y-16867500D02*
X10073000Y-16827500D01*
X10033000Y-16787500D01*
X9993000Y-16827500D01*
X10033000Y-16867500D01*
X10033000Y-17629500D02*
X10073000Y-17589500D01*
X10033000Y-17549500D01*
X9993000Y-17589500D01*
X10033000Y-17629500D01*
X10477500Y-13057500D02*
X10517500Y-13017500D01*
X10477500Y-12977500D01*
X10437500Y-13017500D01*
X10477500Y-13057500D01*
X10477500Y-13819500D02*
X10517500Y-13779500D01*
X10477500Y-13739500D01*
X10437500Y-13779500D01*
X10477500Y-13819500D01*
X10922000Y-14962500D02*
X10962000Y-14922500D01*
X10922000Y-14882500D01*
X10882000Y-14922500D01*
X10922000Y-14962500D01*
X10922000Y-15724500D02*
X10962000Y-15684500D01*
X10922000Y-15644500D01*
X10882000Y-15684500D01*
X10922000Y-15724500D01*
X11430000Y-8345800D02*
X11470000Y-8305800D01*
X11430000Y-8265800D01*
X11390000Y-8305800D01*
X11430000Y-8345800D01*
X11430000Y-9107800D02*
X11470000Y-9067800D01*
X11430000Y-9027800D01*
X11390000Y-9067800D01*
X11430000Y-9107800D01*
X11430000Y-11152500D02*
X11470000Y-11112500D01*
X11430000Y-11072500D01*
X11390000Y-11112500D01*
X11430000Y-11152500D01*
X11430000Y-11914500D02*
X11470000Y-11874500D01*
X11430000Y-11834500D01*
X11390000Y-11874500D01*
X11430000Y-11914500D01*
X11938000Y-16867500D02*
X11978000Y-16827500D01*
X11938000Y-16787500D01*
X11898000Y-16827500D01*
X11938000Y-16867500D01*
X11938000Y-17629500D02*
X11978000Y-17589500D01*
X11938000Y-17549500D01*
X11898000Y-17589500D01*
X11938000Y-17629500D01*
X12382500Y-13057500D02*
X12422500Y-13017500D01*
X12382500Y-12977500D01*
X12342500Y-13017500D01*
X12382500Y-13057500D01*
X12382500Y-13819500D02*
X12422500Y-13779500D01*
X12382500Y-13739500D01*
X12342500Y-13779500D01*
X12382500Y-13819500D01*
X12827000Y-14962500D02*
X12867000Y-14922500D01*
X12827000Y-14882500D01*
X12787000Y-14922500D01*
X12827000Y-14962500D01*
X12827000Y-15724500D02*
X12867000Y-15684500D01*
X12827000Y-15644500D01*
X12787000Y-15684500D01*
X12827000Y-15724500D01*
X13335000Y-8345800D02*
X13375000Y-8305800D01*
X13335000Y-8265800D01*
X13295000Y-8305800D01*
X13335000Y-8345800D01*
X13335000Y-9107800D02*
X13375000Y-9067800D01*
X13335000Y-9027800D01*
X13295000Y-9067800D01*
X13335000Y-9107800D01*
X13335000Y-11152500D02*
X13375000Y-11112500D01*
X13335000Y-11072500D01*
X13295000Y-11112500D01*
X13335000Y-11152500D01*
X13335000Y-11914500D02*
X13375000Y-11874500D01*
X13335000Y-11834500D01*
X13295000Y-11874500D01*
X13335000Y-11914500D01*
X13843000Y-16867500D02*
X13883000Y-16827500D01*
X13843000Y-16787500D01*
X13803000Y-16827500D01*
X13843000Y-16867500D01*
X13843000Y-17629500D02*
X13883000Y-17589500D01*
X13843000Y-17549500D01*
X13803000Y-17589500D01*
X13843000Y-17629500D01*
X14287500Y-13057500D02*
X14327500Y-13017500D01*
X14287500Y-12977500D01*
X14247500Y-13017500D01*
X14287500Y-13057500D01*
X14287500Y-13819500D02*
X14327500Y-13779500D01*
X14287500Y-13739500D01*
X14247500Y-13779500D01*
X14287500Y-13819500D01*
X14795500Y-14962500D02*
X14835500Y-14922500D01*
X14795500Y-14882500D01*
X14755500Y-14922500D01*
X14795500Y-14962500D01*
X14795500Y-15724500D02*
X14835500Y-15684500D01*
X14795500Y-15644500D01*
X14755500Y-15684500D01*
X14795500Y-15724500D01*
X15240000Y-11152500D02*
X15280000Y-11112500D01*
X15240000Y-11072500D01*
X15200000Y-11112500D01*
X15240000Y-11152500D01*
X15240000Y-11914500D02*
X15280000Y-11874500D01*
X15240000Y-11834500D01*
X15200000Y-11874500D01*
X15240000Y-11914500D01*
X15621000Y-18772500D02*
X15661000Y-18732500D01*
X15621000Y-18692500D01*
X15581000Y-18732500D01*
X15621000Y-18772500D01*
X15621000Y-19534500D02*
X15661000Y-19494500D01*
X15621000Y-19454500D01*
X15581000Y-19494500D01*
X15621000Y-19534500D01*
X15748000Y-16867500D02*
X15788000Y-16827500D01*
X15748000Y-16787500D01*
X15708000Y-16827500D01*
X15748000Y-16867500D01*
X15748000Y-17629500D02*
X15788000Y-17589500D01*
X15748000Y-17549500D01*
X15708000Y-17589500D01*
X15748000Y-17629500D01*
X16129000Y-8345800D02*
X16169000Y-8305800D01*
X16129000Y-8265800D01*
X16089000Y-8305800D01*
X16129000Y-8345800D01*
X16129000Y-9107800D02*
X16169000Y-9067800D01*
X16129000Y-9027800D01*
X16089000Y-9067800D01*
X16129000Y-9107800D01*
X16192500Y-13057500D02*
X16232500Y-13017500D01*
X16192500Y-12977500D01*
X16152500Y-13017500D01*
X16192500Y-13057500D01*
X16192500Y-13819500D02*
X16232500Y-13779500D01*
X16192500Y-13739500D01*
X16152500Y-13779500D01*
X16192500Y-13819500D01*
X16700500Y-14962500D02*
X16740500Y-14922500D01*
X16700500Y-14882500D01*
X16660500Y-14922500D01*
X16700500Y-14962500D01*
X16700500Y-15724500D02*
X16740500Y-15684500D01*
X16700500Y-15644500D01*
X16660500Y-15684500D01*
X16700500Y-15724500D01*
X17145000Y-11152500D02*
X17185000Y-11112500D01*
X17145000Y-11072500D01*
X17105000Y-11112500D01*
X17145000Y-11152500D01*
X17145000Y-11914500D02*
X17185000Y-11874500D01*
X17145000Y-11834500D01*
X17105000Y-11874500D01*
X17145000Y-11914500D01*
X17653000Y-16867500D02*
X17693000Y-16827500D01*
X17653000Y-16787500D01*
X17613000Y-16827500D01*
X17653000Y-16867500D01*
X17653000Y-17629500D02*
X17693000Y-17589500D01*
X17653000Y-17549500D01*
X17613000Y-17589500D01*
X17653000Y-17629500D01*
X18097500Y-8345800D02*
X18137500Y-8305800D01*
X18097500Y-8265800D01*
X18057500Y-8305800D01*
X18097500Y-8345800D01*
X18097500Y-9107800D02*
X18137500Y-9067800D01*
X18097500Y-9027800D01*
X18057500Y-9067800D01*
X18097500Y-9107800D01*
X18097500Y-13057500D02*
X18137500Y-13017500D01*
X18097500Y-12977500D01*
X18057500Y-13017500D01*
X18097500Y-13057500D01*
X18097500Y-13819500D02*
X18137500Y-13779500D01*
X18097500Y-13739500D01*
X18057500Y-13779500D01*
X18097500Y-13819500D01*
X18605500Y-14975200D02*
X18645500Y-14935200D01*
X18605500Y-14895200D01*
X18565500Y-14935200D01*
X18605500Y-14975200D01*
X18605500Y-15737200D02*
X18645500Y-15697200D01*
X18605500Y-15657200D01*
X18565500Y-15697200D01*
X18605500Y-15737200D01*
X19050000Y-11152500D02*
X19090000Y-11112500D01*
X19050000Y-11072500D01*
X19010000Y-11112500D01*
X19050000Y-11152500D01*
X19050000Y-11914500D02*
X19090000Y-11874500D01*
X19050000Y-11834500D01*
X19010000Y-11874500D01*
X19050000Y-11914500D01*
X19558000Y-16867500D02*
X19598000Y-16827500D01*
X19558000Y-16787500D01*
X19518000Y-16827500D01*
X19558000Y-16867500D01*
X19558000Y-17629500D02*
X19598000Y-17589500D01*
X19558000Y-17549500D01*
X19518000Y-17589500D01*
X19558000Y-17629500D01*
X20002500Y-8345800D02*
X20042500Y-8305800D01*
X20002500Y-8265800D01*
X19962500Y-8305800D01*
X20002500Y-8345800D01*
X20002500Y-9107800D02*
X20042500Y-9067800D01*
X20002500Y-9027800D01*
X19962500Y-9067800D01*
X20002500Y-9107800D01*
X20066000Y-13057500D02*
X20106000Y-13017500D01*
X20066000Y-12977500D01*
X20026000Y-13017500D01*
X20066000Y-13057500D01*
X20066000Y-13819500D02*
X20106000Y-13779500D01*
X20066000Y-13739500D01*
X20026000Y-13779500D01*
X20066000Y-13819500D01*
X20510500Y-14962500D02*
X20550500Y-14922500D01*
X20510500Y-14882500D01*
X20470500Y-14922500D01*
X20510500Y-14962500D01*
X20510500Y-15724500D02*
X20550500Y-15684500D01*
X20510500Y-15644500D01*
X20470500Y-15684500D01*
X20510500Y-15724500D01*
X20955000Y-11152500D02*
X20995000Y-11112500D01*
X20955000Y-11072500D01*
X20915000Y-11112500D01*
X20955000Y-11152500D01*
X20955000Y-11914500D02*
X20995000Y-11874500D01*
X20955000Y-11834500D01*
X20915000Y-11874500D01*
X20955000Y-11914500D01*
X21437600Y-16867500D02*
X21477600Y-16827500D01*
X21437600Y-16787500D01*
X21397600Y-16827500D01*
X21437600Y-16867500D01*
X21437600Y-17629500D02*
X21477600Y-17589500D01*
X21437600Y-17549500D01*
X21397600Y-17589500D01*
X21437600Y-17629500D01*
X21907500Y-8345800D02*
X21947500Y-8305800D01*
X21907500Y-8265800D01*
X21867500Y-8305800D01*
X21907500Y-8345800D01*
X21907500Y-9107800D02*
X21947500Y-9067800D01*
X21907500Y-9027800D01*
X21867500Y-9067800D01*
X21907500Y-9107800D01*
X21907500Y-13057500D02*
X21947500Y-13017500D01*
X21907500Y-12977500D01*
X21867500Y-13017500D01*
X21907500Y-13057500D01*
X21907500Y-13819500D02*
X21947500Y-13779500D01*
X21907500Y-13739500D01*
X21867500Y-13779500D01*
X21907500Y-13819500D01*
X22415500Y-14962500D02*
X22455500Y-14922500D01*
X22415500Y-14882500D01*
X22375500Y-14922500D01*
X22415500Y-14962500D01*
X22415500Y-15724500D02*
X22455500Y-15684500D01*
X22415500Y-15644500D01*
X22375500Y-15684500D01*
X22415500Y-15724500D01*
X22923500Y-11152500D02*
X22963500Y-11112500D01*
X22923500Y-11072500D01*
X22883500Y-11112500D01*
X22923500Y-11152500D01*
X22923500Y-11914500D02*
X22963500Y-11874500D01*
X22923500Y-11834500D01*
X22883500Y-11874500D01*
X22923500Y-11914500D01*
X23050500Y-18772500D02*
X23090500Y-18732500D01*
X23050500Y-18692500D01*
X23010500Y-18732500D01*
X23050500Y-18772500D01*
X23050500Y-19534500D02*
X23090500Y-19494500D01*
X23050500Y-19454500D01*
X23010500Y-19494500D01*
X23050500Y-19534500D01*
X23304500Y-16867500D02*
X23344500Y-16827500D01*
X23304500Y-16787500D01*
X23264500Y-16827500D01*
X23304500Y-16867500D01*
X23304500Y-17629500D02*
X23344500Y-17589500D01*
X23304500Y-17549500D01*
X23264500Y-17589500D01*
X23304500Y-17629500D01*
X23812500Y-13057500D02*
X23852500Y-13017500D01*
X23812500Y-12977500D01*
X23772500Y-13017500D01*
X23812500Y-13057500D01*
X23812500Y-13819500D02*
X23852500Y-13779500D01*
X23812500Y-13739500D01*
X23772500Y-13779500D01*
X23812500Y-13819500D01*
X24257000Y-14962500D02*
X24297000Y-14922500D01*
X24257000Y-14882500D01*
X24217000Y-14922500D01*
X24257000Y-14962500D01*
X24257000Y-15724500D02*
X24297000Y-15684500D01*
X24257000Y-15644500D01*
X24217000Y-15684500D01*
X24257000Y-15724500D01*
X24765000Y-8345800D02*
X24805000Y-8305800D01*
X24765000Y-8265800D01*
X24725000Y-8305800D01*
X24765000Y-8345800D01*
X24765000Y-9107800D02*
X24805000Y-9067800D01*
X24765000Y-9027800D01*
X24725000Y-9067800D01*
X24765000Y-9107800D01*
X24765000Y-11152500D02*
X24805000Y-11112500D01*
X24765000Y-11072500D01*
X24725000Y-11112500D01*
X24765000Y-11152500D01*
X24765000Y-11914500D02*
X24805000Y-11874500D01*
X24765000Y-11834500D01*
X24725000Y-11874500D01*
X24765000Y-11914500D01*
X25209500Y-18772500D02*
X25249500Y-18732500D01*
X25209500Y-18692500D01*
X25169500Y-18732500D01*
X25209500Y-18772500D01*
X25209500Y-19534500D02*
X25249500Y-19494500D01*
X25209500Y-19454500D01*
X25169500Y-19494500D01*
X25209500Y-19534500D01*
X25273000Y-16867500D02*
X25313000Y-16827500D01*
X25273000Y-16787500D01*
X25233000Y-16827500D01*
X25273000Y-16867500D01*
X25273000Y-17629500D02*
X25313000Y-17589500D01*
X25273000Y-17549500D01*
X25233000Y-17589500D01*
X25273000Y-17629500D01*
X25654000Y-13057500D02*
X25694000Y-13017500D01*
X25654000Y-12977500D01*
X25614000Y-13017500D01*
X25654000Y-13057500D01*
X25654000Y-13819500D02*
X25694000Y-13779500D01*
X25654000Y-13739500D01*
X25614000Y-13779500D01*
X25654000Y-13819500D01*
X26225500Y-14962500D02*
X26265500Y-14922500D01*
X26225500Y-14882500D01*
X26185500Y-14922500D01*
X26225500Y-14962500D01*
X26225500Y-15724500D02*
X26265500Y-15684500D01*
X26225500Y-15644500D01*
X26185500Y-15684500D01*
X26225500Y-15724500D01*
X26670000Y-8345800D02*
X26710000Y-8305800D01*
X26670000Y-8265800D01*
X26630000Y-8305800D01*
X26670000Y-8345800D01*
X26670000Y-9107800D02*
X26710000Y-9067800D01*
X26670000Y-9027800D01*
X26630000Y-9067800D01*
X26670000Y-9107800D01*
X26670000Y-11152500D02*
X26710000Y-11112500D01*
X26670000Y-11072500D01*
X26630000Y-11112500D01*
X26670000Y-11152500D01*
X26670000Y-11914500D02*
X26710000Y-11874500D01*
X26670000Y-11834500D01*
X26630000Y-11874500D01*
X26670000Y-11914500D01*
X27622500Y-13057500D02*
X27662500Y-13017500D01*
X27622500Y-12977500D01*
X27582500Y-13017500D01*
X27622500Y-13057500D01*
X27622500Y-13819500D02*
X27662500Y-13779500D01*
X27622500Y-13739500D01*
X27582500Y-13779500D01*
X27622500Y-13819500D01*
X27622500Y-16854800D02*
X27662500Y-16814800D01*
X27622500Y-16774800D01*
X27582500Y-16814800D01*
X27622500Y-16854800D01*
X27622500Y-17616800D02*
X27662500Y-17576800D01*
X27622500Y-17536800D01*
X27582500Y-17576800D01*
X27622500Y-17616800D01*
X27622500Y-18772500D02*
X27662500Y-18732500D01*
X27622500Y-18692500D01*
X27582500Y-18732500D01*
X27622500Y-18772500D01*
X27622500Y-19534500D02*
X27662500Y-19494500D01*
X27622500Y-19454500D01*
X27582500Y-19494500D01*
X27622500Y-19534500D01*
X28498800Y-14975200D02*
X28538800Y-14935200D01*
X28498800Y-14895200D01*
X28458800Y-14935200D01*
X28498800Y-14975200D01*
X28498800Y-15737200D02*
X28538800Y-15697200D01*
X28498800Y-15657200D01*
X28458800Y-15697200D01*
X28498800Y-15737200D01*
X28575000Y-8345800D02*
X28615000Y-8305800D01*
X28575000Y-8265800D01*
X28535000Y-8305800D01*
X28575000Y-8345800D01*
X28575000Y-9107800D02*
X28615000Y-9067800D01*
X28575000Y-9027800D01*
X28535000Y-9067800D01*
X28575000Y-9107800D01*
X28829000Y-11152500D02*
X28869000Y-11112500D01*
X28829000Y-11072500D01*
X28789000Y-11112500D01*
X28829000Y-11152500D01*
X28829000Y-11914500D02*
X28869000Y-11874500D01*
X28829000Y-11834500D01*
X28789000Y-11874500D01*
X28829000Y-11914500D01*
X29845000Y-13057500D02*
X29885000Y-13017500D01*
X29845000Y-12977500D01*
X29805000Y-13017500D01*
X29845000Y-13057500D01*
X29845000Y-13819500D02*
X29885000Y-13779500D01*
X29845000Y-13739500D01*
X29805000Y-13779500D01*
X29845000Y-13819500D01*
X30035500Y-18772500D02*
X30075500Y-18732500D01*
X30035500Y-18692500D01*
X29995500Y-18732500D01*
X30035500Y-18772500D01*
X30035500Y-19534500D02*
X30075500Y-19494500D01*
X30035500Y-19454500D01*
X29995500Y-19494500D01*
X30035500Y-19534500D01*
X30480000Y-8345800D02*
X30520000Y-8305800D01*
X30480000Y-8265800D01*
X30440000Y-8305800D01*
X30480000Y-8345800D01*
X30480000Y-9107800D02*
X30520000Y-9067800D01*
X30480000Y-9027800D01*
X30440000Y-9067800D01*
X30480000Y-9107800D01*
X32110500Y-15396000D02*
X32150500Y-15356000D01*
X32110500Y-15316000D01*
X32070500Y-15356000D01*
X32110500Y-15396000D01*
X32110500Y-15596000D02*
X32150500Y-15556000D01*
X32110500Y-15516000D01*
X32070500Y-15556000D01*
X32110500Y-15596000D01*
X32110500Y-15796000D02*
X32150500Y-15756000D01*
X32110500Y-15716000D01*
X32070500Y-15756000D01*
X32110500Y-15796000D01*
X32110500Y-15996000D02*
X32150500Y-15956000D01*
X32110500Y-15916000D01*
X32070500Y-15956000D01*
X32110500Y-15996000D01*
X32110500Y-16196000D02*
X32150500Y-16156000D01*
X32110500Y-16116000D01*
X32070500Y-16156000D01*
X32110500Y-16196000D01*
X32110500Y-16396000D02*
X32150500Y-16356000D01*
X32110500Y-16316000D01*
X32070500Y-16356000D01*
X32110500Y-16396000D01*
X32110500Y-16596000D02*
X32150500Y-16556000D01*
X32110500Y-16516000D01*
X32070500Y-16556000D01*
X32110500Y-16596000D01*
X32110500Y-16796000D02*
X32150500Y-16756000D01*
X32110500Y-16716000D01*
X32070500Y-16756000D01*
X32110500Y-16796000D01*
X32110500Y-16996000D02*
X32150500Y-16956000D01*
X32110500Y-16916000D01*
X32070500Y-16956000D01*
X32110500Y-16996000D01*
X32110500Y-17196000D02*
X32150500Y-17156000D01*
X32110500Y-17116000D01*
X32070500Y-17156000D01*
X32110500Y-17196000D01*
X32310500Y-15196000D02*
X32350500Y-15156000D01*
X32310500Y-15116000D01*
X32270500Y-15156000D01*
X32310500Y-15196000D01*
X32310500Y-17396000D02*
X32350500Y-17356000D01*
X32310500Y-17316000D01*
X32270500Y-17356000D01*
X32310500Y-17396000D01*
X32510500Y-15196000D02*
X32550500Y-15156000D01*
X32510500Y-15116000D01*
X32470500Y-15156000D01*
X32510500Y-15196000D01*
X32510500Y-17396000D02*
X32550500Y-17356000D01*
X32510500Y-17316000D01*
X32470500Y-17356000D01*
X32510500Y-17396000D01*
X32710500Y-15196000D02*
X32750500Y-15156000D01*
X32710500Y-15116000D01*
X32670500Y-15156000D01*
X32710500Y-15196000D01*
X32710500Y-17396000D02*
X32750500Y-17356000D01*
X32710500Y-17316000D01*
X32670500Y-17356000D01*
X32710500Y-17396000D01*
X32867600Y-8345800D02*
X32907600Y-8305800D01*
X32867600Y-8265800D01*
X32827600Y-8305800D01*
X32867600Y-8345800D01*
X32867600Y-9107800D02*
X32907600Y-9067800D01*
X32867600Y-9027800D01*
X32827600Y-9067800D01*
X32867600Y-9107800D01*
X32867600Y-11152500D02*
X32907600Y-11112500D01*
X32867600Y-11072500D01*
X32827600Y-11112500D01*
X32867600Y-11152500D01*
X32867600Y-11914500D02*
X32907600Y-11874500D01*
X32867600Y-11834500D01*
X32827600Y-11874500D01*
X32867600Y-11914500D01*
X32867600Y-13057500D02*
X32907600Y-13017500D01*
X32867600Y-12977500D01*
X32827600Y-13017500D01*
X32867600Y-13057500D01*
X32867600Y-13819500D02*
X32907600Y-13779500D01*
X32867600Y-13739500D01*
X32827600Y-13779500D01*
X32867600Y-13819500D01*
X32910500Y-15196000D02*
X32950500Y-15156000D01*
X32910500Y-15116000D01*
X32870500Y-15156000D01*
X32910500Y-15196000D01*
X32910500Y-17396000D02*
X32950500Y-17356000D01*
X32910500Y-17316000D01*
X32870500Y-17356000D01*
X32910500Y-17396000D01*
X33110500Y-15196000D02*
X33150500Y-15156000D01*
X33110500Y-15116000D01*
X33070500Y-15156000D01*
X33110500Y-15196000D01*
X33110500Y-17396000D02*
X33150500Y-17356000D01*
X33110500Y-17316000D01*
X33070500Y-17356000D01*
X33110500Y-17396000D01*
X33310500Y-15196000D02*
X33350500Y-15156000D01*
X33310500Y-15116000D01*
X33270500Y-15156000D01*
X33310500Y-15196000D01*
X33310500Y-17396000D02*
X33350500Y-17356000D01*
X33310500Y-17316000D01*
X33270500Y-17356000D01*
X33310500Y-17396000D01*
X33451800Y-18099400D02*
X33491800Y-18059400D01*
X33451800Y-18019400D01*
X33411800Y-18059400D01*
X33451800Y-18099400D01*
X33510500Y-15196000D02*
X33550500Y-15156000D01*
X33510500Y-15116000D01*
X33470500Y-15156000D01*
X33510500Y-15196000D01*
X33510500Y-17396000D02*
X33550500Y-17356000D01*
X33510500Y-17316000D01*
X33470500Y-17356000D01*
X33510500Y-17396000D01*
X33710500Y-15196000D02*
X33750500Y-15156000D01*
X33710500Y-15116000D01*
X33670500Y-15156000D01*
X33710500Y-15196000D01*
X33710500Y-17396000D02*
X33750500Y-17356000D01*
X33710500Y-17316000D01*
X33670500Y-17356000D01*
X33710500Y-17396000D01*
X33910500Y-15196000D02*
X33950500Y-15156000D01*
X33910500Y-15116000D01*
X33870500Y-15156000D01*
X33910500Y-15196000D01*
X33910500Y-17396000D02*
X33950500Y-17356000D01*
X33910500Y-17316000D01*
X33870500Y-17356000D01*
X33910500Y-17396000D01*
X34110500Y-15196000D02*
X34150500Y-15156000D01*
X34110500Y-15116000D01*
X34070500Y-15156000D01*
X34110500Y-15196000D01*
X34110500Y-17396000D02*
X34150500Y-17356000D01*
X34110500Y-17316000D01*
X34070500Y-17356000D01*
X34110500Y-17396000D01*
X34213800Y-18099400D02*
X34253800Y-18059400D01*
X34213800Y-18019400D01*
X34173800Y-18059400D01*
X34213800Y-18099400D01*
X34310500Y-15396000D02*
X34350500Y-15356000D01*
X34310500Y-15316000D01*
X34270500Y-15356000D01*
X34310500Y-15396000D01*
X34310500Y-15596000D02*
X34350500Y-15556000D01*
X34310500Y-15516000D01*
X34270500Y-15556000D01*
X34310500Y-15596000D01*
X34310500Y-15796000D02*
X34350500Y-15756000D01*
X34310500Y-15716000D01*
X34270500Y-15756000D01*
X34310500Y-15796000D01*
X34310500Y-15996000D02*
X34350500Y-15956000D01*
X34310500Y-15916000D01*
X34270500Y-15956000D01*
X34310500Y-15996000D01*
X34310500Y-16196000D02*
X34350500Y-16156000D01*
X34310500Y-16116000D01*
X34270500Y-16156000D01*
X34310500Y-16196000D01*
X34310500Y-16396000D02*
X34350500Y-16356000D01*
X34310500Y-16316000D01*
X34270500Y-16356000D01*
X34310500Y-16396000D01*
X34310500Y-16596000D02*
X34350500Y-16556000D01*
X34310500Y-16516000D01*
X34270500Y-16556000D01*
X34310500Y-16596000D01*
X34310500Y-16796000D02*
X34350500Y-16756000D01*
X34310500Y-16716000D01*
X34270500Y-16756000D01*
X34310500Y-16796000D01*
X34310500Y-16996000D02*
X34350500Y-16956000D01*
X34310500Y-16916000D01*
X34270500Y-16956000D01*
X34310500Y-16996000D01*
X34310500Y-17196000D02*
X34350500Y-17156000D01*
X34310500Y-17116000D01*
X34270500Y-17156000D01*
X34310500Y-17196000D01*
X34772600Y-8345800D02*
X34812600Y-8305800D01*
X34772600Y-8265800D01*
X34732600Y-8305800D01*
X34772600Y-8345800D01*
X34772600Y-9107800D02*
X34812600Y-9067800D01*
X34772600Y-9027800D01*
X34732600Y-9067800D01*
X34772600Y-9107800D01*
X34772600Y-11152500D02*
X34812600Y-11112500D01*
X34772600Y-11072500D01*
X34732600Y-11112500D01*
X34772600Y-11152500D01*
X34772600Y-11914500D02*
X34812600Y-11874500D01*
X34772600Y-11834500D01*
X34732600Y-11874500D01*
X34772600Y-11914500D01*
X34772600Y-13057500D02*
X34812600Y-13017500D01*
X34772600Y-12977500D01*
X34732600Y-13017500D01*
X34772600Y-13057500D01*
X34772600Y-13819500D02*
X34812600Y-13779500D01*
X34772600Y-13739500D01*
X34732600Y-13779500D01*
X34772600Y-13819500D01*
X34772600Y-18759800D02*
X34812600Y-18719800D01*
X34772600Y-18679800D01*
X34732600Y-18719800D01*
X34772600Y-18759800D01*
X34772600Y-19521800D02*
X34812600Y-19481800D01*
X34772600Y-19441800D01*
X34732600Y-19481800D01*
X34772600Y-19521800D01*
X36652200Y-11152500D02*
X36692200Y-11112500D01*
X36652200Y-11072500D01*
X36612200Y-11112500D01*
X36652200Y-11152500D01*
X36652200Y-11914500D02*
X36692200Y-11874500D01*
X36652200Y-11834500D01*
X36612200Y-11874500D01*
X36652200Y-11914500D01*
X36652200Y-13057500D02*
X36692200Y-13017500D01*
X36652200Y-12977500D01*
X36612200Y-13017500D01*
X36652200Y-13057500D01*
X36652200Y-13819500D02*
X36692200Y-13779500D01*
X36652200Y-13739500D01*
X36612200Y-13779500D01*
X36652200Y-13819500D01*
X36677600Y-8345800D02*
X36717600Y-8305800D01*
X36677600Y-8265800D01*
X36637600Y-8305800D01*
X36677600Y-8345800D01*
X36677600Y-9107800D02*
X36717600Y-9067800D01*
X36677600Y-9027800D01*
X36637600Y-9067800D01*
X36677600Y-9107800D01*
X36677600Y-16867500D02*
X36717600Y-16827500D01*
X36677600Y-16787500D01*
X36637600Y-16827500D01*
X36677600Y-16867500D01*
X36677600Y-17629500D02*
X36717600Y-17589500D01*
X36677600Y-17549500D01*
X36637600Y-17589500D01*
X36677600Y-17629500D01*
X36703000Y-18759800D02*
X36743000Y-18719800D01*
X36703000Y-18679800D01*
X36663000Y-18719800D01*
X36703000Y-18759800D01*
X36703000Y-19521800D02*
X36743000Y-19481800D01*
X36703000Y-19441800D01*
X36663000Y-19481800D01*
X36703000Y-19521800D01*
D17*
X34727600Y-9784300D02*
X34817600Y-9874300D01*
X34817600Y-9784300D02*
X34727600Y-9874300D01*
X34817600Y-9829300D02*
G75*
G03*
X34817600Y-9829300I-45000J0D01*
G01*
X34727600Y-10038300D02*
X34817600Y-10128300D01*
X34817600Y-10038300D02*
X34727600Y-10128300D01*
X34817600Y-10083300D02*
G75*
G03*
X34817600Y-10083300I-45000J0D01*
G01*
X35667400Y-9784800D02*
X35757400Y-9874800D01*
X35757400Y-9784800D02*
X35667400Y-9874800D01*
X35757400Y-9829800D02*
G75*
G03*
X35757400Y-9829800I-45000J0D01*
G01*
X35667400Y-10038800D02*
X35757400Y-10128800D01*
X35757400Y-10038800D02*
X35667400Y-10128800D01*
X35757400Y-10083800D02*
G75*
G03*
X35757400Y-10083800I-45000J0D01*
G01*
X36632600Y-9784800D02*
X36722600Y-9874800D01*
X36722600Y-9784800D02*
X36632600Y-9874800D01*
X36722600Y-9829800D02*
G75*
G03*
X36722600Y-9829800I-45000J0D01*
G01*
X36632600Y-10038800D02*
X36722600Y-10128800D01*
X36722600Y-10038800D02*
X36632600Y-10128800D01*
X36722600Y-10083800D02*
G75*
G03*
X36722600Y-10083800I-45000J0D01*
G01*
D18*
X37262600Y-15113800D02*
X37362600Y-15213800D01*
X37362600Y-15113800D02*
X37262600Y-15213800D01*
X37312600Y-15113800D02*
X37312600Y-15213800D01*
X37262600Y-15163800D02*
X37362600Y-15163800D01*
X37262600Y-15367800D02*
X37362600Y-15467800D01*
X37362600Y-15367800D02*
X37262600Y-15467800D01*
X37312600Y-15367800D02*
X37312600Y-15467800D01*
X37262600Y-15417800D02*
X37362600Y-15417800D01*
X37262600Y-15621800D02*
X37362600Y-15721800D01*
X37362600Y-15621800D02*
X37262600Y-15721800D01*
X37312600Y-15621800D02*
X37312600Y-15721800D01*
X37262600Y-15671800D02*
X37362600Y-15671800D01*
X37262600Y-15875800D02*
X37362600Y-15975800D01*
X37362600Y-15875800D02*
X37262600Y-15975800D01*
X37312600Y-15875800D02*
X37312600Y-15975800D01*
X37262600Y-15925800D02*
X37362600Y-15925800D01*
X37262600Y-16129800D02*
X37362600Y-16229800D01*
X37362600Y-16129800D02*
X37262600Y-16229800D01*
X37312600Y-16129800D02*
X37312600Y-16229800D01*
X37262600Y-16179800D02*
X37362600Y-16179800D01*
X37262600Y-16383800D02*
X37362600Y-16483800D01*
X37362600Y-16383800D02*
X37262600Y-16483800D01*
X37312600Y-16383800D02*
X37312600Y-16483800D01*
X37262600Y-16433800D02*
X37362600Y-16433800D01*
X37262600Y-16637800D02*
X37362600Y-16737800D01*
X37362600Y-16637800D02*
X37262600Y-16737800D01*
X37312600Y-16637800D02*
X37312600Y-16737800D01*
X37262600Y-16687800D02*
X37362600Y-16687800D01*
X37262600Y-16891800D02*
X37362600Y-16991800D01*
X37362600Y-16891800D02*
X37262600Y-16991800D01*
X37312600Y-16891800D02*
X37312600Y-16991800D01*
X37262600Y-16941800D02*
X37362600Y-16941800D01*
X37262600Y-17145800D02*
X37362600Y-17245800D01*
X37362600Y-17145800D02*
X37262600Y-17245800D01*
X37312600Y-17145800D02*
X37312600Y-17245800D01*
X37262600Y-17195800D02*
X37362600Y-17195800D01*
D19*
X24410400Y-9626000D02*
X24520400Y-9736000D01*
X24520400Y-9626000D02*
X24410400Y-9736000D01*
X24504291Y-9719891D02*
X24504291Y-9642109D01*
X24426509Y-9642109D01*
X24426509Y-9719891D01*
X24504291Y-9719891D01*
X24410400Y-10076000D02*
X24520400Y-10186000D01*
X24520400Y-10076000D02*
X24410400Y-10186000D01*
X24504291Y-10169891D02*
X24504291Y-10092109D01*
X24426509Y-10092109D01*
X24426509Y-10169891D01*
X24504291Y-10169891D01*
X25060400Y-9626000D02*
X25170400Y-9736000D01*
X25170400Y-9626000D02*
X25060400Y-9736000D01*
X25154291Y-9719891D02*
X25154291Y-9642109D01*
X25076509Y-9642109D01*
X25076509Y-9719891D01*
X25154291Y-9719891D01*
X25060400Y-10076000D02*
X25170400Y-10186000D01*
X25170400Y-10076000D02*
X25060400Y-10186000D01*
X25154291Y-10169891D02*
X25154291Y-10092109D01*
X25076509Y-10092109D01*
X25076509Y-10169891D01*
X25154291Y-10169891D01*
X25711000Y-9626000D02*
X25821000Y-9736000D01*
X25821000Y-9626000D02*
X25711000Y-9736000D01*
X25804891Y-9719891D02*
X25804891Y-9642109D01*
X25727109Y-9642109D01*
X25727109Y-9719891D01*
X25804891Y-9719891D01*
X25711000Y-10076000D02*
X25821000Y-10186000D01*
X25821000Y-10076000D02*
X25711000Y-10186000D01*
X25804891Y-10169891D02*
X25804891Y-10092109D01*
X25727109Y-10092109D01*
X25727109Y-10169891D01*
X25804891Y-10169891D01*
X26361000Y-9626000D02*
X26471000Y-9736000D01*
X26471000Y-9626000D02*
X26361000Y-9736000D01*
X26454891Y-9719891D02*
X26454891Y-9642109D01*
X26377109Y-9642109D01*
X26377109Y-9719891D01*
X26454891Y-9719891D01*
X26361000Y-10076000D02*
X26471000Y-10186000D01*
X26471000Y-10076000D02*
X26361000Y-10186000D01*
X26454891Y-10169891D02*
X26454891Y-10092109D01*
X26377109Y-10092109D01*
X26377109Y-10169891D01*
X26454891Y-10169891D01*
D20*
X4306500Y-8230800D02*
X4456500Y-8380800D01*
X4456500Y-8230800D02*
X4306500Y-8380800D01*
X4381500Y-8380800D02*
X4456500Y-8305800D01*
X4381500Y-8230800D01*
X4306500Y-8305800D01*
X4381500Y-8380800D01*
X4306500Y-11042580D02*
X4456500Y-11192580D01*
X4456500Y-11042580D02*
X4306500Y-11192580D01*
X4381500Y-11192580D02*
X4456500Y-11117580D01*
X4381500Y-11042580D01*
X4306500Y-11117580D01*
X4381500Y-11192580D01*
X4547800Y-18665120D02*
X4697800Y-18815120D01*
X4697800Y-18665120D02*
X4547800Y-18815120D01*
X4622800Y-18815120D02*
X4697800Y-18740120D01*
X4622800Y-18665120D01*
X4547800Y-18740120D01*
X4622800Y-18815120D01*
X4781480Y-12942500D02*
X4931480Y-13092500D01*
X4931480Y-12942500D02*
X4781480Y-13092500D01*
X4856480Y-13092500D02*
X4931480Y-13017500D01*
X4856480Y-12942500D01*
X4781480Y-13017500D01*
X4856480Y-13092500D01*
X4941500Y-7976800D02*
X5091500Y-8126800D01*
X5091500Y-7976800D02*
X4941500Y-8126800D01*
X5016500Y-8126800D02*
X5091500Y-8051800D01*
X5016500Y-7976800D01*
X4941500Y-8051800D01*
X5016500Y-8126800D01*
X4941500Y-10788580D02*
X5091500Y-10938580D01*
X5091500Y-10788580D02*
X4941500Y-10938580D01*
X5016500Y-10938580D02*
X5091500Y-10863580D01*
X5016500Y-10788580D01*
X4941500Y-10863580D01*
X5016500Y-10938580D01*
X5020240Y-14850040D02*
X5170240Y-15000040D01*
X5170240Y-14850040D02*
X5020240Y-15000040D01*
X5095240Y-15000040D02*
X5170240Y-14925040D01*
X5095240Y-14850040D01*
X5020240Y-14925040D01*
X5095240Y-15000040D01*
X5182800Y-18411120D02*
X5332800Y-18561120D01*
X5332800Y-18411120D02*
X5182800Y-18561120D01*
X5257800Y-18561120D02*
X5332800Y-18486120D01*
X5257800Y-18411120D01*
X5182800Y-18486120D01*
X5257800Y-18561120D01*
X5416480Y-12688500D02*
X5566480Y-12838500D01*
X5566480Y-12688500D02*
X5416480Y-12838500D01*
X5491480Y-12838500D02*
X5566480Y-12763500D01*
X5491480Y-12688500D01*
X5416480Y-12763500D01*
X5491480Y-12838500D01*
X5500300Y-16752500D02*
X5650300Y-16902500D01*
X5650300Y-16752500D02*
X5500300Y-16902500D01*
X5575300Y-16902500D02*
X5650300Y-16827500D01*
X5575300Y-16752500D01*
X5500300Y-16827500D01*
X5575300Y-16902500D01*
X5655240Y-14596040D02*
X5805240Y-14746040D01*
X5805240Y-14596040D02*
X5655240Y-14746040D01*
X5730240Y-14746040D02*
X5805240Y-14671040D01*
X5730240Y-14596040D01*
X5655240Y-14671040D01*
X5730240Y-14746040D01*
X6135300Y-16498500D02*
X6285300Y-16648500D01*
X6285300Y-16498500D02*
X6135300Y-16648500D01*
X6210300Y-16648500D02*
X6285300Y-16573500D01*
X6210300Y-16498500D01*
X6135300Y-16573500D01*
X6210300Y-16648500D01*
X6214040Y-11042580D02*
X6364040Y-11192580D01*
X6364040Y-11042580D02*
X6214040Y-11192580D01*
X6289040Y-11192580D02*
X6364040Y-11117580D01*
X6289040Y-11042580D01*
X6214040Y-11117580D01*
X6289040Y-11192580D01*
X6849040Y-10788580D02*
X6999040Y-10938580D01*
X6999040Y-10788580D02*
X6849040Y-10938580D01*
X6924040Y-10938580D02*
X6999040Y-10863580D01*
X6924040Y-10788580D01*
X6849040Y-10863580D01*
X6924040Y-10938580D01*
X6930320Y-18665120D02*
X7080320Y-18815120D01*
X7080320Y-18665120D02*
X6930320Y-18815120D01*
X7005320Y-18815120D02*
X7080320Y-18740120D01*
X7005320Y-18665120D01*
X6930320Y-18740120D01*
X7005320Y-18815120D01*
X7169080Y-12942500D02*
X7319080Y-13092500D01*
X7319080Y-12942500D02*
X7169080Y-13092500D01*
X7244080Y-13092500D02*
X7319080Y-13017500D01*
X7244080Y-12942500D01*
X7169080Y-13017500D01*
X7244080Y-13092500D01*
X7565320Y-18411120D02*
X7715320Y-18561120D01*
X7715320Y-18411120D02*
X7565320Y-18561120D01*
X7640320Y-18561120D02*
X7715320Y-18486120D01*
X7640320Y-18411120D01*
X7565320Y-18486120D01*
X7640320Y-18561120D01*
X7641520Y-14850040D02*
X7791520Y-15000040D01*
X7791520Y-14850040D02*
X7641520Y-15000040D01*
X7716520Y-15000040D02*
X7791520Y-14925040D01*
X7716520Y-14850040D01*
X7641520Y-14925040D01*
X7716520Y-15000040D01*
X7804080Y-12688500D02*
X7954080Y-12838500D01*
X7954080Y-12688500D02*
X7804080Y-12838500D01*
X7879080Y-12838500D02*
X7954080Y-12763500D01*
X7879080Y-12688500D01*
X7804080Y-12763500D01*
X7879080Y-12838500D01*
X8116500Y-8230800D02*
X8266500Y-8380800D01*
X8266500Y-8230800D02*
X8116500Y-8380800D01*
X8191500Y-8380800D02*
X8266500Y-8305800D01*
X8191500Y-8230800D01*
X8116500Y-8305800D01*
X8191500Y-8380800D01*
X8119040Y-11042580D02*
X8269040Y-11192580D01*
X8269040Y-11042580D02*
X8119040Y-11192580D01*
X8194040Y-11192580D02*
X8269040Y-11117580D01*
X8194040Y-11042580D01*
X8119040Y-11117580D01*
X8194040Y-11192580D01*
X8276520Y-14596040D02*
X8426520Y-14746040D01*
X8426520Y-14596040D02*
X8276520Y-14746040D01*
X8351520Y-14746040D02*
X8426520Y-14671040D01*
X8351520Y-14596040D01*
X8276520Y-14671040D01*
X8351520Y-14746040D01*
X8594020Y-16752500D02*
X8744020Y-16902500D01*
X8744020Y-16752500D02*
X8594020Y-16902500D01*
X8669020Y-16902500D02*
X8744020Y-16827500D01*
X8669020Y-16752500D01*
X8594020Y-16827500D01*
X8669020Y-16902500D01*
X8751500Y-7976800D02*
X8901500Y-8126800D01*
X8901500Y-7976800D02*
X8751500Y-8126800D01*
X8826500Y-8126800D02*
X8901500Y-8051800D01*
X8826500Y-7976800D01*
X8751500Y-8051800D01*
X8826500Y-8126800D01*
X8754040Y-10788580D02*
X8904040Y-10938580D01*
X8904040Y-10788580D02*
X8754040Y-10938580D01*
X8829040Y-10938580D02*
X8904040Y-10863580D01*
X8829040Y-10788580D01*
X8754040Y-10863580D01*
X8829040Y-10938580D01*
X9074080Y-12942500D02*
X9224080Y-13092500D01*
X9224080Y-12942500D02*
X9074080Y-13092500D01*
X9149080Y-13092500D02*
X9224080Y-13017500D01*
X9149080Y-12942500D01*
X9074080Y-13017500D01*
X9149080Y-13092500D01*
X9229020Y-16498500D02*
X9379020Y-16648500D01*
X9379020Y-16498500D02*
X9229020Y-16648500D01*
X9304020Y-16648500D02*
X9379020Y-16573500D01*
X9304020Y-16498500D01*
X9229020Y-16573500D01*
X9304020Y-16648500D01*
X9310300Y-18665120D02*
X9460300Y-18815120D01*
X9460300Y-18665120D02*
X9310300Y-18815120D01*
X9385300Y-18815120D02*
X9460300Y-18740120D01*
X9385300Y-18665120D01*
X9310300Y-18740120D01*
X9385300Y-18815120D01*
X9546520Y-14850040D02*
X9696520Y-15000040D01*
X9696520Y-14850040D02*
X9546520Y-15000040D01*
X9621520Y-15000040D02*
X9696520Y-14925040D01*
X9621520Y-14850040D01*
X9546520Y-14925040D01*
X9621520Y-15000040D01*
X9709080Y-12688500D02*
X9859080Y-12838500D01*
X9859080Y-12688500D02*
X9709080Y-12838500D01*
X9784080Y-12838500D02*
X9859080Y-12763500D01*
X9784080Y-12688500D01*
X9709080Y-12763500D01*
X9784080Y-12838500D01*
X9945300Y-18411120D02*
X10095300Y-18561120D01*
X10095300Y-18411120D02*
X9945300Y-18561120D01*
X10020300Y-18561120D02*
X10095300Y-18486120D01*
X10020300Y-18411120D01*
X9945300Y-18486120D01*
X10020300Y-18561120D01*
X10021500Y-8230800D02*
X10171500Y-8380800D01*
X10171500Y-8230800D02*
X10021500Y-8380800D01*
X10096500Y-8380800D02*
X10171500Y-8305800D01*
X10096500Y-8230800D01*
X10021500Y-8305800D01*
X10096500Y-8380800D01*
X10024040Y-11042580D02*
X10174040Y-11192580D01*
X10174040Y-11042580D02*
X10024040Y-11192580D01*
X10099040Y-11192580D02*
X10174040Y-11117580D01*
X10099040Y-11042580D01*
X10024040Y-11117580D01*
X10099040Y-11192580D01*
X10181520Y-14596040D02*
X10331520Y-14746040D01*
X10331520Y-14596040D02*
X10181520Y-14746040D01*
X10256520Y-14746040D02*
X10331520Y-14671040D01*
X10256520Y-14596040D01*
X10181520Y-14671040D01*
X10256520Y-14746040D01*
X10499020Y-16752500D02*
X10649020Y-16902500D01*
X10649020Y-16752500D02*
X10499020Y-16902500D01*
X10574020Y-16902500D02*
X10649020Y-16827500D01*
X10574020Y-16752500D01*
X10499020Y-16827500D01*
X10574020Y-16902500D01*
X10656500Y-7976800D02*
X10806500Y-8126800D01*
X10806500Y-7976800D02*
X10656500Y-8126800D01*
X10731500Y-8126800D02*
X10806500Y-8051800D01*
X10731500Y-7976800D01*
X10656500Y-8051800D01*
X10731500Y-8126800D01*
X10659040Y-10788580D02*
X10809040Y-10938580D01*
X10809040Y-10788580D02*
X10659040Y-10938580D01*
X10734040Y-10938580D02*
X10809040Y-10863580D01*
X10734040Y-10788580D01*
X10659040Y-10863580D01*
X10734040Y-10938580D01*
X10979080Y-12942500D02*
X11129080Y-13092500D01*
X11129080Y-12942500D02*
X10979080Y-13092500D01*
X11054080Y-13092500D02*
X11129080Y-13017500D01*
X11054080Y-12942500D01*
X10979080Y-13017500D01*
X11054080Y-13092500D01*
X11134020Y-16498500D02*
X11284020Y-16648500D01*
X11284020Y-16498500D02*
X11134020Y-16648500D01*
X11209020Y-16648500D02*
X11284020Y-16573500D01*
X11209020Y-16498500D01*
X11134020Y-16573500D01*
X11209020Y-16648500D01*
X11451520Y-14850040D02*
X11601520Y-15000040D01*
X11601520Y-14850040D02*
X11451520Y-15000040D01*
X11526520Y-15000040D02*
X11601520Y-14925040D01*
X11526520Y-14850040D01*
X11451520Y-14925040D01*
X11526520Y-15000040D01*
X11614080Y-12688500D02*
X11764080Y-12838500D01*
X11764080Y-12688500D02*
X11614080Y-12838500D01*
X11689080Y-12838500D02*
X11764080Y-12763500D01*
X11689080Y-12688500D01*
X11614080Y-12763500D01*
X11689080Y-12838500D01*
X11926500Y-8230800D02*
X12076500Y-8380800D01*
X12076500Y-8230800D02*
X11926500Y-8380800D01*
X12001500Y-8380800D02*
X12076500Y-8305800D01*
X12001500Y-8230800D01*
X11926500Y-8305800D01*
X12001500Y-8380800D01*
X11929040Y-11042580D02*
X12079040Y-11192580D01*
X12079040Y-11042580D02*
X11929040Y-11192580D01*
X12004040Y-11192580D02*
X12079040Y-11117580D01*
X12004040Y-11042580D01*
X11929040Y-11117580D01*
X12004040Y-11192580D01*
X12086520Y-14596040D02*
X12236520Y-14746040D01*
X12236520Y-14596040D02*
X12086520Y-14746040D01*
X12161520Y-14746040D02*
X12236520Y-14671040D01*
X12161520Y-14596040D01*
X12086520Y-14671040D01*
X12161520Y-14746040D01*
X12404020Y-16752500D02*
X12554020Y-16902500D01*
X12554020Y-16752500D02*
X12404020Y-16902500D01*
X12479020Y-16902500D02*
X12554020Y-16827500D01*
X12479020Y-16752500D01*
X12404020Y-16827500D01*
X12479020Y-16902500D01*
X12561500Y-7976800D02*
X12711500Y-8126800D01*
X12711500Y-7976800D02*
X12561500Y-8126800D01*
X12636500Y-8126800D02*
X12711500Y-8051800D01*
X12636500Y-7976800D01*
X12561500Y-8051800D01*
X12636500Y-8126800D01*
X12564040Y-10788580D02*
X12714040Y-10938580D01*
X12714040Y-10788580D02*
X12564040Y-10938580D01*
X12639040Y-10938580D02*
X12714040Y-10863580D01*
X12639040Y-10788580D01*
X12564040Y-10863580D01*
X12639040Y-10938580D01*
X12884080Y-12942500D02*
X13034080Y-13092500D01*
X13034080Y-12942500D02*
X12884080Y-13092500D01*
X12959080Y-13092500D02*
X13034080Y-13017500D01*
X12959080Y-12942500D01*
X12884080Y-13017500D01*
X12959080Y-13092500D01*
X13039020Y-16498500D02*
X13189020Y-16648500D01*
X13189020Y-16498500D02*
X13039020Y-16648500D01*
X13114020Y-16648500D02*
X13189020Y-16573500D01*
X13114020Y-16498500D01*
X13039020Y-16573500D01*
X13114020Y-16648500D01*
X13356520Y-14850040D02*
X13506520Y-15000040D01*
X13506520Y-14850040D02*
X13356520Y-15000040D01*
X13431520Y-15000040D02*
X13506520Y-14925040D01*
X13431520Y-14850040D01*
X13356520Y-14925040D01*
X13431520Y-15000040D01*
X13519080Y-12688500D02*
X13669080Y-12838500D01*
X13669080Y-12688500D02*
X13519080Y-12838500D01*
X13594080Y-12838500D02*
X13669080Y-12763500D01*
X13594080Y-12688500D01*
X13519080Y-12763500D01*
X13594080Y-12838500D01*
X13831500Y-8230800D02*
X13981500Y-8380800D01*
X13981500Y-8230800D02*
X13831500Y-8380800D01*
X13906500Y-8380800D02*
X13981500Y-8305800D01*
X13906500Y-8230800D01*
X13831500Y-8305800D01*
X13906500Y-8380800D01*
X13834040Y-11042580D02*
X13984040Y-11192580D01*
X13984040Y-11042580D02*
X13834040Y-11192580D01*
X13909040Y-11192580D02*
X13984040Y-11117580D01*
X13909040Y-11042580D01*
X13834040Y-11117580D01*
X13909040Y-11192580D01*
X13991520Y-14596040D02*
X14141520Y-14746040D01*
X14141520Y-14596040D02*
X13991520Y-14746040D01*
X14066520Y-14746040D02*
X14141520Y-14671040D01*
X14066520Y-14596040D01*
X13991520Y-14671040D01*
X14066520Y-14746040D01*
X14309020Y-16752500D02*
X14459020Y-16902500D01*
X14459020Y-16752500D02*
X14309020Y-16902500D01*
X14384020Y-16902500D02*
X14459020Y-16827500D01*
X14384020Y-16752500D01*
X14309020Y-16827500D01*
X14384020Y-16902500D01*
X14466500Y-7976800D02*
X14616500Y-8126800D01*
X14616500Y-7976800D02*
X14466500Y-8126800D01*
X14541500Y-8126800D02*
X14616500Y-8051800D01*
X14541500Y-7976800D01*
X14466500Y-8051800D01*
X14541500Y-8126800D01*
X14469040Y-10788580D02*
X14619040Y-10938580D01*
X14619040Y-10788580D02*
X14469040Y-10938580D01*
X14544040Y-10938580D02*
X14619040Y-10863580D01*
X14544040Y-10788580D01*
X14469040Y-10863580D01*
X14544040Y-10938580D01*
X14789080Y-12942500D02*
X14939080Y-13092500D01*
X14939080Y-12942500D02*
X14789080Y-13092500D01*
X14864080Y-13092500D02*
X14939080Y-13017500D01*
X14864080Y-12942500D01*
X14789080Y-13017500D01*
X14864080Y-13092500D01*
X14944020Y-16498500D02*
X15094020Y-16648500D01*
X15094020Y-16498500D02*
X14944020Y-16648500D01*
X15019020Y-16648500D02*
X15094020Y-16573500D01*
X15019020Y-16498500D01*
X14944020Y-16573500D01*
X15019020Y-16648500D01*
X15261520Y-14850040D02*
X15411520Y-15000040D01*
X15411520Y-14850040D02*
X15261520Y-15000040D01*
X15336520Y-15000040D02*
X15411520Y-14925040D01*
X15336520Y-14850040D01*
X15261520Y-14925040D01*
X15336520Y-15000040D01*
X15424080Y-12688500D02*
X15574080Y-12838500D01*
X15574080Y-12688500D02*
X15424080Y-12838500D01*
X15499080Y-12838500D02*
X15574080Y-12763500D01*
X15499080Y-12688500D01*
X15424080Y-12763500D01*
X15499080Y-12838500D01*
X15739040Y-11042580D02*
X15889040Y-11192580D01*
X15889040Y-11042580D02*
X15739040Y-11192580D01*
X15814040Y-11192580D02*
X15889040Y-11117580D01*
X15814040Y-11042580D01*
X15739040Y-11117580D01*
X15814040Y-11192580D01*
X15896520Y-14596040D02*
X16046520Y-14746040D01*
X16046520Y-14596040D02*
X15896520Y-14746040D01*
X15971520Y-14746040D02*
X16046520Y-14671040D01*
X15971520Y-14596040D01*
X15896520Y-14671040D01*
X15971520Y-14746040D01*
X16214020Y-16752500D02*
X16364020Y-16902500D01*
X16364020Y-16752500D02*
X16214020Y-16902500D01*
X16289020Y-16902500D02*
X16364020Y-16827500D01*
X16289020Y-16752500D01*
X16214020Y-16827500D01*
X16289020Y-16902500D01*
X16374040Y-10788580D02*
X16524040Y-10938580D01*
X16524040Y-10788580D02*
X16374040Y-10938580D01*
X16449040Y-10938580D02*
X16524040Y-10863580D01*
X16449040Y-10788580D01*
X16374040Y-10863580D01*
X16449040Y-10938580D01*
X16452780Y-18665120D02*
X16602780Y-18815120D01*
X16602780Y-18665120D02*
X16452780Y-18815120D01*
X16527780Y-18815120D02*
X16602780Y-18740120D01*
X16527780Y-18665120D01*
X16452780Y-18740120D01*
X16527780Y-18815120D01*
X16689000Y-8230800D02*
X16839000Y-8380800D01*
X16839000Y-8230800D02*
X16689000Y-8380800D01*
X16764000Y-8380800D02*
X16839000Y-8305800D01*
X16764000Y-8230800D01*
X16689000Y-8305800D01*
X16764000Y-8380800D01*
X16694080Y-12942500D02*
X16844080Y-13092500D01*
X16844080Y-12942500D02*
X16694080Y-13092500D01*
X16769080Y-13092500D02*
X16844080Y-13017500D01*
X16769080Y-12942500D01*
X16694080Y-13017500D01*
X16769080Y-13092500D01*
X16849020Y-16498500D02*
X16999020Y-16648500D01*
X16999020Y-16498500D02*
X16849020Y-16648500D01*
X16924020Y-16648500D02*
X16999020Y-16573500D01*
X16924020Y-16498500D01*
X16849020Y-16573500D01*
X16924020Y-16648500D01*
X17087780Y-18411120D02*
X17237780Y-18561120D01*
X17237780Y-18411120D02*
X17087780Y-18561120D01*
X17162780Y-18561120D02*
X17237780Y-18486120D01*
X17162780Y-18411120D01*
X17087780Y-18486120D01*
X17162780Y-18561120D01*
X17166520Y-14850040D02*
X17316520Y-15000040D01*
X17316520Y-14850040D02*
X17166520Y-15000040D01*
X17241520Y-15000040D02*
X17316520Y-14925040D01*
X17241520Y-14850040D01*
X17166520Y-14925040D01*
X17241520Y-15000040D01*
X17324000Y-7976800D02*
X17474000Y-8126800D01*
X17474000Y-7976800D02*
X17324000Y-8126800D01*
X17399000Y-8126800D02*
X17474000Y-8051800D01*
X17399000Y-7976800D01*
X17324000Y-8051800D01*
X17399000Y-8126800D01*
X17329080Y-12688500D02*
X17479080Y-12838500D01*
X17479080Y-12688500D02*
X17329080Y-12838500D01*
X17404080Y-12838500D02*
X17479080Y-12763500D01*
X17404080Y-12688500D01*
X17329080Y-12763500D01*
X17404080Y-12838500D01*
X17644040Y-11042580D02*
X17794040Y-11192580D01*
X17794040Y-11042580D02*
X17644040Y-11192580D01*
X17719040Y-11192580D02*
X17794040Y-11117580D01*
X17719040Y-11042580D01*
X17644040Y-11117580D01*
X17719040Y-11192580D01*
X17801520Y-14596040D02*
X17951520Y-14746040D01*
X17951520Y-14596040D02*
X17801520Y-14746040D01*
X17876520Y-14746040D02*
X17951520Y-14671040D01*
X17876520Y-14596040D01*
X17801520Y-14671040D01*
X17876520Y-14746040D01*
X18119020Y-16752500D02*
X18269020Y-16902500D01*
X18269020Y-16752500D02*
X18119020Y-16902500D01*
X18194020Y-16902500D02*
X18269020Y-16827500D01*
X18194020Y-16752500D01*
X18119020Y-16827500D01*
X18194020Y-16902500D01*
X18279040Y-10788580D02*
X18429040Y-10938580D01*
X18429040Y-10788580D02*
X18279040Y-10938580D01*
X18354040Y-10938580D02*
X18429040Y-10863580D01*
X18354040Y-10788580D01*
X18279040Y-10863580D01*
X18354040Y-10938580D01*
X18594000Y-8230800D02*
X18744000Y-8380800D01*
X18744000Y-8230800D02*
X18594000Y-8380800D01*
X18669000Y-8380800D02*
X18744000Y-8305800D01*
X18669000Y-8230800D01*
X18594000Y-8305800D01*
X18669000Y-8380800D01*
X18599080Y-12942500D02*
X18749080Y-13092500D01*
X18749080Y-12942500D02*
X18599080Y-13092500D01*
X18674080Y-13092500D02*
X18749080Y-13017500D01*
X18674080Y-12942500D01*
X18599080Y-13017500D01*
X18674080Y-13092500D01*
X18754020Y-16498500D02*
X18904020Y-16648500D01*
X18904020Y-16498500D02*
X18754020Y-16648500D01*
X18829020Y-16648500D02*
X18904020Y-16573500D01*
X18829020Y-16498500D01*
X18754020Y-16573500D01*
X18829020Y-16648500D01*
X19071520Y-14850040D02*
X19221520Y-15000040D01*
X19221520Y-14850040D02*
X19071520Y-15000040D01*
X19146520Y-15000040D02*
X19221520Y-14925040D01*
X19146520Y-14850040D01*
X19071520Y-14925040D01*
X19146520Y-15000040D01*
X19229000Y-7976800D02*
X19379000Y-8126800D01*
X19379000Y-7976800D02*
X19229000Y-8126800D01*
X19304000Y-8126800D02*
X19379000Y-8051800D01*
X19304000Y-7976800D01*
X19229000Y-8051800D01*
X19304000Y-8126800D01*
X19234080Y-12688500D02*
X19384080Y-12838500D01*
X19384080Y-12688500D02*
X19234080Y-12838500D01*
X19309080Y-12838500D02*
X19384080Y-12763500D01*
X19309080Y-12688500D01*
X19234080Y-12763500D01*
X19309080Y-12838500D01*
X19549040Y-11042580D02*
X19699040Y-11192580D01*
X19699040Y-11042580D02*
X19549040Y-11192580D01*
X19624040Y-11192580D02*
X19699040Y-11117580D01*
X19624040Y-11042580D01*
X19549040Y-11117580D01*
X19624040Y-11192580D01*
X19706520Y-14596040D02*
X19856520Y-14746040D01*
X19856520Y-14596040D02*
X19706520Y-14746040D01*
X19781520Y-14746040D02*
X19856520Y-14671040D01*
X19781520Y-14596040D01*
X19706520Y-14671040D01*
X19781520Y-14746040D01*
X20024020Y-16752500D02*
X20174020Y-16902500D01*
X20174020Y-16752500D02*
X20024020Y-16902500D01*
X20099020Y-16902500D02*
X20174020Y-16827500D01*
X20099020Y-16752500D01*
X20024020Y-16827500D01*
X20099020Y-16902500D01*
X20184040Y-10788580D02*
X20334040Y-10938580D01*
X20334040Y-10788580D02*
X20184040Y-10938580D01*
X20259040Y-10938580D02*
X20334040Y-10863580D01*
X20259040Y-10788580D01*
X20184040Y-10863580D01*
X20259040Y-10938580D01*
X20499000Y-8230800D02*
X20649000Y-8380800D01*
X20649000Y-8230800D02*
X20499000Y-8380800D01*
X20574000Y-8380800D02*
X20649000Y-8305800D01*
X20574000Y-8230800D01*
X20499000Y-8305800D01*
X20574000Y-8380800D01*
X20504080Y-12942500D02*
X20654080Y-13092500D01*
X20654080Y-12942500D02*
X20504080Y-13092500D01*
X20579080Y-13092500D02*
X20654080Y-13017500D01*
X20579080Y-12942500D01*
X20504080Y-13017500D01*
X20579080Y-13092500D01*
X20659020Y-16498500D02*
X20809020Y-16648500D01*
X20809020Y-16498500D02*
X20659020Y-16648500D01*
X20734020Y-16648500D02*
X20809020Y-16573500D01*
X20734020Y-16498500D01*
X20659020Y-16573500D01*
X20734020Y-16648500D01*
X20976520Y-14850040D02*
X21126520Y-15000040D01*
X21126520Y-14850040D02*
X20976520Y-15000040D01*
X21051520Y-15000040D02*
X21126520Y-14925040D01*
X21051520Y-14850040D01*
X20976520Y-14925040D01*
X21051520Y-15000040D01*
X21134000Y-7976800D02*
X21284000Y-8126800D01*
X21284000Y-7976800D02*
X21134000Y-8126800D01*
X21209000Y-8126800D02*
X21284000Y-8051800D01*
X21209000Y-7976800D01*
X21134000Y-8051800D01*
X21209000Y-8126800D01*
X21139080Y-12688500D02*
X21289080Y-12838500D01*
X21289080Y-12688500D02*
X21139080Y-12838500D01*
X21214080Y-12838500D02*
X21289080Y-12763500D01*
X21214080Y-12688500D01*
X21139080Y-12763500D01*
X21214080Y-12838500D01*
X21454040Y-11042580D02*
X21604040Y-11192580D01*
X21604040Y-11042580D02*
X21454040Y-11192580D01*
X21529040Y-11192580D02*
X21604040Y-11117580D01*
X21529040Y-11042580D01*
X21454040Y-11117580D01*
X21529040Y-11192580D01*
X21611520Y-14596040D02*
X21761520Y-14746040D01*
X21761520Y-14596040D02*
X21611520Y-14746040D01*
X21686520Y-14746040D02*
X21761520Y-14671040D01*
X21686520Y-14596040D01*
X21611520Y-14671040D01*
X21686520Y-14746040D01*
X21929020Y-16752500D02*
X22079020Y-16902500D01*
X22079020Y-16752500D02*
X21929020Y-16902500D01*
X22004020Y-16902500D02*
X22079020Y-16827500D01*
X22004020Y-16752500D01*
X21929020Y-16827500D01*
X22004020Y-16902500D01*
X22089040Y-10788580D02*
X22239040Y-10938580D01*
X22239040Y-10788580D02*
X22089040Y-10938580D01*
X22164040Y-10938580D02*
X22239040Y-10863580D01*
X22164040Y-10788580D01*
X22089040Y-10863580D01*
X22164040Y-10938580D01*
X22404000Y-8230800D02*
X22554000Y-8380800D01*
X22554000Y-8230800D02*
X22404000Y-8380800D01*
X22479000Y-8380800D02*
X22554000Y-8305800D01*
X22479000Y-8230800D01*
X22404000Y-8305800D01*
X22479000Y-8380800D01*
X22409080Y-12942500D02*
X22559080Y-13092500D01*
X22559080Y-12942500D02*
X22409080Y-13092500D01*
X22484080Y-13092500D02*
X22559080Y-13017500D01*
X22484080Y-12942500D01*
X22409080Y-13017500D01*
X22484080Y-13092500D01*
X22564020Y-16498500D02*
X22714020Y-16648500D01*
X22714020Y-16498500D02*
X22564020Y-16648500D01*
X22639020Y-16648500D02*
X22714020Y-16573500D01*
X22639020Y-16498500D01*
X22564020Y-16573500D01*
X22639020Y-16648500D01*
X22881520Y-14850040D02*
X23031520Y-15000040D01*
X23031520Y-14850040D02*
X22881520Y-15000040D01*
X22956520Y-15000040D02*
X23031520Y-14925040D01*
X22956520Y-14850040D01*
X22881520Y-14925040D01*
X22956520Y-15000040D01*
X23039000Y-7976800D02*
X23189000Y-8126800D01*
X23189000Y-7976800D02*
X23039000Y-8126800D01*
X23114000Y-8126800D02*
X23189000Y-8051800D01*
X23114000Y-7976800D01*
X23039000Y-8051800D01*
X23114000Y-8126800D01*
X23044080Y-12688500D02*
X23194080Y-12838500D01*
X23194080Y-12688500D02*
X23044080Y-12838500D01*
X23119080Y-12838500D02*
X23194080Y-12763500D01*
X23119080Y-12688500D01*
X23044080Y-12763500D01*
X23119080Y-12838500D01*
X23359040Y-11042580D02*
X23509040Y-11192580D01*
X23509040Y-11042580D02*
X23359040Y-11192580D01*
X23434040Y-11192580D02*
X23509040Y-11117580D01*
X23434040Y-11042580D01*
X23359040Y-11117580D01*
X23434040Y-11192580D01*
X23516520Y-14596040D02*
X23666520Y-14746040D01*
X23666520Y-14596040D02*
X23516520Y-14746040D01*
X23591520Y-14746040D02*
X23666520Y-14671040D01*
X23591520Y-14596040D01*
X23516520Y-14671040D01*
X23591520Y-14746040D01*
X23587640Y-18665120D02*
X23737640Y-18815120D01*
X23737640Y-18665120D02*
X23587640Y-18815120D01*
X23662640Y-18815120D02*
X23737640Y-18740120D01*
X23662640Y-18665120D01*
X23587640Y-18740120D01*
X23662640Y-18815120D01*
X23834020Y-16752500D02*
X23984020Y-16902500D01*
X23984020Y-16752500D02*
X23834020Y-16902500D01*
X23909020Y-16902500D02*
X23984020Y-16827500D01*
X23909020Y-16752500D01*
X23834020Y-16827500D01*
X23909020Y-16902500D01*
X23994040Y-10788580D02*
X24144040Y-10938580D01*
X24144040Y-10788580D02*
X23994040Y-10938580D01*
X24069040Y-10938580D02*
X24144040Y-10863580D01*
X24069040Y-10788580D01*
X23994040Y-10863580D01*
X24069040Y-10938580D01*
X24222640Y-18411120D02*
X24372640Y-18561120D01*
X24372640Y-18411120D02*
X24222640Y-18561120D01*
X24297640Y-18561120D02*
X24372640Y-18486120D01*
X24297640Y-18411120D01*
X24222640Y-18486120D01*
X24297640Y-18561120D01*
X24314080Y-12942500D02*
X24464080Y-13092500D01*
X24464080Y-12942500D02*
X24314080Y-13092500D01*
X24389080Y-13092500D02*
X24464080Y-13017500D01*
X24389080Y-12942500D01*
X24314080Y-13017500D01*
X24389080Y-13092500D01*
X24469020Y-16498500D02*
X24619020Y-16648500D01*
X24619020Y-16498500D02*
X24469020Y-16648500D01*
X24544020Y-16648500D02*
X24619020Y-16573500D01*
X24544020Y-16498500D01*
X24469020Y-16573500D01*
X24544020Y-16648500D01*
X24786520Y-14850040D02*
X24936520Y-15000040D01*
X24936520Y-14850040D02*
X24786520Y-15000040D01*
X24861520Y-15000040D02*
X24936520Y-14925040D01*
X24861520Y-14850040D01*
X24786520Y-14925040D01*
X24861520Y-15000040D01*
X24949080Y-12688500D02*
X25099080Y-12838500D01*
X25099080Y-12688500D02*
X24949080Y-12838500D01*
X25024080Y-12838500D02*
X25099080Y-12763500D01*
X25024080Y-12688500D01*
X24949080Y-12763500D01*
X25024080Y-12838500D01*
X25261500Y-8230800D02*
X25411500Y-8380800D01*
X25411500Y-8230800D02*
X25261500Y-8380800D01*
X25336500Y-8380800D02*
X25411500Y-8305800D01*
X25336500Y-8230800D01*
X25261500Y-8305800D01*
X25336500Y-8380800D01*
X25264040Y-11042580D02*
X25414040Y-11192580D01*
X25414040Y-11042580D02*
X25264040Y-11192580D01*
X25339040Y-11192580D02*
X25414040Y-11117580D01*
X25339040Y-11042580D01*
X25264040Y-11117580D01*
X25339040Y-11192580D01*
X25421520Y-14596040D02*
X25571520Y-14746040D01*
X25571520Y-14596040D02*
X25421520Y-14746040D01*
X25496520Y-14746040D02*
X25571520Y-14671040D01*
X25496520Y-14596040D01*
X25421520Y-14671040D01*
X25496520Y-14746040D01*
X25739020Y-16752500D02*
X25889020Y-16902500D01*
X25889020Y-16752500D02*
X25739020Y-16902500D01*
X25814020Y-16902500D02*
X25889020Y-16827500D01*
X25814020Y-16752500D01*
X25739020Y-16827500D01*
X25814020Y-16902500D01*
X25896500Y-7976800D02*
X26046500Y-8126800D01*
X26046500Y-7976800D02*
X25896500Y-8126800D01*
X25971500Y-8126800D02*
X26046500Y-8051800D01*
X25971500Y-7976800D01*
X25896500Y-8051800D01*
X25971500Y-8126800D01*
X25899040Y-10788580D02*
X26049040Y-10938580D01*
X26049040Y-10788580D02*
X25899040Y-10938580D01*
X25974040Y-10938580D02*
X26049040Y-10863580D01*
X25974040Y-10788580D01*
X25899040Y-10863580D01*
X25974040Y-10938580D01*
X25975240Y-18665120D02*
X26125240Y-18815120D01*
X26125240Y-18665120D02*
X25975240Y-18815120D01*
X26050240Y-18815120D02*
X26125240Y-18740120D01*
X26050240Y-18665120D01*
X25975240Y-18740120D01*
X26050240Y-18815120D01*
X26219080Y-12942500D02*
X26369080Y-13092500D01*
X26369080Y-12942500D02*
X26219080Y-13092500D01*
X26294080Y-13092500D02*
X26369080Y-13017500D01*
X26294080Y-12942500D01*
X26219080Y-13017500D01*
X26294080Y-13092500D01*
X26374020Y-16498500D02*
X26524020Y-16648500D01*
X26524020Y-16498500D02*
X26374020Y-16648500D01*
X26449020Y-16648500D02*
X26524020Y-16573500D01*
X26449020Y-16498500D01*
X26374020Y-16573500D01*
X26449020Y-16648500D01*
X26610240Y-18411120D02*
X26760240Y-18561120D01*
X26760240Y-18411120D02*
X26610240Y-18561120D01*
X26685240Y-18561120D02*
X26760240Y-18486120D01*
X26685240Y-18411120D01*
X26610240Y-18486120D01*
X26685240Y-18561120D01*
X26691520Y-14850040D02*
X26841520Y-15000040D01*
X26841520Y-14850040D02*
X26691520Y-15000040D01*
X26766520Y-15000040D02*
X26841520Y-14925040D01*
X26766520Y-14850040D01*
X26691520Y-14925040D01*
X26766520Y-15000040D01*
X26854080Y-12688500D02*
X27004080Y-12838500D01*
X27004080Y-12688500D02*
X26854080Y-12838500D01*
X26929080Y-12838500D02*
X27004080Y-12763500D01*
X26929080Y-12688500D01*
X26854080Y-12763500D01*
X26929080Y-12838500D01*
X27166500Y-8230800D02*
X27316500Y-8380800D01*
X27316500Y-8230800D02*
X27166500Y-8380800D01*
X27241500Y-8380800D02*
X27316500Y-8305800D01*
X27241500Y-8230800D01*
X27166500Y-8305800D01*
X27241500Y-8380800D01*
X27169040Y-11042580D02*
X27319040Y-11192580D01*
X27319040Y-11042580D02*
X27169040Y-11192580D01*
X27244040Y-11192580D02*
X27319040Y-11117580D01*
X27244040Y-11042580D01*
X27169040Y-11117580D01*
X27244040Y-11192580D01*
X27326520Y-14596040D02*
X27476520Y-14746040D01*
X27476520Y-14596040D02*
X27326520Y-14746040D01*
X27401520Y-14746040D02*
X27476520Y-14671040D01*
X27401520Y-14596040D01*
X27326520Y-14671040D01*
X27401520Y-14746040D01*
X27801500Y-7976800D02*
X27951500Y-8126800D01*
X27951500Y-7976800D02*
X27801500Y-8126800D01*
X27876500Y-8126800D02*
X27951500Y-8051800D01*
X27876500Y-7976800D01*
X27801500Y-8051800D01*
X27876500Y-8126800D01*
X27804040Y-10788580D02*
X27954040Y-10938580D01*
X27954040Y-10788580D02*
X27804040Y-10938580D01*
X27879040Y-10938580D02*
X27954040Y-10863580D01*
X27879040Y-10788580D01*
X27804040Y-10863580D01*
X27879040Y-10938580D01*
X28124080Y-12942500D02*
X28274080Y-13092500D01*
X28274080Y-12942500D02*
X28124080Y-13092500D01*
X28199080Y-13092500D02*
X28274080Y-13017500D01*
X28199080Y-12942500D01*
X28124080Y-13017500D01*
X28199080Y-13092500D01*
X28360300Y-18665120D02*
X28510300Y-18815120D01*
X28510300Y-18665120D02*
X28360300Y-18815120D01*
X28435300Y-18815120D02*
X28510300Y-18740120D01*
X28435300Y-18665120D01*
X28360300Y-18740120D01*
X28435300Y-18815120D01*
X28759080Y-12688500D02*
X28909080Y-12838500D01*
X28909080Y-12688500D02*
X28759080Y-12838500D01*
X28834080Y-12838500D02*
X28909080Y-12763500D01*
X28834080Y-12688500D01*
X28759080Y-12763500D01*
X28834080Y-12838500D01*
X28995300Y-18411120D02*
X29145300Y-18561120D01*
X29145300Y-18411120D02*
X28995300Y-18561120D01*
X29070300Y-18561120D02*
X29145300Y-18486120D01*
X29070300Y-18411120D01*
X28995300Y-18486120D01*
X29070300Y-18561120D01*
X29071500Y-8230800D02*
X29221500Y-8380800D01*
X29221500Y-8230800D02*
X29071500Y-8380800D01*
X29146500Y-8380800D02*
X29221500Y-8305800D01*
X29146500Y-8230800D01*
X29071500Y-8305800D01*
X29146500Y-8380800D01*
X29317880Y-16752500D02*
X29467880Y-16902500D01*
X29467880Y-16752500D02*
X29317880Y-16902500D01*
X29392880Y-16902500D02*
X29467880Y-16827500D01*
X29392880Y-16752500D01*
X29317880Y-16827500D01*
X29392880Y-16902500D01*
X29706500Y-7976800D02*
X29856500Y-8126800D01*
X29856500Y-7976800D02*
X29706500Y-8126800D01*
X29781500Y-8126800D02*
X29856500Y-8051800D01*
X29781500Y-7976800D01*
X29706500Y-8051800D01*
X29781500Y-8126800D01*
X29785240Y-14850040D02*
X29935240Y-15000040D01*
X29935240Y-14850040D02*
X29785240Y-15000040D01*
X29860240Y-15000040D02*
X29935240Y-14925040D01*
X29860240Y-14850040D01*
X29785240Y-14925040D01*
X29860240Y-15000040D01*
X29952880Y-16498500D02*
X30102880Y-16648500D01*
X30102880Y-16498500D02*
X29952880Y-16648500D01*
X30027880Y-16648500D02*
X30102880Y-16573500D01*
X30027880Y-16498500D01*
X29952880Y-16573500D01*
X30027880Y-16648500D01*
X30026540Y-11042580D02*
X30176540Y-11192580D01*
X30176540Y-11042580D02*
X30026540Y-11192580D01*
X30101540Y-11192580D02*
X30176540Y-11117580D01*
X30101540Y-11042580D01*
X30026540Y-11117580D01*
X30101540Y-11192580D01*
X30420240Y-14596040D02*
X30570240Y-14746040D01*
X30570240Y-14596040D02*
X30420240Y-14746040D01*
X30495240Y-14746040D02*
X30570240Y-14671040D01*
X30495240Y-14596040D01*
X30420240Y-14671040D01*
X30495240Y-14746040D01*
X30501520Y-12942500D02*
X30651520Y-13092500D01*
X30651520Y-12942500D02*
X30501520Y-13092500D01*
X30576520Y-13092500D02*
X30651520Y-13017500D01*
X30576520Y-12942500D01*
X30501520Y-13017500D01*
X30576520Y-13092500D01*
X30661540Y-10788580D02*
X30811540Y-10938580D01*
X30811540Y-10788580D02*
X30661540Y-10938580D01*
X30736540Y-10938580D02*
X30811540Y-10863580D01*
X30736540Y-10788580D01*
X30661540Y-10863580D01*
X30736540Y-10938580D01*
X30747900Y-18665120D02*
X30897900Y-18815120D01*
X30897900Y-18665120D02*
X30747900Y-18815120D01*
X30822900Y-18815120D02*
X30897900Y-18740120D01*
X30822900Y-18665120D01*
X30747900Y-18740120D01*
X30822900Y-18815120D01*
X30976500Y-8230800D02*
X31126500Y-8380800D01*
X31126500Y-8230800D02*
X30976500Y-8380800D01*
X31051500Y-8380800D02*
X31126500Y-8305800D01*
X31051500Y-8230800D01*
X30976500Y-8305800D01*
X31051500Y-8380800D01*
X31136520Y-12688500D02*
X31286520Y-12838500D01*
X31286520Y-12688500D02*
X31136520Y-12838500D01*
X31211520Y-12838500D02*
X31286520Y-12763500D01*
X31211520Y-12688500D01*
X31136520Y-12763500D01*
X31211520Y-12838500D01*
X31382900Y-18411120D02*
X31532900Y-18561120D01*
X31532900Y-18411120D02*
X31382900Y-18561120D01*
X31457900Y-18561120D02*
X31532900Y-18486120D01*
X31457900Y-18411120D01*
X31382900Y-18486120D01*
X31457900Y-18561120D01*
X31611500Y-7976800D02*
X31761500Y-8126800D01*
X31761500Y-7976800D02*
X31611500Y-8126800D01*
X31686500Y-8126800D02*
X31761500Y-8051800D01*
X31686500Y-7976800D01*
X31611500Y-8051800D01*
X31686500Y-8126800D01*
X33364100Y-8230800D02*
X33514100Y-8380800D01*
X33514100Y-8230800D02*
X33364100Y-8380800D01*
X33439100Y-8380800D02*
X33514100Y-8305800D01*
X33439100Y-8230800D01*
X33364100Y-8305800D01*
X33439100Y-8380800D01*
X33364100Y-18665120D02*
X33514100Y-18815120D01*
X33514100Y-18665120D02*
X33364100Y-18815120D01*
X33439100Y-18815120D02*
X33514100Y-18740120D01*
X33439100Y-18665120D01*
X33364100Y-18740120D01*
X33439100Y-18815120D01*
X33366640Y-11042580D02*
X33516640Y-11192580D01*
X33516640Y-11042580D02*
X33366640Y-11192580D01*
X33441640Y-11192580D02*
X33516640Y-11117580D01*
X33441640Y-11042580D01*
X33366640Y-11117580D01*
X33441640Y-11192580D01*
X33369180Y-12942500D02*
X33519180Y-13092500D01*
X33519180Y-12942500D02*
X33369180Y-13092500D01*
X33444180Y-13092500D02*
X33519180Y-13017500D01*
X33444180Y-12942500D01*
X33369180Y-13017500D01*
X33444180Y-13092500D01*
X33999100Y-7976800D02*
X34149100Y-8126800D01*
X34149100Y-7976800D02*
X33999100Y-8126800D01*
X34074100Y-8126800D02*
X34149100Y-8051800D01*
X34074100Y-7976800D01*
X33999100Y-8051800D01*
X34074100Y-8126800D01*
X33999100Y-18411120D02*
X34149100Y-18561120D01*
X34149100Y-18411120D02*
X33999100Y-18561120D01*
X34074100Y-18561120D02*
X34149100Y-18486120D01*
X34074100Y-18411120D01*
X33999100Y-18486120D01*
X34074100Y-18561120D01*
X34001640Y-10788580D02*
X34151640Y-10938580D01*
X34151640Y-10788580D02*
X34001640Y-10938580D01*
X34076640Y-10938580D02*
X34151640Y-10863580D01*
X34076640Y-10788580D01*
X34001640Y-10863580D01*
X34076640Y-10938580D01*
X34004180Y-12688500D02*
X34154180Y-12838500D01*
X34154180Y-12688500D02*
X34004180Y-12838500D01*
X34079180Y-12838500D02*
X34154180Y-12763500D01*
X34079180Y-12688500D01*
X34004180Y-12763500D01*
X34079180Y-12838500D01*
X35269100Y-8230800D02*
X35419100Y-8380800D01*
X35419100Y-8230800D02*
X35269100Y-8380800D01*
X35344100Y-8380800D02*
X35419100Y-8305800D01*
X35344100Y-8230800D01*
X35269100Y-8305800D01*
X35344100Y-8380800D01*
X35269100Y-16752500D02*
X35419100Y-16902500D01*
X35419100Y-16752500D02*
X35269100Y-16902500D01*
X35344100Y-16902500D02*
X35419100Y-16827500D01*
X35344100Y-16752500D01*
X35269100Y-16827500D01*
X35344100Y-16902500D01*
X35269100Y-18665120D02*
X35419100Y-18815120D01*
X35419100Y-18665120D02*
X35269100Y-18815120D01*
X35344100Y-18815120D02*
X35419100Y-18740120D01*
X35344100Y-18665120D01*
X35269100Y-18740120D01*
X35344100Y-18815120D01*
X35271640Y-11042580D02*
X35421640Y-11192580D01*
X35421640Y-11042580D02*
X35271640Y-11192580D01*
X35346640Y-11192580D02*
X35421640Y-11117580D01*
X35346640Y-11042580D01*
X35271640Y-11117580D01*
X35346640Y-11192580D01*
X35274180Y-12942500D02*
X35424180Y-13092500D01*
X35424180Y-12942500D02*
X35274180Y-13092500D01*
X35349180Y-13092500D02*
X35424180Y-13017500D01*
X35349180Y-12942500D01*
X35274180Y-13017500D01*
X35349180Y-13092500D01*
X35904100Y-7976800D02*
X36054100Y-8126800D01*
X36054100Y-7976800D02*
X35904100Y-8126800D01*
X35979100Y-8126800D02*
X36054100Y-8051800D01*
X35979100Y-7976800D01*
X35904100Y-8051800D01*
X35979100Y-8126800D01*
X35904100Y-16498500D02*
X36054100Y-16648500D01*
X36054100Y-16498500D02*
X35904100Y-16648500D01*
X35979100Y-16648500D02*
X36054100Y-16573500D01*
X35979100Y-16498500D01*
X35904100Y-16573500D01*
X35979100Y-16648500D01*
X35904100Y-18411120D02*
X36054100Y-18561120D01*
X36054100Y-18411120D02*
X35904100Y-18561120D01*
X35979100Y-18561120D02*
X36054100Y-18486120D01*
X35979100Y-18411120D01*
X35904100Y-18486120D01*
X35979100Y-18561120D01*
X35906640Y-10788580D02*
X36056640Y-10938580D01*
X36056640Y-10788580D02*
X35906640Y-10938580D01*
X35981640Y-10938580D02*
X36056640Y-10863580D01*
X35981640Y-10788580D01*
X35906640Y-10863580D01*
X35981640Y-10938580D01*
X35909180Y-12688500D02*
X36059180Y-12838500D01*
X36059180Y-12688500D02*
X35909180Y-12838500D01*
X35984180Y-12838500D02*
X36059180Y-12763500D01*
X35984180Y-12688500D01*
X35909180Y-12763500D01*
X35984180Y-12838500D01*
X37174100Y-8230800D02*
X37324100Y-8380800D01*
X37324100Y-8230800D02*
X37174100Y-8380800D01*
X37249100Y-8380800D02*
X37324100Y-8305800D01*
X37249100Y-8230800D01*
X37174100Y-8305800D01*
X37249100Y-8380800D01*
X37174100Y-18665120D02*
X37324100Y-18815120D01*
X37324100Y-18665120D02*
X37174100Y-18815120D01*
X37249100Y-18815120D02*
X37324100Y-18740120D01*
X37249100Y-18665120D01*
X37174100Y-18740120D01*
X37249100Y-18815120D01*
X37176640Y-11042580D02*
X37326640Y-11192580D01*
X37326640Y-11042580D02*
X37176640Y-11192580D01*
X37251640Y-11192580D02*
X37326640Y-11117580D01*
X37251640Y-11042580D01*
X37176640Y-11117580D01*
X37251640Y-11192580D01*
X37179180Y-12942500D02*
X37329180Y-13092500D01*
X37329180Y-12942500D02*
X37179180Y-13092500D01*
X37254180Y-13092500D02*
X37329180Y-13017500D01*
X37254180Y-12942500D01*
X37179180Y-13017500D01*
X37254180Y-13092500D01*
X37809100Y-7976800D02*
X37959100Y-8126800D01*
X37959100Y-7976800D02*
X37809100Y-8126800D01*
X37884100Y-8126800D02*
X37959100Y-8051800D01*
X37884100Y-7976800D01*
X37809100Y-8051800D01*
X37884100Y-8126800D01*
X37809100Y-18411120D02*
X37959100Y-18561120D01*
X37959100Y-18411120D02*
X37809100Y-18561120D01*
X37884100Y-18561120D02*
X37959100Y-18486120D01*
X37884100Y-18411120D01*
X37809100Y-18486120D01*
X37884100Y-18561120D01*
X37811640Y-10788580D02*
X37961640Y-10938580D01*
X37961640Y-10788580D02*
X37811640Y-10938580D01*
X37886640Y-10938580D02*
X37961640Y-10863580D01*
X37886640Y-10788580D01*
X37811640Y-10863580D01*
X37886640Y-10938580D01*
X37814180Y-12688500D02*
X37964180Y-12838500D01*
X37964180Y-12688500D02*
X37814180Y-12838500D01*
X37889180Y-12838500D02*
X37964180Y-12763500D01*
X37889180Y-12688500D01*
X37814180Y-12763500D01*
X37889180Y-12838500D01*
D11*
X4250579Y-20201136D02*
X4250579Y-20001136D01*
X4298198Y-20001136D01*
X4326770Y-20010660D01*
X4345817Y-20029708D01*
X4355341Y-20048755D01*
X4364865Y-20086850D01*
X4364865Y-20115422D01*
X4355341Y-20153517D01*
X4345817Y-20172565D01*
X4326770Y-20191612D01*
X4298198Y-20201136D01*
X4250579Y-20201136D01*
X4450579Y-20201136D02*
X4450579Y-20067803D01*
X4450579Y-20105898D02*
X4460103Y-20086850D01*
X4469627Y-20077327D01*
X4488674Y-20067803D01*
X4507722Y-20067803D01*
X4574389Y-20201136D02*
X4574389Y-20067803D01*
X4574389Y-20001136D02*
X4564865Y-20010660D01*
X4574389Y-20020184D01*
X4583912Y-20010660D01*
X4574389Y-20001136D01*
X4574389Y-20020184D01*
X4698198Y-20201136D02*
X4679150Y-20191612D01*
X4669627Y-20172565D01*
X4669627Y-20001136D01*
X4802960Y-20201136D02*
X4783912Y-20191612D01*
X4774389Y-20172565D01*
X4774389Y-20001136D01*
X5031531Y-20201136D02*
X5031531Y-20001136D01*
X5098198Y-20143993D01*
X5164865Y-20001136D01*
X5164865Y-20201136D01*
X5345817Y-20201136D02*
X5345817Y-20096374D01*
X5336293Y-20077327D01*
X5317246Y-20067803D01*
X5279150Y-20067803D01*
X5260103Y-20077327D01*
X5345817Y-20191612D02*
X5326770Y-20201136D01*
X5279150Y-20201136D01*
X5260103Y-20191612D01*
X5250579Y-20172565D01*
X5250579Y-20153517D01*
X5260103Y-20134470D01*
X5279150Y-20124946D01*
X5326770Y-20124946D01*
X5345817Y-20115422D01*
X5441055Y-20067803D02*
X5441055Y-20267803D01*
X5441055Y-20077327D02*
X5460103Y-20067803D01*
X5498198Y-20067803D01*
X5517246Y-20077327D01*
X5526770Y-20086850D01*
X5536293Y-20105898D01*
X5536293Y-20163041D01*
X5526770Y-20182089D01*
X5517246Y-20191612D01*
X5498198Y-20201136D01*
X5460103Y-20201136D01*
X5441055Y-20191612D01*
X5622008Y-20182089D02*
X5631531Y-20191612D01*
X5622008Y-20201136D01*
X5612484Y-20191612D01*
X5622008Y-20182089D01*
X5622008Y-20201136D01*
X5622008Y-20077327D02*
X5631531Y-20086850D01*
X5622008Y-20096374D01*
X5612484Y-20086850D01*
X5622008Y-20077327D01*
X5622008Y-20096374D01*
D12*
X3952960Y-20510660D02*
X3992960Y-20550660D01*
X3992960Y-20510660D02*
X3952960Y-20550660D01*
D11*
X4288674Y-20421136D02*
X4307722Y-20421136D01*
X4326770Y-20430660D01*
X4336293Y-20440184D01*
X4345817Y-20459231D01*
X4355341Y-20497327D01*
X4355341Y-20544946D01*
X4345817Y-20583041D01*
X4336293Y-20602089D01*
X4326770Y-20611612D01*
X4307722Y-20621136D01*
X4288674Y-20621136D01*
X4269627Y-20611612D01*
X4260103Y-20602089D01*
X4250579Y-20583041D01*
X4241055Y-20544946D01*
X4241055Y-20497327D01*
X4250579Y-20459231D01*
X4260103Y-20440184D01*
X4269627Y-20430660D01*
X4288674Y-20421136D01*
X4441055Y-20602089D02*
X4450579Y-20611612D01*
X4441055Y-20621136D01*
X4431531Y-20611612D01*
X4441055Y-20602089D01*
X4441055Y-20621136D01*
X4622008Y-20487803D02*
X4622008Y-20621136D01*
X4574389Y-20411612D02*
X4526770Y-20554470D01*
X4650579Y-20554470D01*
X4764865Y-20421136D02*
X4783912Y-20421136D01*
X4802960Y-20430660D01*
X4812484Y-20440184D01*
X4822008Y-20459231D01*
X4831531Y-20497327D01*
X4831531Y-20544946D01*
X4822008Y-20583041D01*
X4812484Y-20602089D01*
X4802960Y-20611612D01*
X4783912Y-20621136D01*
X4764865Y-20621136D01*
X4745817Y-20611612D01*
X4736293Y-20602089D01*
X4726770Y-20583041D01*
X4717246Y-20544946D01*
X4717246Y-20497327D01*
X4726770Y-20459231D01*
X4736293Y-20440184D01*
X4745817Y-20430660D01*
X4764865Y-20421136D01*
X4955341Y-20421136D02*
X4974389Y-20421136D01*
X4993436Y-20430660D01*
X5002960Y-20440184D01*
X5012484Y-20459231D01*
X5022008Y-20497327D01*
X5022008Y-20544946D01*
X5012484Y-20583041D01*
X5002960Y-20602089D01*
X4993436Y-20611612D01*
X4974389Y-20621136D01*
X4955341Y-20621136D01*
X4936293Y-20611612D01*
X4926770Y-20602089D01*
X4917246Y-20583041D01*
X4907722Y-20544946D01*
X4907722Y-20497327D01*
X4917246Y-20459231D01*
X4926770Y-20440184D01*
X4936293Y-20430660D01*
X4955341Y-20421136D01*
X5107722Y-20621136D02*
X5107722Y-20487803D01*
X5107722Y-20506850D02*
X5117246Y-20497327D01*
X5136293Y-20487803D01*
X5164865Y-20487803D01*
X5183912Y-20497327D01*
X5193436Y-20516374D01*
X5193436Y-20621136D01*
X5193436Y-20516374D02*
X5202960Y-20497327D01*
X5222008Y-20487803D01*
X5250579Y-20487803D01*
X5269627Y-20497327D01*
X5279150Y-20516374D01*
X5279150Y-20621136D01*
X5374389Y-20621136D02*
X5374389Y-20487803D01*
X5374389Y-20506850D02*
X5383912Y-20497327D01*
X5402960Y-20487803D01*
X5431531Y-20487803D01*
X5450579Y-20497327D01*
X5460103Y-20516374D01*
X5460103Y-20621136D01*
X5460103Y-20516374D02*
X5469627Y-20497327D01*
X5488674Y-20487803D01*
X5517246Y-20487803D01*
X5536293Y-20497327D01*
X5545817Y-20516374D01*
X5545817Y-20621136D01*
X5936293Y-20411612D02*
X5764865Y-20668755D01*
X6193436Y-20421136D02*
X6212484Y-20421136D01*
X6231531Y-20430660D01*
X6241055Y-20440184D01*
X6250579Y-20459231D01*
X6260103Y-20497327D01*
X6260103Y-20544946D01*
X6250579Y-20583041D01*
X6241055Y-20602089D01*
X6231531Y-20611612D01*
X6212484Y-20621136D01*
X6193436Y-20621136D01*
X6174388Y-20611612D01*
X6164865Y-20602089D01*
X6155341Y-20583041D01*
X6145817Y-20544946D01*
X6145817Y-20497327D01*
X6155341Y-20459231D01*
X6164865Y-20440184D01*
X6174388Y-20430660D01*
X6193436Y-20421136D01*
X6345817Y-20602089D02*
X6355341Y-20611612D01*
X6345817Y-20621136D01*
X6336293Y-20611612D01*
X6345817Y-20602089D01*
X6345817Y-20621136D01*
X6479150Y-20421136D02*
X6498198Y-20421136D01*
X6517246Y-20430660D01*
X6526769Y-20440184D01*
X6536293Y-20459231D01*
X6545817Y-20497327D01*
X6545817Y-20544946D01*
X6536293Y-20583041D01*
X6526769Y-20602089D01*
X6517246Y-20611612D01*
X6498198Y-20621136D01*
X6479150Y-20621136D01*
X6460103Y-20611612D01*
X6450579Y-20602089D01*
X6441055Y-20583041D01*
X6431531Y-20544946D01*
X6431531Y-20497327D01*
X6441055Y-20459231D01*
X6450579Y-20440184D01*
X6460103Y-20430660D01*
X6479150Y-20421136D01*
X6736293Y-20621136D02*
X6622008Y-20621136D01*
X6679150Y-20621136D02*
X6679150Y-20421136D01*
X6660103Y-20449708D01*
X6641055Y-20468755D01*
X6622008Y-20478279D01*
X6917246Y-20421136D02*
X6822008Y-20421136D01*
X6812484Y-20516374D01*
X6822008Y-20506850D01*
X6841055Y-20497327D01*
X6888674Y-20497327D01*
X6907722Y-20506850D01*
X6917246Y-20516374D01*
X6926769Y-20535422D01*
X6926769Y-20583041D01*
X6917246Y-20602089D01*
X6907722Y-20611612D01*
X6888674Y-20621136D01*
X6841055Y-20621136D01*
X6822008Y-20611612D01*
X6812484Y-20602089D01*
X6993436Y-20421136D02*
X7126769Y-20421136D01*
X7041055Y-20621136D01*
X7193436Y-20421136D02*
X7193436Y-20459231D01*
X7269627Y-20421136D02*
X7269627Y-20459231D01*
X7564865Y-20697327D02*
X7555341Y-20687803D01*
X7536293Y-20659231D01*
X7526769Y-20640184D01*
X7517246Y-20611612D01*
X7507722Y-20563993D01*
X7507722Y-20525898D01*
X7517246Y-20478279D01*
X7526769Y-20449708D01*
X7536293Y-20430660D01*
X7555341Y-20402089D01*
X7564865Y-20392565D01*
X7745817Y-20621136D02*
X7631531Y-20621136D01*
X7688674Y-20621136D02*
X7688674Y-20421136D01*
X7669627Y-20449708D01*
X7650579Y-20468755D01*
X7631531Y-20478279D01*
X7822008Y-20440184D02*
X7831531Y-20430660D01*
X7850579Y-20421136D01*
X7898198Y-20421136D01*
X7917246Y-20430660D01*
X7926769Y-20440184D01*
X7936293Y-20459231D01*
X7936293Y-20478279D01*
X7926769Y-20506850D01*
X7812484Y-20621136D01*
X7936293Y-20621136D01*
X8174388Y-20621136D02*
X8174388Y-20421136D01*
X8260103Y-20621136D02*
X8260103Y-20516374D01*
X8250579Y-20497327D01*
X8231531Y-20487803D01*
X8202960Y-20487803D01*
X8183912Y-20497327D01*
X8174388Y-20506850D01*
X8383912Y-20621136D02*
X8364865Y-20611612D01*
X8355341Y-20602089D01*
X8345817Y-20583041D01*
X8345817Y-20525898D01*
X8355341Y-20506850D01*
X8364865Y-20497327D01*
X8383912Y-20487803D01*
X8412484Y-20487803D01*
X8431531Y-20497327D01*
X8441055Y-20506850D01*
X8450579Y-20525898D01*
X8450579Y-20583041D01*
X8441055Y-20602089D01*
X8431531Y-20611612D01*
X8412484Y-20621136D01*
X8383912Y-20621136D01*
X8564865Y-20621136D02*
X8545817Y-20611612D01*
X8536293Y-20592565D01*
X8536293Y-20421136D01*
X8717246Y-20611612D02*
X8698198Y-20621136D01*
X8660103Y-20621136D01*
X8641055Y-20611612D01*
X8631531Y-20592565D01*
X8631531Y-20516374D01*
X8641055Y-20497327D01*
X8660103Y-20487803D01*
X8698198Y-20487803D01*
X8717246Y-20497327D01*
X8726770Y-20516374D01*
X8726770Y-20535422D01*
X8631531Y-20554470D01*
X8802960Y-20611612D02*
X8822008Y-20621136D01*
X8860103Y-20621136D01*
X8879150Y-20611612D01*
X8888674Y-20592565D01*
X8888674Y-20583041D01*
X8879150Y-20563993D01*
X8860103Y-20554470D01*
X8831531Y-20554470D01*
X8812484Y-20544946D01*
X8802960Y-20525898D01*
X8802960Y-20516374D01*
X8812484Y-20497327D01*
X8831531Y-20487803D01*
X8860103Y-20487803D01*
X8879150Y-20497327D01*
X8955341Y-20697327D02*
X8964865Y-20687803D01*
X8983912Y-20659231D01*
X8993436Y-20640184D01*
X9002960Y-20611612D01*
X9012484Y-20563993D01*
X9012484Y-20525898D01*
X9002960Y-20478279D01*
X8993436Y-20449708D01*
X8983912Y-20430660D01*
X8964865Y-20402089D01*
X8955341Y-20392565D01*
D13*
X3992960Y-20794660D02*
G75*
G03*
X3992960Y-20794660I-35000J0D01*
G01*
D11*
X4288674Y-20685136D02*
X4307722Y-20685136D01*
X4326770Y-20694660D01*
X4336293Y-20704184D01*
X4345817Y-20723231D01*
X4355341Y-20761327D01*
X4355341Y-20808946D01*
X4345817Y-20847041D01*
X4336293Y-20866089D01*
X4326770Y-20875612D01*
X4307722Y-20885136D01*
X4288674Y-20885136D01*
X4269627Y-20875612D01*
X4260103Y-20866089D01*
X4250579Y-20847041D01*
X4241055Y-20808946D01*
X4241055Y-20761327D01*
X4250579Y-20723231D01*
X4260103Y-20704184D01*
X4269627Y-20694660D01*
X4288674Y-20685136D01*
X4441055Y-20866089D02*
X4450579Y-20875612D01*
X4441055Y-20885136D01*
X4431531Y-20875612D01*
X4441055Y-20866089D01*
X4441055Y-20885136D01*
X4517246Y-20685136D02*
X4650579Y-20685136D01*
X4564865Y-20885136D01*
X4764865Y-20685136D02*
X4783912Y-20685136D01*
X4802960Y-20694660D01*
X4812484Y-20704184D01*
X4822008Y-20723231D01*
X4831531Y-20761327D01*
X4831531Y-20808946D01*
X4822008Y-20847041D01*
X4812484Y-20866089D01*
X4802960Y-20875612D01*
X4783912Y-20885136D01*
X4764865Y-20885136D01*
X4745817Y-20875612D01*
X4736293Y-20866089D01*
X4726770Y-20847041D01*
X4717246Y-20808946D01*
X4717246Y-20761327D01*
X4726770Y-20723231D01*
X4736293Y-20704184D01*
X4745817Y-20694660D01*
X4764865Y-20685136D01*
X4955341Y-20685136D02*
X4974389Y-20685136D01*
X4993436Y-20694660D01*
X5002960Y-20704184D01*
X5012484Y-20723231D01*
X5022008Y-20761327D01*
X5022008Y-20808946D01*
X5012484Y-20847041D01*
X5002960Y-20866089D01*
X4993436Y-20875612D01*
X4974389Y-20885136D01*
X4955341Y-20885136D01*
X4936293Y-20875612D01*
X4926770Y-20866089D01*
X4917246Y-20847041D01*
X4907722Y-20808946D01*
X4907722Y-20761327D01*
X4917246Y-20723231D01*
X4926770Y-20704184D01*
X4936293Y-20694660D01*
X4955341Y-20685136D01*
X5107722Y-20885136D02*
X5107722Y-20751803D01*
X5107722Y-20770850D02*
X5117246Y-20761327D01*
X5136293Y-20751803D01*
X5164865Y-20751803D01*
X5183912Y-20761327D01*
X5193436Y-20780374D01*
X5193436Y-20885136D01*
X5193436Y-20780374D02*
X5202960Y-20761327D01*
X5222008Y-20751803D01*
X5250579Y-20751803D01*
X5269627Y-20761327D01*
X5279150Y-20780374D01*
X5279150Y-20885136D01*
X5374389Y-20885136D02*
X5374389Y-20751803D01*
X5374389Y-20770850D02*
X5383912Y-20761327D01*
X5402960Y-20751803D01*
X5431531Y-20751803D01*
X5450579Y-20761327D01*
X5460103Y-20780374D01*
X5460103Y-20885136D01*
X5460103Y-20780374D02*
X5469627Y-20761327D01*
X5488674Y-20751803D01*
X5517246Y-20751803D01*
X5536293Y-20761327D01*
X5545817Y-20780374D01*
X5545817Y-20885136D01*
X5936293Y-20675612D02*
X5764865Y-20932755D01*
X6193436Y-20685136D02*
X6212484Y-20685136D01*
X6231531Y-20694660D01*
X6241055Y-20704184D01*
X6250579Y-20723231D01*
X6260103Y-20761327D01*
X6260103Y-20808946D01*
X6250579Y-20847041D01*
X6241055Y-20866089D01*
X6231531Y-20875612D01*
X6212484Y-20885136D01*
X6193436Y-20885136D01*
X6174388Y-20875612D01*
X6164865Y-20866089D01*
X6155341Y-20847041D01*
X6145817Y-20808946D01*
X6145817Y-20761327D01*
X6155341Y-20723231D01*
X6164865Y-20704184D01*
X6174388Y-20694660D01*
X6193436Y-20685136D01*
X6345817Y-20866089D02*
X6355341Y-20875612D01*
X6345817Y-20885136D01*
X6336293Y-20875612D01*
X6345817Y-20866089D01*
X6345817Y-20885136D01*
X6479150Y-20685136D02*
X6498198Y-20685136D01*
X6517246Y-20694660D01*
X6526769Y-20704184D01*
X6536293Y-20723231D01*
X6545817Y-20761327D01*
X6545817Y-20808946D01*
X6536293Y-20847041D01*
X6526769Y-20866089D01*
X6517246Y-20875612D01*
X6498198Y-20885136D01*
X6479150Y-20885136D01*
X6460103Y-20875612D01*
X6450579Y-20866089D01*
X6441055Y-20847041D01*
X6431531Y-20808946D01*
X6431531Y-20761327D01*
X6441055Y-20723231D01*
X6450579Y-20704184D01*
X6460103Y-20694660D01*
X6479150Y-20685136D01*
X6622008Y-20704184D02*
X6631531Y-20694660D01*
X6650579Y-20685136D01*
X6698198Y-20685136D01*
X6717246Y-20694660D01*
X6726769Y-20704184D01*
X6736293Y-20723231D01*
X6736293Y-20742279D01*
X6726769Y-20770850D01*
X6612484Y-20885136D01*
X6736293Y-20885136D01*
X6802960Y-20685136D02*
X6936293Y-20685136D01*
X6850579Y-20885136D01*
X7098198Y-20685136D02*
X7060103Y-20685136D01*
X7041055Y-20694660D01*
X7031531Y-20704184D01*
X7012484Y-20732755D01*
X7002960Y-20770850D01*
X7002960Y-20847041D01*
X7012484Y-20866089D01*
X7022008Y-20875612D01*
X7041055Y-20885136D01*
X7079150Y-20885136D01*
X7098198Y-20875612D01*
X7107722Y-20866089D01*
X7117246Y-20847041D01*
X7117246Y-20799422D01*
X7107722Y-20780374D01*
X7098198Y-20770850D01*
X7079150Y-20761327D01*
X7041055Y-20761327D01*
X7022008Y-20770850D01*
X7012484Y-20780374D01*
X7002960Y-20799422D01*
X7193436Y-20685136D02*
X7193436Y-20723231D01*
X7269627Y-20685136D02*
X7269627Y-20723231D01*
X7564865Y-20961327D02*
X7555341Y-20951803D01*
X7536293Y-20923231D01*
X7526769Y-20904184D01*
X7517246Y-20875612D01*
X7507722Y-20827993D01*
X7507722Y-20789898D01*
X7517246Y-20742279D01*
X7526769Y-20713708D01*
X7536293Y-20694660D01*
X7555341Y-20666089D01*
X7564865Y-20656565D01*
X7726769Y-20685136D02*
X7688674Y-20685136D01*
X7669627Y-20694660D01*
X7660103Y-20704184D01*
X7641055Y-20732755D01*
X7631531Y-20770850D01*
X7631531Y-20847041D01*
X7641055Y-20866089D01*
X7650579Y-20875612D01*
X7669627Y-20885136D01*
X7707722Y-20885136D01*
X7726769Y-20875612D01*
X7736293Y-20866089D01*
X7745817Y-20847041D01*
X7745817Y-20799422D01*
X7736293Y-20780374D01*
X7726769Y-20770850D01*
X7707722Y-20761327D01*
X7669627Y-20761327D01*
X7650579Y-20770850D01*
X7641055Y-20780374D01*
X7631531Y-20799422D01*
X7983912Y-20885136D02*
X7983912Y-20685136D01*
X8069627Y-20885136D02*
X8069627Y-20780374D01*
X8060103Y-20761327D01*
X8041055Y-20751803D01*
X8012484Y-20751803D01*
X7993436Y-20761327D01*
X7983912Y-20770850D01*
X8193436Y-20885136D02*
X8174388Y-20875612D01*
X8164865Y-20866089D01*
X8155341Y-20847041D01*
X8155341Y-20789898D01*
X8164865Y-20770850D01*
X8174388Y-20761327D01*
X8193436Y-20751803D01*
X8222008Y-20751803D01*
X8241055Y-20761327D01*
X8250579Y-20770850D01*
X8260103Y-20789898D01*
X8260103Y-20847041D01*
X8250579Y-20866089D01*
X8241055Y-20875612D01*
X8222008Y-20885136D01*
X8193436Y-20885136D01*
X8374388Y-20885136D02*
X8355341Y-20875612D01*
X8345817Y-20856565D01*
X8345817Y-20685136D01*
X8526770Y-20875612D02*
X8507722Y-20885136D01*
X8469627Y-20885136D01*
X8450579Y-20875612D01*
X8441055Y-20856565D01*
X8441055Y-20780374D01*
X8450579Y-20761327D01*
X8469627Y-20751803D01*
X8507722Y-20751803D01*
X8526770Y-20761327D01*
X8536293Y-20780374D01*
X8536293Y-20799422D01*
X8441055Y-20818470D01*
X8612484Y-20875612D02*
X8631531Y-20885136D01*
X8669627Y-20885136D01*
X8688674Y-20875612D01*
X8698198Y-20856565D01*
X8698198Y-20847041D01*
X8688674Y-20827993D01*
X8669627Y-20818470D01*
X8641055Y-20818470D01*
X8622008Y-20808946D01*
X8612484Y-20789898D01*
X8612484Y-20780374D01*
X8622008Y-20761327D01*
X8641055Y-20751803D01*
X8669627Y-20751803D01*
X8688674Y-20761327D01*
X8764865Y-20961327D02*
X8774389Y-20951803D01*
X8793436Y-20923231D01*
X8802960Y-20904184D01*
X8812484Y-20875612D01*
X8822008Y-20827993D01*
X8822008Y-20789898D01*
X8812484Y-20742279D01*
X8802960Y-20713708D01*
X8793436Y-20694660D01*
X8774389Y-20666089D01*
X8764865Y-20656565D01*
D14*
X3955460Y-21021160D02*
X3955460Y-21096160D01*
X3917960Y-21058660D02*
X3992960Y-21058660D01*
D11*
X4288674Y-20949136D02*
X4307722Y-20949136D01*
X4326770Y-20958660D01*
X4336293Y-20968184D01*
X4345817Y-20987231D01*
X4355341Y-21025327D01*
X4355341Y-21072946D01*
X4345817Y-21111041D01*
X4336293Y-21130089D01*
X4326770Y-21139612D01*
X4307722Y-21149136D01*
X4288674Y-21149136D01*
X4269627Y-21139612D01*
X4260103Y-21130089D01*
X4250579Y-21111041D01*
X4241055Y-21072946D01*
X4241055Y-21025327D01*
X4250579Y-20987231D01*
X4260103Y-20968184D01*
X4269627Y-20958660D01*
X4288674Y-20949136D01*
X4441055Y-21130089D02*
X4450579Y-21139612D01*
X4441055Y-21149136D01*
X4431531Y-21139612D01*
X4441055Y-21130089D01*
X4441055Y-21149136D01*
X4517246Y-20949136D02*
X4650579Y-20949136D01*
X4564865Y-21149136D01*
X4822008Y-20949136D02*
X4726770Y-20949136D01*
X4717246Y-21044374D01*
X4726770Y-21034850D01*
X4745817Y-21025327D01*
X4793436Y-21025327D01*
X4812484Y-21034850D01*
X4822008Y-21044374D01*
X4831531Y-21063422D01*
X4831531Y-21111041D01*
X4822008Y-21130089D01*
X4812484Y-21139612D01*
X4793436Y-21149136D01*
X4745817Y-21149136D01*
X4726770Y-21139612D01*
X4717246Y-21130089D01*
X4955341Y-20949136D02*
X4974389Y-20949136D01*
X4993436Y-20958660D01*
X5002960Y-20968184D01*
X5012484Y-20987231D01*
X5022008Y-21025327D01*
X5022008Y-21072946D01*
X5012484Y-21111041D01*
X5002960Y-21130089D01*
X4993436Y-21139612D01*
X4974389Y-21149136D01*
X4955341Y-21149136D01*
X4936293Y-21139612D01*
X4926770Y-21130089D01*
X4917246Y-21111041D01*
X4907722Y-21072946D01*
X4907722Y-21025327D01*
X4917246Y-20987231D01*
X4926770Y-20968184D01*
X4936293Y-20958660D01*
X4955341Y-20949136D01*
X5107722Y-21149136D02*
X5107722Y-21015803D01*
X5107722Y-21034850D02*
X5117246Y-21025327D01*
X5136293Y-21015803D01*
X5164865Y-21015803D01*
X5183912Y-21025327D01*
X5193436Y-21044374D01*
X5193436Y-21149136D01*
X5193436Y-21044374D02*
X5202960Y-21025327D01*
X5222008Y-21015803D01*
X5250579Y-21015803D01*
X5269627Y-21025327D01*
X5279150Y-21044374D01*
X5279150Y-21149136D01*
X5374389Y-21149136D02*
X5374389Y-21015803D01*
X5374389Y-21034850D02*
X5383912Y-21025327D01*
X5402960Y-21015803D01*
X5431531Y-21015803D01*
X5450579Y-21025327D01*
X5460103Y-21044374D01*
X5460103Y-21149136D01*
X5460103Y-21044374D02*
X5469627Y-21025327D01*
X5488674Y-21015803D01*
X5517246Y-21015803D01*
X5536293Y-21025327D01*
X5545817Y-21044374D01*
X5545817Y-21149136D01*
X5936293Y-20939612D02*
X5764865Y-21196755D01*
X6193436Y-20949136D02*
X6212484Y-20949136D01*
X6231531Y-20958660D01*
X6241055Y-20968184D01*
X6250579Y-20987231D01*
X6260103Y-21025327D01*
X6260103Y-21072946D01*
X6250579Y-21111041D01*
X6241055Y-21130089D01*
X6231531Y-21139612D01*
X6212484Y-21149136D01*
X6193436Y-21149136D01*
X6174388Y-21139612D01*
X6164865Y-21130089D01*
X6155341Y-21111041D01*
X6145817Y-21072946D01*
X6145817Y-21025327D01*
X6155341Y-20987231D01*
X6164865Y-20968184D01*
X6174388Y-20958660D01*
X6193436Y-20949136D01*
X6345817Y-21130089D02*
X6355341Y-21139612D01*
X6345817Y-21149136D01*
X6336293Y-21139612D01*
X6345817Y-21130089D01*
X6345817Y-21149136D01*
X6479150Y-20949136D02*
X6498198Y-20949136D01*
X6517246Y-20958660D01*
X6526769Y-20968184D01*
X6536293Y-20987231D01*
X6545817Y-21025327D01*
X6545817Y-21072946D01*
X6536293Y-21111041D01*
X6526769Y-21130089D01*
X6517246Y-21139612D01*
X6498198Y-21149136D01*
X6479150Y-21149136D01*
X6460103Y-21139612D01*
X6450579Y-21130089D01*
X6441055Y-21111041D01*
X6431531Y-21072946D01*
X6431531Y-21025327D01*
X6441055Y-20987231D01*
X6450579Y-20968184D01*
X6460103Y-20958660D01*
X6479150Y-20949136D01*
X6622008Y-20968184D02*
X6631531Y-20958660D01*
X6650579Y-20949136D01*
X6698198Y-20949136D01*
X6717246Y-20958660D01*
X6726769Y-20968184D01*
X6736293Y-20987231D01*
X6736293Y-21006279D01*
X6726769Y-21034850D01*
X6612484Y-21149136D01*
X6736293Y-21149136D01*
X6831531Y-21149136D02*
X6869627Y-21149136D01*
X6888674Y-21139612D01*
X6898198Y-21130089D01*
X6917246Y-21101517D01*
X6926769Y-21063422D01*
X6926769Y-20987231D01*
X6917246Y-20968184D01*
X6907722Y-20958660D01*
X6888674Y-20949136D01*
X6850579Y-20949136D01*
X6831531Y-20958660D01*
X6822008Y-20968184D01*
X6812484Y-20987231D01*
X6812484Y-21034850D01*
X6822008Y-21053898D01*
X6831531Y-21063422D01*
X6850579Y-21072946D01*
X6888674Y-21072946D01*
X6907722Y-21063422D01*
X6917246Y-21053898D01*
X6926769Y-21034850D01*
X7107722Y-20949136D02*
X7012484Y-20949136D01*
X7002960Y-21044374D01*
X7012484Y-21034850D01*
X7031531Y-21025327D01*
X7079150Y-21025327D01*
X7098198Y-21034850D01*
X7107722Y-21044374D01*
X7117246Y-21063422D01*
X7117246Y-21111041D01*
X7107722Y-21130089D01*
X7098198Y-21139612D01*
X7079150Y-21149136D01*
X7031531Y-21149136D01*
X7012484Y-21139612D01*
X7002960Y-21130089D01*
X7193436Y-20949136D02*
X7193436Y-20987231D01*
X7269627Y-20949136D02*
X7269627Y-20987231D01*
X7564865Y-21225327D02*
X7555341Y-21215803D01*
X7536293Y-21187231D01*
X7526769Y-21168184D01*
X7517246Y-21139612D01*
X7507722Y-21091993D01*
X7507722Y-21053898D01*
X7517246Y-21006279D01*
X7526769Y-20977708D01*
X7536293Y-20958660D01*
X7555341Y-20930089D01*
X7564865Y-20920565D01*
X7736293Y-20949136D02*
X7641055Y-20949136D01*
X7631531Y-21044374D01*
X7641055Y-21034850D01*
X7660103Y-21025327D01*
X7707722Y-21025327D01*
X7726769Y-21034850D01*
X7736293Y-21044374D01*
X7745817Y-21063422D01*
X7745817Y-21111041D01*
X7736293Y-21130089D01*
X7726769Y-21139612D01*
X7707722Y-21149136D01*
X7660103Y-21149136D01*
X7641055Y-21139612D01*
X7631531Y-21130089D01*
X7983912Y-21149136D02*
X7983912Y-20949136D01*
X8069627Y-21149136D02*
X8069627Y-21044374D01*
X8060103Y-21025327D01*
X8041055Y-21015803D01*
X8012484Y-21015803D01*
X7993436Y-21025327D01*
X7983912Y-21034850D01*
X8193436Y-21149136D02*
X8174388Y-21139612D01*
X8164865Y-21130089D01*
X8155341Y-21111041D01*
X8155341Y-21053898D01*
X8164865Y-21034850D01*
X8174388Y-21025327D01*
X8193436Y-21015803D01*
X8222008Y-21015803D01*
X8241055Y-21025327D01*
X8250579Y-21034850D01*
X8260103Y-21053898D01*
X8260103Y-21111041D01*
X8250579Y-21130089D01*
X8241055Y-21139612D01*
X8222008Y-21149136D01*
X8193436Y-21149136D01*
X8374388Y-21149136D02*
X8355341Y-21139612D01*
X8345817Y-21120565D01*
X8345817Y-20949136D01*
X8526770Y-21139612D02*
X8507722Y-21149136D01*
X8469627Y-21149136D01*
X8450579Y-21139612D01*
X8441055Y-21120565D01*
X8441055Y-21044374D01*
X8450579Y-21025327D01*
X8469627Y-21015803D01*
X8507722Y-21015803D01*
X8526770Y-21025327D01*
X8536293Y-21044374D01*
X8536293Y-21063422D01*
X8441055Y-21082470D01*
X8612484Y-21139612D02*
X8631531Y-21149136D01*
X8669627Y-21149136D01*
X8688674Y-21139612D01*
X8698198Y-21120565D01*
X8698198Y-21111041D01*
X8688674Y-21091993D01*
X8669627Y-21082470D01*
X8641055Y-21082470D01*
X8622008Y-21072946D01*
X8612484Y-21053898D01*
X8612484Y-21044374D01*
X8622008Y-21025327D01*
X8641055Y-21015803D01*
X8669627Y-21015803D01*
X8688674Y-21025327D01*
X8764865Y-21225327D02*
X8774389Y-21215803D01*
X8793436Y-21187231D01*
X8802960Y-21168184D01*
X8812484Y-21139612D01*
X8822008Y-21091993D01*
X8822008Y-21053898D01*
X8812484Y-21006279D01*
X8802960Y-20977708D01*
X8793436Y-20958660D01*
X8774389Y-20930089D01*
X8764865Y-20920565D01*
D15*
X3981801Y-21349601D02*
X3981801Y-21295719D01*
X3927919Y-21295719D01*
X3927919Y-21349601D01*
X3981801Y-21349601D01*
D11*
X4288674Y-21213136D02*
X4307722Y-21213136D01*
X4326770Y-21222660D01*
X4336293Y-21232184D01*
X4345817Y-21251231D01*
X4355341Y-21289327D01*
X4355341Y-21336946D01*
X4345817Y-21375041D01*
X4336293Y-21394089D01*
X4326770Y-21403612D01*
X4307722Y-21413136D01*
X4288674Y-21413136D01*
X4269627Y-21403612D01*
X4260103Y-21394089D01*
X4250579Y-21375041D01*
X4241055Y-21336946D01*
X4241055Y-21289327D01*
X4250579Y-21251231D01*
X4260103Y-21232184D01*
X4269627Y-21222660D01*
X4288674Y-21213136D01*
X4441055Y-21394089D02*
X4450579Y-21403612D01*
X4441055Y-21413136D01*
X4431531Y-21403612D01*
X4441055Y-21394089D01*
X4441055Y-21413136D01*
X4517246Y-21213136D02*
X4650579Y-21213136D01*
X4564865Y-21413136D01*
X4812484Y-21213136D02*
X4774389Y-21213136D01*
X4755341Y-21222660D01*
X4745817Y-21232184D01*
X4726770Y-21260755D01*
X4717246Y-21298850D01*
X4717246Y-21375041D01*
X4726770Y-21394089D01*
X4736293Y-21403612D01*
X4755341Y-21413136D01*
X4793436Y-21413136D01*
X4812484Y-21403612D01*
X4822008Y-21394089D01*
X4831531Y-21375041D01*
X4831531Y-21327422D01*
X4822008Y-21308374D01*
X4812484Y-21298850D01*
X4793436Y-21289327D01*
X4755341Y-21289327D01*
X4736293Y-21298850D01*
X4726770Y-21308374D01*
X4717246Y-21327422D01*
X4907722Y-21232184D02*
X4917246Y-21222660D01*
X4936293Y-21213136D01*
X4983912Y-21213136D01*
X5002960Y-21222660D01*
X5012484Y-21232184D01*
X5022008Y-21251231D01*
X5022008Y-21270279D01*
X5012484Y-21298850D01*
X4898198Y-21413136D01*
X5022008Y-21413136D01*
X5107722Y-21413136D02*
X5107722Y-21279803D01*
X5107722Y-21298850D02*
X5117246Y-21289327D01*
X5136293Y-21279803D01*
X5164865Y-21279803D01*
X5183912Y-21289327D01*
X5193436Y-21308374D01*
X5193436Y-21413136D01*
X5193436Y-21308374D02*
X5202960Y-21289327D01*
X5222008Y-21279803D01*
X5250579Y-21279803D01*
X5269627Y-21289327D01*
X5279150Y-21308374D01*
X5279150Y-21413136D01*
X5374389Y-21413136D02*
X5374389Y-21279803D01*
X5374389Y-21298850D02*
X5383912Y-21289327D01*
X5402960Y-21279803D01*
X5431531Y-21279803D01*
X5450579Y-21289327D01*
X5460103Y-21308374D01*
X5460103Y-21413136D01*
X5460103Y-21308374D02*
X5469627Y-21289327D01*
X5488674Y-21279803D01*
X5517246Y-21279803D01*
X5536293Y-21289327D01*
X5545817Y-21308374D01*
X5545817Y-21413136D01*
X5936293Y-21203612D02*
X5764865Y-21460755D01*
X6193436Y-21213136D02*
X6212484Y-21213136D01*
X6231531Y-21222660D01*
X6241055Y-21232184D01*
X6250579Y-21251231D01*
X6260103Y-21289327D01*
X6260103Y-21336946D01*
X6250579Y-21375041D01*
X6241055Y-21394089D01*
X6231531Y-21403612D01*
X6212484Y-21413136D01*
X6193436Y-21413136D01*
X6174388Y-21403612D01*
X6164865Y-21394089D01*
X6155341Y-21375041D01*
X6145817Y-21336946D01*
X6145817Y-21289327D01*
X6155341Y-21251231D01*
X6164865Y-21232184D01*
X6174388Y-21222660D01*
X6193436Y-21213136D01*
X6345817Y-21394089D02*
X6355341Y-21403612D01*
X6345817Y-21413136D01*
X6336293Y-21403612D01*
X6345817Y-21394089D01*
X6345817Y-21413136D01*
X6479150Y-21213136D02*
X6498198Y-21213136D01*
X6517246Y-21222660D01*
X6526769Y-21232184D01*
X6536293Y-21251231D01*
X6545817Y-21289327D01*
X6545817Y-21336946D01*
X6536293Y-21375041D01*
X6526769Y-21394089D01*
X6517246Y-21403612D01*
X6498198Y-21413136D01*
X6479150Y-21413136D01*
X6460103Y-21403612D01*
X6450579Y-21394089D01*
X6441055Y-21375041D01*
X6431531Y-21336946D01*
X6431531Y-21289327D01*
X6441055Y-21251231D01*
X6450579Y-21232184D01*
X6460103Y-21222660D01*
X6479150Y-21213136D01*
X6612484Y-21213136D02*
X6736293Y-21213136D01*
X6669627Y-21289327D01*
X6698198Y-21289327D01*
X6717246Y-21298850D01*
X6726769Y-21308374D01*
X6736293Y-21327422D01*
X6736293Y-21375041D01*
X6726769Y-21394089D01*
X6717246Y-21403612D01*
X6698198Y-21413136D01*
X6641055Y-21413136D01*
X6622008Y-21403612D01*
X6612484Y-21394089D01*
X6860103Y-21213136D02*
X6879150Y-21213136D01*
X6898198Y-21222660D01*
X6907722Y-21232184D01*
X6917246Y-21251231D01*
X6926769Y-21289327D01*
X6926769Y-21336946D01*
X6917246Y-21375041D01*
X6907722Y-21394089D01*
X6898198Y-21403612D01*
X6879150Y-21413136D01*
X6860103Y-21413136D01*
X6841055Y-21403612D01*
X6831531Y-21394089D01*
X6822008Y-21375041D01*
X6812484Y-21336946D01*
X6812484Y-21289327D01*
X6822008Y-21251231D01*
X6831531Y-21232184D01*
X6841055Y-21222660D01*
X6860103Y-21213136D01*
X7050579Y-21213136D02*
X7069627Y-21213136D01*
X7088674Y-21222660D01*
X7098198Y-21232184D01*
X7107722Y-21251231D01*
X7117246Y-21289327D01*
X7117246Y-21336946D01*
X7107722Y-21375041D01*
X7098198Y-21394089D01*
X7088674Y-21403612D01*
X7069627Y-21413136D01*
X7050579Y-21413136D01*
X7031531Y-21403612D01*
X7022008Y-21394089D01*
X7012484Y-21375041D01*
X7002960Y-21336946D01*
X7002960Y-21289327D01*
X7012484Y-21251231D01*
X7022008Y-21232184D01*
X7031531Y-21222660D01*
X7050579Y-21213136D01*
X7193436Y-21213136D02*
X7193436Y-21251231D01*
X7269627Y-21213136D02*
X7269627Y-21251231D01*
X7564865Y-21489327D02*
X7555341Y-21479803D01*
X7536293Y-21451231D01*
X7526769Y-21432184D01*
X7517246Y-21403612D01*
X7507722Y-21355993D01*
X7507722Y-21317898D01*
X7517246Y-21270279D01*
X7526769Y-21241708D01*
X7536293Y-21222660D01*
X7555341Y-21194089D01*
X7564865Y-21184565D01*
X7726769Y-21213136D02*
X7688674Y-21213136D01*
X7669627Y-21222660D01*
X7660103Y-21232184D01*
X7641055Y-21260755D01*
X7631531Y-21298850D01*
X7631531Y-21375041D01*
X7641055Y-21394089D01*
X7650579Y-21403612D01*
X7669627Y-21413136D01*
X7707722Y-21413136D01*
X7726769Y-21403612D01*
X7736293Y-21394089D01*
X7745817Y-21375041D01*
X7745817Y-21327422D01*
X7736293Y-21308374D01*
X7726769Y-21298850D01*
X7707722Y-21289327D01*
X7669627Y-21289327D01*
X7650579Y-21298850D01*
X7641055Y-21308374D01*
X7631531Y-21327422D01*
X7983912Y-21413136D02*
X7983912Y-21213136D01*
X8069627Y-21413136D02*
X8069627Y-21308374D01*
X8060103Y-21289327D01*
X8041055Y-21279803D01*
X8012484Y-21279803D01*
X7993436Y-21289327D01*
X7983912Y-21298850D01*
X8193436Y-21413136D02*
X8174388Y-21403612D01*
X8164865Y-21394089D01*
X8155341Y-21375041D01*
X8155341Y-21317898D01*
X8164865Y-21298850D01*
X8174388Y-21289327D01*
X8193436Y-21279803D01*
X8222008Y-21279803D01*
X8241055Y-21289327D01*
X8250579Y-21298850D01*
X8260103Y-21317898D01*
X8260103Y-21375041D01*
X8250579Y-21394089D01*
X8241055Y-21403612D01*
X8222008Y-21413136D01*
X8193436Y-21413136D01*
X8374388Y-21413136D02*
X8355341Y-21403612D01*
X8345817Y-21384565D01*
X8345817Y-21213136D01*
X8526770Y-21403612D02*
X8507722Y-21413136D01*
X8469627Y-21413136D01*
X8450579Y-21403612D01*
X8441055Y-21384565D01*
X8441055Y-21308374D01*
X8450579Y-21289327D01*
X8469627Y-21279803D01*
X8507722Y-21279803D01*
X8526770Y-21289327D01*
X8536293Y-21308374D01*
X8536293Y-21327422D01*
X8441055Y-21346470D01*
X8612484Y-21403612D02*
X8631531Y-21413136D01*
X8669627Y-21413136D01*
X8688674Y-21403612D01*
X8698198Y-21384565D01*
X8698198Y-21375041D01*
X8688674Y-21355993D01*
X8669627Y-21346470D01*
X8641055Y-21346470D01*
X8622008Y-21336946D01*
X8612484Y-21317898D01*
X8612484Y-21308374D01*
X8622008Y-21289327D01*
X8641055Y-21279803D01*
X8669627Y-21279803D01*
X8688674Y-21289327D01*
X8764865Y-21489327D02*
X8774389Y-21479803D01*
X8793436Y-21451231D01*
X8802960Y-21432184D01*
X8812484Y-21403612D01*
X8822008Y-21355993D01*
X8822008Y-21317898D01*
X8812484Y-21270279D01*
X8802960Y-21241708D01*
X8793436Y-21222660D01*
X8774389Y-21194089D01*
X8764865Y-21184565D01*
D16*
X3952960Y-21626660D02*
X3992960Y-21586660D01*
X3952960Y-21546660D01*
X3912960Y-21586660D01*
X3952960Y-21626660D01*
D11*
X4288674Y-21477136D02*
X4307722Y-21477136D01*
X4326770Y-21486660D01*
X4336293Y-21496184D01*
X4345817Y-21515231D01*
X4355341Y-21553327D01*
X4355341Y-21600946D01*
X4345817Y-21639041D01*
X4336293Y-21658089D01*
X4326770Y-21667612D01*
X4307722Y-21677136D01*
X4288674Y-21677136D01*
X4269627Y-21667612D01*
X4260103Y-21658089D01*
X4250579Y-21639041D01*
X4241055Y-21600946D01*
X4241055Y-21553327D01*
X4250579Y-21515231D01*
X4260103Y-21496184D01*
X4269627Y-21486660D01*
X4288674Y-21477136D01*
X4441055Y-21658089D02*
X4450579Y-21667612D01*
X4441055Y-21677136D01*
X4431531Y-21667612D01*
X4441055Y-21658089D01*
X4441055Y-21677136D01*
X4564865Y-21562850D02*
X4545817Y-21553327D01*
X4536293Y-21543803D01*
X4526770Y-21524755D01*
X4526770Y-21515231D01*
X4536293Y-21496184D01*
X4545817Y-21486660D01*
X4564865Y-21477136D01*
X4602960Y-21477136D01*
X4622008Y-21486660D01*
X4631531Y-21496184D01*
X4641055Y-21515231D01*
X4641055Y-21524755D01*
X4631531Y-21543803D01*
X4622008Y-21553327D01*
X4602960Y-21562850D01*
X4564865Y-21562850D01*
X4545817Y-21572374D01*
X4536293Y-21581898D01*
X4526770Y-21600946D01*
X4526770Y-21639041D01*
X4536293Y-21658089D01*
X4545817Y-21667612D01*
X4564865Y-21677136D01*
X4602960Y-21677136D01*
X4622008Y-21667612D01*
X4631531Y-21658089D01*
X4641055Y-21639041D01*
X4641055Y-21600946D01*
X4631531Y-21581898D01*
X4622008Y-21572374D01*
X4602960Y-21562850D01*
X4764865Y-21477136D02*
X4783912Y-21477136D01*
X4802960Y-21486660D01*
X4812484Y-21496184D01*
X4822008Y-21515231D01*
X4831531Y-21553327D01*
X4831531Y-21600946D01*
X4822008Y-21639041D01*
X4812484Y-21658089D01*
X4802960Y-21667612D01*
X4783912Y-21677136D01*
X4764865Y-21677136D01*
X4745817Y-21667612D01*
X4736293Y-21658089D01*
X4726770Y-21639041D01*
X4717246Y-21600946D01*
X4717246Y-21553327D01*
X4726770Y-21515231D01*
X4736293Y-21496184D01*
X4745817Y-21486660D01*
X4764865Y-21477136D01*
X4955341Y-21477136D02*
X4974389Y-21477136D01*
X4993436Y-21486660D01*
X5002960Y-21496184D01*
X5012484Y-21515231D01*
X5022008Y-21553327D01*
X5022008Y-21600946D01*
X5012484Y-21639041D01*
X5002960Y-21658089D01*
X4993436Y-21667612D01*
X4974389Y-21677136D01*
X4955341Y-21677136D01*
X4936293Y-21667612D01*
X4926770Y-21658089D01*
X4917246Y-21639041D01*
X4907722Y-21600946D01*
X4907722Y-21553327D01*
X4917246Y-21515231D01*
X4926770Y-21496184D01*
X4936293Y-21486660D01*
X4955341Y-21477136D01*
X5107722Y-21677136D02*
X5107722Y-21543803D01*
X5107722Y-21562850D02*
X5117246Y-21553327D01*
X5136293Y-21543803D01*
X5164865Y-21543803D01*
X5183912Y-21553327D01*
X5193436Y-21572374D01*
X5193436Y-21677136D01*
X5193436Y-21572374D02*
X5202960Y-21553327D01*
X5222008Y-21543803D01*
X5250579Y-21543803D01*
X5269627Y-21553327D01*
X5279150Y-21572374D01*
X5279150Y-21677136D01*
X5374389Y-21677136D02*
X5374389Y-21543803D01*
X5374389Y-21562850D02*
X5383912Y-21553327D01*
X5402960Y-21543803D01*
X5431531Y-21543803D01*
X5450579Y-21553327D01*
X5460103Y-21572374D01*
X5460103Y-21677136D01*
X5460103Y-21572374D02*
X5469627Y-21553327D01*
X5488674Y-21543803D01*
X5517246Y-21543803D01*
X5536293Y-21553327D01*
X5545817Y-21572374D01*
X5545817Y-21677136D01*
X5936293Y-21467612D02*
X5764865Y-21724755D01*
X6193436Y-21477136D02*
X6212484Y-21477136D01*
X6231531Y-21486660D01*
X6241055Y-21496184D01*
X6250579Y-21515231D01*
X6260103Y-21553327D01*
X6260103Y-21600946D01*
X6250579Y-21639041D01*
X6241055Y-21658089D01*
X6231531Y-21667612D01*
X6212484Y-21677136D01*
X6193436Y-21677136D01*
X6174388Y-21667612D01*
X6164865Y-21658089D01*
X6155341Y-21639041D01*
X6145817Y-21600946D01*
X6145817Y-21553327D01*
X6155341Y-21515231D01*
X6164865Y-21496184D01*
X6174388Y-21486660D01*
X6193436Y-21477136D01*
X6345817Y-21658089D02*
X6355341Y-21667612D01*
X6345817Y-21677136D01*
X6336293Y-21667612D01*
X6345817Y-21658089D01*
X6345817Y-21677136D01*
X6479150Y-21477136D02*
X6498198Y-21477136D01*
X6517246Y-21486660D01*
X6526769Y-21496184D01*
X6536293Y-21515231D01*
X6545817Y-21553327D01*
X6545817Y-21600946D01*
X6536293Y-21639041D01*
X6526769Y-21658089D01*
X6517246Y-21667612D01*
X6498198Y-21677136D01*
X6479150Y-21677136D01*
X6460103Y-21667612D01*
X6450579Y-21658089D01*
X6441055Y-21639041D01*
X6431531Y-21600946D01*
X6431531Y-21553327D01*
X6441055Y-21515231D01*
X6450579Y-21496184D01*
X6460103Y-21486660D01*
X6479150Y-21477136D01*
X6612484Y-21477136D02*
X6736293Y-21477136D01*
X6669627Y-21553327D01*
X6698198Y-21553327D01*
X6717246Y-21562850D01*
X6726769Y-21572374D01*
X6736293Y-21591422D01*
X6736293Y-21639041D01*
X6726769Y-21658089D01*
X6717246Y-21667612D01*
X6698198Y-21677136D01*
X6641055Y-21677136D01*
X6622008Y-21667612D01*
X6612484Y-21658089D01*
X6926769Y-21677136D02*
X6812484Y-21677136D01*
X6869627Y-21677136D02*
X6869627Y-21477136D01*
X6850579Y-21505708D01*
X6831531Y-21524755D01*
X6812484Y-21534279D01*
X7107722Y-21477136D02*
X7012484Y-21477136D01*
X7002960Y-21572374D01*
X7012484Y-21562850D01*
X7031531Y-21553327D01*
X7079150Y-21553327D01*
X7098198Y-21562850D01*
X7107722Y-21572374D01*
X7117246Y-21591422D01*
X7117246Y-21639041D01*
X7107722Y-21658089D01*
X7098198Y-21667612D01*
X7079150Y-21677136D01*
X7031531Y-21677136D01*
X7012484Y-21667612D01*
X7002960Y-21658089D01*
X7193436Y-21477136D02*
X7193436Y-21515231D01*
X7269627Y-21477136D02*
X7269627Y-21515231D01*
X7564865Y-21753327D02*
X7555341Y-21743803D01*
X7536293Y-21715231D01*
X7526769Y-21696184D01*
X7517246Y-21667612D01*
X7507722Y-21619993D01*
X7507722Y-21581898D01*
X7517246Y-21534279D01*
X7526769Y-21505708D01*
X7536293Y-21486660D01*
X7555341Y-21458089D01*
X7564865Y-21448565D01*
X7631531Y-21496184D02*
X7641055Y-21486660D01*
X7660103Y-21477136D01*
X7707722Y-21477136D01*
X7726769Y-21486660D01*
X7736293Y-21496184D01*
X7745817Y-21515231D01*
X7745817Y-21534279D01*
X7736293Y-21562850D01*
X7622008Y-21677136D01*
X7745817Y-21677136D01*
X7936293Y-21677136D02*
X7822008Y-21677136D01*
X7879150Y-21677136D02*
X7879150Y-21477136D01*
X7860103Y-21505708D01*
X7841055Y-21524755D01*
X7822008Y-21534279D01*
X8107722Y-21543803D02*
X8107722Y-21677136D01*
X8060103Y-21467612D02*
X8012484Y-21610470D01*
X8136293Y-21610470D01*
X8364865Y-21677136D02*
X8364865Y-21477136D01*
X8450579Y-21677136D02*
X8450579Y-21572374D01*
X8441055Y-21553327D01*
X8422008Y-21543803D01*
X8393436Y-21543803D01*
X8374388Y-21553327D01*
X8364865Y-21562850D01*
X8574389Y-21677136D02*
X8555341Y-21667612D01*
X8545817Y-21658089D01*
X8536293Y-21639041D01*
X8536293Y-21581898D01*
X8545817Y-21562850D01*
X8555341Y-21553327D01*
X8574389Y-21543803D01*
X8602960Y-21543803D01*
X8622008Y-21553327D01*
X8631531Y-21562850D01*
X8641055Y-21581898D01*
X8641055Y-21639041D01*
X8631531Y-21658089D01*
X8622008Y-21667612D01*
X8602960Y-21677136D01*
X8574389Y-21677136D01*
X8755341Y-21677136D02*
X8736293Y-21667612D01*
X8726770Y-21648565D01*
X8726770Y-21477136D01*
X8907722Y-21667612D02*
X8888674Y-21677136D01*
X8850579Y-21677136D01*
X8831531Y-21667612D01*
X8822008Y-21648565D01*
X8822008Y-21572374D01*
X8831531Y-21553327D01*
X8850579Y-21543803D01*
X8888674Y-21543803D01*
X8907722Y-21553327D01*
X8917246Y-21572374D01*
X8917246Y-21591422D01*
X8822008Y-21610470D01*
X8993436Y-21667612D02*
X9012484Y-21677136D01*
X9050579Y-21677136D01*
X9069627Y-21667612D01*
X9079150Y-21648565D01*
X9079150Y-21639041D01*
X9069627Y-21619993D01*
X9050579Y-21610470D01*
X9022008Y-21610470D01*
X9002960Y-21600946D01*
X8993436Y-21581898D01*
X8993436Y-21572374D01*
X9002960Y-21553327D01*
X9022008Y-21543803D01*
X9050579Y-21543803D01*
X9069627Y-21553327D01*
X9145817Y-21753327D02*
X9155341Y-21743803D01*
X9174389Y-21715231D01*
X9183912Y-21696184D01*
X9193436Y-21667612D01*
X9202960Y-21619993D01*
X9202960Y-21581898D01*
X9193436Y-21534279D01*
X9183912Y-21505708D01*
X9174389Y-21486660D01*
X9155341Y-21458089D01*
X9145817Y-21448565D01*
D17*
X3902960Y-21805660D02*
X3992960Y-21895660D01*
X3992960Y-21805660D02*
X3902960Y-21895660D01*
X3992960Y-21850660D02*
G75*
G03*
X3992960Y-21850660I-45000J0D01*
G01*
D11*
X4288674Y-21741136D02*
X4307722Y-21741136D01*
X4326770Y-21750660D01*
X4336293Y-21760184D01*
X4345817Y-21779231D01*
X4355341Y-21817327D01*
X4355341Y-21864946D01*
X4345817Y-21903041D01*
X4336293Y-21922089D01*
X4326770Y-21931612D01*
X4307722Y-21941136D01*
X4288674Y-21941136D01*
X4269627Y-21931612D01*
X4260103Y-21922089D01*
X4250579Y-21903041D01*
X4241055Y-21864946D01*
X4241055Y-21817327D01*
X4250579Y-21779231D01*
X4260103Y-21760184D01*
X4269627Y-21750660D01*
X4288674Y-21741136D01*
X4441055Y-21922089D02*
X4450579Y-21931612D01*
X4441055Y-21941136D01*
X4431531Y-21931612D01*
X4441055Y-21922089D01*
X4441055Y-21941136D01*
X4545817Y-21941136D02*
X4583912Y-21941136D01*
X4602960Y-21931612D01*
X4612484Y-21922089D01*
X4631531Y-21893517D01*
X4641055Y-21855422D01*
X4641055Y-21779231D01*
X4631531Y-21760184D01*
X4622008Y-21750660D01*
X4602960Y-21741136D01*
X4564865Y-21741136D01*
X4545817Y-21750660D01*
X4536293Y-21760184D01*
X4526770Y-21779231D01*
X4526770Y-21826850D01*
X4536293Y-21845898D01*
X4545817Y-21855422D01*
X4564865Y-21864946D01*
X4602960Y-21864946D01*
X4622008Y-21855422D01*
X4631531Y-21845898D01*
X4641055Y-21826850D01*
X4764865Y-21741136D02*
X4783912Y-21741136D01*
X4802960Y-21750660D01*
X4812484Y-21760184D01*
X4822008Y-21779231D01*
X4831531Y-21817327D01*
X4831531Y-21864946D01*
X4822008Y-21903041D01*
X4812484Y-21922089D01*
X4802960Y-21931612D01*
X4783912Y-21941136D01*
X4764865Y-21941136D01*
X4745817Y-21931612D01*
X4736293Y-21922089D01*
X4726770Y-21903041D01*
X4717246Y-21864946D01*
X4717246Y-21817327D01*
X4726770Y-21779231D01*
X4736293Y-21760184D01*
X4745817Y-21750660D01*
X4764865Y-21741136D01*
X4955341Y-21741136D02*
X4974389Y-21741136D01*
X4993436Y-21750660D01*
X5002960Y-21760184D01*
X5012484Y-21779231D01*
X5022008Y-21817327D01*
X5022008Y-21864946D01*
X5012484Y-21903041D01*
X5002960Y-21922089D01*
X4993436Y-21931612D01*
X4974389Y-21941136D01*
X4955341Y-21941136D01*
X4936293Y-21931612D01*
X4926770Y-21922089D01*
X4917246Y-21903041D01*
X4907722Y-21864946D01*
X4907722Y-21817327D01*
X4917246Y-21779231D01*
X4926770Y-21760184D01*
X4936293Y-21750660D01*
X4955341Y-21741136D01*
X5107722Y-21941136D02*
X5107722Y-21807803D01*
X5107722Y-21826850D02*
X5117246Y-21817327D01*
X5136293Y-21807803D01*
X5164865Y-21807803D01*
X5183912Y-21817327D01*
X5193436Y-21836374D01*
X5193436Y-21941136D01*
X5193436Y-21836374D02*
X5202960Y-21817327D01*
X5222008Y-21807803D01*
X5250579Y-21807803D01*
X5269627Y-21817327D01*
X5279150Y-21836374D01*
X5279150Y-21941136D01*
X5374389Y-21941136D02*
X5374389Y-21807803D01*
X5374389Y-21826850D02*
X5383912Y-21817327D01*
X5402960Y-21807803D01*
X5431531Y-21807803D01*
X5450579Y-21817327D01*
X5460103Y-21836374D01*
X5460103Y-21941136D01*
X5460103Y-21836374D02*
X5469627Y-21817327D01*
X5488674Y-21807803D01*
X5517246Y-21807803D01*
X5536293Y-21817327D01*
X5545817Y-21836374D01*
X5545817Y-21941136D01*
X5936293Y-21731612D02*
X5764865Y-21988755D01*
X6193436Y-21741136D02*
X6212484Y-21741136D01*
X6231531Y-21750660D01*
X6241055Y-21760184D01*
X6250579Y-21779231D01*
X6260103Y-21817327D01*
X6260103Y-21864946D01*
X6250579Y-21903041D01*
X6241055Y-21922089D01*
X6231531Y-21931612D01*
X6212484Y-21941136D01*
X6193436Y-21941136D01*
X6174388Y-21931612D01*
X6164865Y-21922089D01*
X6155341Y-21903041D01*
X6145817Y-21864946D01*
X6145817Y-21817327D01*
X6155341Y-21779231D01*
X6164865Y-21760184D01*
X6174388Y-21750660D01*
X6193436Y-21741136D01*
X6345817Y-21922089D02*
X6355341Y-21931612D01*
X6345817Y-21941136D01*
X6336293Y-21931612D01*
X6345817Y-21922089D01*
X6345817Y-21941136D01*
X6479150Y-21741136D02*
X6498198Y-21741136D01*
X6517246Y-21750660D01*
X6526769Y-21760184D01*
X6536293Y-21779231D01*
X6545817Y-21817327D01*
X6545817Y-21864946D01*
X6536293Y-21903041D01*
X6526769Y-21922089D01*
X6517246Y-21931612D01*
X6498198Y-21941136D01*
X6479150Y-21941136D01*
X6460103Y-21931612D01*
X6450579Y-21922089D01*
X6441055Y-21903041D01*
X6431531Y-21864946D01*
X6431531Y-21817327D01*
X6441055Y-21779231D01*
X6450579Y-21760184D01*
X6460103Y-21750660D01*
X6479150Y-21741136D01*
X6612484Y-21741136D02*
X6736293Y-21741136D01*
X6669627Y-21817327D01*
X6698198Y-21817327D01*
X6717246Y-21826850D01*
X6726769Y-21836374D01*
X6736293Y-21855422D01*
X6736293Y-21903041D01*
X6726769Y-21922089D01*
X6717246Y-21931612D01*
X6698198Y-21941136D01*
X6641055Y-21941136D01*
X6622008Y-21931612D01*
X6612484Y-21922089D01*
X6917246Y-21741136D02*
X6822008Y-21741136D01*
X6812484Y-21836374D01*
X6822008Y-21826850D01*
X6841055Y-21817327D01*
X6888674Y-21817327D01*
X6907722Y-21826850D01*
X6917246Y-21836374D01*
X6926769Y-21855422D01*
X6926769Y-21903041D01*
X6917246Y-21922089D01*
X6907722Y-21931612D01*
X6888674Y-21941136D01*
X6841055Y-21941136D01*
X6822008Y-21931612D01*
X6812484Y-21922089D01*
X7098198Y-21807803D02*
X7098198Y-21941136D01*
X7050579Y-21731612D02*
X7002960Y-21874470D01*
X7126769Y-21874470D01*
X7193436Y-21741136D02*
X7193436Y-21779231D01*
X7269627Y-21741136D02*
X7269627Y-21779231D01*
X7564865Y-22017327D02*
X7555341Y-22007803D01*
X7536293Y-21979231D01*
X7526769Y-21960184D01*
X7517246Y-21931612D01*
X7507722Y-21883993D01*
X7507722Y-21845898D01*
X7517246Y-21798279D01*
X7526769Y-21769708D01*
X7536293Y-21750660D01*
X7555341Y-21722089D01*
X7564865Y-21712565D01*
X7726769Y-21741136D02*
X7688674Y-21741136D01*
X7669627Y-21750660D01*
X7660103Y-21760184D01*
X7641055Y-21788755D01*
X7631531Y-21826850D01*
X7631531Y-21903041D01*
X7641055Y-21922089D01*
X7650579Y-21931612D01*
X7669627Y-21941136D01*
X7707722Y-21941136D01*
X7726769Y-21931612D01*
X7736293Y-21922089D01*
X7745817Y-21903041D01*
X7745817Y-21855422D01*
X7736293Y-21836374D01*
X7726769Y-21826850D01*
X7707722Y-21817327D01*
X7669627Y-21817327D01*
X7650579Y-21826850D01*
X7641055Y-21836374D01*
X7631531Y-21855422D01*
X7983912Y-21941136D02*
X7983912Y-21741136D01*
X8069627Y-21941136D02*
X8069627Y-21836374D01*
X8060103Y-21817327D01*
X8041055Y-21807803D01*
X8012484Y-21807803D01*
X7993436Y-21817327D01*
X7983912Y-21826850D01*
X8193436Y-21941136D02*
X8174388Y-21931612D01*
X8164865Y-21922089D01*
X8155341Y-21903041D01*
X8155341Y-21845898D01*
X8164865Y-21826850D01*
X8174388Y-21817327D01*
X8193436Y-21807803D01*
X8222008Y-21807803D01*
X8241055Y-21817327D01*
X8250579Y-21826850D01*
X8260103Y-21845898D01*
X8260103Y-21903041D01*
X8250579Y-21922089D01*
X8241055Y-21931612D01*
X8222008Y-21941136D01*
X8193436Y-21941136D01*
X8374388Y-21941136D02*
X8355341Y-21931612D01*
X8345817Y-21912565D01*
X8345817Y-21741136D01*
X8526770Y-21931612D02*
X8507722Y-21941136D01*
X8469627Y-21941136D01*
X8450579Y-21931612D01*
X8441055Y-21912565D01*
X8441055Y-21836374D01*
X8450579Y-21817327D01*
X8469627Y-21807803D01*
X8507722Y-21807803D01*
X8526770Y-21817327D01*
X8536293Y-21836374D01*
X8536293Y-21855422D01*
X8441055Y-21874470D01*
X8612484Y-21931612D02*
X8631531Y-21941136D01*
X8669627Y-21941136D01*
X8688674Y-21931612D01*
X8698198Y-21912565D01*
X8698198Y-21903041D01*
X8688674Y-21883993D01*
X8669627Y-21874470D01*
X8641055Y-21874470D01*
X8622008Y-21864946D01*
X8612484Y-21845898D01*
X8612484Y-21836374D01*
X8622008Y-21817327D01*
X8641055Y-21807803D01*
X8669627Y-21807803D01*
X8688674Y-21817327D01*
X8764865Y-22017327D02*
X8774389Y-22007803D01*
X8793436Y-21979231D01*
X8802960Y-21960184D01*
X8812484Y-21931612D01*
X8822008Y-21883993D01*
X8822008Y-21845898D01*
X8812484Y-21798279D01*
X8802960Y-21769708D01*
X8793436Y-21750660D01*
X8774389Y-21722089D01*
X8764865Y-21712565D01*
D18*
X3892960Y-22064660D02*
X3992960Y-22164660D01*
X3992960Y-22064660D02*
X3892960Y-22164660D01*
X3942960Y-22064660D02*
X3942960Y-22164660D01*
X3892960Y-22114660D02*
X3992960Y-22114660D01*
D11*
X4355341Y-22205136D02*
X4241055Y-22205136D01*
X4298198Y-22205136D02*
X4298198Y-22005136D01*
X4279150Y-22033708D01*
X4260103Y-22052755D01*
X4241055Y-22062279D01*
X4441055Y-22186089D02*
X4450579Y-22195612D01*
X4441055Y-22205136D01*
X4431531Y-22195612D01*
X4441055Y-22186089D01*
X4441055Y-22205136D01*
X4574389Y-22005136D02*
X4593436Y-22005136D01*
X4612484Y-22014660D01*
X4622008Y-22024184D01*
X4631531Y-22043231D01*
X4641055Y-22081327D01*
X4641055Y-22128946D01*
X4631531Y-22167041D01*
X4622008Y-22186089D01*
X4612484Y-22195612D01*
X4593436Y-22205136D01*
X4574389Y-22205136D01*
X4555341Y-22195612D01*
X4545817Y-22186089D01*
X4536293Y-22167041D01*
X4526770Y-22128946D01*
X4526770Y-22081327D01*
X4536293Y-22043231D01*
X4545817Y-22024184D01*
X4555341Y-22014660D01*
X4574389Y-22005136D01*
X4764865Y-22005136D02*
X4783912Y-22005136D01*
X4802960Y-22014660D01*
X4812484Y-22024184D01*
X4822008Y-22043231D01*
X4831531Y-22081327D01*
X4831531Y-22128946D01*
X4822008Y-22167041D01*
X4812484Y-22186089D01*
X4802960Y-22195612D01*
X4783912Y-22205136D01*
X4764865Y-22205136D01*
X4745817Y-22195612D01*
X4736293Y-22186089D01*
X4726770Y-22167041D01*
X4717246Y-22128946D01*
X4717246Y-22081327D01*
X4726770Y-22043231D01*
X4736293Y-22024184D01*
X4745817Y-22014660D01*
X4764865Y-22005136D01*
X4955341Y-22005136D02*
X4974389Y-22005136D01*
X4993436Y-22014660D01*
X5002960Y-22024184D01*
X5012484Y-22043231D01*
X5022008Y-22081327D01*
X5022008Y-22128946D01*
X5012484Y-22167041D01*
X5002960Y-22186089D01*
X4993436Y-22195612D01*
X4974389Y-22205136D01*
X4955341Y-22205136D01*
X4936293Y-22195612D01*
X4926770Y-22186089D01*
X4917246Y-22167041D01*
X4907722Y-22128946D01*
X4907722Y-22081327D01*
X4917246Y-22043231D01*
X4926770Y-22024184D01*
X4936293Y-22014660D01*
X4955341Y-22005136D01*
X5107722Y-22205136D02*
X5107722Y-22071803D01*
X5107722Y-22090850D02*
X5117246Y-22081327D01*
X5136293Y-22071803D01*
X5164865Y-22071803D01*
X5183912Y-22081327D01*
X5193436Y-22100374D01*
X5193436Y-22205136D01*
X5193436Y-22100374D02*
X5202960Y-22081327D01*
X5222008Y-22071803D01*
X5250579Y-22071803D01*
X5269627Y-22081327D01*
X5279150Y-22100374D01*
X5279150Y-22205136D01*
X5374389Y-22205136D02*
X5374389Y-22071803D01*
X5374389Y-22090850D02*
X5383912Y-22081327D01*
X5402960Y-22071803D01*
X5431531Y-22071803D01*
X5450579Y-22081327D01*
X5460103Y-22100374D01*
X5460103Y-22205136D01*
X5460103Y-22100374D02*
X5469627Y-22081327D01*
X5488674Y-22071803D01*
X5517246Y-22071803D01*
X5536293Y-22081327D01*
X5545817Y-22100374D01*
X5545817Y-22205136D01*
X5936293Y-21995612D02*
X5764865Y-22252755D01*
X6193436Y-22005136D02*
X6212484Y-22005136D01*
X6231531Y-22014660D01*
X6241055Y-22024184D01*
X6250579Y-22043231D01*
X6260103Y-22081327D01*
X6260103Y-22128946D01*
X6250579Y-22167041D01*
X6241055Y-22186089D01*
X6231531Y-22195612D01*
X6212484Y-22205136D01*
X6193436Y-22205136D01*
X6174388Y-22195612D01*
X6164865Y-22186089D01*
X6155341Y-22167041D01*
X6145817Y-22128946D01*
X6145817Y-22081327D01*
X6155341Y-22043231D01*
X6164865Y-22024184D01*
X6174388Y-22014660D01*
X6193436Y-22005136D01*
X6345817Y-22186089D02*
X6355341Y-22195612D01*
X6345817Y-22205136D01*
X6336293Y-22195612D01*
X6345817Y-22186089D01*
X6345817Y-22205136D01*
X6479150Y-22005136D02*
X6498198Y-22005136D01*
X6517246Y-22014660D01*
X6526769Y-22024184D01*
X6536293Y-22043231D01*
X6545817Y-22081327D01*
X6545817Y-22128946D01*
X6536293Y-22167041D01*
X6526769Y-22186089D01*
X6517246Y-22195612D01*
X6498198Y-22205136D01*
X6479150Y-22205136D01*
X6460103Y-22195612D01*
X6450579Y-22186089D01*
X6441055Y-22167041D01*
X6431531Y-22128946D01*
X6431531Y-22081327D01*
X6441055Y-22043231D01*
X6450579Y-22024184D01*
X6460103Y-22014660D01*
X6479150Y-22005136D01*
X6612484Y-22005136D02*
X6736293Y-22005136D01*
X6669627Y-22081327D01*
X6698198Y-22081327D01*
X6717246Y-22090850D01*
X6726769Y-22100374D01*
X6736293Y-22119422D01*
X6736293Y-22167041D01*
X6726769Y-22186089D01*
X6717246Y-22195612D01*
X6698198Y-22205136D01*
X6641055Y-22205136D01*
X6622008Y-22195612D01*
X6612484Y-22186089D01*
X6831531Y-22205136D02*
X6869627Y-22205136D01*
X6888674Y-22195612D01*
X6898198Y-22186089D01*
X6917246Y-22157517D01*
X6926769Y-22119422D01*
X6926769Y-22043231D01*
X6917246Y-22024184D01*
X6907722Y-22014660D01*
X6888674Y-22005136D01*
X6850579Y-22005136D01*
X6831531Y-22014660D01*
X6822008Y-22024184D01*
X6812484Y-22043231D01*
X6812484Y-22090850D01*
X6822008Y-22109898D01*
X6831531Y-22119422D01*
X6850579Y-22128946D01*
X6888674Y-22128946D01*
X6907722Y-22119422D01*
X6917246Y-22109898D01*
X6926769Y-22090850D01*
X7098198Y-22071803D02*
X7098198Y-22205136D01*
X7050579Y-21995612D02*
X7002960Y-22138470D01*
X7126769Y-22138470D01*
X7193436Y-22005136D02*
X7193436Y-22043231D01*
X7269627Y-22005136D02*
X7269627Y-22043231D01*
X7564865Y-22281327D02*
X7555341Y-22271803D01*
X7536293Y-22243231D01*
X7526769Y-22224184D01*
X7517246Y-22195612D01*
X7507722Y-22147993D01*
X7507722Y-22109898D01*
X7517246Y-22062279D01*
X7526769Y-22033708D01*
X7536293Y-22014660D01*
X7555341Y-21986089D01*
X7564865Y-21976565D01*
X7650579Y-22205136D02*
X7688674Y-22205136D01*
X7707722Y-22195612D01*
X7717246Y-22186089D01*
X7736293Y-22157517D01*
X7745817Y-22119422D01*
X7745817Y-22043231D01*
X7736293Y-22024184D01*
X7726769Y-22014660D01*
X7707722Y-22005136D01*
X7669627Y-22005136D01*
X7650579Y-22014660D01*
X7641055Y-22024184D01*
X7631531Y-22043231D01*
X7631531Y-22090850D01*
X7641055Y-22109898D01*
X7650579Y-22119422D01*
X7669627Y-22128946D01*
X7707722Y-22128946D01*
X7726769Y-22119422D01*
X7736293Y-22109898D01*
X7745817Y-22090850D01*
X7983912Y-22205136D02*
X7983912Y-22005136D01*
X8069627Y-22205136D02*
X8069627Y-22100374D01*
X8060103Y-22081327D01*
X8041055Y-22071803D01*
X8012484Y-22071803D01*
X7993436Y-22081327D01*
X7983912Y-22090850D01*
X8193436Y-22205136D02*
X8174388Y-22195612D01*
X8164865Y-22186089D01*
X8155341Y-22167041D01*
X8155341Y-22109898D01*
X8164865Y-22090850D01*
X8174388Y-22081327D01*
X8193436Y-22071803D01*
X8222008Y-22071803D01*
X8241055Y-22081327D01*
X8250579Y-22090850D01*
X8260103Y-22109898D01*
X8260103Y-22167041D01*
X8250579Y-22186089D01*
X8241055Y-22195612D01*
X8222008Y-22205136D01*
X8193436Y-22205136D01*
X8374388Y-22205136D02*
X8355341Y-22195612D01*
X8345817Y-22176565D01*
X8345817Y-22005136D01*
X8526770Y-22195612D02*
X8507722Y-22205136D01*
X8469627Y-22205136D01*
X8450579Y-22195612D01*
X8441055Y-22176565D01*
X8441055Y-22100374D01*
X8450579Y-22081327D01*
X8469627Y-22071803D01*
X8507722Y-22071803D01*
X8526770Y-22081327D01*
X8536293Y-22100374D01*
X8536293Y-22119422D01*
X8441055Y-22138470D01*
X8612484Y-22195612D02*
X8631531Y-22205136D01*
X8669627Y-22205136D01*
X8688674Y-22195612D01*
X8698198Y-22176565D01*
X8698198Y-22167041D01*
X8688674Y-22147993D01*
X8669627Y-22138470D01*
X8641055Y-22138470D01*
X8622008Y-22128946D01*
X8612484Y-22109898D01*
X8612484Y-22100374D01*
X8622008Y-22081327D01*
X8641055Y-22071803D01*
X8669627Y-22071803D01*
X8688674Y-22081327D01*
X8764865Y-22281327D02*
X8774389Y-22271803D01*
X8793436Y-22243231D01*
X8802960Y-22224184D01*
X8812484Y-22195612D01*
X8822008Y-22147993D01*
X8822008Y-22109898D01*
X8812484Y-22062279D01*
X8802960Y-22033708D01*
X8793436Y-22014660D01*
X8774389Y-21986089D01*
X8764865Y-21976565D01*
D19*
X3882960Y-22323660D02*
X3992960Y-22433660D01*
X3992960Y-22323660D02*
X3882960Y-22433660D01*
X3976851Y-22417551D02*
X3976851Y-22339769D01*
X3899069Y-22339769D01*
X3899069Y-22417551D01*
X3976851Y-22417551D01*
D11*
X4355341Y-22469136D02*
X4241055Y-22469136D01*
X4298198Y-22469136D02*
X4298198Y-22269136D01*
X4279150Y-22297708D01*
X4260103Y-22316755D01*
X4241055Y-22326279D01*
X4441055Y-22450088D02*
X4450579Y-22459612D01*
X4441055Y-22469136D01*
X4431531Y-22459612D01*
X4441055Y-22450088D01*
X4441055Y-22469136D01*
X4641055Y-22469136D02*
X4526770Y-22469136D01*
X4583912Y-22469136D02*
X4583912Y-22269136D01*
X4564865Y-22297708D01*
X4545817Y-22316755D01*
X4526770Y-22326279D01*
X4764865Y-22269136D02*
X4783912Y-22269136D01*
X4802960Y-22278660D01*
X4812484Y-22288184D01*
X4822008Y-22307231D01*
X4831531Y-22345327D01*
X4831531Y-22392946D01*
X4822008Y-22431041D01*
X4812484Y-22450088D01*
X4802960Y-22459612D01*
X4783912Y-22469136D01*
X4764865Y-22469136D01*
X4745817Y-22459612D01*
X4736293Y-22450088D01*
X4726770Y-22431041D01*
X4717246Y-22392946D01*
X4717246Y-22345327D01*
X4726770Y-22307231D01*
X4736293Y-22288184D01*
X4745817Y-22278660D01*
X4764865Y-22269136D01*
X4955341Y-22269136D02*
X4974389Y-22269136D01*
X4993436Y-22278660D01*
X5002960Y-22288184D01*
X5012484Y-22307231D01*
X5022008Y-22345327D01*
X5022008Y-22392946D01*
X5012484Y-22431041D01*
X5002960Y-22450088D01*
X4993436Y-22459612D01*
X4974389Y-22469136D01*
X4955341Y-22469136D01*
X4936293Y-22459612D01*
X4926770Y-22450088D01*
X4917246Y-22431041D01*
X4907722Y-22392946D01*
X4907722Y-22345327D01*
X4917246Y-22307231D01*
X4926770Y-22288184D01*
X4936293Y-22278660D01*
X4955341Y-22269136D01*
X5107722Y-22469136D02*
X5107722Y-22335803D01*
X5107722Y-22354850D02*
X5117246Y-22345327D01*
X5136293Y-22335803D01*
X5164865Y-22335803D01*
X5183912Y-22345327D01*
X5193436Y-22364374D01*
X5193436Y-22469136D01*
X5193436Y-22364374D02*
X5202960Y-22345327D01*
X5222008Y-22335803D01*
X5250579Y-22335803D01*
X5269627Y-22345327D01*
X5279150Y-22364374D01*
X5279150Y-22469136D01*
X5374389Y-22469136D02*
X5374389Y-22335803D01*
X5374389Y-22354850D02*
X5383912Y-22345327D01*
X5402960Y-22335803D01*
X5431531Y-22335803D01*
X5450579Y-22345327D01*
X5460103Y-22364374D01*
X5460103Y-22469136D01*
X5460103Y-22364374D02*
X5469627Y-22345327D01*
X5488674Y-22335803D01*
X5517246Y-22335803D01*
X5536293Y-22345327D01*
X5545817Y-22364374D01*
X5545817Y-22469136D01*
X5936293Y-22259612D02*
X5764865Y-22516755D01*
X6193436Y-22269136D02*
X6212484Y-22269136D01*
X6231531Y-22278660D01*
X6241055Y-22288184D01*
X6250579Y-22307231D01*
X6260103Y-22345327D01*
X6260103Y-22392946D01*
X6250579Y-22431041D01*
X6241055Y-22450088D01*
X6231531Y-22459612D01*
X6212484Y-22469136D01*
X6193436Y-22469136D01*
X6174388Y-22459612D01*
X6164865Y-22450088D01*
X6155341Y-22431041D01*
X6145817Y-22392946D01*
X6145817Y-22345327D01*
X6155341Y-22307231D01*
X6164865Y-22288184D01*
X6174388Y-22278660D01*
X6193436Y-22269136D01*
X6345817Y-22450088D02*
X6355341Y-22459612D01*
X6345817Y-22469136D01*
X6336293Y-22459612D01*
X6345817Y-22450088D01*
X6345817Y-22469136D01*
X6479150Y-22269136D02*
X6498198Y-22269136D01*
X6517246Y-22278660D01*
X6526769Y-22288184D01*
X6536293Y-22307231D01*
X6545817Y-22345327D01*
X6545817Y-22392946D01*
X6536293Y-22431041D01*
X6526769Y-22450088D01*
X6517246Y-22459612D01*
X6498198Y-22469136D01*
X6479150Y-22469136D01*
X6460103Y-22459612D01*
X6450579Y-22450088D01*
X6441055Y-22431041D01*
X6431531Y-22392946D01*
X6431531Y-22345327D01*
X6441055Y-22307231D01*
X6450579Y-22288184D01*
X6460103Y-22278660D01*
X6479150Y-22269136D01*
X6717246Y-22335803D02*
X6717246Y-22469136D01*
X6669627Y-22259612D02*
X6622008Y-22402469D01*
X6745817Y-22402469D01*
X6802960Y-22269136D02*
X6926769Y-22269136D01*
X6860103Y-22345327D01*
X6888674Y-22345327D01*
X6907722Y-22354850D01*
X6917246Y-22364374D01*
X6926769Y-22383422D01*
X6926769Y-22431041D01*
X6917246Y-22450088D01*
X6907722Y-22459612D01*
X6888674Y-22469136D01*
X6831531Y-22469136D01*
X6812484Y-22459612D01*
X6802960Y-22450088D01*
X6993436Y-22269136D02*
X7117246Y-22269136D01*
X7050579Y-22345327D01*
X7079150Y-22345327D01*
X7098198Y-22354850D01*
X7107722Y-22364374D01*
X7117246Y-22383422D01*
X7117246Y-22431041D01*
X7107722Y-22450088D01*
X7098198Y-22459612D01*
X7079150Y-22469136D01*
X7022008Y-22469136D01*
X7002960Y-22459612D01*
X6993436Y-22450088D01*
X7193436Y-22269136D02*
X7193436Y-22307231D01*
X7269627Y-22269136D02*
X7269627Y-22307231D01*
X7564865Y-22545327D02*
X7555341Y-22535803D01*
X7536293Y-22507231D01*
X7526769Y-22488184D01*
X7517246Y-22459612D01*
X7507722Y-22411993D01*
X7507722Y-22373898D01*
X7517246Y-22326279D01*
X7526769Y-22297708D01*
X7536293Y-22278660D01*
X7555341Y-22250089D01*
X7564865Y-22240565D01*
X7669627Y-22354850D02*
X7650579Y-22345327D01*
X7641055Y-22335803D01*
X7631531Y-22316755D01*
X7631531Y-22307231D01*
X7641055Y-22288184D01*
X7650579Y-22278660D01*
X7669627Y-22269136D01*
X7707722Y-22269136D01*
X7726769Y-22278660D01*
X7736293Y-22288184D01*
X7745817Y-22307231D01*
X7745817Y-22316755D01*
X7736293Y-22335803D01*
X7726769Y-22345327D01*
X7707722Y-22354850D01*
X7669627Y-22354850D01*
X7650579Y-22364374D01*
X7641055Y-22373898D01*
X7631531Y-22392946D01*
X7631531Y-22431041D01*
X7641055Y-22450088D01*
X7650579Y-22459612D01*
X7669627Y-22469136D01*
X7707722Y-22469136D01*
X7726769Y-22459612D01*
X7736293Y-22450088D01*
X7745817Y-22431041D01*
X7745817Y-22392946D01*
X7736293Y-22373898D01*
X7726769Y-22364374D01*
X7707722Y-22354850D01*
X7983912Y-22469136D02*
X7983912Y-22269136D01*
X8069627Y-22469136D02*
X8069627Y-22364374D01*
X8060103Y-22345327D01*
X8041055Y-22335803D01*
X8012484Y-22335803D01*
X7993436Y-22345327D01*
X7983912Y-22354850D01*
X8193436Y-22469136D02*
X8174388Y-22459612D01*
X8164865Y-22450088D01*
X8155341Y-22431041D01*
X8155341Y-22373898D01*
X8164865Y-22354850D01*
X8174388Y-22345327D01*
X8193436Y-22335803D01*
X8222008Y-22335803D01*
X8241055Y-22345327D01*
X8250579Y-22354850D01*
X8260103Y-22373898D01*
X8260103Y-22431041D01*
X8250579Y-22450088D01*
X8241055Y-22459612D01*
X8222008Y-22469136D01*
X8193436Y-22469136D01*
X8374388Y-22469136D02*
X8355341Y-22459612D01*
X8345817Y-22440565D01*
X8345817Y-22269136D01*
X8526770Y-22459612D02*
X8507722Y-22469136D01*
X8469627Y-22469136D01*
X8450579Y-22459612D01*
X8441055Y-22440565D01*
X8441055Y-22364374D01*
X8450579Y-22345327D01*
X8469627Y-22335803D01*
X8507722Y-22335803D01*
X8526770Y-22345327D01*
X8536293Y-22364374D01*
X8536293Y-22383422D01*
X8441055Y-22402469D01*
X8612484Y-22459612D02*
X8631531Y-22469136D01*
X8669627Y-22469136D01*
X8688674Y-22459612D01*
X8698198Y-22440565D01*
X8698198Y-22431041D01*
X8688674Y-22411993D01*
X8669627Y-22402469D01*
X8641055Y-22402469D01*
X8622008Y-22392946D01*
X8612484Y-22373898D01*
X8612484Y-22364374D01*
X8622008Y-22345327D01*
X8641055Y-22335803D01*
X8669627Y-22335803D01*
X8688674Y-22345327D01*
X8764865Y-22545327D02*
X8774389Y-22535803D01*
X8793436Y-22507231D01*
X8802960Y-22488184D01*
X8812484Y-22459612D01*
X8822008Y-22411993D01*
X8822008Y-22373898D01*
X8812484Y-22326279D01*
X8802960Y-22297708D01*
X8793436Y-22278660D01*
X8774389Y-22250089D01*
X8764865Y-22240565D01*
D20*
X3842960Y-22567660D02*
X3992960Y-22717660D01*
X3992960Y-22567660D02*
X3842960Y-22717660D01*
X3917960Y-22717660D02*
X3992960Y-22642660D01*
X3917960Y-22567660D01*
X3842960Y-22642660D01*
X3917960Y-22717660D01*
D11*
X4355341Y-22733136D02*
X4241055Y-22733136D01*
X4298198Y-22733136D02*
X4298198Y-22533136D01*
X4279150Y-22561708D01*
X4260103Y-22580755D01*
X4241055Y-22590279D01*
X4441055Y-22714088D02*
X4450579Y-22723612D01*
X4441055Y-22733136D01*
X4431531Y-22723612D01*
X4441055Y-22714088D01*
X4441055Y-22733136D01*
X4631531Y-22533136D02*
X4536293Y-22533136D01*
X4526770Y-22628374D01*
X4536293Y-22618850D01*
X4555341Y-22609327D01*
X4602960Y-22609327D01*
X4622008Y-22618850D01*
X4631531Y-22628374D01*
X4641055Y-22647422D01*
X4641055Y-22695041D01*
X4631531Y-22714088D01*
X4622008Y-22723612D01*
X4602960Y-22733136D01*
X4555341Y-22733136D01*
X4536293Y-22723612D01*
X4526770Y-22714088D01*
X4764865Y-22533136D02*
X4783912Y-22533136D01*
X4802960Y-22542660D01*
X4812484Y-22552184D01*
X4822008Y-22571231D01*
X4831531Y-22609327D01*
X4831531Y-22656946D01*
X4822008Y-22695041D01*
X4812484Y-22714088D01*
X4802960Y-22723612D01*
X4783912Y-22733136D01*
X4764865Y-22733136D01*
X4745817Y-22723612D01*
X4736293Y-22714088D01*
X4726770Y-22695041D01*
X4717246Y-22656946D01*
X4717246Y-22609327D01*
X4726770Y-22571231D01*
X4736293Y-22552184D01*
X4745817Y-22542660D01*
X4764865Y-22533136D01*
X4955341Y-22533136D02*
X4974389Y-22533136D01*
X4993436Y-22542660D01*
X5002960Y-22552184D01*
X5012484Y-22571231D01*
X5022008Y-22609327D01*
X5022008Y-22656946D01*
X5012484Y-22695041D01*
X5002960Y-22714088D01*
X4993436Y-22723612D01*
X4974389Y-22733136D01*
X4955341Y-22733136D01*
X4936293Y-22723612D01*
X4926770Y-22714088D01*
X4917246Y-22695041D01*
X4907722Y-22656946D01*
X4907722Y-22609327D01*
X4917246Y-22571231D01*
X4926770Y-22552184D01*
X4936293Y-22542660D01*
X4955341Y-22533136D01*
X5107722Y-22733136D02*
X5107722Y-22599803D01*
X5107722Y-22618850D02*
X5117246Y-22609327D01*
X5136293Y-22599803D01*
X5164865Y-22599803D01*
X5183912Y-22609327D01*
X5193436Y-22628374D01*
X5193436Y-22733136D01*
X5193436Y-22628374D02*
X5202960Y-22609327D01*
X5222008Y-22599803D01*
X5250579Y-22599803D01*
X5269627Y-22609327D01*
X5279150Y-22628374D01*
X5279150Y-22733136D01*
X5374389Y-22733136D02*
X5374389Y-22599803D01*
X5374389Y-22618850D02*
X5383912Y-22609327D01*
X5402960Y-22599803D01*
X5431531Y-22599803D01*
X5450579Y-22609327D01*
X5460103Y-22628374D01*
X5460103Y-22733136D01*
X5460103Y-22628374D02*
X5469627Y-22609327D01*
X5488674Y-22599803D01*
X5517246Y-22599803D01*
X5536293Y-22609327D01*
X5545817Y-22628374D01*
X5545817Y-22733136D01*
X5936293Y-22523612D02*
X5764865Y-22780755D01*
X6193436Y-22533136D02*
X6212484Y-22533136D01*
X6231531Y-22542660D01*
X6241055Y-22552184D01*
X6250579Y-22571231D01*
X6260103Y-22609327D01*
X6260103Y-22656946D01*
X6250579Y-22695041D01*
X6241055Y-22714088D01*
X6231531Y-22723612D01*
X6212484Y-22733136D01*
X6193436Y-22733136D01*
X6174388Y-22723612D01*
X6164865Y-22714088D01*
X6155341Y-22695041D01*
X6145817Y-22656946D01*
X6145817Y-22609327D01*
X6155341Y-22571231D01*
X6164865Y-22552184D01*
X6174388Y-22542660D01*
X6193436Y-22533136D01*
X6345817Y-22714088D02*
X6355341Y-22723612D01*
X6345817Y-22733136D01*
X6336293Y-22723612D01*
X6345817Y-22714088D01*
X6345817Y-22733136D01*
X6479150Y-22533136D02*
X6498198Y-22533136D01*
X6517246Y-22542660D01*
X6526769Y-22552184D01*
X6536293Y-22571231D01*
X6545817Y-22609327D01*
X6545817Y-22656946D01*
X6536293Y-22695041D01*
X6526769Y-22714088D01*
X6517246Y-22723612D01*
X6498198Y-22733136D01*
X6479150Y-22733136D01*
X6460103Y-22723612D01*
X6450579Y-22714088D01*
X6441055Y-22695041D01*
X6431531Y-22656946D01*
X6431531Y-22609327D01*
X6441055Y-22571231D01*
X6450579Y-22552184D01*
X6460103Y-22542660D01*
X6479150Y-22533136D01*
X6726769Y-22533136D02*
X6631531Y-22533136D01*
X6622008Y-22628374D01*
X6631531Y-22618850D01*
X6650579Y-22609327D01*
X6698198Y-22609327D01*
X6717246Y-22618850D01*
X6726769Y-22628374D01*
X6736293Y-22647422D01*
X6736293Y-22695041D01*
X6726769Y-22714088D01*
X6717246Y-22723612D01*
X6698198Y-22733136D01*
X6650579Y-22733136D01*
X6631531Y-22723612D01*
X6622008Y-22714088D01*
X6831531Y-22733136D02*
X6869627Y-22733136D01*
X6888674Y-22723612D01*
X6898198Y-22714088D01*
X6917246Y-22685517D01*
X6926769Y-22647422D01*
X6926769Y-22571231D01*
X6917246Y-22552184D01*
X6907722Y-22542660D01*
X6888674Y-22533136D01*
X6850579Y-22533136D01*
X6831531Y-22542660D01*
X6822008Y-22552184D01*
X6812484Y-22571231D01*
X6812484Y-22618850D01*
X6822008Y-22637898D01*
X6831531Y-22647422D01*
X6850579Y-22656946D01*
X6888674Y-22656946D01*
X6907722Y-22647422D01*
X6917246Y-22637898D01*
X6926769Y-22618850D01*
X7117246Y-22733136D02*
X7002960Y-22733136D01*
X7060103Y-22733136D02*
X7060103Y-22533136D01*
X7041055Y-22561708D01*
X7022008Y-22580755D01*
X7002960Y-22590279D01*
X7193436Y-22533136D02*
X7193436Y-22571231D01*
X7269627Y-22533136D02*
X7269627Y-22571231D01*
X7564865Y-22809327D02*
X7555341Y-22799803D01*
X7536293Y-22771231D01*
X7526769Y-22752184D01*
X7517246Y-22723612D01*
X7507722Y-22675993D01*
X7507722Y-22637898D01*
X7517246Y-22590279D01*
X7526769Y-22561708D01*
X7536293Y-22542660D01*
X7555341Y-22514088D01*
X7564865Y-22504565D01*
X7745817Y-22733136D02*
X7631531Y-22733136D01*
X7688674Y-22733136D02*
X7688674Y-22533136D01*
X7669627Y-22561708D01*
X7650579Y-22580755D01*
X7631531Y-22590279D01*
X7812484Y-22533136D02*
X7945817Y-22533136D01*
X7860103Y-22733136D01*
X8107722Y-22599803D02*
X8107722Y-22733136D01*
X8060103Y-22523612D02*
X8012484Y-22666469D01*
X8136293Y-22666469D01*
X8364865Y-22733136D02*
X8364865Y-22533136D01*
X8450579Y-22733136D02*
X8450579Y-22628374D01*
X8441055Y-22609327D01*
X8422008Y-22599803D01*
X8393436Y-22599803D01*
X8374388Y-22609327D01*
X8364865Y-22618850D01*
X8574389Y-22733136D02*
X8555341Y-22723612D01*
X8545817Y-22714088D01*
X8536293Y-22695041D01*
X8536293Y-22637898D01*
X8545817Y-22618850D01*
X8555341Y-22609327D01*
X8574389Y-22599803D01*
X8602960Y-22599803D01*
X8622008Y-22609327D01*
X8631531Y-22618850D01*
X8641055Y-22637898D01*
X8641055Y-22695041D01*
X8631531Y-22714088D01*
X8622008Y-22723612D01*
X8602960Y-22733136D01*
X8574389Y-22733136D01*
X8755341Y-22733136D02*
X8736293Y-22723612D01*
X8726770Y-22704565D01*
X8726770Y-22533136D01*
X8907722Y-22723612D02*
X8888674Y-22733136D01*
X8850579Y-22733136D01*
X8831531Y-22723612D01*
X8822008Y-22704565D01*
X8822008Y-22628374D01*
X8831531Y-22609327D01*
X8850579Y-22599803D01*
X8888674Y-22599803D01*
X8907722Y-22609327D01*
X8917246Y-22628374D01*
X8917246Y-22647422D01*
X8822008Y-22666469D01*
X8993436Y-22723612D02*
X9012484Y-22733136D01*
X9050579Y-22733136D01*
X9069627Y-22723612D01*
X9079150Y-22704565D01*
X9079150Y-22695041D01*
X9069627Y-22675993D01*
X9050579Y-22666469D01*
X9022008Y-22666469D01*
X9002960Y-22656946D01*
X8993436Y-22637898D01*
X8993436Y-22628374D01*
X9002960Y-22609327D01*
X9022008Y-22599803D01*
X9050579Y-22599803D01*
X9069627Y-22609327D01*
X9145817Y-22809327D02*
X9155341Y-22799803D01*
X9174389Y-22771231D01*
X9183912Y-22752184D01*
X9193436Y-22723612D01*
X9202960Y-22675993D01*
X9202960Y-22637898D01*
X9193436Y-22590279D01*
X9183912Y-22561708D01*
X9174389Y-22542660D01*
X9155341Y-22514088D01*
X9145817Y-22504565D01*
M02*
