M48
; DRILL file {KiCad (6.0.5)} date Fri Jun  3 16:12:28 2022
; FORMAT={-:-/ absolute / metric / decimal}
; #@! TF.CreationDate,2022-06-03T16:12:28-04:00
; #@! TF.GenerationSoftware,Kicad,Pcbnew,(6.0.5)
; #@! TF.FileFunction,Plated,1,2,PTH
FMAT,2
METRIC
; #@! TA.AperFunction,Plated,PTH,ViaDrill
T1C0.400
; #@! TA.AperFunction,Plated,PTH,ComponentDrill
T2C0.700
; #@! TA.AperFunction,Plated,PTH,ComponentDrill
T3C0.750
; #@! TA.AperFunction,Plated,PTH,ComponentDrill
T4C0.762
; #@! TA.AperFunction,Plated,PTH,ComponentDrill
T5C0.800
; #@! TA.AperFunction,Plated,PTH,ComponentDrill
T6C0.900
; #@! TA.AperFunction,Plated,PTH,ComponentDrill
T7C1.000
; #@! TA.AperFunction,Plated,PTH,ComponentDrill
T8C1.100
; #@! TA.AperFunction,Plated,PTH,ComponentDrill
T9C1.500
%
G90
G05
T1
X61.468Y-105.664
X70.866Y-93.98
X281.686Y-183.388
X294.386Y-101.6
X296.418Y-102.108
X299.212Y-183.642
X350.393Y-180.975
X356.108Y-159.512
X356.108Y-161.544
X356.108Y-163.576
X368.3Y-179.578
X371.348Y-137.922
T2
X354.33Y-145.796
X354.33Y-149.352
X354.33Y-152.908
X361.95Y-145.796
X361.95Y-149.352
X361.95Y-152.908
T3
X307.25Y-95.06
X307.25Y-97.06
X307.25Y-99.06
X307.25Y-101.06
X307.25Y-103.06
T4
X53.492Y-156.87
X56.032Y-156.87
X255.905Y-90.678
X258.445Y-90.678
X355.981Y-90.678
X358.521Y-90.678
T5
X43.18Y-130.048
X43.18Y-137.668
X43.434Y-149.098
X43.434Y-156.718
X43.434Y-167.894
X43.434Y-175.514
X43.688Y-103.378
X51.308Y-103.378
X57.15Y-111.125
X57.15Y-118.745
X57.404Y-82.931
X57.404Y-90.551
X59.436Y-187.198
X59.436Y-194.818
X62.992Y-148.336
X62.992Y-155.956
X64.262Y-187.198
X64.262Y-194.818
X66.675Y-130.175
X66.675Y-137.795
X76.2Y-83.058
X76.2Y-90.678
X76.2Y-111.125
X76.2Y-118.745
X81.28Y-168.275
X81.28Y-175.895
X85.725Y-130.175
X85.725Y-137.795
X85.725Y-187.325
X85.725Y-194.945
X90.17Y-149.225
X90.17Y-156.845
X94.615Y-83.058
X94.615Y-90.678
X95.25Y-111.125
X95.25Y-118.745
X100.33Y-168.275
X100.33Y-175.895
X104.775Y-130.175
X104.775Y-137.795
X109.22Y-149.225
X109.22Y-156.845
X114.3Y-83.058
X114.3Y-90.678
X114.3Y-111.125
X114.3Y-118.745
X119.38Y-168.275
X119.38Y-175.895
X123.825Y-130.175
X123.825Y-137.795
X128.27Y-149.225
X128.27Y-156.845
X133.35Y-83.058
X133.35Y-90.678
X133.35Y-111.125
X133.35Y-118.745
X138.43Y-168.275
X138.43Y-175.895
X142.875Y-130.175
X142.875Y-137.795
X147.955Y-149.225
X147.955Y-156.845
X152.4Y-111.125
X152.4Y-118.745
X156.21Y-187.325
X156.21Y-194.945
X157.48Y-168.275
X157.48Y-175.895
X161.29Y-83.058
X161.29Y-90.678
X161.925Y-130.175
X161.925Y-137.795
X167.005Y-149.225
X167.005Y-156.845
X171.45Y-111.125
X171.45Y-118.745
X176.53Y-168.275
X176.53Y-175.895
X180.975Y-83.058
X180.975Y-90.678
X180.975Y-130.175
X180.975Y-137.795
X186.055Y-149.352
X186.055Y-156.972
X190.5Y-111.125
X190.5Y-118.745
X195.58Y-168.275
X195.58Y-175.895
X200.025Y-83.058
X200.025Y-90.678
X200.66Y-130.175
X200.66Y-137.795
X205.105Y-149.225
X205.105Y-156.845
X209.55Y-111.125
X209.55Y-118.745
X214.376Y-168.275
X214.376Y-175.895
X219.075Y-83.058
X219.075Y-90.678
X219.075Y-130.175
X219.075Y-137.795
X224.155Y-149.225
X224.155Y-156.845
X229.235Y-111.125
X229.235Y-118.745
X230.505Y-187.325
X230.505Y-194.945
X233.045Y-168.275
X233.045Y-175.895
X238.125Y-130.175
X238.125Y-137.795
X242.57Y-149.225
X242.57Y-156.845
X247.65Y-83.058
X247.65Y-90.678
X247.65Y-111.125
X247.65Y-118.745
X252.095Y-187.325
X252.095Y-194.945
X252.73Y-168.275
X252.73Y-175.895
X256.54Y-130.175
X256.54Y-137.795
X262.255Y-149.225
X262.255Y-156.845
X266.7Y-83.058
X266.7Y-90.678
X266.7Y-111.125
X266.7Y-118.745
X276.225Y-130.175
X276.225Y-137.795
X276.225Y-168.148
X276.225Y-175.768
X276.225Y-187.325
X276.225Y-194.945
X284.988Y-149.352
X284.988Y-156.972
X285.75Y-83.058
X285.75Y-90.678
X288.29Y-111.125
X288.29Y-118.745
X298.45Y-130.175
X298.45Y-137.795
X300.355Y-187.325
X300.355Y-194.945
X304.8Y-83.058
X304.8Y-90.678
X321.105Y-153.56
X321.105Y-155.56
X321.105Y-157.56
X321.105Y-159.56
X321.105Y-161.56
X321.105Y-163.56
X321.105Y-165.56
X321.105Y-167.56
X321.105Y-169.56
X321.105Y-171.56
X323.105Y-151.56
X323.105Y-173.56
X325.105Y-151.56
X325.105Y-173.56
X327.105Y-151.56
X327.105Y-173.56
X328.676Y-83.058
X328.676Y-90.678
X328.676Y-111.125
X328.676Y-118.745
X328.676Y-130.175
X328.676Y-137.795
X329.105Y-151.56
X329.105Y-173.56
X331.105Y-151.56
X331.105Y-173.56
X333.105Y-151.56
X333.105Y-173.56
X334.518Y-180.594
X335.105Y-151.56
X335.105Y-173.56
X337.105Y-151.56
X337.105Y-173.56
X339.105Y-151.56
X339.105Y-173.56
X341.105Y-151.56
X341.105Y-173.56
X342.138Y-180.594
X343.105Y-153.56
X343.105Y-155.56
X343.105Y-157.56
X343.105Y-159.56
X343.105Y-161.56
X343.105Y-163.56
X343.105Y-165.56
X343.105Y-167.56
X343.105Y-169.56
X343.105Y-171.56
X347.726Y-83.058
X347.726Y-90.678
X347.726Y-111.125
X347.726Y-118.745
X347.726Y-130.175
X347.726Y-137.795
X347.726Y-187.198
X347.726Y-194.818
X366.522Y-111.125
X366.522Y-118.745
X366.522Y-130.175
X366.522Y-137.795
X366.776Y-83.058
X366.776Y-90.678
X366.776Y-168.275
X366.776Y-175.895
X367.03Y-187.198
X367.03Y-194.818
T6
X347.726Y-98.293
X347.726Y-100.833
X357.124Y-98.298
X357.124Y-100.838
X366.776Y-98.298
X366.776Y-100.838
T7
X373.126Y-151.638
X373.126Y-154.178
X373.126Y-156.718
X373.126Y-159.258
X373.126Y-161.798
X373.126Y-164.338
X373.126Y-166.878
X373.126Y-169.418
X373.126Y-171.958
T8
X244.654Y-96.81
X244.654Y-101.31
X251.154Y-96.81
X251.154Y-101.31
X257.66Y-96.81
X257.66Y-101.31
X264.16Y-96.81
X264.16Y-101.31
T9
X43.815Y-83.058
X43.815Y-111.176
X46.228Y-187.401
X48.565Y-130.175
X50.165Y-80.518
X50.165Y-108.636
X50.952Y-149.25
X52.578Y-184.861
X54.915Y-127.635
X55.753Y-168.275
X57.302Y-146.71
X62.103Y-165.735
X62.89Y-111.176
X69.24Y-108.636
X70.053Y-187.401
X72.441Y-130.175
X76.403Y-184.861
X77.165Y-149.25
X78.791Y-127.635
X81.915Y-83.058
X81.94Y-111.176
X83.515Y-146.71
X86.69Y-168.275
X88.265Y-80.518
X88.29Y-108.636
X91.491Y-130.175
X93.04Y-165.735
X93.853Y-187.401
X96.215Y-149.25
X97.841Y-127.635
X100.203Y-184.861
X100.965Y-83.058
X100.99Y-111.176
X102.565Y-146.71
X105.74Y-168.275
X107.315Y-80.518
X107.34Y-108.636
X110.541Y-130.175
X112.09Y-165.735
X115.265Y-149.25
X116.891Y-127.635
X120.015Y-83.058
X120.04Y-111.176
X121.615Y-146.71
X124.79Y-168.275
X126.365Y-80.518
X126.39Y-108.636
X129.591Y-130.175
X131.14Y-165.735
X134.315Y-149.25
X135.941Y-127.635
X139.065Y-83.058
X139.09Y-111.176
X140.665Y-146.71
X143.84Y-168.275
X145.415Y-80.518
X145.44Y-108.636
X148.641Y-130.175
X150.19Y-165.735
X153.365Y-149.25
X154.991Y-127.635
X158.14Y-111.176
X159.715Y-146.71
X162.89Y-168.275
X164.49Y-108.636
X165.278Y-187.401
X167.64Y-83.058
X167.691Y-130.175
X169.24Y-165.735
X171.628Y-184.861
X172.415Y-149.25
X173.99Y-80.518
X174.041Y-127.635
X177.19Y-111.176
X178.765Y-146.71
X181.94Y-168.275
X183.54Y-108.636
X186.69Y-83.058
X186.741Y-130.175
X188.29Y-165.735
X191.465Y-149.25
X193.04Y-80.518
X193.091Y-127.635
X196.24Y-111.176
X197.815Y-146.71
X200.99Y-168.275
X202.59Y-108.636
X205.74Y-83.058
X205.791Y-130.175
X207.34Y-165.735
X210.515Y-149.25
X212.09Y-80.518
X212.141Y-127.635
X215.29Y-111.176
X216.865Y-146.71
X220.04Y-168.275
X221.64Y-108.636
X224.79Y-83.058
X224.841Y-130.175
X226.39Y-165.735
X229.565Y-149.25
X231.14Y-80.518
X231.191Y-127.635
X234.34Y-111.176
X235.915Y-146.71
X236.626Y-187.401
X239.09Y-168.275
X240.69Y-108.636
X242.976Y-184.861
X243.891Y-130.175
X245.44Y-165.735
X248.615Y-149.25
X250.241Y-127.635
X253.365Y-83.058
X253.39Y-111.176
X254.965Y-146.71
X258.14Y-168.275
X259.715Y-80.518
X259.74Y-108.636
X260.502Y-187.401
X262.941Y-130.175
X264.49Y-165.735
X266.852Y-184.861
X267.665Y-149.25
X269.291Y-127.635
X272.415Y-83.058
X272.44Y-111.176
X274.015Y-146.71
X278.765Y-80.518
X278.79Y-108.636
X281.991Y-130.175
X284.353Y-187.401
X288.341Y-127.635
X290.703Y-184.861
X291.465Y-83.058
X293.929Y-168.275
X297.815Y-80.518
X298.602Y-149.25
X300.279Y-165.735
X301.015Y-111.176
X304.952Y-146.71
X305.765Y-130.175
X307.365Y-108.636
X308.229Y-187.401
X310.515Y-83.058
X312.115Y-127.635
X314.579Y-184.861
X316.865Y-80.518
X334.391Y-83.058
X334.391Y-187.401
X334.416Y-111.176
X334.442Y-130.175
X340.741Y-80.518
X340.741Y-184.861
X340.766Y-108.636
X340.792Y-127.635
X353.441Y-83.058
X353.441Y-168.275
X353.441Y-187.401
X353.466Y-111.176
X353.492Y-130.175
X359.791Y-80.518
X359.791Y-165.735
X359.791Y-184.861
X359.816Y-108.636
X359.842Y-127.635
X372.491Y-83.058
X372.491Y-187.401
X372.516Y-111.176
X372.542Y-130.175
X378.841Y-80.518
X378.841Y-184.861
X378.866Y-108.636
X378.892Y-127.635
T0
M30
