%FSLAX45Y45*%
G04 Gerber Fmt 4.5, Leading zero omitted, Abs format (unit mm)*
G04 Created by KiCad (PCBNEW (6.0.6)) date 2022-06-23 13:21:33*
%MOMM*%
%LPD*%
G01*
G04 APERTURE LIST*
%TA.AperFunction,Profile*%
%ADD10C,0.050800*%
%TD*%
%TA.AperFunction,Profile*%
%ADD11C,0.100000*%
%TD*%
%TA.AperFunction,Profile*%
%ADD12C,0.200000*%
%TD*%
%TA.AperFunction,Profile*%
%ADD13C,0.177800*%
%TD*%
%TA.AperFunction,Profile*%
%ADD14C,0.052530*%
%TD*%
%ADD15C,0.200000*%
G04 APERTURE END LIST*
D10*
X29508450Y-7825740D02*
X30907990Y-7825740D01*
X30907990Y-7825740D02*
X30907990Y-9225280D01*
X30907990Y-9225280D02*
X29508450Y-9225280D01*
X29508450Y-9225280D02*
X29508450Y-7825740D01*
X15701010Y-7825740D02*
X17100550Y-7825740D01*
X17100550Y-7825740D02*
X17100550Y-9225280D01*
X17100550Y-9225280D02*
X15701010Y-9225280D01*
X15701010Y-9225280D02*
X15701010Y-7825740D01*
X34281110Y-7825740D02*
X35680650Y-7825740D01*
X35680650Y-7825740D02*
X35680650Y-9225280D01*
X35680650Y-9225280D02*
X34281110Y-9225280D01*
X34281110Y-9225280D02*
X34281110Y-7825740D01*
X10458450Y-9733280D02*
X11857990Y-9733280D01*
X11857990Y-9733280D02*
X11857990Y-11132820D01*
X11857990Y-11132820D02*
X10458450Y-11132820D01*
X10458450Y-11132820D02*
X10458450Y-9733280D01*
X19505930Y-3114040D02*
X20905470Y-3114040D01*
X20905470Y-3114040D02*
X20905470Y-4513580D01*
X20905470Y-4513580D02*
X19505930Y-4513580D01*
X19505930Y-4513580D02*
X19505930Y-3114040D01*
X21416010Y-7825740D02*
X22815550Y-7825740D01*
X22815550Y-7825740D02*
X22815550Y-9225280D01*
X22815550Y-9225280D02*
X21416010Y-9225280D01*
X21416010Y-9225280D02*
X21416010Y-7825740D01*
X6176010Y-7825740D02*
X7575550Y-7825740D01*
X7575550Y-7825740D02*
X7575550Y-9225280D01*
X7575550Y-9225280D02*
X6176010Y-9225280D01*
X6176010Y-9225280D02*
X6176010Y-7825740D01*
X34278570Y-5925820D02*
X35678110Y-5925820D01*
X35678110Y-5925820D02*
X35678110Y-7325360D01*
X35678110Y-7325360D02*
X34278570Y-7325360D01*
X34278570Y-7325360D02*
X34278570Y-5925820D01*
X5937250Y-13548360D02*
X7336790Y-13548360D01*
X7336790Y-13548360D02*
X7336790Y-14947900D01*
X7336790Y-14947900D02*
X5937250Y-14947900D01*
X5937250Y-14947900D02*
X5937250Y-13548360D01*
X12363450Y-9733280D02*
X13762990Y-9733280D01*
X13762990Y-9733280D02*
X13762990Y-11132820D01*
X13762990Y-11132820D02*
X12363450Y-11132820D01*
X12363450Y-11132820D02*
X12363450Y-9733280D01*
X21410930Y-3114040D02*
X22810470Y-3114040D01*
X22810470Y-3114040D02*
X22810470Y-4513580D01*
X22810470Y-4513580D02*
X21410930Y-4513580D01*
X21410930Y-4513580D02*
X21410930Y-3114040D01*
X6648450Y-9733280D02*
X8047990Y-9733280D01*
X8047990Y-9733280D02*
X8047990Y-11132820D01*
X8047990Y-11132820D02*
X6648450Y-11132820D01*
X6648450Y-11132820D02*
X6648450Y-9733280D01*
X8081010Y-7825740D02*
X9480550Y-7825740D01*
X9480550Y-7825740D02*
X9480550Y-9225280D01*
X9480550Y-9225280D02*
X8081010Y-9225280D01*
X8081010Y-9225280D02*
X8081010Y-7825740D01*
X26173430Y-3114040D02*
X27572970Y-3114040D01*
X27572970Y-3114040D02*
X27572970Y-4513580D01*
X27572970Y-4513580D02*
X26173430Y-4513580D01*
X26173430Y-4513580D02*
X26173430Y-3114040D01*
X18555970Y-5925820D02*
X19955510Y-5925820D01*
X19955510Y-5925820D02*
X19955510Y-7325360D01*
X19955510Y-7325360D02*
X18555970Y-7325360D01*
X18555970Y-7325360D02*
X18555970Y-5925820D01*
X7123430Y-3114040D02*
X8522970Y-3114040D01*
X8522970Y-3114040D02*
X8522970Y-4513580D01*
X8522970Y-4513580D02*
X7123430Y-4513580D01*
X7123430Y-4513580D02*
X7123430Y-3114040D01*
X19030950Y-11635740D02*
X20430490Y-11635740D01*
X20430490Y-11635740D02*
X20430490Y-13035280D01*
X20430490Y-13035280D02*
X19030950Y-13035280D01*
X19030950Y-13035280D02*
X19030950Y-11635740D01*
X8553450Y-9733280D02*
X9952990Y-9733280D01*
X9952990Y-9733280D02*
X9952990Y-11132820D01*
X9952990Y-11132820D02*
X8553450Y-11132820D01*
X8553450Y-11132820D02*
X8553450Y-9733280D01*
X5220970Y-5925820D02*
X6620510Y-5925820D01*
X6620510Y-5925820D02*
X6620510Y-7325360D01*
X6620510Y-7325360D02*
X5220970Y-7325360D01*
X5220970Y-7325360D02*
X5220970Y-5925820D01*
X13796010Y-7825740D02*
X15195550Y-7825740D01*
X15195550Y-7825740D02*
X15195550Y-9225280D01*
X15195550Y-9225280D02*
X13796010Y-9225280D01*
X13796010Y-9225280D02*
X13796010Y-7825740D01*
X15695930Y-3114040D02*
X17095470Y-3114040D01*
X17095470Y-3114040D02*
X17095470Y-4513580D01*
X17095470Y-4513580D02*
X15695930Y-4513580D01*
X15695930Y-4513580D02*
X15695930Y-3114040D01*
X14268450Y-9733280D02*
X15667990Y-9733280D01*
X15667990Y-9733280D02*
X15667990Y-11132820D01*
X15667990Y-11132820D02*
X14268450Y-11132820D01*
X14268450Y-11132820D02*
X14268450Y-9733280D01*
X36181030Y-13548360D02*
X37580570Y-13548360D01*
X37580570Y-13548360D02*
X37580570Y-14947900D01*
X37580570Y-14947900D02*
X36181030Y-14947900D01*
X36181030Y-14947900D02*
X36181030Y-13548360D01*
X14745970Y-5925820D02*
X16145510Y-5925820D01*
X16145510Y-5925820D02*
X16145510Y-7325360D01*
X16145510Y-7325360D02*
X14745970Y-7325360D01*
X14745970Y-7325360D02*
X14745970Y-5925820D01*
X36181030Y-3114040D02*
X37580570Y-3114040D01*
X37580570Y-3114040D02*
X37580570Y-4513580D01*
X37580570Y-4513580D02*
X36181030Y-4513580D01*
X36181030Y-4513580D02*
X36181030Y-3114040D01*
X24745950Y-11635740D02*
X26145490Y-11635740D01*
X26145490Y-11635740D02*
X26145490Y-13035280D01*
X26145490Y-13035280D02*
X24745950Y-13035280D01*
X24745950Y-13035280D02*
X24745950Y-11635740D01*
X29754830Y-13548360D02*
X31154370Y-13548360D01*
X31154370Y-13548360D02*
X31154370Y-14947900D01*
X31154370Y-14947900D02*
X29754830Y-14947900D01*
X29754830Y-14947900D02*
X29754830Y-13548360D01*
X7125970Y-5925820D02*
X8525510Y-5925820D01*
X8525510Y-5925820D02*
X8525510Y-7325360D01*
X8525510Y-7325360D02*
X7125970Y-7325360D01*
X7125970Y-7325360D02*
X7125970Y-5925820D01*
X19511010Y-7825740D02*
X20910550Y-7825740D01*
X20910550Y-7825740D02*
X20910550Y-9225280D01*
X20910550Y-9225280D02*
X19511010Y-9225280D01*
X19511010Y-9225280D02*
X19511010Y-7825740D01*
X32373570Y-5925820D02*
X33773110Y-5925820D01*
X33773110Y-5925820D02*
X33773110Y-7325360D01*
X33773110Y-7325360D02*
X32373570Y-7325360D01*
X32373570Y-7325360D02*
X32373570Y-5925820D01*
X16650970Y-5925820D02*
X18050510Y-5925820D01*
X18050510Y-5925820D02*
X18050510Y-7325360D01*
X18050510Y-7325360D02*
X16650970Y-7325360D01*
X16650970Y-7325360D02*
X16650970Y-5925820D01*
X36183570Y-5925820D02*
X37583110Y-5925820D01*
X37583110Y-5925820D02*
X37583110Y-7325360D01*
X37583110Y-7325360D02*
X36183570Y-7325360D01*
X36183570Y-7325360D02*
X36183570Y-5925820D01*
X11410950Y-11635740D02*
X12810490Y-11635740D01*
X12810490Y-11635740D02*
X12810490Y-13035280D01*
X12810490Y-13035280D02*
X11410950Y-13035280D01*
X11410950Y-13035280D02*
X11410950Y-11635740D01*
X32376110Y-7825740D02*
X33775650Y-7825740D01*
X33775650Y-7825740D02*
X33775650Y-9225280D01*
X33775650Y-9225280D02*
X32376110Y-9225280D01*
X32376110Y-9225280D02*
X32376110Y-7825740D01*
X3788410Y-7825740D02*
X5187950Y-7825740D01*
X5187950Y-7825740D02*
X5187950Y-9225280D01*
X5187950Y-9225280D02*
X3788410Y-9225280D01*
X3788410Y-9225280D02*
X3788410Y-7825740D01*
X26175970Y-5925820D02*
X27575510Y-5925820D01*
X27575510Y-5925820D02*
X27575510Y-7325360D01*
X27575510Y-7325360D02*
X26175970Y-7325360D01*
X26175970Y-7325360D02*
X26175970Y-5925820D01*
X12838430Y-3114040D02*
X14237970Y-3114040D01*
X14237970Y-3114040D02*
X14237970Y-4513580D01*
X14237970Y-4513580D02*
X12838430Y-4513580D01*
X12838430Y-4513580D02*
X12838430Y-3114040D01*
X13315950Y-11635740D02*
X14715490Y-11635740D01*
X14715490Y-11635740D02*
X14715490Y-13035280D01*
X14715490Y-13035280D02*
X13315950Y-13035280D01*
X13315950Y-13035280D02*
X13315950Y-11635740D01*
X17600930Y-3114040D02*
X19000470Y-3114040D01*
X19000470Y-3114040D02*
X19000470Y-4513580D01*
X19000470Y-4513580D02*
X17600930Y-4513580D01*
X17600930Y-4513580D02*
X17600930Y-3114040D01*
X9030970Y-5925820D02*
X10430510Y-5925820D01*
X10430510Y-5925820D02*
X10430510Y-7325360D01*
X10430510Y-7325360D02*
X9030970Y-7325360D01*
X9030970Y-7325360D02*
X9030970Y-5925820D01*
X28078430Y-3114040D02*
X29477970Y-3114040D01*
X29477970Y-3114040D02*
X29477970Y-4513580D01*
X29477970Y-4513580D02*
X28078430Y-4513580D01*
X28078430Y-4513580D02*
X28078430Y-3114040D01*
X32371030Y-3114040D02*
X33770570Y-3114040D01*
X33770570Y-3114040D02*
X33770570Y-4513580D01*
X33770570Y-4513580D02*
X32371030Y-4513580D01*
X32371030Y-4513580D02*
X32371030Y-3114040D01*
X22594570Y-13548360D02*
X23994110Y-13548360D01*
X23994110Y-13548360D02*
X23994110Y-14947900D01*
X23994110Y-14947900D02*
X22594570Y-14947900D01*
X22594570Y-14947900D02*
X22594570Y-13548360D01*
X20460970Y-5925820D02*
X21860510Y-5925820D01*
X21860510Y-5925820D02*
X21860510Y-7325360D01*
X21860510Y-7325360D02*
X20460970Y-7325360D01*
X20460970Y-7325360D02*
X20460970Y-5925820D01*
X9986010Y-7825740D02*
X11385550Y-7825740D01*
X11385550Y-7825740D02*
X11385550Y-9225280D01*
X11385550Y-9225280D02*
X9986010Y-9225280D01*
X9986010Y-9225280D02*
X9986010Y-7825740D01*
X10935970Y-5925820D02*
X12335510Y-5925820D01*
X12335510Y-5925820D02*
X12335510Y-7325360D01*
X12335510Y-7325360D02*
X10935970Y-7325360D01*
X10935970Y-7325360D02*
X10935970Y-5925820D01*
X29983430Y-3114040D02*
X31382970Y-3114040D01*
X31382970Y-3114040D02*
X31382970Y-4513580D01*
X31382970Y-4513580D02*
X29983430Y-4513580D01*
X29983430Y-4513580D02*
X29983430Y-3114040D01*
X27367230Y-13548360D02*
X28766770Y-13548360D01*
X28766770Y-13548360D02*
X28766770Y-14947900D01*
X28766770Y-14947900D02*
X27367230Y-14947900D01*
X27367230Y-14947900D02*
X27367230Y-13548360D01*
X20935950Y-11635740D02*
X22335490Y-11635740D01*
X22335490Y-11635740D02*
X22335490Y-13035280D01*
X22335490Y-13035280D02*
X20935950Y-13035280D01*
X20935950Y-13035280D02*
X20935950Y-11635740D01*
X25226010Y-7825740D02*
X26625550Y-7825740D01*
X26625550Y-7825740D02*
X26625550Y-9225280D01*
X26625550Y-9225280D02*
X25226010Y-9225280D01*
X25226010Y-9225280D02*
X25226010Y-7825740D01*
X17125950Y-11635740D02*
X18525490Y-11635740D01*
X18525490Y-11635740D02*
X18525490Y-13035280D01*
X18525490Y-13035280D02*
X17125950Y-13035280D01*
X17125950Y-13035280D02*
X17125950Y-11635740D01*
X23793450Y-9733280D02*
X25192990Y-9733280D01*
X25192990Y-9733280D02*
X25192990Y-11132820D01*
X25192990Y-11132820D02*
X23793450Y-11132820D01*
X23793450Y-11132820D02*
X23793450Y-9733280D01*
X17606010Y-7825740D02*
X19005550Y-7825740D01*
X19005550Y-7825740D02*
X19005550Y-9225280D01*
X19005550Y-9225280D02*
X17606010Y-9225280D01*
X17606010Y-9225280D02*
X17606010Y-7825740D01*
X34276030Y-11635740D02*
X35675570Y-11635740D01*
X35675570Y-11635740D02*
X35675570Y-13035280D01*
X35675570Y-13035280D02*
X34276030Y-13035280D01*
X34276030Y-13035280D02*
X34276030Y-11635740D01*
X19983450Y-9733280D02*
X21382990Y-9733280D01*
X21382990Y-9733280D02*
X21382990Y-11132820D01*
X21382990Y-11132820D02*
X19983450Y-11132820D01*
X19983450Y-11132820D02*
X19983450Y-9733280D01*
X23321010Y-7825740D02*
X24720550Y-7825740D01*
X24720550Y-7825740D02*
X24720550Y-9225280D01*
X24720550Y-9225280D02*
X23321010Y-9225280D01*
X23321010Y-9225280D02*
X23321010Y-7825740D01*
X3313430Y-3114040D02*
X4712970Y-3114040D01*
X4712970Y-3114040D02*
X4712970Y-4513580D01*
X4712970Y-4513580D02*
X3313430Y-4513580D01*
X3313430Y-4513580D02*
X3313430Y-3114040D01*
X3554730Y-13548360D02*
X4954270Y-13548360D01*
X4954270Y-13548360D02*
X4954270Y-14947900D01*
X4954270Y-14947900D02*
X3554730Y-14947900D01*
X3554730Y-14947900D02*
X3554730Y-13548360D01*
X32371030Y-13548360D02*
X33770570Y-13548360D01*
X33770570Y-13548360D02*
X33770570Y-14947900D01*
X33770570Y-14947900D02*
X32371030Y-14947900D01*
X32371030Y-14947900D02*
X32371030Y-13548360D01*
X34276030Y-13548360D02*
X35675570Y-13548360D01*
X35675570Y-13548360D02*
X35675570Y-14947900D01*
X35675570Y-14947900D02*
X34276030Y-14947900D01*
X34276030Y-14947900D02*
X34276030Y-13548360D01*
X24268430Y-3114040D02*
X25667970Y-3114040D01*
X25667970Y-3114040D02*
X25667970Y-4513580D01*
X25667970Y-4513580D02*
X24268430Y-4513580D01*
X24268430Y-4513580D02*
X24268430Y-3114040D01*
X25698450Y-9733280D02*
X27097990Y-9733280D01*
X27097990Y-9733280D02*
X27097990Y-11132820D01*
X27097990Y-11132820D02*
X25698450Y-11132820D01*
X25698450Y-11132820D02*
X25698450Y-9733280D01*
X22365970Y-5925820D02*
X23765510Y-5925820D01*
X23765510Y-5925820D02*
X23765510Y-7325360D01*
X23765510Y-7325360D02*
X22365970Y-7325360D01*
X22365970Y-7325360D02*
X22365970Y-5925820D01*
X11891010Y-7825740D02*
X13290550Y-7825740D01*
X13290550Y-7825740D02*
X13290550Y-9225280D01*
X13290550Y-9225280D02*
X11891010Y-9225280D01*
X11891010Y-9225280D02*
X11891010Y-7825740D01*
X12840970Y-5925820D02*
X14240510Y-5925820D01*
X14240510Y-5925820D02*
X14240510Y-7325360D01*
X14240510Y-7325360D02*
X12840970Y-7325360D01*
X12840970Y-7325360D02*
X12840970Y-5925820D01*
X27131010Y-7825740D02*
X28530550Y-7825740D01*
X28530550Y-7825740D02*
X28530550Y-9225280D01*
X28530550Y-9225280D02*
X27131010Y-9225280D01*
X27131010Y-9225280D02*
X27131010Y-7825740D01*
X7600950Y-11635740D02*
X9000490Y-11635740D01*
X9000490Y-11635740D02*
X9000490Y-13035280D01*
X9000490Y-13035280D02*
X7600950Y-13035280D01*
X7600950Y-13035280D02*
X7600950Y-11635740D01*
X9028430Y-3114040D02*
X10427970Y-3114040D01*
X10427970Y-3114040D02*
X10427970Y-4513580D01*
X10427970Y-4513580D02*
X9028430Y-4513580D01*
X9028430Y-4513580D02*
X9028430Y-3114040D01*
X3313430Y-5925820D02*
X4712970Y-5925820D01*
X4712970Y-5925820D02*
X4712970Y-7325360D01*
X4712970Y-7325360D02*
X3313430Y-7325360D01*
X3313430Y-7325360D02*
X3313430Y-5925820D01*
X18078450Y-9733280D02*
X19477990Y-9733280D01*
X19477990Y-9733280D02*
X19477990Y-11132820D01*
X19477990Y-11132820D02*
X18078450Y-11132820D01*
X18078450Y-11132820D02*
X18078450Y-9733280D01*
X10933430Y-3114040D02*
X12332970Y-3114040D01*
X12332970Y-3114040D02*
X12332970Y-4513580D01*
X12332970Y-4513580D02*
X10933430Y-4513580D01*
X10933430Y-4513580D02*
X10933430Y-3114040D01*
X21888450Y-9733280D02*
X23287990Y-9733280D01*
X23287990Y-9733280D02*
X23287990Y-11132820D01*
X23287990Y-11132820D02*
X21888450Y-11132820D01*
X21888450Y-11132820D02*
X21888450Y-9733280D01*
X15220950Y-11635740D02*
X16620490Y-11635740D01*
X16620490Y-11635740D02*
X16620490Y-13035280D01*
X16620490Y-13035280D02*
X15220950Y-13035280D01*
X15220950Y-13035280D02*
X15220950Y-11635740D01*
X36186110Y-7825740D02*
X37585650Y-7825740D01*
X37585650Y-7825740D02*
X37585650Y-9225280D01*
X37585650Y-9225280D02*
X36186110Y-9225280D01*
X36186110Y-9225280D02*
X36186110Y-7825740D01*
X9505950Y-11635740D02*
X10905490Y-11635740D01*
X10905490Y-11635740D02*
X10905490Y-13035280D01*
X10905490Y-13035280D02*
X9505950Y-13035280D01*
X9505950Y-13035280D02*
X9505950Y-11635740D01*
X22840950Y-11635740D02*
X24240490Y-11635740D01*
X24240490Y-11635740D02*
X24240490Y-13035280D01*
X24240490Y-13035280D02*
X22840950Y-13035280D01*
X22840950Y-13035280D02*
X22840950Y-11635740D01*
X16173450Y-9733280D02*
X17572990Y-9733280D01*
X17572990Y-9733280D02*
X17572990Y-11132820D01*
X17572990Y-11132820D02*
X16173450Y-11132820D01*
X16173450Y-11132820D02*
X16173450Y-9733280D01*
X24270970Y-5925820D02*
X25670510Y-5925820D01*
X25670510Y-5925820D02*
X25670510Y-7325360D01*
X25670510Y-7325360D02*
X24270970Y-7325360D01*
X24270970Y-7325360D02*
X24270970Y-5925820D01*
X4027170Y-9733280D02*
X5426710Y-9733280D01*
X5426710Y-9733280D02*
X5426710Y-11132820D01*
X5426710Y-11132820D02*
X4027170Y-11132820D01*
X4027170Y-11132820D02*
X4027170Y-9733280D01*
X8317230Y-13548360D02*
X9716770Y-13548360D01*
X9716770Y-13548360D02*
X9716770Y-14947900D01*
X9716770Y-14947900D02*
X8317230Y-14947900D01*
X8317230Y-14947900D02*
X8317230Y-13548360D01*
X34276030Y-3114040D02*
X35675570Y-3114040D01*
X35675570Y-3114040D02*
X35675570Y-4513580D01*
X35675570Y-4513580D02*
X34276030Y-4513580D01*
X34276030Y-4513580D02*
X34276030Y-3114040D01*
X24982170Y-13548360D02*
X26381710Y-13548360D01*
X26381710Y-13548360D02*
X26381710Y-14947900D01*
X26381710Y-14947900D02*
X24982170Y-14947900D01*
X24982170Y-14947900D02*
X24982170Y-13548360D01*
D11*
X3065780Y-2599690D02*
X37840920Y-2599690D01*
X37840920Y-2599690D02*
X37840920Y-15419070D01*
X37840920Y-15419070D02*
X3065780Y-15419070D01*
X3065780Y-15419070D02*
X3065780Y-2599690D01*
D12*
X36123287Y-5215890D02*
G75*
G03*
X36123287Y-5215890I-194987J0D01*
G01*
X34218287Y-5215890D02*
G75*
G03*
X34218287Y-5215890I-194987J0D01*
G01*
X25519380Y-5160010D02*
G75*
G03*
X25519380Y-5160010I-177800J0D01*
G01*
D13*
X17543780Y-5241290D02*
G75*
G03*
X17543780Y-5241290I-254000J0D01*
G01*
D12*
X35170787Y-5215890D02*
G75*
G03*
X35170787Y-5215890I-194987J0D01*
G01*
X24218900Y-5160010D02*
G75*
G03*
X24218900Y-5160010I-177800J0D01*
G01*
D14*
X5906721Y-12104733D02*
X6059440Y-12104733D01*
X6059440Y-12104733D02*
X6059440Y-11781616D01*
X6059440Y-11781616D02*
X6232008Y-11781616D01*
X6232008Y-11781616D02*
X6232008Y-11689510D01*
X6232008Y-11689510D02*
X6562060Y-11689510D01*
X6562060Y-11689510D02*
X6562060Y-11781615D01*
X6562060Y-11781615D02*
X6734628Y-11781615D01*
X6734628Y-11781615D02*
X6734628Y-12104732D01*
X6734628Y-12104732D02*
X6817205Y-12104732D01*
X6817205Y-12104732D02*
X6817205Y-12384733D01*
X6817205Y-12384733D02*
X6734628Y-12384733D01*
X6734628Y-12384733D02*
X6734628Y-13011935D01*
X6734628Y-13011935D02*
X6562060Y-13011935D01*
X6562060Y-13011935D02*
X6562060Y-13110076D01*
X6562060Y-13110076D02*
X6232008Y-13110076D01*
X6232008Y-13110076D02*
X6232008Y-13011935D01*
X6232008Y-13011935D02*
X6059440Y-13011935D01*
X6059440Y-13011935D02*
X6059440Y-12564871D01*
X6059440Y-12564871D02*
X5906721Y-12564871D01*
X5906721Y-12564871D02*
X5906721Y-13034936D01*
X5906721Y-13034936D02*
X4506377Y-13034936D01*
X4506377Y-13034936D02*
X4506377Y-12564872D01*
X4506377Y-12564872D02*
X4353738Y-12564872D01*
X4353738Y-12564872D02*
X4353738Y-13011935D01*
X4353738Y-13011935D02*
X4181171Y-13011935D01*
X4181171Y-13011935D02*
X4181171Y-13110077D01*
X4181171Y-13110077D02*
X3850960Y-13110077D01*
X3850960Y-13110077D02*
X3850960Y-13011935D01*
X3850960Y-13011935D02*
X3678603Y-13011935D01*
X3678603Y-13011935D02*
X3678603Y-12384734D01*
X3678603Y-12384734D02*
X3595973Y-12384734D01*
X3595973Y-12384734D02*
X3595973Y-12104733D01*
X3595973Y-12104733D02*
X3678603Y-12104733D01*
X3678603Y-12104733D02*
X3678603Y-11781616D01*
X3678603Y-11781616D02*
X3850960Y-11781616D01*
X3850960Y-11781616D02*
X3850960Y-11689510D01*
X3850960Y-11689510D02*
X4181171Y-11689510D01*
X4181171Y-11689510D02*
X4181171Y-11781616D01*
X4181171Y-11781616D02*
X4353738Y-11781616D01*
X4353738Y-11781616D02*
X4353738Y-12104733D01*
X4353738Y-12104733D02*
X4506377Y-12104733D01*
X4506377Y-12104733D02*
X4506377Y-11634510D01*
X4506377Y-11634510D02*
X5906721Y-11634510D01*
X5906721Y-11634510D02*
X5906721Y-12104733D01*
X30432961Y-6394813D02*
X30585680Y-6394813D01*
X30585680Y-6394813D02*
X30585680Y-6071696D01*
X30585680Y-6071696D02*
X30758248Y-6071696D01*
X30758248Y-6071696D02*
X30758248Y-5979590D01*
X30758248Y-5979590D02*
X31088300Y-5979590D01*
X31088300Y-5979590D02*
X31088300Y-6071695D01*
X31088300Y-6071695D02*
X31260868Y-6071695D01*
X31260868Y-6071695D02*
X31260868Y-6394812D01*
X31260868Y-6394812D02*
X31343445Y-6394812D01*
X31343445Y-6394812D02*
X31343445Y-6674813D01*
X31343445Y-6674813D02*
X31260868Y-6674813D01*
X31260868Y-6674813D02*
X31260868Y-7302015D01*
X31260868Y-7302015D02*
X31088300Y-7302015D01*
X31088300Y-7302015D02*
X31088300Y-7400156D01*
X31088300Y-7400156D02*
X30758248Y-7400156D01*
X30758248Y-7400156D02*
X30758248Y-7302015D01*
X30758248Y-7302015D02*
X30585680Y-7302015D01*
X30585680Y-7302015D02*
X30585680Y-6854951D01*
X30585680Y-6854951D02*
X30432961Y-6854951D01*
X30432961Y-6854951D02*
X30432961Y-7325016D01*
X30432961Y-7325016D02*
X29032617Y-7325016D01*
X29032617Y-7325016D02*
X29032617Y-6854952D01*
X29032617Y-6854952D02*
X28879978Y-6854952D01*
X28879978Y-6854952D02*
X28879978Y-7302015D01*
X28879978Y-7302015D02*
X28707411Y-7302015D01*
X28707411Y-7302015D02*
X28707411Y-7400157D01*
X28707411Y-7400157D02*
X28377200Y-7400157D01*
X28377200Y-7400157D02*
X28377200Y-7302015D01*
X28377200Y-7302015D02*
X28204843Y-7302015D01*
X28204843Y-7302015D02*
X28204843Y-6674814D01*
X28204843Y-6674814D02*
X28122213Y-6674814D01*
X28122213Y-6674814D02*
X28122213Y-6394813D01*
X28122213Y-6394813D02*
X28204843Y-6394813D01*
X28204843Y-6394813D02*
X28204843Y-6071696D01*
X28204843Y-6071696D02*
X28377200Y-6071696D01*
X28377200Y-6071696D02*
X28377200Y-5979590D01*
X28377200Y-5979590D02*
X28707411Y-5979590D01*
X28707411Y-5979590D02*
X28707411Y-6071696D01*
X28707411Y-6071696D02*
X28879978Y-6071696D01*
X28879978Y-6071696D02*
X28879978Y-6394813D01*
X28879978Y-6394813D02*
X29032617Y-6394813D01*
X29032617Y-6394813D02*
X29032617Y-5924590D01*
X29032617Y-5924590D02*
X30432961Y-5924590D01*
X30432961Y-5924590D02*
X30432961Y-6394813D01*
X30191661Y-10202273D02*
X30344380Y-10202273D01*
X30344380Y-10202273D02*
X30344380Y-9879156D01*
X30344380Y-9879156D02*
X30516948Y-9879156D01*
X30516948Y-9879156D02*
X30516948Y-9787050D01*
X30516948Y-9787050D02*
X30847000Y-9787050D01*
X30847000Y-9787050D02*
X30847000Y-9879155D01*
X30847000Y-9879155D02*
X31019568Y-9879155D01*
X31019568Y-9879155D02*
X31019568Y-10202272D01*
X31019568Y-10202272D02*
X31102145Y-10202272D01*
X31102145Y-10202272D02*
X31102145Y-10482273D01*
X31102145Y-10482273D02*
X31019568Y-10482273D01*
X31019568Y-10482273D02*
X31019568Y-11109475D01*
X31019568Y-11109475D02*
X30847000Y-11109475D01*
X30847000Y-11109475D02*
X30847000Y-11207616D01*
X30847000Y-11207616D02*
X30516948Y-11207616D01*
X30516948Y-11207616D02*
X30516948Y-11109475D01*
X30516948Y-11109475D02*
X30344380Y-11109475D01*
X30344380Y-11109475D02*
X30344380Y-10662411D01*
X30344380Y-10662411D02*
X30191661Y-10662411D01*
X30191661Y-10662411D02*
X30191661Y-11132476D01*
X30191661Y-11132476D02*
X28791317Y-11132476D01*
X28791317Y-11132476D02*
X28791317Y-10662412D01*
X28791317Y-10662412D02*
X28638678Y-10662412D01*
X28638678Y-10662412D02*
X28638678Y-11109475D01*
X28638678Y-11109475D02*
X28466111Y-11109475D01*
X28466111Y-11109475D02*
X28466111Y-11207617D01*
X28466111Y-11207617D02*
X28135900Y-11207617D01*
X28135900Y-11207617D02*
X28135900Y-11109475D01*
X28135900Y-11109475D02*
X27963543Y-11109475D01*
X27963543Y-11109475D02*
X27963543Y-10482274D01*
X27963543Y-10482274D02*
X27880913Y-10482274D01*
X27880913Y-10482274D02*
X27880913Y-10202273D01*
X27880913Y-10202273D02*
X27963543Y-10202273D01*
X27963543Y-10202273D02*
X27963543Y-9879156D01*
X27963543Y-9879156D02*
X28135900Y-9879156D01*
X28135900Y-9879156D02*
X28135900Y-9787050D01*
X28135900Y-9787050D02*
X28466111Y-9787050D01*
X28466111Y-9787050D02*
X28466111Y-9879156D01*
X28466111Y-9879156D02*
X28638678Y-9879156D01*
X28638678Y-9879156D02*
X28638678Y-10202273D01*
X28638678Y-10202273D02*
X28791317Y-10202273D01*
X28791317Y-10202273D02*
X28791317Y-9732050D01*
X28791317Y-9732050D02*
X30191661Y-9732050D01*
X30191661Y-9732050D02*
X30191661Y-10202273D01*
D10*
X16859058Y-14018021D02*
X20821382Y-14018021D01*
X20821382Y-14018021D02*
X20821382Y-13694971D01*
X20821382Y-13694971D02*
X20993884Y-13694971D01*
X20993884Y-13694971D02*
X20993884Y-13603162D01*
X20993884Y-13603162D02*
X21323978Y-13603162D01*
X21323978Y-13603162D02*
X21323978Y-13694971D01*
X21323978Y-13694971D02*
X21496480Y-13694971D01*
X21496480Y-13694971D02*
X21496480Y-14018021D01*
X21496480Y-14018021D02*
X21578870Y-14018021D01*
X21578870Y-14018021D02*
X21578870Y-14297945D01*
X21578870Y-14297945D02*
X21496480Y-14297945D01*
X21496480Y-14297945D02*
X21496480Y-14924996D01*
X21496480Y-14924996D02*
X21323978Y-14924996D01*
X21323978Y-14924996D02*
X21323978Y-15023154D01*
X21323978Y-15023154D02*
X20993884Y-15023154D01*
X20993884Y-15023154D02*
X20993884Y-14924996D01*
X20993884Y-14924996D02*
X20821383Y-14924996D01*
X20821383Y-14924996D02*
X20821383Y-14478123D01*
X20821383Y-14478123D02*
X16859058Y-14478123D01*
X16859058Y-14478123D02*
X16859058Y-14948014D01*
X16859058Y-14948014D02*
X15458989Y-14948014D01*
X15458989Y-14948014D02*
X15458989Y-14478123D01*
X15458989Y-14478123D02*
X11496664Y-14478123D01*
X11496664Y-14478123D02*
X11496664Y-14924996D01*
X11496664Y-14924996D02*
X11324133Y-14924996D01*
X11324133Y-14924996D02*
X11324133Y-15023154D01*
X11324133Y-15023154D02*
X10994071Y-15023154D01*
X10994071Y-15023154D02*
X10994071Y-14924996D01*
X10994071Y-14924996D02*
X10821566Y-14924996D01*
X10821566Y-14924996D02*
X10821566Y-14297945D01*
X10821566Y-14297945D02*
X10739150Y-14297945D01*
X10739150Y-14297945D02*
X10739150Y-14018021D01*
X10739150Y-14018021D02*
X10821566Y-14018021D01*
X10821566Y-14018021D02*
X10821566Y-13694971D01*
X10821566Y-13694971D02*
X10994071Y-13694971D01*
X10994071Y-13694971D02*
X10994071Y-13603162D01*
X10994071Y-13603162D02*
X11324133Y-13603162D01*
X11324133Y-13603162D02*
X11324133Y-13694971D01*
X11324133Y-13694971D02*
X11496664Y-13694971D01*
X11496664Y-13694971D02*
X11496664Y-14018021D01*
X11496664Y-14018021D02*
X15458989Y-14018021D01*
X15458989Y-14018021D02*
X15458989Y-13548130D01*
X15458989Y-13548130D02*
X16859058Y-13548130D01*
X16859058Y-13548130D02*
X16859058Y-14018021D01*
D14*
X29724301Y-12104733D02*
X29877020Y-12104733D01*
X29877020Y-12104733D02*
X29877020Y-11781616D01*
X29877020Y-11781616D02*
X30049588Y-11781616D01*
X30049588Y-11781616D02*
X30049588Y-11689510D01*
X30049588Y-11689510D02*
X30379640Y-11689510D01*
X30379640Y-11689510D02*
X30379640Y-11781615D01*
X30379640Y-11781615D02*
X30552208Y-11781615D01*
X30552208Y-11781615D02*
X30552208Y-12104732D01*
X30552208Y-12104732D02*
X30634785Y-12104732D01*
X30634785Y-12104732D02*
X30634785Y-12384733D01*
X30634785Y-12384733D02*
X30552208Y-12384733D01*
X30552208Y-12384733D02*
X30552208Y-13011935D01*
X30552208Y-13011935D02*
X30379640Y-13011935D01*
X30379640Y-13011935D02*
X30379640Y-13110076D01*
X30379640Y-13110076D02*
X30049588Y-13110076D01*
X30049588Y-13110076D02*
X30049588Y-13011935D01*
X30049588Y-13011935D02*
X29877020Y-13011935D01*
X29877020Y-13011935D02*
X29877020Y-12564871D01*
X29877020Y-12564871D02*
X29724301Y-12564871D01*
X29724301Y-12564871D02*
X29724301Y-13034936D01*
X29724301Y-13034936D02*
X28323957Y-13034936D01*
X28323957Y-13034936D02*
X28323957Y-12564872D01*
X28323957Y-12564872D02*
X28171318Y-12564872D01*
X28171318Y-12564872D02*
X28171318Y-13011935D01*
X28171318Y-13011935D02*
X27998751Y-13011935D01*
X27998751Y-13011935D02*
X27998751Y-13110077D01*
X27998751Y-13110077D02*
X27668540Y-13110077D01*
X27668540Y-13110077D02*
X27668540Y-13011935D01*
X27668540Y-13011935D02*
X27496183Y-13011935D01*
X27496183Y-13011935D02*
X27496183Y-12384734D01*
X27496183Y-12384734D02*
X27413553Y-12384734D01*
X27413553Y-12384734D02*
X27413553Y-12104733D01*
X27413553Y-12104733D02*
X27496183Y-12104733D01*
X27496183Y-12104733D02*
X27496183Y-11781616D01*
X27496183Y-11781616D02*
X27668540Y-11781616D01*
X27668540Y-11781616D02*
X27668540Y-11689510D01*
X27668540Y-11689510D02*
X27998751Y-11689510D01*
X27998751Y-11689510D02*
X27998751Y-11781616D01*
X27998751Y-11781616D02*
X28171318Y-11781616D01*
X28171318Y-11781616D02*
X28171318Y-12104733D01*
X28171318Y-12104733D02*
X28323957Y-12104733D01*
X28323957Y-12104733D02*
X28323957Y-11634510D01*
X28323957Y-11634510D02*
X29724301Y-11634510D01*
X29724301Y-11634510D02*
X29724301Y-12104733D01*
D15*
X3318399Y-15734546D02*
X3318399Y-15534546D01*
X3366018Y-15534546D01*
X3394589Y-15544070D01*
X3413637Y-15563118D01*
X3423161Y-15582165D01*
X3432685Y-15620260D01*
X3432685Y-15648832D01*
X3423161Y-15686927D01*
X3413637Y-15705975D01*
X3394589Y-15725022D01*
X3366018Y-15734546D01*
X3318399Y-15734546D01*
X3518399Y-15734546D02*
X3518399Y-15601213D01*
X3518399Y-15639308D02*
X3527923Y-15620260D01*
X3537447Y-15610737D01*
X3556494Y-15601213D01*
X3575542Y-15601213D01*
X3642208Y-15734546D02*
X3642208Y-15601213D01*
X3642208Y-15534546D02*
X3632685Y-15544070D01*
X3642208Y-15553594D01*
X3651732Y-15544070D01*
X3642208Y-15534546D01*
X3642208Y-15553594D01*
X3766018Y-15734546D02*
X3746970Y-15725022D01*
X3737447Y-15705975D01*
X3737447Y-15534546D01*
X3870780Y-15734546D02*
X3851732Y-15725022D01*
X3842208Y-15705975D01*
X3842208Y-15534546D01*
X4099351Y-15734546D02*
X4099351Y-15534546D01*
X4166018Y-15677403D01*
X4232685Y-15534546D01*
X4232685Y-15734546D01*
X4413637Y-15734546D02*
X4413637Y-15629784D01*
X4404113Y-15610737D01*
X4385066Y-15601213D01*
X4346970Y-15601213D01*
X4327923Y-15610737D01*
X4413637Y-15725022D02*
X4394590Y-15734546D01*
X4346970Y-15734546D01*
X4327923Y-15725022D01*
X4318399Y-15705975D01*
X4318399Y-15686927D01*
X4327923Y-15667879D01*
X4346970Y-15658356D01*
X4394590Y-15658356D01*
X4413637Y-15648832D01*
X4508875Y-15601213D02*
X4508875Y-15801213D01*
X4508875Y-15610737D02*
X4527923Y-15601213D01*
X4566018Y-15601213D01*
X4585066Y-15610737D01*
X4594590Y-15620260D01*
X4604113Y-15639308D01*
X4604113Y-15696451D01*
X4594590Y-15715498D01*
X4585066Y-15725022D01*
X4566018Y-15734546D01*
X4527923Y-15734546D01*
X4508875Y-15725022D01*
X4689828Y-15715498D02*
X4699351Y-15725022D01*
X4689828Y-15734546D01*
X4680304Y-15725022D01*
X4689828Y-15715498D01*
X4689828Y-15734546D01*
X4689828Y-15610737D02*
X4699351Y-15620260D01*
X4689828Y-15629784D01*
X4680304Y-15620260D01*
X4689828Y-15610737D01*
X4689828Y-15629784D01*
M02*
